<?xml version="1.0" encoding="utf-8"?><svg viewBox="0 0 40 40" xmlns="http://www.w3.org/2000/svg" xmlns:xlink="http://www.w3.org/1999/xlink"><style>:root>svg{display:none}:root>svg:target{display:block}</style><svg  viewBox="0 0 40 40" id="bag" xmlns="http://www.w3.org/2000/svg"><path d="M12.5 14v-2.5a7.5 7.5 0 0 1 15 0V14M6.25 14A1.25 1.25 0 0 0 5 15.25v16.875C5 34.487 7.013 36.5 9.375 36.5h21.25c2.362 0 4.375-1.915 4.375-4.277V15.25A1.25 1.25 0 0 0 33.75 14H6.25Z"  stroke-width="2.5" stroke-linecap="round" stroke-linejoin="round"/><path d="M12.5 17.5v1.25a7.5 7.5 0 0 0 15 0V17.5"  stroke-width="2.5" stroke-linecap="round" stroke-linejoin="round"/></svg><svg  viewBox="0 0 40 40" id="close" xmlns="http://www.w3.org/2000/svg"><path d="M10.375 8.018a1.667 1.667 0 0 0-2.357 2.357L17.643 20l-9.626 9.625a1.666 1.666 0 1 0 2.356 2.357L20 22.357l9.625 9.625a1.666 1.666 0 0 0 2.357-2.357L22.357 20l9.625-9.625a1.667 1.667 0 0 0-2.357-2.357L20 17.643l-9.625-9.625Z" /></svg><svg  viewBox="0 0 40 40" id="mailru" xmlns="http://www.w3.org/2000/svg"><path d="M35 20a15 15 0 1 0-11.117 14.488"  stroke-width="2" stroke-linecap="round"/><path d="M20 26.667a6.667 6.667 0 1 0 0-13.334 6.667 6.667 0 0 0 0 13.334Z"  stroke-width="2"/><path d="M26.667 15v7.5a4.167 4.167 0 1 0 8.333 0V20"  stroke-width="2" stroke-linecap="round"/></svg><svg  viewBox="0 0 28 28" id="search" xmlns="http://www.w3.org/2000/svg"><path d="M11.813 2.625a9.187 9.187 0 1 0 0 18.375 9.151 9.151 0 0 0 5.677-1.963l6.019 6.018a1.096 1.096 0 0 0 1.784-.355 1.096 1.096 0 0 0-.237-1.192l-6.02-6.018a9.188 9.188 0 0 0-7.224-14.864Zm-7 9.188a7 7 0 1 1 14 0 7 7 0 0 1-14 0Z" /></svg><svg  viewBox="0 0 40 40" id="telegram" xmlns="http://www.w3.org/2000/svg"><path d="M35.502 4.789c-.39.017-.77.126-1.111.262-.339.137-2.288.968-5.166 2.199-2.878 1.23-6.62 2.833-10.328 4.422C11.48 14.85 4.19 17.977 4.19 17.977l.053-.02s-.44.146-.886.457a2.463 2.463 0 0 0-.66.648c-.196.293-.34.707-.285 1.146.19 1.54 1.785 1.976 1.785 1.976l.007.003 7.122 2.438c.181.606 2.16 7.21 2.595 8.608.24.773.465 1.219.7 1.523.117.152.24.27.377.356.053.035.11.06.167.083h.003l.02.007-.019-.005c.013.005.026.014.04.018.025.01.04.01.073.016.816.285 1.49-.244 1.49-.244l.029-.022 4.375-4.057 7.1 5.536.089.04c1.242.552 2.366.244 2.989-.262.622-.507.867-1.16.867-1.16l.026-.068L37.466 7.8c.133-.608.152-1.134.026-1.609a1.87 1.87 0 0 0-.815-1.117 2.07 2.07 0 0 0-1.175-.286Zm.042 1.627c.158-.008.275.01.312.032.037.022.054.02.09.153.035.134.054.417-.043.858l-.003.01-5.188 27.034c-.012.027-.12.277-.367.478-.252.205-.531.365-1.275.053l-7.764-6.054-.219-.172-.004.004-2.322-1.742L31.809 11.72a.8.8 0 0 0-1.053-1.185L11.875 23.122 4.742 20.68s-.708-.395-.742-.67c-.002-.014-.01 0 .027-.055.036-.055.129-.148.245-.228.232-.162.497-.26.497-.26l.026-.01.027-.01s7.29-3.127 14.706-6.305c3.709-1.589 7.45-3.19 10.327-4.42 2.876-1.23 4.955-2.115 5.131-2.186.2-.08.4-.113.558-.12Zm-8.653 8.618-9.896 11.643-.004.004a.818.818 0 0 0-.088.125.798.798 0 0 0-.104.314l-1.29 5.797c-.021-.063-.036-.085-.059-.16-.41-1.316-2.276-7.544-2.534-8.405l13.975-9.318Zm-8.778 13.55 1.778 1.335-2.613 2.421.835-3.756Z" /></svg><svg  viewBox="0 0 40 40" id="whatsapp" xmlns="http://www.w3.org/2000/svg"><g clip-path="url(#fa)"><mask id="fb" ><path d="M20 1.6C9.854 1.6 1.6 9.855 1.6 20c0 3.168.818 6.283 2.37 9.032l-2.34 8.352a.8.8 0 0 0 .962.993l8.717-2.16A18.411 18.411 0 0 0 20 38.4c10.146 0 18.4-8.254 18.4-18.4C38.4 9.854 30.146 1.6 20 1.6Zm9.256 24.893c-.394 1.09-2.282 2.084-3.189 2.218-.814.119-1.845.17-2.976-.185a27.685 27.685 0 0 1-2.693-.983c-4.738-2.021-7.832-6.732-8.07-7.044-.235-.31-1.928-2.528-1.928-4.824 0-2.295 1.22-3.424 1.654-3.89.433-.468.944-.585 1.26-.585.315 0 .63.004.905.017.29.014.68-.11 1.063.8.394.935 1.339 3.23 1.456 3.465.118.233.196.506.04.817-.157.311-.236.506-.472.779-.237.273-.496.608-.71.817-.236.233-.482.485-.206.952.275.467 1.223 1.995 2.628 3.231 1.804 1.59 3.326 2.082 3.798 2.316.472.233.748.194 1.023-.117.275-.312 1.181-1.363 1.495-1.829.315-.466.63-.39 1.064-.233.433.155 2.756 1.283 3.228 1.516.472.234.787.35.905.545.119.194.119 1.128-.275 2.217Z"/></mask><path d="M20 1.6C9.854 1.6 1.6 9.855 1.6 20c0 3.168.818 6.283 2.37 9.032l-2.34 8.352a.8.8 0 0 0 .962.993l8.717-2.16A18.411 18.411 0 0 0 20 38.4c10.146 0 18.4-8.254 18.4-18.4C38.4 9.854 30.146 1.6 20 1.6Zm9.256 24.893c-.394 1.09-2.282 2.084-3.189 2.218-.814.119-1.845.17-2.976-.185a27.685 27.685 0 0 1-2.693-.983c-4.738-2.021-7.832-6.732-8.07-7.044-.235-.31-1.928-2.528-1.928-4.824 0-2.295 1.22-3.424 1.654-3.89.433-.468.944-.585 1.26-.585.315 0 .63.004.905.017.29.014.68-.11 1.063.8.394.935 1.339 3.23 1.456 3.465.118.233.196.506.04.817-.157.311-.236.506-.472.779-.237.273-.496.608-.71.817-.236.233-.482.485-.206.952.275.467 1.223 1.995 2.628 3.231 1.804 1.59 3.326 2.082 3.798 2.316.472.233.748.194 1.023-.117.275-.312 1.181-1.363 1.495-1.829.315-.466.63-.39 1.064-.233.433.155 2.756 1.283 3.228 1.516.472.234.787.35.905.545.119.194.119 1.128-.275 2.217Z"  stroke-width="2" mask="url(#fb)"/></g><defs><clipPath id="fa"><path  d="M0 0h40v40H0z"/></clipPath></defs></svg><svg  viewBox="0 0 40 40" id="youtube" xmlns="http://www.w3.org/2000/svg"><path d="M19.522 7.2c-5.281 0-10.24.4-12.881.96-1.76.4-3.282 1.6-3.6 3.44-.32 1.919-.641 4.8-.641 8.4 0 3.6.319 6.4.719 8.4.322 1.76 1.84 3.04 3.6 3.44 2.803.56 7.6.96 12.881.96 5.281 0 10.078-.4 12.878-.96 1.763-.4 3.281-1.6 3.6-3.44.322-2 .722-4.878.8-8.478 0-3.6-.4-6.481-.8-8.481C35.76 9.68 34.241 8.4 32.478 8c-2.8-.4-7.678-.8-12.956-.8Zm0 1.6c5.76 0 10.397.478 12.637.878 1.2.322 2.16 1.122 2.32 2.163.48 2.559.8 5.28.8 8.08-.079 3.438-.479 6.238-.8 8.238-.238 1.52-1.838 2-2.32 2.163-2.88.56-7.68.956-12.48.956-4.8 0-9.679-.319-12.479-.956C6 30 5.04 29.2 4.881 28.159 4.241 25.92 4 22.96 4 20c0-3.681.322-6.4.64-8.078.241-1.522 1.92-2.003 2.32-2.163C9.6 9.2 14.48 8.8 19.521 8.8ZM15.2 13.6v12.8L26.4 20l-11.2-6.4Zm1.6 2.722L23.2 20l-6.4 3.678v-7.356Z" /></svg></svg>