<svg width="40" height="40" viewBox="0 0 40 40" fill="none" xmlns="http://www.w3.org/2000/svg">
<path d="M35 20C35.0001 16.8658 34.0184 13.8103 32.1928 11.2627C30.3672 8.71503 27.7894 6.80323 24.8215 5.79578C21.8537 4.78834 18.6447 4.73586 15.6455 5.64572C12.6463 6.55558 10.0074 8.38207 8.09946 10.8687C6.19154 13.3552 5.11044 16.377 5.00802 19.5095C4.90559 22.6421 5.78697 25.728 7.52837 28.3339C9.26978 30.9398 11.7837 32.9348 14.7171 34.0387C17.6505 35.1425 20.856 35.2998 23.8833 34.4884" stroke="#FF7048" stroke-width="2" stroke-linecap="round"/>
<path d="M20 26.6666C23.6819 26.6666 26.6666 23.6818 26.6666 19.9999C26.6666 16.318 23.6819 13.3333 20 13.3333C16.3181 13.3333 13.3333 16.318 13.3333 19.9999C13.3333 23.6818 16.3181 26.6666 20 26.6666Z" stroke="#FF7048" stroke-width="2"/>
<path d="M26.6667 15V22.5C26.6667 23.6051 27.1057 24.6649 27.8871 25.4463C28.6685 26.2277 29.7283 26.6667 30.8334 26.6667C31.9384 26.6667 32.9982 26.2277 33.7796 25.4463C34.561 24.6649 35 23.6051 35 22.5V20" stroke="#FF7048" stroke-width="2" stroke-linecap="round"/>
</svg>
