<svg width="40" height="40" viewBox="0 0 40 40" fill="none" xmlns="http://www.w3.org/2000/svg">
<path d="M29.5312 24.2761L30.3843 23.7544C30.5479 24.0218 30.5789 24.328 30.5904 24.4716C30.6063 24.6712 30.6027 24.8974 30.5818 25.1358C30.54 25.6148 30.4232 26.2056 30.1965 26.8326L28.6256 23.7313C28.7183 23.7772 28.805 23.8186 28.8853 23.8569C29.2139 24.0138 29.4361 24.1199 29.5312 24.2761ZM29.5312 24.2761L30.3853 23.7559C30.1775 23.4148 29.8583 23.2318 29.6875 23.1392C29.5759 23.0787 29.4199 23.004 29.2755 22.9348C29.201 22.8992 29.1297 22.865 29.0692 22.8351C28.828 22.7157 28.1248 22.3731 27.4274 22.0407C26.763 21.7242 26.0149 21.3736 25.7362 21.2735M29.5312 24.2761L25.7362 21.2735M25.7362 21.2735C25.7304 21.2715 25.7245 21.2693 25.7184 21.2671C25.5233 21.1967 25.1332 21.056 24.7083 21.1043C24.1612 21.1665 23.7721 21.4933 23.5052 21.8891C23.2665 22.2433 22.5709 23.0623 22.2124 23.4746C22.119 23.4303 22.0078 23.3823 21.8806 23.3273C21.1982 23.0327 20.0523 22.538 18.6786 21.328L18.6784 21.3279C17.546 20.3309 16.7251 19.1109 16.3695 18.5355C16.5334 18.3639 16.7257 18.1332 16.8802 17.9477C16.9502 17.8637 17.0124 17.7889 17.0608 17.7332C17.3526 17.3971 17.4953 17.106 17.6153 16.8611C17.6342 16.8227 17.6525 16.7854 17.6707 16.7493C18.0323 16.0315 17.8147 15.3974 17.6331 15.0365C17.6322 15.0346 17.6278 15.0252 17.6186 15.0048C17.6075 14.9801 17.593 14.9471 17.575 14.9056C17.539 14.8228 17.4924 14.7136 17.4373 14.5833C17.3273 14.3232 17.1868 13.9873 17.0369 13.6275C16.9397 13.3944 16.8385 13.1511 16.7394 12.9128C16.534 12.419 16.3375 11.9464 16.2041 11.6297L25.7362 21.2735ZM4.93333 29.302L5.04541 28.9021L4.84122 28.5404C3.37411 25.942 2.60003 22.9962 2.60003 20.0001C2.60003 10.4068 10.4067 2.6001 20 2.6001C29.5933 2.6001 37.4 10.4068 37.4 20.0001C37.4 29.5934 29.5933 37.4001 20 37.4001C17.1328 37.4001 14.2977 36.6872 11.7818 35.3366L11.4424 35.1544L11.0684 35.247L2.68512 37.3236L4.93333 29.302ZM28.3889 28.8053C29.0676 28.3759 29.8818 27.7037 30.1965 26.8329L16.204 11.6295C15.9672 11.067 15.6411 10.609 15.1383 10.3748C14.7204 10.1801 14.169 10.2132 14.2688 10.2181L14.2656 10.218C13.967 10.2041 13.635 10.2001 13.3136 10.2001C12.7726 10.2001 11.9763 10.3974 11.3207 11.1038C11.294 11.1325 11.2635 11.1646 11.2297 11.2002C10.7082 11.7484 9.40003 13.1238 9.40003 15.6753C9.40003 17.0508 9.90107 18.3445 10.3867 19.2887C10.8737 20.2357 11.3912 20.9179 11.5273 21.0972L11.532 21.1036L11.5323 21.1039C11.5319 21.1034 11.5356 21.1083 11.5459 21.1228L11.5899 21.1848L11.5973 21.1953C11.6331 21.2459 11.68 21.3123 11.7365 21.391C11.8578 21.5603 12.0234 21.787 12.2304 22.0564C12.6441 22.5944 13.2237 23.3033 13.9504 24.0685C15.395 25.5894 17.4627 27.3776 20.0061 28.4623C21.177 28.9617 22.0923 29.2595 22.7907 29.4795L22.7917 29.4798C24.1205 29.897 25.3174 29.8309 26.2121 29.7L26.2129 29.6998C26.852 29.6057 27.6844 29.251 28.3889 28.8053Z" stroke="#FF7048" stroke-width="2"/>
</svg>
