<svg width="143" height="36" viewBox="0 0 143 36" fill="none" xmlns="http://www.w3.org/2000/svg">
<g clip-path="url(#clip0_301_373)">
<path d="M97.295 0.00286689C99.3401 -0.0437013 101.435 0.386588 102.954 1.78922C103.771 2.55485 104.385 3.5122 104.741 4.57493C105.092 5.63254 105.286 6.73624 105.317 7.85054C105.317 7.86101 105.315 7.87143 105.312 7.88119C105.308 7.89095 105.302 7.89986 105.295 7.90739C105.288 7.91493 105.279 7.92095 105.269 7.9251C105.26 7.92925 105.249 7.93145 105.239 7.93157C103.902 7.94833 102.499 7.95113 101.03 7.93995C100.844 7.93995 100.666 7.93156 100.494 7.91759C100.462 7.91516 100.433 7.90144 100.411 7.879C100.389 7.85656 100.376 7.82691 100.375 7.79558C100.351 7.23443 100.228 6.68185 100.014 6.16291C99.5539 5.10488 98.5732 4.78169 97.4865 4.8087C96.3537 4.83664 95.6389 5.39173 95.3421 6.47398C95.2291 6.8804 95.171 7.30013 95.1692 7.72201C95.1642 10.9507 95.1642 14.2257 95.1692 17.547C95.1692 18.957 95.6516 20.3336 97.2616 20.4631C98.47 20.5562 99.6543 20.2265 100.139 19.0073C100.317 18.5371 100.423 18.042 100.451 17.5395C100.453 17.507 100.468 17.4765 100.492 17.4543C100.515 17.432 100.547 17.4195 100.579 17.4194H105.277C105.292 17.4172 105.308 17.4187 105.323 17.4235C105.337 17.4284 105.351 17.4367 105.362 17.4476C105.373 17.4585 105.381 17.4718 105.386 17.4864C105.391 17.5011 105.393 17.5167 105.391 17.5321C105.383 18.3817 105.267 19.2269 105.044 20.0467C104.903 20.6424 104.685 21.2175 104.398 21.7577C103.477 23.4155 102.103 24.4813 100.275 24.955C98.8295 25.3199 97.3254 25.3893 95.8524 25.159C93.4067 24.8051 91.4835 23.3512 90.6125 21.0303C90.1552 19.8102 90.0232 18.5156 90.025 17.1688C90.0294 13.9277 90.0312 10.7542 90.0306 7.64843C90.0373 6.73792 90.1623 5.83216 90.4024 4.954C90.7157 3.73018 91.3729 2.62211 92.2959 1.76128C93.5973 0.539333 95.435 0.0457096 97.295 0.00286689Z" fill="#EE2128"/>
<path d="M53.5421 25.0193C53.5266 25.0012 53.5064 24.9878 53.4837 24.9806C53.4611 24.9734 53.4369 24.9726 53.4138 24.9783C52.1758 25.2773 50.8956 25.3598 49.6296 25.2223C46.7285 24.9345 44.3925 23.3028 43.4342 20.5115C43.0683 19.4372 42.8826 18.3095 42.8848 17.1744C42.8774 14.181 42.8774 11.1696 42.8848 8.14019C42.8863 7.01562 43.0748 5.89916 43.4425 4.83664C43.9516 3.29247 44.9982 1.98336 46.391 1.14845C48.1572 0.0745835 50.5545 -0.120071 52.619 0.217082C55.2413 0.645509 57.2761 2.28098 58.1573 4.77238C58.4259 5.5333 58.6004 6.32434 58.6769 7.1278C58.7215 7.59286 58.7423 8.21377 58.7392 8.99053C58.7268 11.6604 58.7234 14.3614 58.729 17.0934C58.7349 18.3176 58.5266 19.5335 58.1136 20.6857C57.8241 21.4801 57.3894 22.2135 56.8317 22.8483C56.8081 22.8765 56.7952 22.9121 56.7952 22.9489C56.7952 22.9857 56.8081 23.0213 56.8317 23.0495L58.5979 25.1739C58.6036 25.1805 58.608 25.1881 58.6107 25.1964C58.6134 25.2046 58.6145 25.2134 58.6138 25.222C58.6131 25.2307 58.6107 25.2392 58.6067 25.2469C58.6027 25.2546 58.5971 25.2615 58.5904 25.267L55.8873 27.6066C55.8686 27.6235 55.8442 27.6329 55.819 27.6329C55.7938 27.6329 55.7695 27.6235 55.7507 27.6066C55.6315 27.4993 55.5206 27.3832 55.4188 27.2592C54.7898 26.5011 54.1643 25.7544 53.5421 25.0193ZM48.0224 17.2825C48.0228 17.9727 48.1886 18.6527 48.5058 19.2653C49.0542 20.2535 50.086 20.5515 51.1522 20.4612C52.9239 20.3103 53.569 18.8071 53.569 17.235C53.574 14.3676 53.574 11.364 53.569 8.22402C53.569 6.85305 53.1331 5.32934 51.6105 4.97076C51.0306 4.8303 50.424 4.8454 49.8518 5.01453C48.3078 5.46904 48.0038 7.07285 48.0048 8.47362C48.0097 11.3832 48.0156 14.3195 48.0224 17.2825Z" fill="#EE2128"/>
<path d="M28.7148 16.7011C28.6889 16.6878 28.6602 16.6808 28.6311 16.6806C28.1564 16.6769 27.6644 16.6769 27.155 16.6806C27.1162 16.6803 27.0782 16.6909 27.0453 16.7114C27.0124 16.7318 26.986 16.7612 26.9691 16.7961L23.183 24.7565C23.169 24.7912 23.1445 24.8207 23.1131 24.8409C23.0816 24.8611 23.0446 24.871 23.0073 24.8692C21.2182 24.8822 19.5277 24.8773 17.9357 24.8543C17.8992 24.856 17.8628 24.85 17.8288 24.8366C17.8214 24.8342 17.8146 24.8301 17.809 24.8246C17.8034 24.8191 17.7992 24.8124 17.7966 24.805C17.7941 24.7975 17.7933 24.7896 17.7944 24.7819C17.7955 24.7741 17.7983 24.7667 17.8028 24.7602C19.2814 21.7799 20.7687 18.7889 22.2646 15.7875C22.277 15.7683 22.2852 15.7467 22.2887 15.724C22.2921 15.7014 22.2907 15.6783 22.2846 15.6563C22.2784 15.6343 22.2676 15.6138 22.253 15.5963C22.2383 15.5788 22.2201 15.5645 22.1995 15.5546C20.0132 14.1576 19.1423 11.8096 18.9814 9.3061C18.8957 7.99756 19.0392 6.68409 19.4053 5.4251C19.7171 4.3063 20.3179 3.28972 21.1472 2.47797C21.9764 1.66622 23.0048 1.08805 24.1284 0.801813C24.9173 0.594219 25.7295 0.489043 26.5452 0.488874C28.8065 0.478318 31.1585 0.478318 33.6014 0.488874C33.628 0.488874 33.6536 0.49947 33.6724 0.518334C33.6912 0.537198 33.7018 0.562785 33.7018 0.589463V24.7751C33.7031 24.7908 33.6988 24.8065 33.6896 24.8193C33.6804 24.8322 33.6669 24.8412 33.6516 24.845C33.606 24.858 33.5587 24.864 33.5112 24.8627C32.081 24.8757 30.5357 24.8757 28.8756 24.8627C28.8474 24.8624 28.8204 24.851 28.8006 24.831C28.7807 24.8109 28.7696 24.7838 28.7696 24.7556V16.7877C28.7692 16.7697 28.7638 16.7521 28.7542 16.7368C28.7445 16.7216 28.7309 16.7092 28.7148 16.7011ZM28.7687 11.845V5.31427C28.7684 5.27705 28.7536 5.24142 28.7273 5.2151C28.701 5.18877 28.6655 5.17388 28.6283 5.17364H26.6195C25.1983 5.17364 24.0466 6.44215 24.0466 8.00591V9.15335C24.0466 10.718 25.1983 11.9856 26.6195 11.9856H28.6283C28.6467 11.9856 28.665 11.982 28.682 11.9749C28.6991 11.9679 28.7145 11.9575 28.7276 11.9444C28.7406 11.9314 28.7509 11.9159 28.758 11.8988C28.765 11.8817 28.7687 11.8635 28.7687 11.845Z" fill="#EE2128"/>
<path d="M69.0237 25.252C67.2148 25.1319 65.4626 24.4939 64.2291 23.1965C63.5485 22.4968 63.0216 21.6621 62.6823 20.7461C62.4179 20.0044 62.2395 19.2347 62.1506 18.4522C62.0874 17.8626 62.0589 17.2699 62.0651 16.677C62.0732 11.2577 62.0753 5.89209 62.0716 0.580213C62.0716 0.557401 62.0806 0.535508 62.0966 0.519291C62.1126 0.503074 62.1344 0.493842 62.1571 0.493597C63.6388 0.478695 65.1363 0.472796 66.6497 0.475901C66.8002 0.474115 66.9506 0.484077 67.0995 0.505702C67.1171 0.506869 67.1343 0.51156 67.1501 0.519499C67.1659 0.527437 67.1799 0.538462 67.1913 0.551921C67.2028 0.565379 67.2114 0.580998 67.2167 0.597855C67.222 0.614712 67.2239 0.632466 67.2222 0.650065C67.2222 6.15442 67.2222 11.6184 67.2222 17.0421C67.2222 18.5509 67.6312 20.2217 69.403 20.4453C70.7294 20.612 71.8198 20.0578 72.2111 18.7316C72.3642 18.2177 72.4421 17.6844 72.4426 17.1482V0.559723C72.4426 0.542345 72.4494 0.525666 72.4616 0.513291C72.4738 0.500916 72.4903 0.493841 72.5077 0.493597C74.034 0.478695 75.6635 0.47683 77.3962 0.488006C77.4472 0.488358 77.4979 0.495884 77.5468 0.510361C77.5574 0.513437 77.5667 0.519943 77.5732 0.52887C77.5798 0.537796 77.5832 0.548642 77.583 0.559723C77.5768 6.22614 77.5768 11.6628 77.583 16.8698C77.5871 17.4874 77.5477 18.1046 77.4649 18.7167C77.3667 19.5015 77.1648 20.2698 76.8645 21.0013C75.4339 24.3197 72.4398 25.4793 69.0237 25.252Z" fill="#EE2128"/>
<path d="M86.2771 0.487061H81.6089C81.536 0.487061 81.4769 0.546273 81.4769 0.619314V24.7379C81.4769 24.8109 81.536 24.8702 81.6089 24.8702H86.2771C86.35 24.8702 86.4091 24.8109 86.4091 24.7379V0.619314C86.4091 0.546273 86.35 0.487061 86.2771 0.487061Z" fill="#EE2128"/>
<path d="M114.462 15.688C114.014 16.3437 113.574 17.0388 113.143 17.7733C113.116 17.8197 113.101 17.8724 113.101 17.9261V24.7986C113.101 24.8115 113.097 24.824 113.088 24.8337C113.08 24.8435 113.068 24.8499 113.056 24.8517C112.932 24.8692 112.808 24.8773 112.684 24.8759C111.382 24.8759 110.053 24.8709 108.696 24.861C108.583 24.861 108.469 24.8554 108.352 24.847C108.338 24.8478 108.325 24.8456 108.312 24.8405C108.299 24.8354 108.288 24.8275 108.278 24.8175C108.269 24.8074 108.262 24.7954 108.258 24.7823C108.254 24.7692 108.253 24.7554 108.254 24.7418C108.246 17.0841 108.248 9.48232 108.26 1.93641C108.26 1.49308 108.264 1.03671 108.272 0.567306C108.271 0.556446 108.272 0.545449 108.276 0.535151C108.279 0.524853 108.285 0.515529 108.293 0.50789C108.301 0.500252 108.31 0.494501 108.321 0.491078C108.331 0.487655 108.342 0.48665 108.353 0.488139L113.001 0.483484C113.02 0.481927 113.04 0.488181 113.055 0.500898C113.07 0.513616 113.08 0.53178 113.082 0.551474C113.092 0.610215 113.097 0.669727 113.097 0.729365C113.097 3.55699 113.097 6.39485 113.097 9.24296C113.097 9.28718 113.104 9.33117 113.117 9.37335C113.168 9.53541 113.228 9.53913 113.303 9.38452C113.768 8.37772 114.232 7.35136 114.743 6.35946C115.734 4.43464 116.726 2.50982 117.717 0.585002C117.731 0.554581 117.754 0.529015 117.782 0.511588C117.811 0.494161 117.844 0.485671 117.877 0.48721C119.402 0.477896 121.034 0.477896 122.771 0.48721C122.927 0.48721 123.092 0.491866 123.265 0.50118C123.279 0.501902 123.291 0.507941 123.301 0.51802C123.31 0.5281 123.315 0.541429 123.315 0.555198C123.315 0.561679 123.313 0.568049 123.31 0.573826C123.244 0.72317 123.17 0.868691 123.088 1.0097C121.129 4.38869 119.192 7.72422 117.277 11.0163C117.255 11.0539 117.243 11.0965 117.242 11.14C117.241 11.1835 117.251 11.2266 117.272 11.2649L124.393 24.7697C124.396 24.7757 124.399 24.7823 124.399 24.789C124.4 24.7958 124.399 24.8026 124.397 24.8091C124.395 24.8156 124.392 24.8217 124.388 24.8269C124.383 24.8321 124.378 24.8364 124.372 24.8396C124.366 24.8424 124.36 24.8443 124.353 24.8452C124.222 24.8608 124.09 24.8685 123.957 24.8684H119.495C119.31 24.8684 119.124 24.8629 118.947 24.8498C118.924 24.8494 118.901 24.8424 118.882 24.8295C118.863 24.8166 118.848 24.7985 118.838 24.7772L114.485 15.6871C114.479 15.6759 114.47 15.675 114.462 15.688Z" fill="#EE2128"/>
<path d="M7.27278 11.7016C6.05228 10.6072 4.1718 10.8429 3.03125 11.9037C2.69719 12.2007 2.42886 12.5644 2.24348 12.9715C2.0581 13.3786 1.95977 13.82 1.95483 14.2675C1.93438 15.2491 2.23152 16.0839 2.84627 16.7719C3.16486 17.1193 3.55316 17.3954 3.98569 17.5819C4.41822 17.7684 4.88521 17.8612 5.35605 17.8542C6.74294 17.8094 7.86584 16.6322 8.61878 15.5257C8.63147 15.5072 8.64998 15.4935 8.67138 15.4867C8.69278 15.48 8.71582 15.4806 8.73682 15.4885C8.75945 15.4976 8.78073 15.5099 8.80003 15.5248C9.25056 15.8881 9.68806 16.2454 10.1126 16.5968C10.1257 16.608 10.1345 16.6235 10.1374 16.6405C10.1402 16.6575 10.1371 16.675 10.1284 16.6899C9.97902 16.9346 9.82192 17.1805 9.65708 17.4276C8.55184 19.0882 6.96139 19.8119 5.00376 19.7355C1.51702 19.6005 -0.804066 16.1609 0.263057 12.8509C0.758816 11.3234 1.71935 10.2263 3.14466 9.55943C4.15239 9.0862 5.28763 8.95876 6.3749 9.1968C7.46217 9.43485 8.44089 10.0251 9.15977 10.8764C9.33824 11.0862 9.51981 11.2936 9.70448 11.4985C10.0986 11.9394 10.6195 12.1545 11.2671 12.144C12.6447 12.1235 13.9913 12.1253 15.3069 12.1496C15.3516 12.1503 15.3954 12.1621 15.4345 12.1839C15.4735 12.2057 15.5067 12.2367 15.5309 12.2744C15.8978 12.8456 16.2532 13.3957 16.5971 13.9247C16.6179 13.9562 16.6307 13.9924 16.6343 14.03C16.6348 14.0349 16.6343 14.0398 16.6329 14.0445C16.6315 14.0493 16.6292 14.0536 16.6261 14.0575C16.623 14.0613 16.6191 14.0644 16.6148 14.0667C16.6105 14.0691 16.6057 14.0705 16.6008 14.071H16.5962L8.90228 14.0039C8.86265 14.0065 8.82322 13.9964 8.78977 13.9749C8.75631 13.9535 8.73059 13.9218 8.71637 13.8847C8.35757 13.0623 7.9467 12.306 7.27278 11.7016Z" fill="#EE2128"/>
<path d="M125.228 13.8261C124.87 13.8261 124.526 13.8177 124.196 13.8009C124.18 13.8003 124.165 13.7963 124.151 13.789C124.136 13.7818 124.124 13.7716 124.114 13.759L122.864 12.1561C122.838 12.1226 122.846 12.103 122.888 12.0975C123.085 12.0742 123.283 12.0627 123.48 12.063C129.819 12.063 136.123 12.063 142.391 12.063C142.577 12.063 142.763 12.1021 142.949 12.0881C143.007 12.0881 143.011 12.0975 142.963 12.1291C142.256 12.5948 141.441 12.9869 140.647 13.3483C140.196 13.5558 139.721 13.7057 139.233 13.7944C138.738 13.8713 138.238 13.9025 137.738 13.8875C133.325 13.8329 129.155 13.8124 125.228 13.8261Z" fill="#EE2128"/>
<path d="M40.6613 12.0928H36.073C36.0027 12.0928 35.9457 12.1499 35.9457 12.2204V13.8242C35.9457 13.8946 36.0027 13.9518 36.073 13.9518H40.6613C40.7316 13.9518 40.7886 13.8946 40.7886 13.8242V12.2204C40.7886 12.1499 40.7316 12.0928 40.6613 12.0928Z" fill="#EE2128"/>
<path d="M17.3148 32.023C17.536 31.8759 17.7442 31.7129 17.9961 31.6188C18.3227 31.4985 18.6729 31.4564 19.0186 31.4959C19.845 31.589 20.4669 32.2307 20.4288 33.0708C20.3767 34.2043 19.4276 34.8031 18.3531 34.6811C16.8658 34.5116 16.5293 33.0047 16.7728 31.7706C16.9284 30.992 17.3873 30.4714 18.1495 30.2087C18.7262 30.0146 19.3192 29.8727 19.9212 29.785C19.9352 29.7813 19.9498 29.781 19.964 29.784C19.9781 29.7871 19.9913 29.7934 20.0026 29.8024C20.0138 29.8114 20.0229 29.823 20.0289 29.8361C20.035 29.8493 20.0379 29.8636 20.0374 29.8781L20.0532 30.1007C20.0562 30.114 20.0563 30.1279 20.0533 30.1413C20.0504 30.1547 20.0445 30.1672 20.0362 30.1781C20.0278 30.1889 20.0172 30.1978 20.0051 30.2041C19.9929 30.2103 19.9795 30.2138 19.9658 30.2143C18.9127 30.4229 17.2785 30.5412 17.2423 31.9839C17.2421 31.9898 17.2432 31.9956 17.2453 32.0011C17.2474 32.0066 17.2506 32.0115 17.2547 32.0158C17.2587 32.02 17.2636 32.0234 17.2689 32.0258C17.2743 32.0281 17.2801 32.0294 17.286 32.0295C17.296 32.0306 17.3061 32.0283 17.3148 32.023ZM18.552 34.2583C19.0735 34.2816 19.5262 34.072 19.7697 33.6063C20.1155 32.932 19.7697 32.1162 19.0261 31.9615C18.7115 31.8911 18.3831 31.9154 18.0823 32.0314C17.7814 32.1474 17.5215 32.3499 17.3352 32.6135C17.2978 32.6624 17.2708 32.7184 17.2559 32.7782C17.2411 32.838 17.2386 32.9002 17.2488 32.9609C17.377 33.7935 17.8115 34.2266 18.552 34.2602V34.2583Z" fill="#EE2128"/>
<path d="M27.0481 32.9674C27.0481 33.7125 27.6485 34.2071 28.3717 34.2536C28.7463 34.2819 29.1216 34.2089 29.4584 34.0422C29.5355 34.0049 29.5764 34.0292 29.5792 34.1149L29.5857 34.2927C29.59 34.3327 29.5805 34.3729 29.5588 34.4068C29.5372 34.4407 29.5047 34.4661 29.4667 34.479C28.3513 34.9447 27.0611 34.7091 26.5916 33.4908C26.5138 33.2944 26.4806 33.083 26.4946 32.8721C26.5086 32.6612 26.5694 32.4561 26.6725 32.2717C27.2172 31.2239 28.3457 31.0535 29.3887 31.4158C29.4271 31.4263 29.4607 31.4497 29.4841 31.4821C29.5074 31.5144 29.519 31.5538 29.5169 31.5936V31.7911C29.5169 31.8768 29.4797 31.9029 29.4007 31.8703C28.7157 31.5909 27.9218 31.575 27.3845 32.1283C27.2754 32.2385 27.1894 32.3696 27.1316 32.5137C27.0738 32.6579 27.0454 32.8121 27.0481 32.9674Z" fill="#EE2128"/>
<path d="M65.1726 32.4488C64.7878 33.2088 65.3297 34.0619 66.1198 34.2184C66.5721 34.3176 67.0447 34.256 67.4565 34.0442C67.5281 34.007 67.5662 34.0284 67.5709 34.1094L67.582 34.3059C67.5848 34.3453 67.5751 34.3846 67.5542 34.4181C67.5334 34.4515 67.5024 34.4775 67.4658 34.4922C66.3634 34.9318 65.0778 34.7269 64.613 33.5199C64.5184 33.2889 64.4843 33.0375 64.5139 32.7895C64.5435 32.5416 64.6359 32.3054 64.7822 32.1033C65.1788 31.5109 65.7511 31.2278 66.4991 31.2538C66.8097 31.2617 67.1168 31.3222 67.4073 31.4327C67.4419 31.4469 67.4715 31.4714 67.4921 31.5028C67.5127 31.5342 67.5233 31.5711 67.5225 31.6087L67.5169 31.795C67.5169 31.8844 67.4751 31.9114 67.3915 31.876C66.5995 31.5305 65.5956 31.6115 65.1726 32.4488Z" fill="#EE2128"/>
<path d="M76.792 32.9619C76.7985 33.9221 75.9368 34.7073 74.8659 34.7147C73.7951 34.7222 72.9222 33.9501 72.9139 32.9889C72.9055 32.0277 73.77 31.2426 74.8399 31.2352C75.9098 31.2277 76.7854 31.997 76.792 32.9619ZM76.251 32.9805C76.251 32.2625 75.63 31.6766 74.8566 31.6766C74.0832 31.6766 73.4623 32.2541 73.4558 32.9712C73.4558 33.6893 74.0768 34.2751 74.8501 34.2751C75.6235 34.2751 76.2444 33.6986 76.251 32.9815V32.9805Z" fill="#EE2128"/>
<path d="M96.1656 34.2107V35.8872C96.1673 35.8982 96.1664 35.9094 96.163 35.92C96.1596 35.9306 96.1538 35.9402 96.146 35.9481C96.1383 35.9561 96.1288 35.9621 96.1183 35.9658C96.1079 35.9694 96.0967 35.9706 96.0857 35.9691L95.7324 35.9747C95.7217 35.975 95.711 35.9731 95.7009 35.9691C95.6909 35.9651 95.6818 35.9592 95.6741 35.9517C95.6663 35.9441 95.6602 35.9351 95.6561 35.9251C95.6519 35.9152 95.6497 35.9045 95.6497 35.8937V31.439C95.6476 31.4232 95.6491 31.4071 95.6542 31.3919C95.6593 31.3768 95.6678 31.363 95.679 31.3517C95.6902 31.3403 95.7039 31.3317 95.719 31.3265C95.734 31.3213 95.7501 31.3196 95.7659 31.3216H96.0448C96.0602 31.3197 96.0759 31.3212 96.0907 31.326C96.1056 31.3307 96.1192 31.3387 96.1307 31.3492C96.1421 31.3597 96.1512 31.3726 96.1572 31.387C96.1633 31.4014 96.1661 31.4169 96.1656 31.4325L96.1888 31.7119C96.1888 31.7519 96.2102 31.7603 96.2428 31.737C96.396 31.6176 96.5596 31.5123 96.7317 31.4222C97.1357 31.2312 97.5932 31.1862 98.0266 31.2946C98.7374 31.461 99.1758 31.918 99.3419 32.6656C99.3952 32.9756 99.365 33.2942 99.2545 33.5886C98.9416 34.3001 98.3996 34.669 97.6287 34.695C97.3738 34.7067 97.1191 34.6671 96.8796 34.5786C96.6402 34.4902 96.4208 34.3547 96.2344 34.18C96.187 34.1446 96.1656 34.1539 96.1656 34.2107ZM96.1712 32.4551C96.16 32.7954 96.16 33.121 96.1712 33.4321C96.1766 33.5465 96.2231 33.655 96.3023 33.7376C96.6047 34.071 96.9498 34.2452 97.3378 34.2601C97.8462 34.2796 98.3268 34.1148 98.6048 33.6733C98.8979 33.2077 98.8979 32.7382 98.6048 32.2651C98.4399 32.0097 98.1877 31.8232 97.8955 31.7408C97.2423 31.5762 96.6899 31.7572 96.2381 32.2837C96.1975 32.3319 96.174 32.3921 96.1712 32.4551Z" fill="#EE2128"/>
<path d="M100.703 33.0875C100.681 33.0875 100.66 33.0962 100.644 33.1118C100.629 33.1273 100.62 33.1484 100.62 33.1704C100.619 33.1778 100.619 33.1853 100.62 33.1928C100.931 34.3467 102.262 34.478 103.198 34.0254C103.265 33.9928 103.299 34.0142 103.298 34.0887V34.3076C103.299 34.3368 103.292 34.3658 103.277 34.3911C103.262 34.4164 103.241 34.4372 103.215 34.451C103.108 34.5139 102.992 34.5604 102.871 34.5889C102.208 34.7565 101.51 34.7574 100.91 34.4026C100.716 34.2942 100.547 34.1453 100.415 33.966C100.283 33.7867 100.19 33.5812 100.144 33.3632C99.8838 32.1822 100.754 31.2145 101.944 31.2471C102.976 31.276 103.583 32.0388 103.582 33.0111C103.583 33.0213 103.582 33.0315 103.579 33.0412C103.575 33.0509 103.57 33.0597 103.563 33.0669C103.556 33.0741 103.547 33.0796 103.537 33.0828C103.528 33.0861 103.517 33.087 103.507 33.0856L100.703 33.0875ZM100.672 32.7001L103.024 32.687C103.028 32.687 103.032 32.6854 103.035 32.6824C103.038 32.6794 103.04 32.6754 103.04 32.6712V32.6609C103.04 32.118 102.506 31.6802 101.854 31.6839H101.831C101.181 31.6839 100.653 32.131 100.656 32.674V32.6824C100.656 32.6866 100.658 32.6906 100.661 32.6936C100.664 32.6965 100.668 32.6982 100.672 32.6982V32.7001Z" fill="#EE2128"/>
<path d="M113.051 33.7321C113.565 34.3691 114.496 34.3729 115.189 34.0562C115.249 34.0292 115.282 34.0487 115.282 34.1149L115.288 34.3421C115.291 34.3714 115.283 34.4007 115.267 34.4253C115.251 34.4499 115.228 34.4685 115.2 34.4781C114.19 34.8935 113.049 34.7575 112.453 33.7703C112.204 33.3549 112.174 32.7188 112.385 32.308C112.933 31.2379 114.058 31.0423 115.113 31.4149C115.147 31.4249 115.177 31.4462 115.198 31.4754C115.219 31.5046 115.229 31.5401 115.228 31.576L115.233 31.8293C115.233 31.8365 115.231 31.8437 115.229 31.8504C115.226 31.8571 115.222 31.8632 115.217 31.8684C115.212 31.8736 115.206 31.8778 115.2 31.8807C115.193 31.8835 115.186 31.8851 115.179 31.8852C115.171 31.8854 115.163 31.8838 115.156 31.8805C114.518 31.6011 113.727 31.5685 113.192 32.0556C112.959 32.264 112.815 32.5539 112.788 32.8657C112.762 33.1775 112.856 33.4875 113.051 33.7321Z" fill="#EE2128"/>
<path d="M124.524 32.9721C124.524 33.9314 123.656 34.7091 122.585 34.7091C121.514 34.7091 120.646 33.9314 120.646 32.9721C120.646 32.0128 121.514 31.2351 122.585 31.2351C123.656 31.2351 124.524 32.0128 124.524 32.9721ZM123.983 32.9814C123.988 32.2633 123.365 31.6775 122.589 31.671C121.813 31.6645 121.184 32.2438 121.179 32.9619C121.174 33.6799 121.797 34.2658 122.573 34.2714C123.348 34.2769 123.979 33.6995 123.983 32.9814Z" fill="#EE2128"/>
<path d="M34.6843 31.727C35.2476 31.3078 35.8314 31.1337 36.5341 31.3106C37.0819 31.4485 37.4736 31.8114 37.7091 32.3994C38.0809 33.3159 37.4655 34.426 36.5109 34.6347C35.8119 34.7899 35.2011 34.6393 34.6787 34.183C34.6443 34.1532 34.6276 34.1615 34.6276 34.2062V35.8874C34.6293 35.8981 34.6285 35.9091 34.6252 35.9194C34.6219 35.9298 34.6162 35.9392 34.6086 35.947C34.6011 35.9548 34.5917 35.9607 34.5815 35.9642C34.5712 35.9678 34.5603 35.9689 34.5495 35.9675L34.1777 35.9721C34.1682 35.9737 34.1584 35.973 34.1491 35.97C34.1399 35.9671 34.1315 35.962 34.1246 35.9552C34.1177 35.9484 34.1126 35.94 34.1095 35.9308C34.1064 35.9216 34.1056 35.9118 34.1071 35.9023V31.4494C34.1048 31.4324 34.1064 31.4152 34.1119 31.399C34.1173 31.3827 34.1264 31.368 34.1385 31.3558C34.1505 31.3437 34.1651 31.3345 34.1813 31.3289C34.1975 31.3233 34.2147 31.3215 34.2316 31.3237H34.5105C34.5252 31.321 34.5404 31.322 34.5547 31.3265C34.569 31.331 34.582 31.3389 34.5925 31.3495C34.6031 31.3601 34.611 31.3731 34.6155 31.3874C34.62 31.4018 34.621 31.4169 34.6183 31.4317V31.6953C34.6248 31.7512 34.6443 31.7568 34.6843 31.727ZM36.1605 34.2416C36.3602 34.2141 36.5505 34.1395 36.7159 34.024C36.8813 33.9085 37.017 33.7553 37.1119 33.5771C37.2068 33.3989 37.2582 33.2007 37.2618 32.9987C37.2654 32.7967 37.2212 32.5968 37.1328 32.4152C36.6578 31.4308 35.3081 31.4922 34.6955 32.2783C34.6521 32.3339 34.6285 32.4024 34.6286 32.473C34.6286 32.7542 34.6267 33.0616 34.623 33.395C34.623 33.6027 34.7308 33.7378 34.8749 33.87C35.0445 34.0294 35.2496 34.1461 35.4731 34.2104C35.6967 34.2747 35.9323 34.2847 36.1605 34.2398V34.2416Z" fill="#EE2128"/>
<path d="M42.4079 32.9795C42.4079 33.9388 41.5341 34.7137 40.4651 34.71C39.3952 34.71 38.5298 33.9258 38.5335 32.9655C38.5335 32.0062 39.4073 31.2304 40.4772 31.2341C41.5471 31.2379 42.4116 32.0193 42.4079 32.9795ZM41.865 32.9702C41.865 32.2521 41.2404 31.6663 40.4707 31.6663C39.7001 31.6663 39.0764 32.2493 39.0764 32.9702C39.0764 33.6892 39.702 34.2741 40.4707 34.2741C41.2394 34.2741 41.865 33.6892 41.865 32.9702Z" fill="#EE2128"/>
<path d="M91.7121 33.1611C91.7688 33.8001 92.3703 34.1856 92.9763 34.2471C93.4128 34.2981 93.8547 34.2228 94.2498 34.0301C94.3344 33.9882 94.3762 34.0143 94.3734 34.1093L94.3679 34.3198C94.367 34.355 94.3556 34.3891 94.3352 34.4178C94.3149 34.4465 94.2864 34.4685 94.2535 34.4809C93.1 34.9158 91.5578 34.723 91.2176 33.3875C91.1451 33.1278 91.1375 32.8542 91.1955 32.5909C91.2536 32.3276 91.3755 32.0826 91.5504 31.8777C91.9222 31.4139 92.4548 31.2065 93.1483 31.2556C94.1159 31.3236 94.5956 32.0817 94.6597 32.9758C94.6625 32.9902 94.6618 33.005 94.6577 33.0191C94.6537 33.0331 94.6464 33.046 94.6364 33.0567C94.6265 33.0674 94.6141 33.0756 94.6004 33.0807C94.5867 33.0857 94.572 33.0874 94.5575 33.0857H91.7763C91.7677 33.0858 91.7593 33.0876 91.7514 33.091C91.7436 33.0944 91.7365 33.0993 91.7305 33.1055C91.7246 33.1116 91.7199 33.1189 91.7167 33.1268C91.7136 33.1348 91.712 33.1433 91.7121 33.1518V33.1611ZM91.7447 32.7038L94.0834 32.6834C94.0878 32.6834 94.0921 32.6816 94.0952 32.6784C94.0984 32.6753 94.1001 32.671 94.1001 32.6666V32.6573C94.0955 32.1134 93.5684 31.6766 92.9224 31.6821H92.8889C92.2438 31.6887 91.7242 32.1338 91.7289 32.6778V32.6871C91.7288 32.6914 91.7305 32.6955 91.7334 32.6986C91.7364 32.7017 91.7404 32.7036 91.7447 32.7038Z" fill="#EE2128"/>
<path d="M21.9606 32.3491C21.9606 32.3738 21.9704 32.3975 21.9879 32.415C22.0053 32.4324 22.0289 32.4423 22.0536 32.4423C22.4806 32.4311 22.8539 32.4345 23.1737 32.4525C23.8244 32.4898 24.3821 32.812 24.3905 33.5273C24.3965 33.7363 24.3353 33.9417 24.2157 34.1131C23.9294 34.5248 23.4925 34.6077 23.0259 34.6151C22.5134 34.6244 22.0176 34.6229 21.5386 34.6105C21.526 34.612 21.5133 34.6106 21.5013 34.6064C21.4894 34.6023 21.4785 34.5955 21.4696 34.5865C21.4606 34.5775 21.4538 34.5667 21.4497 34.5547C21.4455 34.5427 21.4442 34.5299 21.4457 34.5173L21.4354 31.4438C21.4354 31.4137 21.447 31.3846 21.4677 31.3628C21.4885 31.3409 21.5169 31.3279 21.547 31.3265L21.8509 31.3116C21.8663 31.3074 21.8824 31.3073 21.8979 31.3112C21.9133 31.315 21.9274 31.3228 21.939 31.3337C21.9506 31.3447 21.9591 31.3584 21.9639 31.3736C21.9687 31.3888 21.9695 31.405 21.9662 31.4206L21.9606 32.3491ZM21.9606 32.9405V34.1103C21.9604 34.1215 21.9624 34.1326 21.9665 34.143C21.9705 34.1534 21.9767 34.1628 21.9845 34.1708C21.9923 34.1788 22.0016 34.1851 22.0118 34.1895C22.0221 34.1938 22.0331 34.196 22.0443 34.196H23.051C23.4934 34.196 23.8532 33.9166 23.855 33.559V33.5012C23.855 33.1482 23.499 32.8595 23.0566 32.8576H22.0499C22.0275 32.8576 22.006 32.8664 21.99 32.8821C21.974 32.8977 21.9648 32.9191 21.9643 32.9415L21.9606 32.9405Z" fill="#EE2128"/>
<path d="M105.088 33.0896V34.5202C105.09 34.5316 105.089 34.5433 105.086 34.5543C105.082 34.5653 105.076 34.5753 105.068 34.5835C105.06 34.5917 105.05 34.5979 105.039 34.6017C105.028 34.6054 105.016 34.6065 105.005 34.6049H104.665C104.641 34.6049 104.617 34.5951 104.6 34.5776C104.582 34.5602 104.573 34.5365 104.573 34.5118V31.4383C104.573 31.4076 104.585 31.3782 104.607 31.3566C104.629 31.3349 104.658 31.3228 104.689 31.3228H104.693L105.013 31.3358C105.023 31.3351 105.034 31.3366 105.043 31.3403C105.053 31.344 105.062 31.3498 105.069 31.3573C105.076 31.3648 105.081 31.3738 105.084 31.3836C105.088 31.3934 105.089 31.4038 105.087 31.4141V32.5317C105.087 32.6016 105.12 32.6248 105.186 32.6016C105.223 32.5888 105.258 32.5696 105.288 32.5447C105.775 32.1517 106.261 31.7618 106.749 31.375C106.788 31.344 106.835 31.326 106.885 31.3237L107.429 31.3032C107.433 31.3031 107.437 31.3038 107.44 31.3051C107.444 31.3065 107.447 31.3086 107.45 31.3113C107.453 31.314 107.455 31.3172 107.457 31.3208C107.459 31.3243 107.46 31.3282 107.46 31.3321C107.46 31.3388 107.458 31.3454 107.454 31.3507C107.419 31.3993 107.378 31.4426 107.33 31.4793C106.755 31.93 106.203 32.3613 105.674 32.7729C105.666 32.7794 105.661 32.7887 105.659 32.7989C105.658 32.8091 105.661 32.8195 105.667 32.8279L105.673 32.8344L107.656 34.5006C107.742 34.5742 107.729 34.6114 107.616 34.6124L107.182 34.618C107.09 34.6198 107.001 34.5865 106.933 34.5248L105.174 33.0449C105.117 33.0002 105.088 33.0132 105.088 33.0896Z" fill="#EE2128"/>
<path d="M109.995 33.7833C110.036 33.7162 110.074 33.6469 110.109 33.5756C110.464 32.8454 110.8 32.137 111.118 31.4503C111.135 31.4108 111.163 31.3767 111.197 31.3519C111.232 31.327 111.274 31.3124 111.316 31.3096C111.423 31.2959 111.531 31.2959 111.638 31.3096C111.713 31.3227 111.731 31.3636 111.7 31.4316C111.128 32.5977 110.568 33.7622 110.021 34.9252C109.819 35.3545 109.479 35.8565 109.026 35.9581C108.773 36.0087 108.512 36.0071 108.259 35.9534C108.223 35.9501 108.189 35.9326 108.166 35.9046C108.143 35.8767 108.131 35.8407 108.134 35.8044V35.5958C108.134 35.5138 108.173 35.4849 108.251 35.5082C109 35.7364 109.327 35.2586 109.614 34.6746C109.725 34.4483 109.556 34.2183 109.458 34.0227C109.011 33.1329 108.579 32.2692 108.162 31.4316C108.125 31.3581 108.148 31.3199 108.231 31.318L108.549 31.3115C108.589 31.3086 108.629 31.3183 108.664 31.3394C108.698 31.3604 108.726 31.3917 108.741 31.4288L109.88 33.7712C109.914 33.8504 109.957 33.8523 109.995 33.7833Z" fill="#EE2128"/>
<path d="M25.4 31.3218H25.0969C25.0343 31.3218 24.9835 31.3726 24.9835 31.4354V34.5015C24.9835 34.5642 25.0343 34.6151 25.0969 34.6151H25.4C25.4626 34.6151 25.5134 34.5642 25.5134 34.5015V31.4354C25.5134 31.3726 25.4626 31.3218 25.4 31.3218Z" fill="#EE2128"/>
<path d="M31.9886 31.8052L31.9728 34.5303C31.9728 34.5514 31.9645 34.5717 31.9497 34.5866C31.935 34.6016 31.9148 34.6102 31.8938 34.6104H31.5452C31.5347 34.6106 31.5243 34.6086 31.5146 34.6047C31.5048 34.6008 31.4959 34.595 31.4884 34.5876C31.4809 34.5803 31.4749 34.5715 31.4708 34.5619C31.4667 34.5522 31.4645 34.5418 31.4644 34.5313V31.8229C31.4644 31.8016 31.4559 31.7812 31.4409 31.7662C31.426 31.7512 31.4056 31.7428 31.3844 31.7428L30.2336 31.7353C30.2231 31.7353 30.2127 31.7332 30.203 31.7291C30.1933 31.725 30.1845 31.719 30.1771 31.7115C30.1697 31.7039 30.164 31.695 30.1601 31.6852C30.1562 31.6753 30.1544 31.6648 30.1546 31.6543L30.1621 31.3944C30.163 31.3738 30.1718 31.3542 30.1867 31.3399C30.2016 31.3255 30.2213 31.3174 30.242 31.3171L33.2054 31.3413C33.2265 31.3416 33.2465 31.3501 33.2613 31.3651C33.2761 31.3801 33.2844 31.4004 33.2844 31.4215V31.6366C33.2847 31.6471 33.2828 31.6576 33.2789 31.6675C33.2751 31.6773 33.2693 31.6862 33.2619 31.6938C33.2546 31.7013 33.2458 31.7073 33.2361 31.7114C33.2264 31.7155 33.2159 31.7176 33.2054 31.7176L32.0658 31.7251C32.0451 31.7258 32.0254 31.7346 32.011 31.7495C31.9967 31.7644 31.9886 31.7844 31.9886 31.8052Z" fill="#EE2128"/>
<path d="M55.1641 32.8315C55.1521 32.8382 55.1431 32.8494 55.1393 32.8627C55.1355 32.876 55.1371 32.8902 55.1437 32.9023C55.1469 32.9085 55.1514 32.9139 55.1569 32.9182C55.1623 32.9225 55.1686 32.9257 55.1753 32.9275C55.4808 33.0132 55.6618 33.192 55.7182 33.4639C55.9041 34.372 55.2339 34.616 54.5097 34.616C53.8789 34.616 53.2682 34.6126 52.6776 34.6058C52.6495 34.6058 52.6225 34.5946 52.6027 34.5747C52.5828 34.5548 52.5716 34.5278 52.5716 34.4996L52.5651 31.4354C52.5649 31.4067 52.576 31.379 52.596 31.3584C52.616 31.3378 52.6433 31.326 52.672 31.3255C53.3029 31.3143 53.8851 31.3143 54.4186 31.3255C54.9931 31.3367 55.5685 31.5509 55.5229 32.2494C55.5207 32.3698 55.4862 32.4873 55.4231 32.5897C55.36 32.6921 55.2705 32.7756 55.1641 32.8315ZM53.0968 31.807V32.6639C53.0968 32.6817 53.1039 32.6987 53.1164 32.7113C53.129 32.7239 53.146 32.731 53.1638 32.731H54.3722C54.718 32.731 54.9978 32.5298 54.9987 32.2802V32.1945C54.9987 31.9449 54.7198 31.7418 54.374 31.7409H53.1656C53.1567 31.7407 53.1479 31.7422 53.1397 31.7454C53.1314 31.7486 53.1238 31.7534 53.1174 31.7596C53.111 31.7657 53.1059 31.7731 53.1024 31.7812C53.0988 31.7894 53.0969 31.7981 53.0968 31.807ZM53.0968 33.1836V34.1373C53.0968 34.1539 53.1034 34.1697 53.1151 34.1814C53.1268 34.1931 53.1426 34.1997 53.1591 34.1997L54.5079 34.2044C54.9048 34.2044 55.2283 33.9855 55.2292 33.7117V33.6241C55.2292 33.3512 54.9094 33.1277 54.5116 33.1258H53.1628C53.1546 33.1252 53.1464 33.1262 53.1386 33.1288C53.1308 33.1313 53.1236 33.1354 53.1174 33.1408C53.1111 33.1461 53.1061 33.1527 53.1024 33.16C53.0987 33.1674 53.0965 33.1754 53.0959 33.1836H53.0968Z" fill="#EE2128"/>
<path d="M57.3132 34.6067H56.8921C56.879 34.6065 56.8665 34.6011 56.8573 34.5917C56.848 34.5822 56.8429 34.5696 56.8429 34.5564V31.3898C56.8431 31.3767 56.8483 31.3641 56.8575 31.3548C56.8667 31.3454 56.8791 31.34 56.8921 31.3395L57.316 31.3311C57.3293 31.3311 57.342 31.3362 57.3515 31.3454C57.3611 31.3546 57.3667 31.3672 57.3672 31.3805V32.5782C57.3674 32.5916 57.3729 32.6044 57.3824 32.6138C57.392 32.6232 57.4049 32.6285 57.4183 32.6285C57.429 32.6276 57.4393 32.6237 57.448 32.6173L59.0617 31.3386C59.0709 31.3317 59.0819 31.3278 59.0933 31.3274H59.6315C59.6429 31.3263 59.6542 31.3291 59.6637 31.3353C59.6733 31.3416 59.6804 31.3509 59.684 31.3617C59.6875 31.3725 59.6873 31.3842 59.6834 31.3949C59.6794 31.4056 59.6719 31.4146 59.6622 31.4205L57.9444 32.7812C57.9341 32.7896 57.9275 32.8017 57.9259 32.8149C57.9244 32.8281 57.928 32.8414 57.936 32.852C57.938 32.855 57.9405 32.8575 57.9435 32.8595L59.9411 34.5359C59.9512 34.5446 59.9574 34.5569 59.9585 34.5702C59.9595 34.5834 59.9553 34.5966 59.9467 34.6067C59.942 34.6123 59.9362 34.6168 59.9296 34.6198C59.923 34.6229 59.9158 34.6244 59.9085 34.6244H59.309C59.297 34.6246 59.2854 34.6203 59.2764 34.6123L57.4462 33.0746C57.436 33.0662 57.4229 33.0621 57.4097 33.0632C57.3966 33.0642 57.3843 33.0703 57.3755 33.0802C57.368 33.0894 57.3638 33.1009 57.3634 33.1128L57.3551 34.5667C57.3531 34.5768 57.348 34.5862 57.3405 34.5933C57.333 34.6005 57.3235 34.6052 57.3132 34.6067Z" fill="#EE2128"/>
<path d="M62.2101 33.8355C62.2229 33.8352 62.2354 33.8314 62.2462 33.8245C62.257 33.8176 62.2657 33.8079 62.2714 33.7964C62.6557 32.9892 63.0275 32.2038 63.3869 31.44C63.4029 31.4019 63.4302 31.3697 63.4651 31.3477C63.5001 31.3257 63.5409 31.315 63.5821 31.3171H63.8665C63.9595 31.3171 63.9902 31.3618 63.9484 31.4484C63.3776 32.6369 62.7889 33.8591 62.1822 35.1152C62.014 35.4645 61.6496 35.9031 61.2424 35.9693C60.9981 36.0066 60.7491 36.0022 60.5062 35.9562C60.4794 35.9514 60.455 35.9377 60.4369 35.9172C60.4188 35.8968 60.4082 35.8708 60.4068 35.8435L60.3938 35.6023C60.3891 35.5204 60.4263 35.4887 60.5072 35.5092C60.8418 35.5939 61.1941 35.6116 61.4414 35.3332C61.6003 35.1525 61.8782 34.7892 61.9238 34.5303C61.9324 34.485 61.9255 34.4381 61.9043 34.3971C61.4153 33.4254 60.9196 32.4375 60.417 31.4335C60.377 31.3534 60.4021 31.3134 60.4923 31.3152L60.8074 31.3218C60.8504 31.3209 60.8927 31.3328 60.9289 31.356C60.9652 31.3792 60.9937 31.4127 61.011 31.4522L62.1534 33.802C62.1578 33.8131 62.1658 33.8224 62.176 33.8284C62.1863 33.8345 62.1983 33.837 62.2101 33.8355Z" fill="#EE2128"/>
<path d="M69.1892 33.2469V34.5312C69.1892 34.5559 69.1794 34.5796 69.162 34.5971C69.1445 34.6146 69.1209 34.6244 69.0962 34.6244L68.7616 34.6095C68.7379 34.608 68.7157 34.5976 68.6994 34.5803C68.6832 34.563 68.6742 34.5401 68.6742 34.5163V31.4177C68.6742 31.393 68.684 31.3693 68.7014 31.3518C68.7189 31.3344 68.7425 31.3245 68.7671 31.3245L69.099 31.3162C69.1237 31.3162 69.1473 31.326 69.1647 31.3434C69.1822 31.3609 69.192 31.3846 69.192 31.4093L69.2041 32.6303C69.2041 32.655 69.2138 32.6787 69.2313 32.6962C69.2487 32.7136 69.2724 32.7235 69.297 32.7235H71.3123C71.3369 32.7235 71.3606 32.7136 71.378 32.6962C71.3954 32.6787 71.4052 32.655 71.4052 32.6303V31.4121C71.4052 31.3874 71.415 31.3637 71.4325 31.3462C71.4499 31.3288 71.4735 31.319 71.4982 31.319H71.5038L71.8402 31.3394C71.8636 31.3413 71.8854 31.352 71.9012 31.3692C71.9171 31.3865 71.9259 31.4091 71.9258 31.4326L71.9323 34.52C71.9323 34.5448 71.9225 34.5684 71.9051 34.5859C71.8876 34.6034 71.864 34.6132 71.8393 34.6132H71.5C71.4754 34.6132 71.4517 34.6034 71.4343 34.5859C71.4169 34.5684 71.4071 34.5448 71.4071 34.52L71.3996 33.2404C71.3996 33.2157 71.3899 33.192 71.3724 33.1745C71.355 33.157 71.3313 33.1472 71.3067 33.1472L69.2914 33.1528C69.2784 33.1515 69.2652 33.153 69.2528 33.1571C69.2403 33.1613 69.2289 33.168 69.2193 33.1769C69.2096 33.1858 69.2019 33.1966 69.1967 33.2087C69.1916 33.2207 69.189 33.2337 69.1892 33.2469Z" fill="#EE2128"/>
<path d="M87.4817 31.8153V34.5358C87.4819 34.5466 87.4798 34.5573 87.4758 34.5673C87.4717 34.5773 87.4657 34.5864 87.4581 34.594C87.4505 34.6017 87.4414 34.6077 87.4314 34.6118C87.4214 34.6158 87.4107 34.6179 87.4 34.6177H87.3953L87.0411 34.5972C87.0202 34.5963 87.0004 34.5872 86.986 34.5719C86.9716 34.5566 86.9637 34.5363 86.964 34.5153L86.9594 31.4092C86.9594 31.3875 86.968 31.3666 86.9833 31.3512C86.9986 31.3359 87.0194 31.3272 87.0411 31.3272L90.0715 31.3188C90.0932 31.3188 90.114 31.3275 90.1293 31.3429C90.1446 31.3582 90.1533 31.3791 90.1533 31.4008L90.1616 34.5274C90.1618 34.5382 90.1597 34.5489 90.1557 34.5589C90.1516 34.5689 90.1456 34.578 90.138 34.5856C90.1303 34.5933 90.1213 34.5993 90.1113 34.6034C90.1013 34.6074 90.0906 34.6095 90.0798 34.6094H89.721C89.7103 34.6095 89.6996 34.6074 89.6896 34.6034C89.6796 34.5993 89.6705 34.5933 89.6629 34.5856C89.6553 34.578 89.6493 34.5689 89.6452 34.5589C89.6412 34.5489 89.6391 34.5382 89.6392 34.5274L89.6327 31.8264C89.6327 31.8047 89.6241 31.7839 89.6088 31.7685C89.5934 31.7531 89.5726 31.7445 89.5509 31.7445L87.5663 31.738C87.5447 31.738 87.5238 31.7466 87.5085 31.762C87.4932 31.7773 87.4845 31.7982 87.4845 31.8199L87.4817 31.8153Z" fill="#EE2128"/>
<path d="M119.075 32.7215C119.083 32.7216 119.092 32.7202 119.099 32.7171C119.107 32.7141 119.113 32.7096 119.119 32.7039C119.125 32.6981 119.13 32.6913 119.133 32.6838C119.136 32.6763 119.138 32.6682 119.138 32.6601L119.131 31.4074C119.13 31.3981 119.131 31.3887 119.134 31.3798C119.137 31.3709 119.142 31.3628 119.148 31.3561C119.155 31.3494 119.163 31.3442 119.171 31.341C119.18 31.3378 119.19 31.3366 119.199 31.3375L119.545 31.3282C119.558 31.3266 119.572 31.3281 119.585 31.3326C119.598 31.337 119.61 31.3444 119.62 31.354C119.63 31.3636 119.638 31.3753 119.642 31.3883C119.647 31.4012 119.649 31.415 119.648 31.4288V34.5079C119.648 34.5326 119.638 34.5563 119.621 34.5737C119.603 34.5912 119.58 34.601 119.555 34.601L119.234 34.5861C119.222 34.5876 119.209 34.5862 119.197 34.5821C119.185 34.5779 119.174 34.5711 119.165 34.5622C119.156 34.5532 119.149 34.5423 119.145 34.5303C119.141 34.5183 119.14 34.5056 119.141 34.493V33.2431C119.141 33.2288 119.138 33.2147 119.133 33.2015C119.128 33.1884 119.119 33.1764 119.109 33.1664C119.099 33.1563 119.087 33.1484 119.074 33.143C119.061 33.1376 119.047 33.1349 119.033 33.1351L117 33.1472C116.989 33.1458 116.979 33.1468 116.969 33.1502C116.959 33.1536 116.949 33.1593 116.942 33.1668C116.935 33.1742 116.929 33.1833 116.926 33.1933C116.922 33.2033 116.921 33.214 116.922 33.2245V34.4855C116.925 34.501 116.923 34.5167 116.918 34.5315C116.913 34.5464 116.905 34.5598 116.894 34.5709C116.883 34.582 116.87 34.5904 116.855 34.5954C116.84 34.6005 116.824 34.6021 116.809 34.6001H116.53C116.514 34.603 116.497 34.6018 116.48 34.5968C116.464 34.5917 116.45 34.5829 116.438 34.5711C116.426 34.5593 116.417 34.5447 116.412 34.5287C116.406 34.5127 116.405 34.4957 116.407 34.479V31.4232C116.406 31.4039 116.412 31.3847 116.424 31.3697C116.436 31.3546 116.453 31.3447 116.473 31.3422C116.595 31.3182 116.722 31.3182 116.844 31.3422C116.867 31.3438 116.889 31.3546 116.904 31.372C116.919 31.3895 116.927 31.4122 116.925 31.4353L116.918 32.6358C116.918 32.6467 116.92 32.6575 116.924 32.6676C116.928 32.6777 116.934 32.6869 116.941 32.6947C116.949 32.7025 116.958 32.7087 116.968 32.713C116.978 32.7173 116.989 32.7195 117 32.7197H119.089L119.075 32.7215Z" fill="#EE2128"/>
<path d="M47.1533 33.8327C47.6738 33.8327 48.0958 33.4098 48.0958 32.8882C48.0958 32.3667 47.6738 31.9438 47.1533 31.9438C46.6327 31.9438 46.2107 32.3667 46.2107 32.8882C46.2107 33.4098 46.6327 33.8327 47.1533 33.8327Z" fill="#EE2128"/>
<path d="M81.3458 33.8327C81.8664 33.8327 82.2884 33.4098 82.2884 32.8882C82.2884 32.3667 81.8664 31.9438 81.3458 31.9438C80.8253 31.9438 80.4033 32.3667 80.4033 32.8882C80.4033 33.4098 80.8253 33.8327 81.3458 33.8327Z" fill="#EE2128"/>
</g>
<defs>
<clipPath id="clip0_301_373">
<rect width="143" height="36" fill="white"/>
</clipPath>
</defs>
</svg>
