<svg width="40" height="40" viewBox="0 0 40 40" fill="none" xmlns="http://www.w3.org/2000/svg">
<path d="M12.5 14V11.5C12.5 9.51088 13.2902 7.60322 14.6967 6.1967C16.1032 4.79018 18.0109 4 20 4C21.9891 4 23.8968 4.79018 25.3033 6.1967C26.7098 7.60322 27.5 9.51088 27.5 11.5V14M6.25 14C5.91848 14 5.60054 14.1317 5.36612 14.3661C5.1317 14.6005 5 14.9185 5 15.25V32.125C5 34.4875 7.0125 36.5 9.375 36.5H30.625C32.9875 36.5 35 34.5852 35 32.2227V15.25C35 14.9185 34.8683 14.6005 34.6339 14.3661C34.3995 14.1317 34.0815 14 33.75 14H6.25Z" stroke="#242021" stroke-width="2.5" stroke-linecap="round" stroke-linejoin="round"/>
<path d="M12.5 17.5V18.75C12.5 20.7391 13.2902 22.6468 14.6967 24.0533C16.1032 25.4598 18.0109 26.25 20 26.25C21.9891 26.25 23.8968 25.4598 25.3033 24.0533C26.7098 22.6468 27.5 20.7391 27.5 18.75V17.5" stroke="#242021" stroke-width="2.5" stroke-linecap="round" stroke-linejoin="round"/>
</svg>
