<svg width="40" height="40" viewBox="0 0 40 40" fill="none" xmlns="http://www.w3.org/2000/svg">
  <g>
  <path d="M10.375 8.01839C10.0606 7.71479 9.63962 7.5468 9.20262 7.5506C8.76563 7.5544 8.34761 7.72968 8.0386 8.03869C7.72958 8.34771 7.5543 8.76573 7.5505 9.20272C7.5467 9.63972 7.7147 10.0607 8.01829 10.3751L17.6433 20.0001L8.01663 29.6251C7.85744 29.7788 7.73047 29.9627 7.64312 30.166C7.55577 30.3694 7.5098 30.5881 7.50788 30.8094C7.50595 31.0307 7.54812 31.2502 7.63192 31.455C7.71572 31.6598 7.83948 31.8459 7.99597 32.0024C8.15246 32.1589 8.33854 32.2826 8.54337 32.3664C8.7482 32.4502 8.96766 32.4924 9.18896 32.4905C9.41026 32.4886 9.62896 32.4426 9.8323 32.3552C10.0356 32.2679 10.2195 32.1409 10.3733 31.9817L20 22.3567L29.625 31.9817C29.9393 32.2853 30.3603 32.4533 30.7973 32.4495C31.2343 32.4457 31.6523 32.2704 31.9613 31.9614C32.2703 31.6524 32.4456 31.2344 32.4494 30.7974C32.4532 30.3604 32.2852 29.9394 31.9816 29.6251L22.3566 20.0001L31.9816 10.3751C32.2852 10.0607 32.4532 9.63972 32.4494 9.20272C32.4456 8.76573 32.2703 8.34771 31.9613 8.03869C31.6523 7.72968 31.2343 7.5544 30.7973 7.5506C30.3603 7.5468 29.9393 7.71479 29.625 8.01839L20 17.6434L10.375 8.01839Z" fill="#242021"/>
  </g>
  </svg>
  