<svg width="28" height="28" viewBox="0 0 28 28" fill="none" xmlns="http://www.w3.org/2000/svg">
<g>
<path d="M11.8125 2.625C6.73838 2.625 2.625 6.73838 2.625 11.8125C2.625 16.8866 6.73838 21 11.8125 21C13.9563 21 15.9276 20.2659 17.4904 19.0365L23.5086 25.0548C23.6102 25.1563 23.7308 25.2369 23.8635 25.2919C23.9962 25.3469 24.1385 25.3751 24.2821 25.3751C24.4258 25.3751 24.568 25.3469 24.7007 25.2919C24.8335 25.2369 24.954 25.1563 25.0556 25.0548C25.1572 24.9532 25.2378 24.8326 25.2928 24.6999C25.3477 24.5671 25.376 24.4249 25.376 24.2813C25.376 24.1376 25.3477 23.9954 25.2928 23.8626C25.2378 23.7299 25.1572 23.6093 25.0556 23.5078L19.0365 17.4895C20.3113 15.8721 21.0032 13.8719 21 11.8125C21 6.73838 16.8866 2.625 11.8125 2.625ZM4.8125 11.8125C4.8125 9.95599 5.55 8.17551 6.86275 6.86275C8.17551 5.55 9.95598 4.8125 11.8125 4.8125C13.669 4.8125 15.4495 5.55 16.7622 6.86275C18.075 8.17551 18.8125 9.95599 18.8125 11.8125C18.8125 13.669 18.075 15.4495 16.7622 16.7622C15.4495 18.075 13.669 18.8125 11.8125 18.8125C9.95598 18.8125 8.17551 18.075 6.86275 16.7622C5.55 15.4495 4.8125 13.669 4.8125 11.8125Z" fill="black"/>
</g>
</svg>