<svg width="40" height="40" viewBox="0 0 40 40" fill="none" xmlns="http://www.w3.org/2000/svg">
<path d="M35.5016 4.78897C35.1119 4.80607 34.7327 4.91451 34.3906 5.05147C34.0521 5.18752 32.1031 6.01938 29.225 7.24991C26.3469 8.48044 22.6056 10.0828 18.8969 11.6718C11.4795 14.8497 4.19064 17.9765 4.19064 17.9765L4.24376 17.9562C4.24376 17.9562 3.80384 18.1032 3.35783 18.414C3.13482 18.5694 2.8949 18.77 2.69845 19.0624C2.50201 19.3549 2.35839 19.7693 2.41251 20.2077C2.60261 21.7475 4.19845 22.1843 4.19845 22.1843L4.2047 22.1874L11.3266 24.6249C11.5082 25.2307 13.4867 31.8343 13.9219 33.2327C14.1623 34.0059 14.3872 34.4519 14.6219 34.7562C14.7393 34.9084 14.8624 35.0262 14.9985 35.1124C15.0525 35.1466 15.1094 35.1723 15.1656 35.1952H15.1688C15.1757 35.1983 15.1822 35.1986 15.1891 35.2015L15.1703 35.1968C15.1834 35.2021 15.1963 35.211 15.2094 35.2155C15.2348 35.2244 15.2503 35.2241 15.2828 35.2312C16.0985 35.5159 16.7735 34.9874 16.7735 34.9874L16.8016 34.9655L21.1766 30.9077L28.2766 36.4437L28.3656 36.4843C29.6084 37.0361 30.7323 36.7282 31.3547 36.2218C31.9771 35.7153 32.2219 35.0624 32.2219 35.0624L32.2484 34.9937L37.4656 7.80148C37.5991 7.19313 37.6181 6.66727 37.4922 6.1921C37.3663 5.71693 37.0604 5.30386 36.6766 5.07491C36.2927 4.84596 35.8912 4.77188 35.5016 4.78897ZM35.5438 6.41554C35.702 6.40821 35.8193 6.4263 35.8563 6.44835C35.8932 6.4704 35.9098 6.4675 35.9453 6.60147C35.9808 6.73545 36 7.01764 35.9031 7.45929L35.9 7.46866L30.7125 34.503C30.7002 34.5303 30.5921 34.7803 30.3453 34.9812C30.0935 35.186 29.8135 35.346 29.0703 35.0343L21.3063 28.9796L21.0875 28.8077L21.0828 28.8124L18.761 27.0702L31.8094 11.7187C31.9097 11.601 31.9737 11.4568 31.9937 11.3036C32.0138 11.1503 31.989 10.9945 31.9224 10.855C31.8558 10.7155 31.7502 10.5983 31.6184 10.5175C31.4866 10.4368 31.3342 10.3959 31.1797 10.3999C31.0287 10.4038 30.8819 10.4504 30.7563 10.5343L11.875 23.1218L4.7422 20.6796C4.7422 20.6796 4.03392 20.2855 4.00001 20.0108C3.99813 19.9956 3.98977 20.0094 4.02658 19.9546C4.06338 19.8998 4.1559 19.8073 4.27189 19.7265C4.50387 19.5648 4.76876 19.4671 4.76876 19.4671L4.79533 19.4577L4.82189 19.4468C4.82189 19.4468 12.1111 16.3198 19.5281 13.1421C23.2366 11.5532 26.9773 9.95201 29.8547 8.72179C32.7314 7.49188 34.8099 6.60661 34.986 6.53585C35.1863 6.45561 35.3855 6.42287 35.5438 6.41554ZM26.8906 15.0343L16.9953 26.6765L16.9906 26.6812C16.9752 26.6998 16.9606 26.7191 16.9469 26.739C16.9312 26.7606 16.9166 26.7831 16.9031 26.8062C16.8475 26.9005 16.8119 27.0053 16.7985 27.114C16.7984 27.1161 16.7984 27.1181 16.7985 27.1202L15.5094 32.9171C15.488 32.8545 15.473 32.8316 15.45 32.7577V32.7562C15.0406 31.4406 13.1739 25.2128 12.9156 24.3515L26.8906 15.0343ZM18.1125 28.5843L19.8906 29.9187L17.2781 32.3405L18.1125 28.5843Z" fill="#242021"/>
</svg>
