<svg width="40" height="40" viewBox="0 0 40 40" fill="none" xmlns="http://www.w3.org/2000/svg">
<g clip-path="url(#clip0_601_374)">
<mask id="path-1-inside-1_601_374" fill="white">
<path d="M20 1.6001C9.85443 1.6001 1.60003 9.8545 1.60003 20.0001C1.60003 23.1681 2.41843 26.2833 3.97043 29.0321L1.62963 37.3841C1.55283 37.6585 1.62723 37.9529 1.82563 38.1569C1.97843 38.3145 2.18643 38.4001 2.40003 38.4001C2.46403 38.4001 2.52883 38.3921 2.59203 38.3769L11.3088 36.2177C13.9704 37.6465 16.968 38.4001 20 38.4001C30.1456 38.4001 38.4 30.1457 38.4 20.0001C38.4 9.8545 30.1456 1.6001 20 1.6001ZM29.256 26.4929C28.8624 27.5825 26.9744 28.5769 26.0672 28.7105C25.2528 28.8297 24.2224 28.8809 23.0912 28.5257C22.4056 28.3097 21.5256 28.0233 20.3984 27.5425C15.66 25.5217 12.5656 20.8105 12.3288 20.4993C12.0928 20.1881 10.4 17.9705 10.4 15.6753C10.4 13.3801 11.62 12.2513 12.0536 11.7841C12.4872 11.3169 12.9984 11.2001 13.3136 11.2001C13.6288 11.2001 13.9432 11.2041 14.2192 11.2169C14.5096 11.2313 14.8992 11.1073 15.2824 12.0177C15.676 12.9521 16.6208 15.2473 16.7376 15.4817C16.856 15.7153 16.9344 15.9881 16.7776 16.2993C16.6208 16.6105 16.5424 16.8049 16.3056 17.0777C16.0688 17.3505 15.8096 17.6857 15.5968 17.8953C15.36 18.1281 15.1144 18.3801 15.3896 18.8473C15.6648 19.3145 16.6128 20.8417 18.0176 22.0785C19.8216 23.6673 21.344 24.1601 21.816 24.3937C22.288 24.6273 22.564 24.5881 22.8392 24.2769C23.1144 23.9649 24.02 22.9145 24.3344 22.4481C24.6488 21.9817 24.964 22.0585 25.3976 22.2145C25.8312 22.3697 28.1536 23.4977 28.6256 23.7313C29.0976 23.9649 29.4128 24.0817 29.5312 24.2761C29.6496 24.4697 29.6496 25.4041 29.256 26.4929Z"/>
</mask>
<path d="M20 1.6001C9.85443 1.6001 1.60003 9.8545 1.60003 20.0001C1.60003 23.1681 2.41843 26.2833 3.97043 29.0321L1.62963 37.3841C1.55283 37.6585 1.62723 37.9529 1.82563 38.1569C1.97843 38.3145 2.18643 38.4001 2.40003 38.4001C2.46403 38.4001 2.52883 38.3921 2.59203 38.3769L11.3088 36.2177C13.9704 37.6465 16.968 38.4001 20 38.4001C30.1456 38.4001 38.4 30.1457 38.4 20.0001C38.4 9.8545 30.1456 1.6001 20 1.6001ZM29.256 26.4929C28.8624 27.5825 26.9744 28.5769 26.0672 28.7105C25.2528 28.8297 24.2224 28.8809 23.0912 28.5257C22.4056 28.3097 21.5256 28.0233 20.3984 27.5425C15.66 25.5217 12.5656 20.8105 12.3288 20.4993C12.0928 20.1881 10.4 17.9705 10.4 15.6753C10.4 13.3801 11.62 12.2513 12.0536 11.7841C12.4872 11.3169 12.9984 11.2001 13.3136 11.2001C13.6288 11.2001 13.9432 11.2041 14.2192 11.2169C14.5096 11.2313 14.8992 11.1073 15.2824 12.0177C15.676 12.9521 16.6208 15.2473 16.7376 15.4817C16.856 15.7153 16.9344 15.9881 16.7776 16.2993C16.6208 16.6105 16.5424 16.8049 16.3056 17.0777C16.0688 17.3505 15.8096 17.6857 15.5968 17.8953C15.36 18.1281 15.1144 18.3801 15.3896 18.8473C15.6648 19.3145 16.6128 20.8417 18.0176 22.0785C19.8216 23.6673 21.344 24.1601 21.816 24.3937C22.288 24.6273 22.564 24.5881 22.8392 24.2769C23.1144 23.9649 24.02 22.9145 24.3344 22.4481C24.6488 21.9817 24.964 22.0585 25.3976 22.2145C25.8312 22.3697 28.1536 23.4977 28.6256 23.7313C29.0976 23.9649 29.4128 24.0817 29.5312 24.2761C29.6496 24.4697 29.6496 25.4041 29.256 26.4929Z" stroke="#242021" stroke-width="2" mask="url(#path-1-inside-1_601_374)"/>
</g>
<defs>
<clipPath id="clip0_601_374">
<rect width="40" height="40" fill="white"/>
</clipPath>
</defs>
</svg>
