<svg width="40" height="40" viewBox="0 0 40 40" fill="none" xmlns="http://www.w3.org/2000/svg">
<path d="M19.5219 7.19995C14.2406 7.19995 9.28128 7.59995 6.64065 8.15933C4.88128 8.55933 3.3594 9.75933 3.04065 11.6C2.7219 13.5187 2.40002 16.4 2.40002 20C2.40002 23.6 2.71877 26.4 3.11877 28.4C3.44065 30.1593 4.9594 31.4406 6.71878 31.8406C9.5219 32.4 14.3188 32.8 19.6 32.8C24.8813 32.8 29.6781 32.4 32.4781 31.8406C34.2406 31.4406 35.7594 30.2406 36.0781 28.4C36.4 26.4 36.8 23.5218 36.8781 19.9218C36.8781 16.3218 36.4781 13.4406 36.0781 11.4406C35.7594 9.6812 34.2406 8.39995 32.4781 7.99995C29.6781 7.59995 24.8 7.19995 19.5219 7.19995ZM19.5219 8.79995C25.2813 8.79995 29.9188 9.27808 32.1594 9.67808C33.3594 9.99995 34.3188 10.8 34.4781 11.8406C34.9594 14.4 35.2781 17.1218 35.2781 19.9218C35.2 23.3593 34.8 26.1593 34.4781 28.1593C34.2406 29.6781 32.6406 30.1593 32.1594 30.3218C29.2781 30.8812 24.4781 31.2781 19.6781 31.2781C14.8781 31.2781 10 30.9593 7.20002 30.3218C6.00002 30 5.04065 29.2 4.88127 28.1593C4.24065 25.9187 4.00002 22.9593 4.00002 20C4.00002 16.3187 4.3219 13.6 4.64065 11.9218C4.88127 10.4 6.5594 9.9187 6.9594 9.75933C9.60002 9.19995 14.4813 8.79995 19.5219 8.79995ZM15.2 13.6V26.4L26.4 20L15.2 13.6ZM16.8 16.3218L23.2 20L16.8 23.6781V16.3218Z" fill="#242021"/>
</svg>
