<svg width="233" height="40" viewBox="0 0 233 40" fill="none" xmlns="http://www.w3.org/2000/svg">
<path d="M22.3437 21.7562C23.0537 21.8973 24.1532 22.022 25.6423 22.1302C26.3419 22.1807 26.6953 22.4919 26.7025 23.0637C26.7103 23.7113 25.6609 23.903 25.2036 23.9973C24.2167 24.2013 23.2299 24.3981 22.243 24.5877C22.1892 24.598 22.1608 24.6304 22.1577 24.685C22.0647 26.0864 21.9717 27.6587 21.8787 29.4022C21.8353 30.2151 21.0277 30.4114 20.372 30.2723C19.8719 30.1672 19.6389 29.8684 19.673 29.3759C19.7742 27.9467 19.8812 26.5408 19.9938 25.158C19.995 25.1445 19.9929 25.131 19.9877 25.1185C19.9826 25.106 19.9745 25.095 19.9642 25.0862C19.9539 25.0774 19.9417 25.0712 19.9285 25.0681C19.9153 25.065 19.9016 25.0651 19.8884 25.0683C16.9991 25.7999 13.8891 26.87 10.5585 28.2785C8.59149 29.11 6.8337 30.2229 5.03251 31.3202C4.61296 31.5747 4.18618 31.5881 3.75216 31.3604C2.92597 30.9261 2.63145 29.8844 3.57855 29.3666C5.56988 28.2775 7.66558 27.295 9.86565 26.4192C11.0613 25.9442 12.246 25.549 13.42 25.2337C15.6283 24.6413 17.8227 24.1539 20.0031 23.7716C20.0672 23.7603 20.1013 23.7227 20.1054 23.6588L20.1535 22.9324C20.1576 22.8654 20.1271 22.8252 20.062 22.8118C17.3959 22.2502 14.9943 21.4223 12.8573 20.328C12.0295 19.9035 10.8691 19.2219 9.37582 18.2832C7.54364 17.1313 5.92639 15.7078 4.52409 14.0128C2.93991 12.0994 1.6549 10.1535 0.988372 7.77328C0.0443773 4.39927 1.13253 1.38848 4.67135 0.3483C6.07158 -0.0638549 7.57567 -0.110223 9.18361 0.209198C13.1503 0.997445 16.3062 3.51211 18.4624 6.87684C21.2401 11.2122 22.3515 16.4007 22.2693 21.6634C22.2683 21.7149 22.2931 21.7459 22.3437 21.7562ZM19.6141 14.7516C18.9734 12.0839 17.8155 9.55224 16.1403 7.15659C14.5717 4.91395 12.4775 3.18599 9.87495 2.2741C8.10631 1.65432 5.90521 1.59404 4.40318 2.84442C1.17438 5.52755 4.26678 10.206 6.24312 12.5538C7.35607 13.8758 8.59975 15.1349 9.97415 16.3312C10.6934 16.9566 11.4498 17.5177 12.2435 18.0143C14.6848 19.5429 17.3448 20.7701 20.1225 21.3605C20.1773 21.3729 20.2057 21.3507 20.2077 21.294C20.2925 18.9314 20.0946 16.7505 19.6141 14.7516Z" fill="#242021"/>
<path d="M29.4493 23.4732C29.4369 24.0523 29.4374 24.667 29.4508 25.3171C29.471 26.3233 27.3877 26.2228 27.3892 25.3929C27.3903 22.379 27.3898 19.4733 27.3877 16.6758C27.3877 15.7175 29.4493 15.7052 29.4446 16.7561C29.4405 17.5763 29.441 18.3775 29.4462 19.1595C29.4483 19.3357 29.4948 19.3481 29.5857 19.1966C30.1117 18.3239 30.7653 17.5392 31.5465 16.8427C32.3293 16.1456 33.3229 15.7824 34.363 15.8922C35.5628 16.0189 36.2216 17.2786 36.0464 18.3296C35.8774 19.3404 34.8513 19.6881 33.9616 19.4285C33.9386 19.4216 33.919 19.4065 33.9067 19.3862C33.8943 19.3658 33.8901 19.3418 33.8949 19.3187C33.9678 18.9308 34.2917 17.6758 33.7445 17.5289C32.937 17.3141 32.1061 18.617 31.7884 19.1843C31.3822 19.9076 30.9921 20.6052 30.6181 21.277C30.5933 21.3213 30.5933 21.3661 30.6181 21.4114C31.5775 23.1456 33.3136 24.7793 35.3597 24.0544C35.9271 23.8519 36.482 23.5304 36.9548 23.1734C38.0088 22.3759 39.1021 21.4104 40.2347 20.277C40.2553 20.2564 40.2699 20.2308 40.277 20.2027C40.2841 20.1747 40.2834 20.1453 40.275 20.1178C39.378 17.1431 39.2752 14.0462 39.9665 10.8273C40.5292 8.20598 42.0467 3.94636 45.4972 4.29257C47.6022 4.50431 48.478 6.02053 48.3509 7.97415C48.2315 9.8103 47.5294 11.7175 46.7373 13.3883C45.6129 15.7562 44.2825 17.9159 42.7458 19.8674C42.6725 19.9591 42.5893 20.0426 42.4963 20.1178C42.4518 20.1528 42.4389 20.1971 42.4575 20.2507C43.0589 21.9833 44.4215 24.2986 46.3498 24.6031C47.6487 24.8086 48.3571 23.7515 48.6392 22.6587C48.6557 22.5959 48.632 22.5567 48.5679 22.5413C47.1325 22.2033 46.0826 21.3316 45.4182 19.9261C45.1391 19.3357 45.0963 18.7 45.2895 18.0189C45.9653 15.6325 48.7772 16.124 49.9118 17.7948C50.5163 18.6866 50.814 19.8628 50.7504 20.9617C50.7463 21.0256 50.7768 21.058 50.8419 21.059C52.0122 21.0761 52.6756 20.7685 53.4677 20.0652C53.6785 19.8777 53.8506 19.6737 53.9839 19.4532C54.5739 18.4743 55.4637 17.6619 56.6531 17.0158C57.8725 16.3533 59.1053 16.1683 60.3516 16.4609C61.1917 16.6577 61.6929 17.0931 61.8551 17.767C61.8696 17.8267 61.9078 17.8566 61.9698 17.8566C63.2642 17.8566 63.5757 19.0204 63.5339 20.09C63.4874 21.2811 63.0637 22.2157 62.2628 22.8937C62.2484 22.9055 62.2392 22.9224 62.2371 22.9409C62.2351 22.9594 62.2404 22.9779 62.252 22.9926C63.0394 23.9663 64.1988 24.1873 65.2219 23.3805C66.5674 22.3218 67.609 20.7515 68.5949 19.3512C69.2257 18.4532 70.4596 19.209 69.8225 20.175C69.1653 21.1714 68.5008 22.1327 67.8291 23.059C67.4023 23.6474 66.9213 24.1827 66.386 24.6649C64.7119 26.1734 62.7759 26.0204 61.2212 24.4021C61.1829 24.363 61.1426 24.3614 61.1002 24.3975C59.4618 25.821 56.7182 26.736 54.7233 25.5567C53.5622 24.8689 53.0817 23.7159 53.1236 22.4223C53.1267 22.3501 53.0946 22.329 53.0275 22.3589C52.2276 22.7195 51.3916 22.8937 50.5194 22.8813C50.4626 22.8803 50.4259 22.9065 50.4094 22.9601C49.8839 24.6201 48.6361 25.9493 46.821 26.144C43.9192 26.4578 41.9274 24.229 40.8857 21.8117C40.8609 21.7551 40.8232 21.7448 40.7726 21.7808C40.4791 21.9931 40.2022 22.2203 39.9417 22.4624C39.3041 23.058 38.6898 23.6227 38.0987 24.1564C36.375 25.7143 33.9073 26.5598 31.8132 25.4408C30.8945 24.9493 30.1318 24.2857 29.5253 23.4501C29.5202 23.4429 29.5129 23.4376 29.5046 23.4347C29.4963 23.4319 29.4873 23.4318 29.4789 23.4343C29.4705 23.4369 29.4631 23.442 29.4578 23.449C29.4525 23.456 29.4495 23.4645 29.4493 23.4732ZM41.9413 9.2307C41.0216 11.9818 40.8733 14.7804 41.4965 17.6263C41.5378 17.8149 41.6386 17.9869 41.7987 18.1425C41.851 18.1933 41.9185 18.2258 41.9909 18.235C42.0633 18.2442 42.1368 18.2296 42.2002 18.1935C42.8559 17.818 43.3612 17.0297 43.7286 16.3775C44.7961 14.4857 45.5954 12.5084 46.1265 10.4455C46.3916 9.41617 46.6691 7.93551 46.2676 6.93861C45.9963 6.26782 45.2942 5.6125 44.4928 5.87679C43.2279 6.29255 42.332 8.06379 41.9413 9.2307ZM59.6711 17.9586C56.5616 17.5042 55.4828 19.8921 55.2239 22.4439C55.196 22.7144 55.2642 23.158 55.3805 23.4068C56.4097 25.6108 58.9457 23.9848 60.1377 23.0467C60.18 23.0137 60.1919 22.9715 60.1733 22.9199C59.6339 21.4825 59.6478 19.7252 60.6678 18.5336C60.7039 18.4913 60.7009 18.4527 60.6585 18.4176C60.3547 18.1631 60.0255 18.0101 59.6711 17.9586ZM46.8969 19.328C47.2731 20.0699 47.9086 20.5614 48.8035 20.8025C48.88 20.8231 48.9131 20.7942 48.9027 20.7159C48.881 20.5598 48.9461 20.4625 48.9043 20.2894C48.8051 19.8803 48.6537 19.4949 48.4501 19.1333C48.1943 18.6804 47.5929 18.0591 47.0333 18.1796C46.4862 18.2971 46.7326 19.005 46.8969 19.328ZM61.494 21.5815C61.9032 20.855 62.2473 20.022 62.0535 19.226C62.0485 19.2042 62.0376 19.1842 62.0218 19.1682C62.006 19.1523 61.9861 19.141 61.9642 19.1355C61.9423 19.1301 61.9192 19.1308 61.8975 19.1375C61.8758 19.1442 61.8563 19.1566 61.8412 19.1734C61.2987 19.7793 61.2119 20.8411 61.387 21.566C61.4108 21.6618 61.4464 21.667 61.494 21.5815Z" fill="#242021"/>
<path d="M53.2579 34.2909C53.4108 34.3063 53.5085 34.2425 53.5508 34.0992C53.5829 33.9869 53.6547 33.9472 53.7663 33.9802C53.8438 34.0039 53.9223 34.0163 54.0019 34.0173C54.161 34.0194 54.2117 34.0946 54.1538 34.243C53.9523 34.7499 53.5839 34.9405 53.0486 34.8148C52.7055 34.7334 52.5102 34.4975 52.4627 34.107C52.4565 34.0554 52.4792 34.0266 52.5309 34.0204L52.9633 33.9725C53.0098 33.9673 53.0372 33.9879 53.0455 34.0343C53.0558 34.0951 53.078 34.1513 53.1121 34.2028C53.1462 34.2553 53.1948 34.2847 53.2579 34.2909Z" fill="#242021"/>
<path d="M16.1598 35.9941C15.766 36.3218 15.8606 37.3852 15.9102 37.8303C16.0094 38.7221 17.0387 38.549 17.5858 38.3604C17.6354 38.3429 17.6664 38.3599 17.6788 38.4114L17.8215 39.0266C17.8267 39.0487 17.8232 39.072 17.8116 39.0916C17.8001 39.1111 17.7814 39.1255 17.7594 39.1317C16.4574 39.498 15.067 39.3512 14.9585 37.6634C14.9306 37.2172 14.944 36.7937 14.9988 36.3929C15.1972 34.9571 16.6744 34.852 17.7951 35.2337C17.8209 35.243 17.8307 35.261 17.8245 35.2878L17.6788 35.9571C17.6716 35.9869 17.6535 35.9972 17.6246 35.988C17.2247 35.8674 16.5163 35.6989 16.1598 35.9941Z" fill="#242021"/>
<path d="M28.0419 37.7848C28.0439 38.1816 27.8878 38.563 27.6079 38.845C27.328 39.127 26.9472 39.2867 26.5493 39.2887L26.3136 39.29C25.9157 39.292 25.5332 39.1364 25.2504 38.8573C24.9675 38.5782 24.8074 38.1985 24.8053 37.8017L24.7988 36.5652C24.7968 36.1685 24.9529 35.7871 25.2328 35.505C25.5127 35.223 25.8935 35.0634 26.2914 35.0613L26.5271 35.0601C26.925 35.058 27.3075 35.2136 27.5903 35.4927C27.8732 35.7718 28.0333 36.1516 28.0354 36.5484L28.0419 37.7848ZM27.1082 36.4915C27.1084 36.4063 27.0917 36.3218 27.0591 36.243C27.0265 36.1642 26.9787 36.0926 26.9183 36.0322C26.858 35.9718 26.7863 35.9239 26.7074 35.8911C26.6285 35.8583 26.5438 35.8414 26.4583 35.8412L26.3839 35.8411C26.2984 35.841 26.2137 35.8576 26.1347 35.8901C26.0557 35.9226 25.9838 35.9703 25.9232 36.0305C25.8627 36.0906 25.8146 36.1621 25.7818 36.2408C25.7489 36.3195 25.7319 36.4039 25.7318 36.4891L25.7294 37.8431C25.7292 37.9283 25.7459 38.0127 25.7785 38.0916C25.8111 38.1704 25.8589 38.242 25.9193 38.3024C25.9796 38.3628 26.0513 38.4107 26.1302 38.4435C26.2092 38.4763 26.2938 38.4932 26.3793 38.4933L26.4537 38.4935C26.5392 38.4936 26.6239 38.477 26.7029 38.4445C26.7819 38.412 26.8538 38.3643 26.9144 38.3041C26.9749 38.244 27.023 38.1725 27.0559 38.0938C27.0887 38.0151 27.1057 37.9307 27.1058 37.8454L27.1082 36.4915Z" fill="#242021"/>
<path d="M5.89482 37.1132C6.14696 37.2234 6.30662 37.4038 6.37379 37.6541C6.6032 38.5042 5.91032 39.1564 5.09498 39.2044C4.66096 39.2311 4.16235 39.2378 3.59916 39.2245C3.54542 39.2224 3.51855 39.1951 3.51855 39.1425V35.2369C3.51855 35.175 3.54956 35.1421 3.61156 35.1379C4.34836 35.0998 4.90639 35.1142 5.28564 35.1812C5.8695 35.2842 6.19605 35.6129 6.26529 36.1673C6.31075 36.529 6.18416 36.8113 5.88552 37.0143C5.82868 37.0524 5.83178 37.0854 5.89482 37.1132ZM4.4486 35.9432V36.7098C4.449 36.721 4.45375 36.7316 4.46184 36.7394C4.46994 36.7472 4.48075 36.7515 4.492 36.7515H4.79272C4.8649 36.7515 4.93638 36.7408 5.00305 36.7201C5.06972 36.6994 5.13028 36.6691 5.18126 36.6309C5.23223 36.5927 5.27262 36.5474 5.3001 36.4975C5.32759 36.4477 5.34164 36.3943 5.34144 36.3404V36.3064C5.34104 36.198 5.28305 36.0941 5.18019 36.0176C5.07733 35.9411 4.93799 35.8982 4.79272 35.8984H4.492C4.48617 35.8984 4.4804 35.8995 4.47503 35.9018C4.46966 35.9041 4.4648 35.9074 4.46075 35.9116C4.4567 35.9158 4.45353 35.9207 4.45145 35.9261C4.44936 35.9316 4.44839 35.9374 4.4486 35.9432ZM4.44705 37.5228V38.3852C4.44704 38.3898 4.44798 38.3944 4.44979 38.3986C4.4516 38.4028 4.45424 38.4066 4.45758 38.4098C4.46091 38.413 4.46485 38.4155 4.46917 38.4171C4.47349 38.4187 4.47809 38.4194 4.4827 38.4192L4.93222 38.4177C5.08103 38.4172 5.22358 38.3701 5.32852 38.2866C5.43346 38.2032 5.4922 38.0902 5.4918 37.9725V37.9293C5.4916 37.871 5.47689 37.8134 5.44851 37.7596C5.42012 37.7059 5.37862 37.6571 5.32637 37.616C5.27412 37.575 5.21215 37.5425 5.14398 37.5204C5.07582 37.4983 5.00282 37.487 4.92912 37.4872L4.4796 37.4888C4.47083 37.4892 4.46255 37.4929 4.45648 37.4993C4.45042 37.5056 4.44704 37.514 4.44705 37.5228Z" fill="#242021"/>
<path d="M8.33726 36.7223C8.75578 36.6698 9.02549 36.5059 9.11695 36.0716C9.17998 35.7749 9.26007 35.4828 9.3572 35.1953C9.37167 35.152 9.40164 35.1304 9.44711 35.1304H10.2206C10.263 35.1304 10.279 35.1515 10.2686 35.1937C10.1353 35.7326 10.002 36.2293 9.86873 36.6837C9.815 36.864 9.70752 37.0098 9.54631 37.1211C9.49774 37.1551 9.4869 37.1989 9.51376 37.2525L10.5105 39.1798C10.5126 39.1838 10.5137 39.1883 10.5136 39.1928C10.5134 39.1974 10.5121 39.2018 10.5098 39.2057C10.5075 39.2096 10.5042 39.2128 10.5002 39.215C10.4962 39.2173 10.4918 39.2184 10.4872 39.2184L9.49051 39.2293C9.45848 39.2293 9.43523 39.2148 9.42076 39.186L8.64727 37.5662C8.62661 37.5229 8.59457 37.5101 8.55117 37.5276L8.31866 37.6157C8.26906 37.6352 8.24425 37.6718 8.24425 37.7254V39.1875C8.24425 39.2133 8.23134 39.2262 8.2055 39.2262L7.35141 39.2246C7.34154 39.2246 7.33208 39.2205 7.3251 39.2133C7.31813 39.2061 7.31421 39.1962 7.31421 39.186V35.169C7.31421 35.1592 7.31829 35.1497 7.32556 35.1428C7.33282 35.1358 7.34268 35.1319 7.35296 35.1319L8.2055 35.1304C8.23134 35.1304 8.24425 35.1433 8.24425 35.169L8.2427 36.6389C8.2427 36.7017 8.27422 36.7295 8.33726 36.7223Z" fill="#242021"/>
<path d="M12.5778 37.8672C11.7345 37.9476 11.3904 37.3139 11.2912 36.572C11.2282 36.096 11.1528 35.6276 11.0649 35.1671C11.0608 35.1444 11.0701 35.1331 11.0928 35.1331L11.9314 35.1284C11.9634 35.1284 11.982 35.1439 11.9872 35.1748L12.2755 36.8842C12.3003 37.0285 12.3856 37.1006 12.5313 37.1006L12.846 37.1021C12.9059 37.1021 12.941 37.0722 12.9514 37.0125L13.2784 35.1671C13.2826 35.1434 13.297 35.1315 13.3218 35.1315L14.1682 35.13C14.194 35.13 14.2043 35.1423 14.1992 35.1671C13.9129 36.8363 13.7248 37.8801 13.6349 38.2984C13.4288 39.2659 12.5685 39.2845 11.6632 39.2134C11.6436 39.2124 11.6328 39.2021 11.6307 39.1825L11.5392 38.4932C11.5386 38.4883 11.539 38.4833 11.5405 38.4785C11.542 38.4738 11.5445 38.4694 11.5478 38.4656C11.5512 38.4618 11.5553 38.4587 11.56 38.4566C11.5647 38.4544 11.5697 38.4532 11.5749 38.453H12.4119C12.4862 38.4524 12.558 38.427 12.616 38.3807C12.6739 38.3344 12.7145 38.2701 12.7312 38.1979L12.7607 38.0743C12.7958 37.9208 12.7349 37.8517 12.5778 37.8672Z" fill="#242021"/>
<path d="M23.7861 38.4534L24.0202 38.4549C24.0403 38.4549 24.0596 38.4631 24.0739 38.4776C24.0881 38.492 24.0961 38.5117 24.0961 38.5322L24.0946 39.8398C24.0946 39.8624 24.0837 39.8753 24.062 39.8784L23.2854 39.999C23.2575 40.0041 23.2436 39.9923 23.2436 39.9634L23.2451 39.3034C23.2451 39.2519 23.2188 39.2262 23.1661 39.2262H20.9572C20.9362 39.2262 20.9161 39.2343 20.9013 39.2488C20.8865 39.2633 20.8782 39.2829 20.8782 39.3034L20.8797 39.7656C20.8807 39.8429 20.8425 39.8872 20.765 39.8985L20.1434 39.9881C20.0918 39.9953 20.0659 39.9732 20.0659 39.9217V38.5337C20.0659 38.4833 20.0912 38.4575 20.1419 38.4565L20.317 38.4518C20.3832 38.4508 20.4338 38.4219 20.4689 38.3653C20.5661 38.2097 20.6389 38.0428 20.6875 37.8645C20.919 37.0175 21.0461 36.135 21.0688 35.2169C21.0696 35.1937 21.0794 35.1717 21.0962 35.1555C21.113 35.1394 21.1354 35.1304 21.1587 35.1304H23.5923C23.644 35.1304 23.6698 35.1561 23.6698 35.2077V38.3375C23.6698 38.4137 23.7086 38.4523 23.7861 38.4534ZM21.4687 38.4534H22.701C22.7269 38.4534 22.7398 38.4405 22.7398 38.4147V35.9418C22.7398 35.916 22.7269 35.9032 22.701 35.9032H21.926C21.9012 35.9032 21.8883 35.9155 21.8873 35.9403C21.8521 36.7893 21.7049 37.6162 21.4455 38.4209C21.4393 38.4426 21.447 38.4534 21.4687 38.4534Z" fill="#242021"/>
<path d="M32.2718 36.674L31.6409 38.4545C31.6234 38.505 31.5877 38.5302 31.534 38.5302H30.7217C30.667 38.5302 30.6303 38.5045 30.6117 38.453L30.0087 36.7513C29.9767 36.6616 29.9565 36.6647 29.9482 36.7606L29.7467 39.1918C29.746 39.201 29.7419 39.2097 29.7353 39.216C29.7286 39.2223 29.72 39.2258 29.7111 39.2258H28.8632C28.8384 39.2258 28.827 39.2134 28.8291 39.1887L29.2554 35.2196C29.2616 35.1598 29.2946 35.13 29.3546 35.13H30.218C30.2676 35.13 30.3011 35.1532 30.3187 35.1995C30.5905 35.8981 30.8421 36.6235 31.0736 37.3757C31.0984 37.4581 31.1253 37.4586 31.1542 37.3772L31.9215 35.2103C31.9401 35.1557 31.9783 35.1284 32.0362 35.1284L32.9027 35.1315C32.9606 35.1315 32.9926 35.1598 32.9988 35.2165L33.422 39.1918C33.424 39.2134 33.4142 39.2242 33.3925 39.2242L32.5446 39.2258C32.534 39.2258 32.5238 39.2218 32.5161 39.2147C32.5083 39.2075 32.5035 39.1976 32.5028 39.1871L32.2997 36.6786C32.2956 36.6343 32.2863 36.6328 32.2718 36.674Z" fill="#242021"/>
<path d="M36.2575 38.2211L35.2608 38.2242C35.2478 38.2241 35.2351 38.2283 35.2247 38.2361C35.2144 38.2439 35.2069 38.255 35.2035 38.2675L34.9508 39.1825C34.9474 39.195 34.9399 39.206 34.9295 39.2139C34.9191 39.2217 34.9065 39.2259 34.8934 39.2258L34.0781 39.2242C34.069 39.2241 34.06 39.2219 34.0518 39.2178C34.0437 39.2136 34.0366 39.2076 34.0312 39.2003C34.0258 39.1929 34.0222 39.1844 34.0206 39.1754C34.0191 39.1664 34.0197 39.1572 34.0223 39.1485L35.2205 35.1732C35.2241 35.1613 35.2315 35.1508 35.2416 35.1433C35.2516 35.1357 35.2638 35.1316 35.2763 35.1315L36.2436 35.1284C36.2561 35.1285 36.2683 35.1327 36.2783 35.1402C36.2884 35.1477 36.2957 35.1582 36.2994 35.1702L37.4976 39.15C37.5002 39.1588 37.5008 39.168 37.4992 39.177C37.4977 39.186 37.4941 39.1945 37.4887 39.2018C37.4832 39.2092 37.4762 39.2151 37.468 39.2193C37.4599 39.2235 37.4509 39.2257 37.4418 39.2258H36.6233C36.6103 39.2259 36.5976 39.2217 36.5873 39.2139C36.5769 39.206 36.5694 39.195 36.566 39.1825L36.3149 38.2644C36.3114 38.2519 36.304 38.2409 36.2936 38.233C36.2832 38.2252 36.2705 38.221 36.2575 38.2211ZM36.0296 37.4901C36.0372 37.4901 36.0447 37.4883 36.0515 37.485C36.0583 37.4817 36.0642 37.4769 36.0689 37.4709C36.0735 37.4649 36.0767 37.458 36.0783 37.4506C36.0798 37.4432 36.0796 37.4356 36.0777 37.4282L35.7987 36.3417C35.7965 36.3303 35.7903 36.32 35.7812 36.3127C35.7722 36.3054 35.7609 36.3015 35.7492 36.3017C35.7376 36.3019 35.7264 36.3061 35.7175 36.3137C35.7087 36.3213 35.7029 36.3318 35.701 36.3432L35.4499 37.4282C35.4483 37.4355 35.4483 37.4429 35.45 37.4501C35.4516 37.4573 35.4549 37.4641 35.4595 37.4698C35.4641 37.4756 35.47 37.4803 35.4766 37.4835C35.4833 37.4868 35.4906 37.4885 35.498 37.4885L36.0296 37.4901Z" fill="#242021"/>
<path d="M42.0368 38.4008V35.1829C42.0368 35.169 42.0424 35.1556 42.0523 35.1458C42.0622 35.1359 42.0756 35.1304 42.0895 35.1304H42.9142C42.9211 35.1304 42.9279 35.1317 42.9343 35.1344C42.9407 35.137 42.9465 35.1409 42.9514 35.1458C42.9563 35.1506 42.9602 35.1564 42.9629 35.1628C42.9655 35.1692 42.9669 35.176 42.9669 35.1829V39.1736C42.9669 39.1805 42.9655 39.1873 42.9629 39.1937C42.9602 39.2001 42.9563 39.2059 42.9514 39.2108C42.9465 39.2157 42.9407 39.2195 42.9343 39.2222C42.9279 39.2248 42.9211 39.2262 42.9142 39.2262H38.3694C38.3554 39.2262 38.342 39.2206 38.3321 39.2108C38.3222 39.2009 38.3167 39.1876 38.3167 39.1736V35.1829C38.3167 35.169 38.3222 35.1556 38.3321 35.1458C38.342 35.1359 38.3554 35.1304 38.3694 35.1304H39.194C39.208 35.1304 39.2214 35.1359 39.2313 35.1458C39.2411 35.1556 39.2467 35.169 39.2467 35.1829L39.2451 38.4008C39.2451 38.4148 39.2507 38.4281 39.2606 38.438C39.2705 38.4478 39.2839 38.4534 39.2978 38.4534H40.124C40.131 38.4534 40.1378 38.452 40.1442 38.4494C40.1506 38.4467 40.1564 38.4429 40.1613 38.438C40.1662 38.4331 40.1701 38.4273 40.1727 38.4209C40.1754 38.4146 40.1767 38.4077 40.1767 38.4008V35.1829C40.1767 35.169 40.1823 35.1556 40.1922 35.1458C40.2021 35.1359 40.2155 35.1304 40.2294 35.1304H41.0541C41.0681 35.1304 41.0815 35.1359 41.0913 35.1458C41.1012 35.1556 41.1068 35.169 41.1068 35.1829L41.1052 38.4008C41.1052 38.4077 41.1066 38.4146 41.1092 38.4209C41.1119 38.4273 41.1158 38.4331 41.1207 38.438C41.1256 38.4429 41.1314 38.4467 41.1378 38.4494C41.1442 38.452 41.151 38.4534 41.1579 38.4534H41.9841C41.9981 38.4534 42.0115 38.4478 42.0214 38.438C42.0313 38.4281 42.0368 38.4148 42.0368 38.4008Z" fill="#242021"/>
<path d="M44.9829 37.589L44.986 39.1593C44.986 39.1773 44.9788 39.1946 44.9661 39.2074C44.9533 39.2201 44.9359 39.2273 44.9178 39.2273L44.1226 39.2242C44.1046 39.2242 44.0872 39.217 44.0744 39.2043C44.0616 39.1915 44.0544 39.1742 44.0544 39.1562V35.198C44.0544 35.1799 44.0616 35.1626 44.0744 35.1499C44.0872 35.1371 44.1046 35.13 44.1226 35.13H44.9163C44.9344 35.13 44.9517 35.1371 44.9645 35.1499C44.9773 35.1626 44.9845 35.1799 44.9845 35.198V36.6848C44.9845 36.7029 44.9917 36.7202 45.0045 36.7329C45.0173 36.7457 45.0346 36.7528 45.0527 36.7528L46.1176 36.7544C46.1357 36.7544 46.153 36.7472 46.1658 36.7345C46.1786 36.7217 46.1858 36.7044 46.1858 36.6864V35.198C46.1858 35.1799 46.193 35.1626 46.2058 35.1499C46.2186 35.1371 46.2359 35.13 46.254 35.13L47.043 35.1284C47.0611 35.1284 47.0784 35.1356 47.0912 35.1483C47.104 35.1611 47.1112 35.1784 47.1112 35.1964L47.1096 39.1485C47.1096 39.1663 47.1027 39.1833 47.0902 39.196C47.0778 39.2087 47.0608 39.2161 47.043 39.2165L46.2586 39.2273C46.2496 39.2275 46.2405 39.2259 46.2321 39.2226C46.2236 39.2193 46.2159 39.2143 46.2094 39.2079C46.2029 39.2016 46.1978 39.194 46.1942 39.1857C46.1907 39.1773 46.1889 39.1684 46.1889 39.1593L46.1827 37.5983C46.1827 37.5802 46.1755 37.5629 46.1627 37.5502C46.1499 37.5374 46.1326 37.5303 46.1145 37.5303L45.0511 37.521C45.0331 37.521 45.0157 37.5281 45.0029 37.5409C44.9901 37.5537 44.9829 37.571 44.9829 37.589Z" fill="#242021"/>
<path d="M49.1258 37.5755L49.1304 38.3637C49.1304 38.3773 49.1358 38.3902 49.1454 38.3998C49.155 38.4094 49.168 38.4147 49.1816 38.4147H50.665C50.6785 38.4147 50.6916 38.4201 50.7011 38.4297C50.7107 38.4392 50.7161 38.4522 50.7161 38.4657V39.1767C50.7161 39.1902 50.7107 39.2032 50.7011 39.2128C50.6916 39.2223 50.6785 39.2277 50.665 39.2277L48.2484 39.2215C48.2349 39.2215 48.2218 39.2162 48.2123 39.2066C48.2027 39.197 48.1973 39.1841 48.1973 39.1705V35.1814C48.1973 35.1678 48.2027 35.1549 48.2123 35.1453C48.2218 35.1357 48.2349 35.1304 48.2484 35.1304H50.6278C50.6413 35.1304 50.6544 35.1357 50.6639 35.1453C50.6735 35.1549 50.6789 35.1678 50.6789 35.1814L50.6758 35.8522C50.6758 35.8657 50.6704 35.8787 50.6609 35.8882C50.6513 35.8978 50.6382 35.9032 50.6247 35.9032H49.1785C49.1649 35.9032 49.1519 35.9085 49.1423 35.9181C49.1327 35.9277 49.1273 35.9406 49.1273 35.9542V36.7424C49.1273 36.7559 49.1327 36.7689 49.1423 36.7785C49.1519 36.788 49.1649 36.7934 49.1785 36.7934L50.3581 36.7903C50.3716 36.7903 50.3846 36.7957 50.3942 36.8053C50.4038 36.8148 50.4092 36.8278 50.4092 36.8413L50.4046 37.475C50.4046 37.4885 50.3992 37.5015 50.3896 37.5111C50.38 37.5207 50.367 37.526 50.3534 37.526L49.1769 37.5245C49.1633 37.5245 49.1503 37.5299 49.1407 37.5394C49.1312 37.549 49.1258 37.562 49.1258 37.5755Z" fill="#242021"/>
<path d="M52.6171 37.3205C52.6171 37.3988 52.6383 37.405 52.6807 37.339L54.0199 35.2107C54.0356 35.1861 54.0573 35.1659 54.0831 35.1518C54.1088 35.1378 54.1377 35.1304 54.1672 35.1304H54.7485C54.8001 35.1314 54.826 35.1572 54.826 35.2077V39.1489C54.826 39.2004 54.8001 39.2262 54.7485 39.2262H53.9734C53.9529 39.2262 53.9332 39.218 53.9186 39.2035C53.9041 39.189 53.8959 39.1694 53.8959 39.1489V37.0747C53.8959 36.9974 53.8753 36.9918 53.8339 37.0577L52.5133 39.1412C52.4966 39.1673 52.4735 39.1887 52.4461 39.2036C52.4187 39.2184 52.388 39.2262 52.3567 39.2262H51.8033C51.7517 39.2262 51.7258 39.2004 51.7258 39.1489V35.1876C51.7258 35.1494 51.7455 35.1304 51.7847 35.1304H52.5784C52.6042 35.1304 52.6171 35.1433 52.6171 35.169V37.3205Z" fill="#242021"/>
<path d="M58.5064 37.526C58.4961 37.526 58.4863 37.5301 58.479 37.5373C58.4717 37.5446 58.4676 37.5544 58.4676 37.5647L58.4661 38.3745C58.4661 38.3852 58.4702 38.3954 58.4774 38.403C58.4847 38.4105 58.4946 38.4147 58.5048 38.4147H60.0177C60.0277 38.4151 60.0372 38.4194 60.0441 38.4266C60.0511 38.4338 60.0549 38.4434 60.0549 38.4534L60.0565 39.1875C60.0565 39.2133 60.0436 39.2262 60.0177 39.2262H57.6539C57.5763 39.2262 57.5376 39.1875 57.5376 39.1102V35.2077C57.5376 35.1561 57.5634 35.1304 57.6151 35.1304H59.979C60.0048 35.1304 60.0177 35.1433 60.0177 35.169V35.8614C60.0177 35.8725 60.0133 35.8831 60.0055 35.8909C59.9976 35.8988 59.987 35.9032 59.9759 35.9032C59.4881 35.9032 58.9998 35.9026 58.511 35.9016C58.4995 35.9016 58.4885 35.9062 58.4804 35.9143C58.4722 35.9224 58.4676 35.9334 58.4676 35.9449C58.4676 35.948 58.4676 36.2174 58.4676 36.7532C58.4676 36.7635 58.4717 36.7733 58.479 36.7806C58.4863 36.7878 58.4961 36.7919 58.5064 36.7919H59.7077C59.7325 36.7919 59.7449 36.8048 59.7449 36.8305L59.7465 37.4874C59.7465 37.5131 59.7335 37.526 59.7077 37.526H58.5064Z" fill="#242021"/>
<path d="M63.7816 39.2262H61.6286C61.5645 39.2262 61.5325 39.2586 61.5325 39.3235V39.7269C61.5325 39.831 61.4808 39.8897 61.3775 39.9031L60.8148 39.982C60.7249 39.9943 60.6799 39.9552 60.6799 39.8645V38.5353C60.6799 38.4735 60.7109 38.4477 60.7729 38.458C61.0034 38.4961 61.1568 38.3946 61.2333 38.1535C61.5557 37.1334 61.7066 36.1628 61.6859 35.2417C61.6839 35.1675 61.72 35.1304 61.7944 35.1304H64.2451C64.2968 35.1304 64.3226 35.1561 64.3226 35.2077V38.3545C64.3226 38.4173 64.3541 38.4498 64.4172 38.4518L64.6342 38.4565C64.7106 38.4575 64.7489 38.4961 64.7489 38.5724V39.7872C64.7487 39.814 64.7389 39.8398 64.7211 39.8598C64.7034 39.8797 64.6791 39.8924 64.6528 39.8954L63.9692 39.982C63.9175 39.9881 63.8922 39.966 63.8932 39.9155L63.8979 39.3436C63.8989 39.2653 63.8602 39.2262 63.7816 39.2262ZM62.1122 38.4534H63.3538C63.3641 38.4534 63.3739 38.4493 63.3812 38.4421C63.3885 38.4348 63.3926 38.425 63.3926 38.4147V35.9418C63.3926 35.9311 63.3885 35.9209 63.3812 35.9134C63.3739 35.9059 63.3641 35.9016 63.3538 35.9016L62.5788 35.9032C62.5674 35.9031 62.5564 35.9074 62.548 35.9152C62.5397 35.9229 62.5346 35.9335 62.5338 35.9449C62.4915 36.7785 62.3421 37.6023 62.0858 38.4163C62.0786 38.441 62.0874 38.4534 62.1122 38.4534Z" fill="#242021"/>
<path d="M66.5377 36.6435C66.8756 36.6373 67.2523 36.5909 67.5654 36.7331C68.8225 37.305 68.5032 39.1813 67.057 39.2169C66.5733 39.2293 66.0882 39.2323 65.6014 39.2262C65.5467 39.2251 65.5193 39.1973 65.5193 39.1427V35.169C65.5193 35.1433 65.5322 35.1304 65.558 35.1304L66.4106 35.1319C66.4364 35.1319 66.4493 35.1443 66.4493 35.169V36.5569C66.4493 36.6146 66.4788 36.6435 66.5377 36.6435ZM66.4509 37.4503L66.4478 38.4055C66.4478 38.4178 66.4527 38.4296 66.4614 38.4382C66.4701 38.4469 66.4819 38.4518 66.4943 38.4518L66.9516 38.4534C67.0753 38.4537 67.1941 38.4009 67.2819 38.3064C67.3697 38.2119 67.4192 38.0835 67.4197 37.9495V37.9124C67.4199 37.846 67.408 37.7803 67.3848 37.7189C67.3615 37.6574 67.3274 37.6016 67.2842 37.5545C67.241 37.5075 67.1897 37.4701 67.1331 37.4445C67.0766 37.4189 67.0159 37.4057 66.9547 37.4055L66.4974 37.4039C66.4851 37.4039 66.4732 37.4088 66.4645 37.4175C66.4558 37.4262 66.4509 37.438 66.4509 37.4503Z" fill="#242021"/>
<path d="M69.5765 35.1304H68.7549C68.725 35.1304 68.7007 35.1546 68.7007 35.1845V39.1721C68.7007 39.2019 68.725 39.2262 68.7549 39.2262H69.5765C69.6064 39.2262 69.6307 39.2019 69.6307 39.1721V35.1845C69.6307 35.1546 69.6064 35.1304 69.5765 35.1304Z" fill="#242021"/>
<g clip-path="url(#clip0_311_2078)">
<path d="M187.295 2.00287C189.34 1.9563 191.435 2.38659 192.954 3.78922C193.771 4.55485 194.385 5.5122 194.741 6.57493C195.092 7.63254 195.286 8.73624 195.317 9.85054C195.317 9.86101 195.315 9.87143 195.312 9.88119C195.308 9.89095 195.302 9.89986 195.295 9.90739C195.288 9.91493 195.279 9.92095 195.269 9.9251C195.26 9.92925 195.249 9.93145 195.239 9.93157C193.902 9.94833 192.499 9.95113 191.03 9.93995C190.844 9.93995 190.665 9.93156 190.493 9.91759C190.462 9.91516 190.433 9.90144 190.411 9.879C190.389 9.85656 190.376 9.82691 190.375 9.79558C190.35 9.23443 190.228 8.68185 190.014 8.16291C189.554 7.10488 188.573 6.78169 187.486 6.8087C186.354 6.83664 185.639 7.39173 185.342 8.47398C185.229 8.8804 185.171 9.30013 185.169 9.72201C185.164 12.9507 185.164 16.2257 185.169 19.547C185.169 20.957 185.651 22.3336 187.261 22.4631C188.47 22.5562 189.654 22.2265 190.138 21.0073C190.317 20.5371 190.423 20.042 190.451 19.5395C190.453 19.507 190.468 19.4765 190.491 19.4543C190.515 19.432 190.546 19.4195 190.579 19.4194H195.277C195.292 19.4172 195.308 19.4187 195.323 19.4235C195.337 19.4284 195.351 19.4367 195.362 19.4476C195.372 19.4585 195.381 19.4718 195.386 19.4864C195.391 19.5011 195.392 19.5167 195.39 19.5321C195.383 20.3817 195.266 21.2269 195.044 22.0467C194.902 22.6424 194.685 23.2175 194.398 23.7577C193.477 25.4155 192.103 26.4813 190.275 26.955C188.829 27.3199 187.325 27.3893 185.852 27.159C183.407 26.8051 181.483 25.3512 180.612 23.0303C180.155 21.8102 180.023 20.5156 180.025 19.1688C180.029 15.9277 180.031 12.7542 180.03 9.64843C180.037 8.73792 180.162 7.83216 180.402 6.954C180.716 5.73018 181.373 4.62211 182.296 3.76128C183.597 2.53933 185.435 2.04571 187.295 2.00287Z" fill="#242021"/>
<path d="M143.542 27.0193C143.527 27.0012 143.506 26.9878 143.484 26.9806C143.461 26.9734 143.437 26.9726 143.414 26.9783C142.176 27.2773 140.896 27.3598 139.63 27.2223C136.728 26.9345 134.392 25.3028 133.434 22.5115C133.068 21.4372 132.883 20.3095 132.885 19.1744C132.877 16.181 132.877 13.1696 132.885 10.1402C132.886 9.01562 133.075 7.89916 133.442 6.83664C133.952 5.29247 134.998 3.98336 136.391 3.14845C138.157 2.07458 140.554 1.87993 142.619 2.21708C145.241 2.64551 147.276 4.28098 148.157 6.77238C148.426 7.5333 148.6 8.32434 148.677 9.1278C148.721 9.59286 148.742 10.2138 148.739 10.9905C148.727 13.6604 148.723 16.3614 148.729 19.0934C148.735 20.3176 148.527 21.5335 148.114 22.6857C147.824 23.4801 147.389 24.2135 146.832 24.8483C146.808 24.8765 146.795 24.9121 146.795 24.9489C146.795 24.9857 146.808 25.0213 146.832 25.0495L148.598 27.1739C148.604 27.1805 148.608 27.1881 148.611 27.1964C148.613 27.2046 148.614 27.2134 148.614 27.222C148.613 27.2307 148.611 27.2392 148.607 27.2469C148.603 27.2546 148.597 27.2615 148.59 27.267L145.887 29.6066C145.869 29.6235 145.844 29.6329 145.819 29.6329C145.794 29.6329 145.769 29.6235 145.751 29.6066C145.631 29.4993 145.521 29.3832 145.419 29.2592C144.79 28.5011 144.164 27.7544 143.542 27.0193ZM138.022 19.2825C138.023 19.9727 138.188 20.6527 138.506 21.2653C139.054 22.2535 140.086 22.5515 141.152 22.4612C142.924 22.3103 143.569 20.8071 143.569 19.235C143.574 16.3676 143.574 13.364 143.569 10.224C143.569 8.85305 143.133 7.32934 141.61 6.97076C141.031 6.8303 140.424 6.8454 139.852 7.01453C138.308 7.46904 138.004 9.07285 138.005 10.4736C138.01 13.3832 138.016 16.3195 138.022 19.2825Z" fill="#242021"/>
<path d="M118.715 18.7011C118.689 18.6878 118.66 18.6808 118.631 18.6806C118.156 18.6769 117.664 18.6769 117.155 18.6806C117.116 18.6803 117.078 18.6909 117.045 18.7114C117.012 18.7318 116.986 18.7612 116.969 18.7961L113.183 26.7565C113.169 26.7912 113.145 26.8207 113.113 26.8409C113.082 26.8611 113.045 26.871 113.007 26.8692C111.218 26.8822 109.528 26.8773 107.936 26.8543C107.899 26.856 107.863 26.85 107.829 26.8366C107.821 26.8342 107.815 26.8301 107.809 26.8246C107.803 26.8191 107.799 26.8124 107.797 26.805C107.794 26.7975 107.793 26.7896 107.794 26.7819C107.795 26.7741 107.798 26.7667 107.803 26.7602C109.281 23.7799 110.769 20.7889 112.265 17.7875C112.277 17.7683 112.285 17.7467 112.289 17.724C112.292 17.7014 112.291 17.6783 112.285 17.6563C112.278 17.6343 112.268 17.6138 112.253 17.5963C112.238 17.5788 112.22 17.5645 112.2 17.5546C110.013 16.1576 109.142 13.8096 108.981 11.3061C108.896 9.99756 109.039 8.68409 109.405 7.4251C109.717 6.3063 110.318 5.28972 111.147 4.47797C111.976 3.66622 113.005 3.08805 114.128 2.80181C114.917 2.59422 115.73 2.48904 116.545 2.48887C118.806 2.47832 121.159 2.47832 123.601 2.48887C123.628 2.48887 123.654 2.49947 123.672 2.51833C123.691 2.5372 123.702 2.56279 123.702 2.58946V26.7751C123.703 26.7908 123.699 26.8065 123.69 26.8193C123.68 26.8322 123.667 26.8412 123.652 26.845C123.606 26.858 123.559 26.864 123.511 26.8627C122.081 26.8757 120.536 26.8757 118.876 26.8627C118.847 26.8624 118.82 26.851 118.801 26.831C118.781 26.8109 118.77 26.7838 118.77 26.7556V18.7877C118.769 18.7697 118.764 18.7521 118.754 18.7368C118.744 18.7216 118.731 18.7092 118.715 18.7011ZM118.769 13.845V7.31427C118.768 7.27705 118.754 7.24142 118.727 7.2151C118.701 7.18877 118.665 7.17388 118.628 7.17364H116.62C115.198 7.17364 114.047 8.44215 114.047 10.0059V11.1534C114.047 12.718 115.198 13.9856 116.62 13.9856H118.628C118.647 13.9856 118.665 13.982 118.682 13.9749C118.699 13.9679 118.715 13.9575 118.728 13.9444C118.741 13.9314 118.751 13.9159 118.758 13.8988C118.765 13.8817 118.769 13.8635 118.769 13.845Z" fill="#242021"/>
<path d="M159.024 27.252C157.215 27.1319 155.463 26.4939 154.229 25.1965C153.548 24.4968 153.022 23.6621 152.682 22.7461C152.418 22.0044 152.239 21.2347 152.151 20.4522C152.087 19.8626 152.059 19.2699 152.065 18.677C152.073 13.2577 152.075 7.89209 152.072 2.58021C152.072 2.5574 152.081 2.53551 152.097 2.51929C152.113 2.50307 152.134 2.49384 152.157 2.4936C153.639 2.47869 155.136 2.4728 156.65 2.4759C156.8 2.47411 156.951 2.48408 157.099 2.5057C157.117 2.50687 157.134 2.51156 157.15 2.5195C157.166 2.52744 157.18 2.53846 157.191 2.55192C157.203 2.56538 157.211 2.581 157.217 2.59785C157.222 2.61471 157.224 2.63247 157.222 2.65007C157.222 8.15442 157.222 13.6184 157.222 19.0421C157.222 20.5509 157.631 22.2217 159.403 22.4453C160.729 22.612 161.82 22.0578 162.211 20.7316C162.364 20.2177 162.442 19.6844 162.443 19.1482V2.55972C162.443 2.54234 162.449 2.52567 162.462 2.51329C162.474 2.50092 162.49 2.49384 162.508 2.4936C164.034 2.47869 165.663 2.47683 167.396 2.48801C167.447 2.48836 167.498 2.49588 167.547 2.51036C167.557 2.51344 167.567 2.51994 167.573 2.52887C167.58 2.5378 167.583 2.54864 167.583 2.55972C167.577 8.22614 167.577 13.6628 167.583 18.8698C167.587 19.4874 167.548 20.1046 167.465 20.7167C167.367 21.5015 167.165 22.2698 166.864 23.0013C165.434 26.3197 162.44 27.4793 159.024 27.252Z" fill="#242021"/>
<path d="M176.277 2.48706H171.609C171.536 2.48706 171.477 2.54627 171.477 2.61931V26.7379C171.477 26.8109 171.536 26.8702 171.609 26.8702H176.277C176.35 26.8702 176.409 26.8109 176.409 26.7379V2.61931C176.409 2.54627 176.35 2.48706 176.277 2.48706Z" fill="#242021"/>
<path d="M204.462 17.688C204.014 18.3437 203.574 19.0388 203.143 19.7733C203.116 19.8197 203.101 19.8724 203.101 19.9261V26.7986C203.101 26.8115 203.097 26.824 203.088 26.8337C203.08 26.8435 203.068 26.8499 203.056 26.8517C202.932 26.8692 202.808 26.8773 202.684 26.8759C201.382 26.8759 200.053 26.8709 198.696 26.861C198.583 26.861 198.469 26.8554 198.352 26.847C198.338 26.8478 198.325 26.8456 198.312 26.8405C198.299 26.8354 198.288 26.8275 198.278 26.8175C198.269 26.8074 198.262 26.7954 198.258 26.7823C198.254 26.7692 198.253 26.7554 198.254 26.7418C198.246 19.0841 198.248 11.4823 198.26 3.93641C198.26 3.49308 198.264 3.03671 198.272 2.56731C198.271 2.55645 198.272 2.54545 198.276 2.53515C198.279 2.52485 198.285 2.51553 198.293 2.50789C198.301 2.50025 198.31 2.4945 198.321 2.49108C198.331 2.48766 198.342 2.48665 198.353 2.48814L203.001 2.48348C203.02 2.48193 203.04 2.48818 203.055 2.5009C203.07 2.51362 203.08 2.53178 203.082 2.55147C203.092 2.61022 203.097 2.66973 203.097 2.72936C203.097 5.55699 203.097 8.39485 203.097 11.243C203.097 11.2872 203.104 11.3312 203.117 11.3733C203.168 11.5354 203.228 11.5391 203.303 11.3845C203.768 10.3777 204.232 9.35136 204.743 8.35946C205.734 6.43464 206.726 4.50982 207.717 2.585C207.731 2.55458 207.754 2.52902 207.782 2.51159C207.811 2.49416 207.844 2.48567 207.877 2.48721C209.402 2.4779 211.034 2.4779 212.771 2.48721C212.927 2.48721 213.092 2.49187 213.265 2.50118C213.279 2.5019 213.291 2.50794 213.301 2.51802C213.31 2.5281 213.315 2.54143 213.315 2.5552C213.315 2.56168 213.313 2.56805 213.31 2.57383C213.244 2.72317 213.17 2.86869 213.088 3.0097C211.129 6.38869 209.192 9.72422 207.277 13.0163C207.255 13.0539 207.243 13.0965 207.242 13.14C207.241 13.1835 207.251 13.2266 207.272 13.2649L214.393 26.7697C214.396 26.7757 214.399 26.7823 214.399 26.789C214.4 26.7958 214.399 26.8026 214.397 26.8091C214.395 26.8156 214.392 26.8217 214.388 26.8269C214.383 26.8321 214.378 26.8364 214.372 26.8396C214.366 26.8424 214.36 26.8443 214.353 26.8452C214.222 26.8608 214.09 26.8685 213.957 26.8684H209.495C209.31 26.8684 209.124 26.8629 208.947 26.8498C208.924 26.8494 208.901 26.8424 208.882 26.8295C208.863 26.8166 208.848 26.7985 208.838 26.7772L204.485 17.6871C204.479 17.6759 204.47 17.675 204.462 17.688Z" fill="#242021"/>
<path d="M97.2727 13.7016C96.0522 12.6072 94.1717 12.8429 93.0312 13.9037C92.6971 14.2007 92.4288 14.5644 92.2434 14.9715C92.058 15.3786 91.9597 15.82 91.9547 16.2675C91.9343 17.2491 92.2314 18.0839 92.8462 18.7719C93.1648 19.1193 93.5531 19.3954 93.9856 19.5819C94.4181 19.7684 94.8851 19.8612 95.356 19.8542C96.7428 19.8094 97.8658 18.6322 98.6187 17.5257C98.6314 17.5072 98.6499 17.4935 98.6713 17.4867C98.6927 17.48 98.7157 17.4806 98.7367 17.4885C98.7594 17.4976 98.7806 17.5099 98.7999 17.5248C99.2505 17.8881 99.688 18.2454 100.112 18.5968C100.126 18.608 100.134 18.6235 100.137 18.6405C100.14 18.6575 100.137 18.675 100.128 18.6899C99.9789 18.9346 99.8218 19.1805 99.657 19.4276C98.5518 21.0882 96.9613 21.8119 95.0037 21.7355C91.5169 21.6005 89.1958 18.1609 90.263 14.8509C90.7587 13.3234 91.7193 12.2263 93.1446 11.5594C94.1523 11.0862 95.2875 10.9588 96.3748 11.1968C97.4621 11.4349 98.4408 12.0251 99.1597 12.8764C99.3382 13.0862 99.5197 13.2936 99.7044 13.4985C100.099 13.9394 100.619 14.1545 101.267 14.144C102.645 14.1235 103.991 14.1253 105.307 14.1496C105.351 14.1503 105.395 14.1621 105.434 14.1839C105.473 14.2057 105.507 14.2367 105.531 14.2744C105.898 14.8456 106.253 15.3957 106.597 15.9247C106.618 15.9562 106.631 15.9924 106.634 16.03C106.635 16.0349 106.634 16.0398 106.633 16.0445C106.631 16.0493 106.629 16.0536 106.626 16.0575C106.623 16.0613 106.619 16.0644 106.615 16.0667C106.61 16.0691 106.606 16.0705 106.601 16.071H106.596L98.9022 16.0039C98.8626 16.0065 98.8231 15.9964 98.7897 15.9749C98.7562 15.9535 98.7305 15.9218 98.7163 15.8847C98.3575 15.0623 97.9466 14.306 97.2727 13.7016Z" fill="#242021"/>
<path d="M215.228 15.8261C214.87 15.8261 214.526 15.8177 214.196 15.8009C214.18 15.8003 214.165 15.7963 214.151 15.789C214.137 15.7818 214.124 15.7716 214.114 15.759L212.864 14.1561C212.838 14.1226 212.847 14.103 212.888 14.0975C213.085 14.0742 213.283 14.0627 213.48 14.063C219.819 14.063 226.123 14.063 232.391 14.063C232.577 14.063 232.763 14.1021 232.949 14.0881C233.007 14.0881 233.011 14.0975 232.963 14.1291C232.256 14.5948 231.441 14.9869 230.647 15.3483C230.196 15.5558 229.721 15.7057 229.233 15.7944C228.738 15.8713 228.238 15.9025 227.738 15.8875C223.325 15.8329 219.155 15.8124 215.228 15.8261Z" fill="#242021"/>
<path d="M130.661 14.0928H126.073C126.003 14.0928 125.946 14.1499 125.946 14.2204V15.8242C125.946 15.8946 126.003 15.9518 126.073 15.9518H130.661C130.731 15.9518 130.789 15.8946 130.789 15.8242V14.2204C130.789 14.1499 130.731 14.0928 130.661 14.0928Z" fill="#242021"/>
<path d="M107.315 34.023C107.536 33.8759 107.744 33.7129 107.996 33.6188C108.323 33.4985 108.673 33.4564 109.019 33.4959C109.845 33.589 110.467 34.2307 110.429 35.0708C110.377 36.2043 109.428 36.8031 108.353 36.6811C106.866 36.5116 106.529 35.0047 106.773 33.7706C106.928 32.992 107.387 32.4714 108.149 32.2087C108.726 32.0146 109.319 31.8727 109.921 31.785C109.935 31.7813 109.95 31.781 109.964 31.784C109.978 31.7871 109.991 31.7934 110.003 31.8024C110.014 31.8114 110.023 31.823 110.029 31.8361C110.035 31.8493 110.038 31.8636 110.037 31.8781L110.053 32.1007C110.056 32.114 110.056 32.1279 110.053 32.1413C110.05 32.1547 110.044 32.1672 110.036 32.1781C110.028 32.1889 110.017 32.1978 110.005 32.2041C109.993 32.2103 109.979 32.2138 109.966 32.2143C108.913 32.4229 107.278 32.5412 107.242 33.9839C107.242 33.9898 107.243 33.9956 107.245 34.0011C107.247 34.0066 107.251 34.0115 107.255 34.0158C107.259 34.02 107.264 34.0234 107.269 34.0258C107.274 34.0281 107.28 34.0294 107.286 34.0295C107.296 34.0306 107.306 34.0283 107.315 34.023ZM108.552 36.2583C109.073 36.2816 109.526 36.072 109.77 35.6063C110.115 34.932 109.77 34.1162 109.026 33.9615C108.711 33.8911 108.383 33.9154 108.082 34.0314C107.781 34.1474 107.521 34.3499 107.335 34.6135C107.298 34.6624 107.271 34.7184 107.256 34.7782C107.241 34.838 107.239 34.9002 107.249 34.9609C107.377 35.7935 107.811 36.2266 108.552 36.2602V36.2583Z" fill="#242021"/>
<path d="M117.048 34.9674C117.048 35.7125 117.648 36.2071 118.372 36.2536C118.746 36.2819 119.122 36.2089 119.458 36.0422C119.535 36.0049 119.576 36.0292 119.579 36.1149L119.586 36.2927C119.59 36.3327 119.58 36.3729 119.559 36.4068C119.537 36.4407 119.505 36.4661 119.467 36.479C118.351 36.9447 117.061 36.7091 116.592 35.4908C116.514 35.2944 116.481 35.083 116.495 34.8721C116.509 34.6612 116.569 34.4561 116.672 34.2717C117.217 33.2239 118.346 33.0535 119.389 33.4158C119.427 33.4263 119.461 33.4497 119.484 33.4821C119.507 33.5144 119.519 33.5538 119.517 33.5936V33.7911C119.517 33.8768 119.48 33.9029 119.401 33.8703C118.716 33.5909 117.922 33.575 117.384 34.1283C117.275 34.2385 117.189 34.3696 117.132 34.5137C117.074 34.6579 117.045 34.8121 117.048 34.9674Z" fill="#242021"/>
<path d="M155.172 34.4488C154.788 35.2088 155.33 36.0619 156.12 36.2184C156.572 36.3176 157.045 36.256 157.456 36.0442C157.528 36.007 157.566 36.0284 157.571 36.1094L157.582 36.3059C157.585 36.3453 157.575 36.3846 157.554 36.4181C157.533 36.4515 157.502 36.4775 157.466 36.4922C156.363 36.9318 155.078 36.7269 154.613 35.5199C154.518 35.2889 154.484 35.0375 154.514 34.7895C154.543 34.5416 154.636 34.3054 154.782 34.1033C155.179 33.5109 155.751 33.2278 156.499 33.2538C156.81 33.2617 157.117 33.3222 157.407 33.4327C157.442 33.4469 157.471 33.4714 157.492 33.5028C157.513 33.5342 157.523 33.5711 157.522 33.6087L157.517 33.795C157.517 33.8844 157.475 33.9114 157.391 33.876C156.599 33.5305 155.595 33.6115 155.172 34.4488Z" fill="#242021"/>
<path d="M166.792 34.9619C166.798 35.9221 165.937 36.7073 164.866 36.7147C163.795 36.7222 162.922 35.9501 162.914 34.9889C162.906 34.0277 163.77 33.2426 164.84 33.2352C165.91 33.2277 166.785 33.997 166.792 34.9619ZM166.251 34.9805C166.251 34.2625 165.63 33.6766 164.857 33.6766C164.083 33.6766 163.462 34.2541 163.456 34.9712C163.456 35.6893 164.077 36.2751 164.85 36.2751C165.624 36.2751 166.244 35.6986 166.251 34.9815V34.9805Z" fill="#242021"/>
<path d="M186.165 36.2107V37.8872C186.167 37.8982 186.166 37.9094 186.163 37.92C186.159 37.9306 186.154 37.9402 186.146 37.9481C186.138 37.9561 186.129 37.9621 186.118 37.9658C186.108 37.9694 186.097 37.9706 186.086 37.9691L185.732 37.9747C185.722 37.975 185.711 37.9731 185.701 37.9691C185.691 37.9651 185.682 37.9592 185.674 37.9517C185.666 37.9441 185.66 37.9351 185.656 37.9251C185.652 37.9152 185.65 37.9045 185.65 37.8937V33.439C185.647 33.4232 185.649 33.4071 185.654 33.3919C185.659 33.3768 185.668 33.363 185.679 33.3517C185.69 33.3403 185.704 33.3317 185.719 33.3265C185.734 33.3213 185.75 33.3196 185.766 33.3216H186.045C186.06 33.3197 186.076 33.3212 186.091 33.326C186.105 33.3307 186.119 33.3387 186.131 33.3492C186.142 33.3597 186.151 33.3726 186.157 33.387C186.163 33.4014 186.166 33.4169 186.165 33.4325L186.189 33.7119C186.189 33.7519 186.21 33.7603 186.243 33.737C186.396 33.6176 186.56 33.5123 186.732 33.4222C187.136 33.2312 187.593 33.1862 188.026 33.2946C188.737 33.461 189.176 33.918 189.342 34.6656C189.395 34.9756 189.365 35.2942 189.254 35.5886C188.941 36.3001 188.4 36.669 187.629 36.695C187.374 36.7067 187.119 36.6671 186.88 36.5786C186.64 36.4902 186.421 36.3547 186.234 36.18C186.187 36.1446 186.165 36.1539 186.165 36.2107ZM186.171 34.4551C186.16 34.7954 186.16 35.121 186.171 35.4321C186.176 35.5465 186.223 35.655 186.302 35.7376C186.605 36.071 186.95 36.2452 187.338 36.2601C187.846 36.2796 188.327 36.1148 188.605 35.6733C188.898 35.2077 188.898 34.7382 188.605 34.2651C188.44 34.0097 188.188 33.8232 187.895 33.7408C187.242 33.5762 186.69 33.7572 186.238 34.2837C186.197 34.3319 186.174 34.3921 186.171 34.4551Z" fill="#242021"/>
<path d="M190.703 35.0875C190.681 35.0875 190.66 35.0962 190.644 35.1118C190.629 35.1273 190.62 35.1484 190.62 35.1704C190.619 35.1778 190.619 35.1853 190.62 35.1928C190.931 36.3467 192.261 36.478 193.198 36.0254C193.265 35.9928 193.299 36.0142 193.298 36.0887V36.3076C193.299 36.3368 193.292 36.3658 193.277 36.3911C193.262 36.4164 193.241 36.4372 193.215 36.451C193.108 36.5139 192.992 36.5604 192.871 36.5889C192.208 36.7565 191.509 36.7574 190.91 36.4026C190.716 36.2942 190.547 36.1453 190.415 35.966C190.282 35.7867 190.19 35.5812 190.144 35.3632C189.884 34.1822 190.754 33.2145 191.944 33.2471C192.976 33.276 193.583 34.0388 193.581 35.0111C193.583 35.0213 193.582 35.0315 193.579 35.0412C193.575 35.0509 193.57 35.0597 193.563 35.0669C193.555 35.0741 193.547 35.0796 193.537 35.0828C193.527 35.0861 193.517 35.087 193.507 35.0856L190.703 35.0875ZM190.672 34.7001L193.024 34.687C193.028 34.687 193.032 34.6854 193.035 34.6824C193.038 34.6794 193.039 34.6754 193.039 34.6712V34.6609C193.039 34.118 192.506 33.6802 191.853 33.6839H191.831C191.18 33.6839 190.653 34.131 190.656 34.674V34.6824C190.656 34.6866 190.658 34.6906 190.661 34.6936C190.664 34.6965 190.668 34.6982 190.672 34.6982V34.7001Z" fill="#242021"/>
<path d="M203.051 35.7321C203.565 36.3691 204.496 36.3729 205.189 36.0562C205.249 36.0292 205.282 36.0487 205.282 36.1149L205.288 36.3421C205.291 36.3714 205.283 36.4007 205.267 36.4253C205.251 36.4499 205.228 36.4685 205.2 36.4781C204.189 36.8935 203.049 36.7575 202.453 35.7703C202.204 35.3549 202.174 34.7188 202.385 34.308C202.933 33.2379 204.058 33.0423 205.112 33.4149C205.147 33.4249 205.177 33.4462 205.198 33.4754C205.219 33.5046 205.229 33.5401 205.228 33.576L205.232 33.8293C205.233 33.8365 205.231 33.8437 205.229 33.8504C205.226 33.8571 205.222 33.8632 205.217 33.8684C205.212 33.8736 205.206 33.8778 205.199 33.8807C205.193 33.8835 205.186 33.8851 205.178 33.8852C205.171 33.8854 205.163 33.8838 205.156 33.8805C204.518 33.6011 203.727 33.5685 203.192 34.0556C202.959 34.264 202.815 34.5539 202.788 34.8657C202.762 35.1775 202.856 35.4875 203.051 35.7321Z" fill="#242021"/>
<path d="M214.524 34.9721C214.524 35.9314 213.656 36.7091 212.585 36.7091C211.514 36.7091 210.646 35.9314 210.646 34.9721C210.646 34.0128 211.514 33.2351 212.585 33.2351C213.656 33.2351 214.524 34.0128 214.524 34.9721ZM213.983 34.9814C213.988 34.2633 213.365 33.6775 212.589 33.671C211.813 33.6645 211.184 34.2438 211.179 34.9619C211.174 35.6799 211.797 36.2658 212.573 36.2714C213.348 36.2769 213.979 35.6995 213.983 34.9814Z" fill="#242021"/>
<path d="M124.684 33.727C125.248 33.3078 125.831 33.1337 126.534 33.3106C127.082 33.4485 127.473 33.8114 127.709 34.3994C128.081 35.3159 127.465 36.426 126.511 36.6347C125.812 36.7899 125.201 36.6393 124.679 36.183C124.644 36.1532 124.628 36.1615 124.628 36.2062V37.8874C124.629 37.8981 124.628 37.9091 124.625 37.9194C124.622 37.9298 124.616 37.9392 124.609 37.947C124.601 37.9548 124.592 37.9607 124.581 37.9642C124.571 37.9678 124.56 37.9689 124.549 37.9675L124.178 37.9721C124.168 37.9737 124.158 37.973 124.149 37.97C124.14 37.9671 124.131 37.962 124.125 37.9552C124.118 37.9484 124.112 37.94 124.109 37.9308C124.106 37.9216 124.105 37.9118 124.107 37.9023V33.4494C124.105 33.4324 124.106 33.4152 124.112 33.399C124.117 33.3827 124.126 33.368 124.138 33.3558C124.15 33.3437 124.165 33.3345 124.181 33.3289C124.197 33.3233 124.215 33.3215 124.232 33.3237H124.51C124.525 33.321 124.54 33.322 124.555 33.3265C124.569 33.331 124.582 33.3389 124.592 33.3495C124.603 33.3601 124.611 33.3731 124.615 33.3874C124.62 33.4018 124.621 33.4169 124.618 33.4317V33.6953C124.625 33.7512 124.644 33.7568 124.684 33.727ZM126.16 36.2416C126.36 36.2141 126.55 36.1395 126.716 36.024C126.881 35.9085 127.017 35.7553 127.112 35.5771C127.207 35.3989 127.258 35.2007 127.262 34.9987C127.265 34.7967 127.221 34.5968 127.133 34.4152C126.658 33.4308 125.308 33.4922 124.695 34.2783C124.652 34.3339 124.628 34.4024 124.628 34.473C124.628 34.7542 124.627 35.0616 124.623 35.395C124.623 35.6027 124.731 35.7378 124.875 35.87C125.044 36.0294 125.249 36.1461 125.473 36.2104C125.697 36.2747 125.932 36.2847 126.16 36.2398V36.2416Z" fill="#242021"/>
<path d="M132.408 34.9795C132.408 35.9388 131.534 36.7137 130.465 36.71C129.395 36.71 128.53 35.9258 128.533 34.9655C128.533 34.0062 129.407 33.2304 130.477 33.2341C131.547 33.2379 132.412 34.0193 132.408 34.9795ZM131.865 34.9702C131.865 34.2521 131.24 33.6663 130.471 33.6663C129.7 33.6663 129.076 34.2493 129.076 34.9702C129.076 35.6892 129.702 36.2741 130.471 36.2741C131.239 36.2741 131.865 35.6892 131.865 34.9702Z" fill="#242021"/>
<path d="M181.712 35.1611C181.769 35.8001 182.37 36.1856 182.976 36.2471C183.413 36.2981 183.855 36.2228 184.25 36.0301C184.334 35.9882 184.376 36.0143 184.373 36.1093L184.368 36.3198C184.367 36.355 184.356 36.3891 184.335 36.4178C184.315 36.4465 184.286 36.4685 184.254 36.4809C183.1 36.9158 181.558 36.723 181.218 35.3875C181.145 35.1278 181.138 34.8542 181.196 34.5909C181.254 34.3276 181.375 34.0826 181.55 33.8777C181.922 33.4139 182.455 33.2065 183.148 33.2556C184.116 33.3236 184.596 34.0817 184.66 34.9758C184.662 34.9902 184.662 35.005 184.658 35.0191C184.654 35.0331 184.646 35.046 184.636 35.0567C184.626 35.0674 184.614 35.0756 184.6 35.0807C184.587 35.0857 184.572 35.0874 184.557 35.0857H181.776C181.768 35.0858 181.759 35.0876 181.751 35.091C181.744 35.0944 181.736 35.0993 181.731 35.1055C181.725 35.1116 181.72 35.1189 181.717 35.1268C181.714 35.1348 181.712 35.1433 181.712 35.1518V35.1611ZM181.745 34.7038L184.083 34.6834C184.088 34.6834 184.092 34.6816 184.095 34.6784C184.098 34.6753 184.1 34.671 184.1 34.6666V34.6573C184.095 34.1134 183.568 33.6766 182.922 33.6821H182.889C182.244 33.6887 181.724 34.1338 181.729 34.6778V34.6871C181.729 34.6914 181.73 34.6955 181.733 34.6986C181.736 34.7017 181.74 34.7036 181.745 34.7038Z" fill="#242021"/>
<path d="M111.961 34.3491C111.961 34.3738 111.97 34.3975 111.988 34.415C112.005 34.4324 112.029 34.4423 112.053 34.4423C112.48 34.4311 112.854 34.4345 113.174 34.4525C113.824 34.4898 114.382 34.812 114.39 35.5273C114.396 35.7363 114.335 35.9417 114.216 36.1131C113.929 36.5248 113.492 36.6077 113.026 36.6151C112.513 36.6244 112.018 36.6229 111.538 36.6105C111.526 36.612 111.513 36.6106 111.501 36.6064C111.489 36.6023 111.478 36.5955 111.469 36.5865C111.46 36.5775 111.454 36.5667 111.45 36.5547C111.445 36.5427 111.444 36.5299 111.446 36.5173L111.435 33.4438C111.435 33.4137 111.447 33.3846 111.468 33.3628C111.488 33.3409 111.517 33.3279 111.547 33.3265L111.851 33.3116C111.866 33.3074 111.882 33.3073 111.898 33.3112C111.913 33.315 111.927 33.3228 111.939 33.3337C111.95 33.3447 111.959 33.3584 111.964 33.3736C111.969 33.3888 111.969 33.405 111.966 33.4206L111.961 34.3491ZM111.961 34.9405V36.1103C111.96 36.1215 111.962 36.1326 111.966 36.143C111.97 36.1534 111.977 36.1628 111.984 36.1708C111.992 36.1788 112.001 36.1851 112.012 36.1895C112.022 36.1938 112.033 36.196 112.044 36.196H113.051C113.493 36.196 113.853 35.9166 113.855 35.559V35.5012C113.855 35.1482 113.499 34.8595 113.056 34.8576H112.05C112.027 34.8576 112.006 34.8664 111.99 34.8821C111.974 34.8977 111.965 34.9191 111.964 34.9415L111.961 34.9405Z" fill="#242021"/>
<path d="M195.088 35.0896V36.5202C195.09 36.5316 195.089 36.5433 195.086 36.5543C195.082 36.5653 195.076 36.5753 195.068 36.5835C195.06 36.5917 195.05 36.5979 195.039 36.6017C195.028 36.6054 195.016 36.6065 195.005 36.6049H194.665C194.641 36.6049 194.617 36.5951 194.6 36.5776C194.582 36.5602 194.573 36.5365 194.573 36.5118V33.4383C194.573 33.4076 194.585 33.3782 194.607 33.3566C194.629 33.3349 194.658 33.3228 194.689 33.3228H194.693L195.013 33.3358C195.023 33.3351 195.034 33.3366 195.043 33.3403C195.053 33.344 195.062 33.3498 195.069 33.3573C195.076 33.3648 195.081 33.3738 195.084 33.3836C195.088 33.3934 195.089 33.4038 195.087 33.4141V34.5317C195.087 34.6016 195.12 34.6248 195.186 34.6016C195.223 34.5888 195.258 34.5696 195.288 34.5447C195.775 34.1517 196.261 33.7618 196.749 33.375C196.788 33.344 196.835 33.326 196.885 33.3237L197.429 33.3032C197.433 33.3031 197.437 33.3038 197.44 33.3051C197.444 33.3065 197.447 33.3086 197.45 33.3113C197.453 33.314 197.455 33.3172 197.457 33.3208C197.459 33.3243 197.46 33.3282 197.46 33.3321C197.46 33.3388 197.458 33.3454 197.454 33.3507C197.419 33.3993 197.378 33.4426 197.33 33.4793C196.755 33.93 196.203 34.3613 195.674 34.7729C195.666 34.7794 195.661 34.7887 195.659 34.7989C195.658 34.8091 195.661 34.8195 195.667 34.8279L195.673 34.8344L197.656 36.5006C197.742 36.5742 197.729 36.6114 197.616 36.6124L197.182 36.618C197.09 36.6198 197.001 36.5865 196.933 36.5248L195.174 35.0449C195.117 35.0002 195.088 35.0132 195.088 35.0896Z" fill="#242021"/>
<path d="M199.995 35.7833C200.036 35.7162 200.074 35.6469 200.109 35.5756C200.464 34.8454 200.8 34.137 201.118 33.4503C201.135 33.4108 201.163 33.3767 201.198 33.3519C201.232 33.327 201.274 33.3124 201.316 33.3096C201.423 33.2959 201.531 33.2959 201.638 33.3096C201.713 33.3227 201.731 33.3636 201.7 33.4316C201.128 34.5977 200.568 35.7622 200.021 36.9252C199.819 37.3545 199.479 37.8565 199.026 37.9581C198.773 38.0087 198.512 38.0071 198.259 37.9534C198.223 37.9501 198.189 37.9326 198.166 37.9046C198.143 37.8767 198.131 37.8407 198.135 37.8044V37.5958C198.135 37.5138 198.173 37.4849 198.251 37.5082C199 37.7364 199.327 37.2586 199.614 36.6746C199.725 36.4483 199.556 36.2183 199.458 36.0227C199.011 35.1329 198.579 34.2692 198.162 33.4316C198.125 33.3581 198.148 33.3199 198.231 33.318L198.549 33.3115C198.589 33.3086 198.63 33.3183 198.664 33.3394C198.699 33.3604 198.726 33.3917 198.742 33.4288L199.88 35.7712C199.914 35.8504 199.957 35.8523 199.995 35.7833Z" fill="#242021"/>
<path d="M115.4 33.3218H115.097C115.034 33.3218 114.983 33.3726 114.983 33.4354V36.5015C114.983 36.5642 115.034 36.6151 115.097 36.6151H115.4C115.462 36.6151 115.513 36.5642 115.513 36.5015V33.4354C115.513 33.3726 115.462 33.3218 115.4 33.3218Z" fill="#242021"/>
<path d="M121.989 33.8052L121.973 36.5303C121.973 36.5514 121.964 36.5717 121.95 36.5866C121.935 36.6016 121.915 36.6102 121.894 36.6104H121.545C121.535 36.6106 121.524 36.6086 121.515 36.6047C121.505 36.6008 121.496 36.595 121.488 36.5876C121.481 36.5803 121.475 36.5715 121.471 36.5619C121.467 36.5522 121.464 36.5418 121.464 36.5313V33.8229C121.464 33.8016 121.456 33.7812 121.441 33.7662C121.426 33.7512 121.406 33.7428 121.384 33.7428L120.234 33.7353C120.223 33.7353 120.213 33.7332 120.203 33.7291C120.193 33.725 120.184 33.719 120.177 33.7115C120.17 33.7039 120.164 33.695 120.16 33.6852C120.156 33.6753 120.154 33.6648 120.155 33.6543L120.162 33.3944C120.163 33.3738 120.172 33.3542 120.187 33.3399C120.201 33.3255 120.221 33.3174 120.242 33.3171L123.205 33.3413C123.226 33.3416 123.246 33.3501 123.261 33.3651C123.276 33.3801 123.284 33.4004 123.284 33.4215V33.6366C123.285 33.6471 123.283 33.6576 123.279 33.6675C123.275 33.6773 123.269 33.6862 123.262 33.6938C123.255 33.7013 123.246 33.7073 123.236 33.7114C123.226 33.7155 123.216 33.7176 123.205 33.7176L122.066 33.7251C122.045 33.7258 122.025 33.7346 122.011 33.7495C121.997 33.7644 121.989 33.7844 121.989 33.8052Z" fill="#242021"/>
<path d="M145.164 34.8315C145.152 34.8382 145.143 34.8494 145.139 34.8627C145.136 34.876 145.137 34.8902 145.144 34.9023C145.147 34.9085 145.151 34.9139 145.157 34.9182C145.162 34.9225 145.169 34.9257 145.175 34.9275C145.481 35.0132 145.662 35.192 145.718 35.4639C145.904 36.372 145.234 36.616 144.51 36.616C143.879 36.616 143.268 36.6126 142.678 36.6058C142.65 36.6058 142.623 36.5946 142.603 36.5747C142.583 36.5548 142.572 36.5278 142.572 36.4996L142.565 33.4354C142.565 33.4067 142.576 33.379 142.596 33.3584C142.616 33.3378 142.643 33.326 142.672 33.3255C143.303 33.3143 143.885 33.3143 144.419 33.3255C144.993 33.3367 145.569 33.5509 145.523 34.2494C145.521 34.3698 145.486 34.4873 145.423 34.5897C145.36 34.6921 145.271 34.7756 145.164 34.8315ZM143.097 33.807V34.6639C143.097 34.6817 143.104 34.6987 143.116 34.7113C143.129 34.7239 143.146 34.731 143.164 34.731H144.372C144.718 34.731 144.998 34.5298 144.999 34.2802V34.1945C144.999 33.9449 144.72 33.7418 144.374 33.7409H143.166C143.157 33.7407 143.148 33.7422 143.14 33.7454C143.131 33.7486 143.124 33.7534 143.117 33.7596C143.111 33.7657 143.106 33.7731 143.102 33.7812C143.099 33.7894 143.097 33.7981 143.097 33.807ZM143.097 35.1836V36.1373C143.097 36.1539 143.103 36.1697 143.115 36.1814C143.127 36.1931 143.143 36.1997 143.159 36.1997L144.508 36.2044C144.905 36.2044 145.228 35.9855 145.229 35.7117V35.6241C145.229 35.3512 144.91 35.1277 144.512 35.1258H143.163C143.155 35.1252 143.146 35.1262 143.139 35.1288C143.131 35.1313 143.124 35.1354 143.117 35.1408C143.111 35.1461 143.106 35.1527 143.102 35.16C143.099 35.1674 143.097 35.1754 143.096 35.1836H143.097Z" fill="#242021"/>
<path d="M147.313 36.6067H146.892C146.879 36.6065 146.866 36.6011 146.857 36.5917C146.848 36.5822 146.843 36.5696 146.843 36.5564V33.3898C146.843 33.3767 146.848 33.3641 146.857 33.3548C146.867 33.3454 146.879 33.34 146.892 33.3395L147.316 33.3311C147.329 33.3311 147.342 33.3362 147.351 33.3454C147.361 33.3546 147.367 33.3672 147.367 33.3805V34.5782C147.367 34.5916 147.373 34.6044 147.382 34.6138C147.392 34.6232 147.405 34.6285 147.418 34.6285C147.429 34.6276 147.439 34.6237 147.448 34.6173L149.062 33.3386C149.071 33.3317 149.082 33.3278 149.093 33.3274H149.631C149.643 33.3263 149.654 33.3291 149.664 33.3353C149.673 33.3416 149.68 33.3509 149.684 33.3617C149.687 33.3725 149.687 33.3842 149.683 33.3949C149.679 33.4056 149.672 33.4146 149.662 33.4205L147.944 34.7812C147.934 34.7896 147.927 34.8017 147.926 34.8149C147.924 34.8281 147.928 34.8414 147.936 34.852C147.938 34.855 147.94 34.8575 147.943 34.8595L149.941 36.5359C149.951 36.5446 149.957 36.5569 149.958 36.5702C149.959 36.5834 149.955 36.5966 149.947 36.6067C149.942 36.6123 149.936 36.6168 149.929 36.6198C149.923 36.6229 149.916 36.6244 149.908 36.6244H149.309C149.297 36.6246 149.285 36.6203 149.276 36.6123L147.446 35.0746C147.436 35.0662 147.423 35.0621 147.41 35.0632C147.396 35.0642 147.384 35.0703 147.375 35.0802C147.368 35.0894 147.364 35.1009 147.363 35.1128L147.355 36.5667C147.353 36.5768 147.348 36.5862 147.34 36.5933C147.333 36.6005 147.323 36.6052 147.313 36.6067Z" fill="#242021"/>
<path d="M152.21 35.8355C152.223 35.8352 152.235 35.8314 152.246 35.8245C152.257 35.8176 152.266 35.8079 152.271 35.7964C152.656 34.9892 153.027 34.2038 153.387 33.44C153.403 33.4019 153.43 33.3697 153.465 33.3477C153.5 33.3257 153.541 33.315 153.582 33.3171H153.866C153.959 33.3171 153.99 33.3618 153.948 33.4484C153.378 34.6369 152.789 35.8591 152.182 37.1152C152.014 37.4645 151.65 37.9031 151.242 37.9693C150.998 38.0066 150.749 38.0022 150.506 37.9562C150.479 37.9514 150.455 37.9377 150.437 37.9172C150.419 37.8968 150.408 37.8708 150.407 37.8435L150.394 37.6023C150.389 37.5204 150.426 37.4887 150.507 37.5092C150.842 37.5939 151.194 37.6116 151.441 37.3332C151.6 37.1525 151.878 36.7892 151.924 36.5303C151.932 36.485 151.925 36.4381 151.904 36.3971C151.415 35.4254 150.92 34.4375 150.417 33.4335C150.377 33.3534 150.402 33.3134 150.492 33.3152L150.807 33.3218C150.85 33.3209 150.893 33.3328 150.929 33.356C150.965 33.3792 150.994 33.4127 151.011 33.4522L152.153 35.802C152.158 35.8131 152.166 35.8224 152.176 35.8284C152.186 35.8345 152.198 35.837 152.21 35.8355Z" fill="#242021"/>
<path d="M159.189 35.2469V36.5312C159.189 36.5559 159.179 36.5796 159.162 36.5971C159.144 36.6146 159.121 36.6244 159.096 36.6244L158.761 36.6095C158.738 36.608 158.716 36.5976 158.699 36.5803C158.683 36.563 158.674 36.5401 158.674 36.5163V33.4177C158.674 33.393 158.684 33.3693 158.701 33.3518C158.719 33.3344 158.742 33.3245 158.767 33.3245L159.099 33.3162C159.124 33.3162 159.147 33.326 159.165 33.3434C159.182 33.3609 159.192 33.3846 159.192 33.4093L159.204 34.6303C159.204 34.655 159.214 34.6787 159.231 34.6962C159.249 34.7136 159.272 34.7235 159.297 34.7235H161.312C161.337 34.7235 161.36 34.7136 161.378 34.6962C161.395 34.6787 161.405 34.655 161.405 34.6303V33.4121C161.405 33.3874 161.415 33.3637 161.432 33.3462C161.45 33.3288 161.473 33.319 161.498 33.319H161.504L161.84 33.3394C161.863 33.3413 161.885 33.352 161.901 33.3692C161.917 33.3865 161.926 33.4091 161.926 33.4326L161.932 36.52C161.932 36.5448 161.922 36.5684 161.905 36.5859C161.888 36.6034 161.864 36.6132 161.839 36.6132H161.5C161.475 36.6132 161.452 36.6034 161.434 36.5859C161.417 36.5684 161.407 36.5448 161.407 36.52L161.4 35.2404C161.4 35.2157 161.39 35.192 161.372 35.1745C161.355 35.157 161.331 35.1472 161.307 35.1472L159.291 35.1528C159.278 35.1515 159.265 35.153 159.253 35.1571C159.24 35.1613 159.229 35.168 159.219 35.1769C159.209 35.1858 159.202 35.1966 159.197 35.2087C159.191 35.2207 159.189 35.2337 159.189 35.2469Z" fill="#242021"/>
<path d="M177.482 33.8153V36.5358C177.482 36.5466 177.48 36.5573 177.476 36.5673C177.472 36.5773 177.466 36.5864 177.458 36.594C177.451 36.6017 177.442 36.6077 177.432 36.6118C177.422 36.6158 177.411 36.6179 177.4 36.6177H177.395L177.041 36.5972C177.02 36.5963 177.001 36.5872 176.986 36.5719C176.972 36.5566 176.964 36.5363 176.964 36.5153L176.959 33.4092C176.959 33.3875 176.968 33.3666 176.983 33.3512C176.999 33.3359 177.02 33.3272 177.041 33.3272L180.072 33.3188C180.093 33.3188 180.114 33.3275 180.129 33.3429C180.145 33.3582 180.153 33.3791 180.153 33.4008L180.162 36.5274C180.162 36.5382 180.16 36.5489 180.156 36.5589C180.152 36.5689 180.146 36.578 180.138 36.5856C180.13 36.5933 180.121 36.5993 180.111 36.6034C180.101 36.6074 180.091 36.6095 180.08 36.6094H179.721C179.71 36.6095 179.7 36.6074 179.69 36.6034C179.68 36.5993 179.671 36.5933 179.663 36.5856C179.655 36.578 179.649 36.5689 179.645 36.5589C179.641 36.5489 179.639 36.5382 179.639 36.5274L179.633 33.8264C179.633 33.8047 179.624 33.7839 179.609 33.7685C179.594 33.7531 179.573 33.7445 179.551 33.7445L177.566 33.738C177.545 33.738 177.524 33.7466 177.509 33.762C177.493 33.7773 177.485 33.7982 177.485 33.8199L177.482 33.8153Z" fill="#242021"/>
<path d="M209.075 34.7215C209.083 34.7216 209.092 34.7202 209.099 34.7171C209.107 34.7141 209.114 34.7096 209.119 34.7039C209.125 34.6981 209.13 34.6913 209.133 34.6838C209.136 34.6763 209.138 34.6682 209.138 34.6601L209.131 33.4074C209.13 33.3981 209.131 33.3887 209.134 33.3798C209.137 33.3709 209.142 33.3628 209.148 33.3561C209.155 33.3494 209.163 33.3442 209.172 33.341C209.18 33.3378 209.19 33.3366 209.199 33.3375L209.545 33.3282C209.558 33.3266 209.572 33.3281 209.585 33.3326C209.598 33.337 209.61 33.3444 209.62 33.354C209.63 33.3636 209.638 33.3753 209.642 33.3883C209.647 33.4012 209.649 33.415 209.648 33.4288V36.5079C209.648 36.5326 209.638 36.5563 209.621 36.5737C209.603 36.5912 209.58 36.601 209.555 36.601L209.234 36.5861C209.222 36.5876 209.209 36.5862 209.197 36.5821C209.185 36.5779 209.174 36.5711 209.165 36.5622C209.156 36.5532 209.15 36.5423 209.145 36.5303C209.141 36.5183 209.14 36.5056 209.141 36.493V35.2431C209.141 35.2288 209.139 35.2147 209.133 35.2015C209.128 35.1884 209.12 35.1764 209.109 35.1664C209.099 35.1563 209.087 35.1484 209.074 35.143C209.061 35.1376 209.047 35.1349 209.033 35.1351L207 35.1472C206.989 35.1458 206.979 35.1468 206.969 35.1502C206.959 35.1536 206.95 35.1593 206.942 35.1668C206.935 35.1742 206.929 35.1833 206.926 35.1933C206.922 35.2033 206.921 35.214 206.923 35.2245V36.4855C206.925 36.501 206.923 36.5167 206.918 36.5315C206.913 36.5464 206.905 36.5598 206.894 36.5709C206.883 36.582 206.87 36.5904 206.855 36.5954C206.84 36.6005 206.825 36.6021 206.809 36.6001H206.53C206.514 36.603 206.497 36.6018 206.481 36.5968C206.464 36.5917 206.45 36.5829 206.438 36.5711C206.426 36.5593 206.417 36.5447 206.412 36.5287C206.406 36.5127 206.405 36.4957 206.408 36.479V33.4232C206.406 33.4039 206.412 33.3847 206.424 33.3697C206.436 33.3546 206.453 33.3447 206.473 33.3422C206.595 33.3182 206.722 33.3182 206.844 33.3422C206.867 33.3438 206.889 33.3546 206.904 33.372C206.919 33.3895 206.927 33.4122 206.925 33.4353L206.918 34.6358C206.918 34.6467 206.92 34.6575 206.924 34.6676C206.928 34.6777 206.934 34.6869 206.941 34.6947C206.949 34.7025 206.958 34.7087 206.968 34.713C206.978 34.7173 206.989 34.7195 207 34.7197H209.089L209.075 34.7215Z" fill="#242021"/>
<path d="M137.153 35.8327C137.674 35.8327 138.096 35.4098 138.096 34.8882C138.096 34.3667 137.674 33.9438 137.153 33.9438C136.633 33.9438 136.211 34.3667 136.211 34.8882C136.211 35.4098 136.633 35.8327 137.153 35.8327Z" fill="#242021"/>
<path d="M171.346 35.8327C171.866 35.8327 172.288 35.4098 172.288 34.8882C172.288 34.3667 171.866 33.9438 171.346 33.9438C170.825 33.9438 170.403 34.3667 170.403 34.8882C170.403 35.4098 170.825 35.8327 171.346 35.8327Z" fill="#242021"/>
</g>
<defs>
<clipPath id="clip0_311_2078">
<rect width="143" height="36" fill="white" transform="translate(90 2)"/>
</clipPath>
</defs>
</svg>
