<svg width="1038" height="246" viewBox="0 0 1038 246" fill="none" xmlns="http://www.w3.org/2000/svg">
<path d="M100.032 10C100.032 12.256 98.3361 14.016 95.7601 14.176V17.2H94.9601V14.176C92.3841 14.016 90.6881 12.256 90.6881 10C90.6881 7.744 92.3841 5.984 94.9601 5.824V2.8H95.7601V5.824C98.3361 5.984 100.032 7.744 100.032 10ZM91.5041 10C91.5041 11.824 92.8321 13.232 94.9601 13.392V6.608C92.8321 6.768 91.5041 8.176 91.5041 10ZM95.7601 13.392C97.8881 13.232 99.2161 11.824 99.2161 10C99.2161 8.176 97.8881 6.768 95.7601 6.608V13.392ZM108.511 6H109.327V14H108.511V12.192C107.839 13.392 106.607 14.176 105.071 14.176C102.799 14.176 100.927 12.368 100.927 10C100.927 7.632 102.799 5.824 105.071 5.824C106.607 5.824 107.839 6.608 108.511 7.808V6ZM105.135 13.408C107.039 13.408 108.511 11.904 108.511 10C108.511 8.096 107.039 6.592 105.135 6.592C103.231 6.592 101.743 8.096 101.743 10C101.743 11.904 103.231 13.408 105.135 13.408ZM114.967 14.176C112.551 14.176 110.759 12.368 110.759 10C110.759 7.632 112.551 5.824 114.967 5.824C116.535 5.824 117.879 6.624 118.455 7.872L117.799 8.256C117.335 7.248 116.247 6.592 114.967 6.592C113.031 6.592 111.575 8.096 111.575 10C111.575 11.904 113.031 13.408 114.967 13.408C116.263 13.408 117.319 12.736 117.847 11.744L118.519 12.144C117.879 13.376 116.535 14.176 114.967 14.176ZM125.236 6V6.784H122.324V14H121.524V6.784H118.612V6H125.236ZM134.69 10C134.69 12.256 132.994 14.016 130.418 14.176V17.2H129.618V14.176C127.042 14.016 125.346 12.256 125.346 10C125.346 7.744 127.042 5.984 129.618 5.824V2.8H130.418V5.824C132.994 5.984 134.69 7.744 134.69 10ZM126.162 10C126.162 11.824 127.49 13.232 129.618 13.392V6.608C127.49 6.768 126.162 8.176 126.162 10ZM130.418 13.392C132.546 13.232 133.874 11.824 133.874 10C133.874 8.176 132.546 6.768 130.418 6.608V13.392ZM141.672 6H142.536L139.08 14.736C138.472 16.272 137.288 17.312 135.912 17.2V16.448C136.984 16.544 137.8 15.744 138.296 14.576L138.472 14.144L134.792 6H135.656L138.888 13.12L141.672 6ZM149.568 13.216H150.688V16.144H149.872V14H142.96V16.144H142.144V13.216H143.072C143.632 12.448 143.952 11.584 143.952 10V6H149.568V13.216ZM144.064 13.216H148.752V6.784H144.752V10C144.752 11.424 144.512 12.4 144.064 13.216ZM155.911 9.44V8.672H165.511V9.44H155.911ZM175.096 14.176C172.76 14.176 170.888 12.368 170.888 10C170.888 7.632 172.76 5.824 175.096 5.824C177.416 5.824 179.288 7.632 179.288 10C179.288 12.368 177.416 14.176 175.096 14.176ZM175.096 13.408C177 13.408 178.472 11.904 178.472 10C178.472 8.096 177 6.592 175.096 6.592C173.192 6.592 171.704 8.096 171.704 10C171.704 11.904 173.192 13.408 175.096 13.408ZM184.221 14.192C181.949 14.192 180.189 12.56 180.189 10.08C180.189 7.584 180.637 6.24 183.181 4.992C184.925 4.16 186.333 3.952 186.557 2.592L187.197 2.96C186.925 4.496 185.245 4.88 183.613 5.632C182.045 6.336 181.389 7.056 181.133 8.464C181.933 7.216 183.293 6.72 184.397 6.72C186.509 6.72 188.109 8.272 188.109 10.464C188.109 12.608 186.477 14.192 184.221 14.192ZM184.221 13.392C186.029 13.392 187.293 12.16 187.293 10.464C187.293 8.752 186.077 7.504 184.301 7.504C182.749 7.504 181.181 8.56 181.053 10.256C181.053 12.096 182.397 13.392 184.221 13.392ZM192.994 5.824C195.426 5.824 196.946 7.84 196.946 10.032C196.946 10.16 196.93 10.288 196.93 10.416H189.682C189.874 12.224 191.25 13.408 193.074 13.408C194.386 13.408 195.378 12.8 195.842 11.952L196.546 12.368C195.89 13.456 194.642 14.176 193.058 14.176C190.594 14.176 188.85 12.416 188.85 10C188.85 7.648 190.546 5.824 192.994 5.824ZM192.994 6.592C191.17 6.592 189.842 7.856 189.682 9.632H196.114C195.938 7.68 194.562 6.592 192.994 6.592ZM204.583 13.216H205.703V16.144H204.887V14H197.975V16.144H197.159V13.216H198.087C198.647 12.448 198.967 11.584 198.967 10V6H204.583V13.216ZM199.079 13.216H203.767V6.784H199.767V10C199.767 11.424 199.527 12.4 199.079 13.216ZM210.149 9.104C211.573 9.104 212.789 10.08 212.789 11.552C212.789 13.024 211.573 14 210.149 14H206.981V6H207.781V9.104H210.149ZM214.021 6H214.821V14H214.021V6ZM210.149 13.216C211.157 13.216 211.973 12.56 211.973 11.552C211.973 10.528 211.157 9.888 210.149 9.888H207.781V13.216H210.149ZM226.711 14H225.623L221.383 10.064V14H220.583V6H221.383V9.632L225.431 6H226.551L222.247 9.84L226.711 14ZM234.334 6V14H233.534V6.784H229.502V10.64C229.502 13.44 228.318 14.112 226.814 14V13.248C228.046 13.36 228.702 12.704 228.702 10.64V6H234.334ZM243.351 6H244.167V14H243.351V12.192C242.679 13.392 241.447 14.176 239.911 14.176C237.639 14.176 235.767 12.368 235.767 10C235.767 7.632 237.639 5.824 239.911 5.824C241.447 5.824 242.679 6.608 243.351 7.808V6ZM239.975 13.408C241.879 13.408 243.351 11.904 243.351 10C243.351 8.096 241.879 6.592 239.975 6.592C238.071 6.592 236.583 8.096 236.583 10C236.583 11.904 238.071 13.408 239.975 13.408ZM249.807 14.176C247.391 14.176 245.599 12.368 245.599 10C245.599 7.632 247.391 5.824 249.807 5.824C251.375 5.824 252.719 6.624 253.295 7.872L252.639 8.256C252.175 7.248 251.087 6.592 249.807 6.592C247.871 6.592 246.415 8.096 246.415 10C246.415 11.904 247.871 13.408 249.807 13.408C251.103 13.408 252.159 12.736 252.687 11.744L253.359 12.144C252.719 13.376 251.375 14.176 249.807 14.176ZM258.218 14.176C255.802 14.176 254.01 12.368 254.01 10C254.01 7.632 255.802 5.824 258.218 5.824C259.786 5.824 261.13 6.624 261.706 7.872L261.05 8.256C260.586 7.248 259.498 6.592 258.218 6.592C256.282 6.592 254.826 8.096 254.826 10C254.826 11.904 256.282 13.408 258.218 13.408C259.514 13.408 260.57 12.736 261.098 11.744L261.77 12.144C261.13 13.376 259.786 14.176 258.218 14.176ZM268.947 6H269.651V14H268.835V7.392L263.747 14H263.043V6H263.843V12.608L268.947 6ZM277.769 14H276.681L272.441 10.064V14H271.641V6H272.441V9.632L276.489 6H277.609L273.305 9.84L277.769 14ZM282.841 9.44V8.672H292.441V9.44H282.841ZM302.025 14.176C299.689 14.176 297.817 12.368 297.817 10C297.817 7.632 299.689 5.824 302.025 5.824C304.345 5.824 306.217 7.632 306.217 10C306.217 12.368 304.345 14.176 302.025 14.176ZM302.025 13.408C303.929 13.408 305.401 11.904 305.401 10C305.401 8.096 303.929 6.592 302.025 6.592C300.121 6.592 298.633 8.096 298.633 10C298.633 11.904 300.121 13.408 302.025 13.408ZM311.151 14.192C308.879 14.192 307.119 12.56 307.119 10.08C307.119 7.584 307.567 6.24 310.111 4.992C311.855 4.16 313.263 3.952 313.487 2.592L314.127 2.96C313.855 4.496 312.175 4.88 310.543 5.632C308.975 6.336 308.319 7.056 308.063 8.464C308.863 7.216 310.223 6.72 311.327 6.72C313.439 6.72 315.039 8.272 315.039 10.464C315.039 12.608 313.407 14.192 311.151 14.192ZM311.151 13.392C312.959 13.392 314.223 12.16 314.223 10.464C314.223 8.752 313.007 7.504 311.231 7.504C309.679 7.504 308.111 8.56 307.983 10.256C307.983 12.096 309.327 13.392 311.151 13.392ZM319.923 5.824C322.355 5.824 323.875 7.84 323.875 10.032C323.875 10.16 323.859 10.288 323.859 10.416H316.611C316.803 12.224 318.179 13.408 320.003 13.408C321.315 13.408 322.307 12.8 322.771 11.952L323.475 12.368C322.819 13.456 321.571 14.176 319.987 14.176C317.523 14.176 315.779 12.416 315.779 10C315.779 7.648 317.475 5.824 319.923 5.824ZM319.923 6.592C318.099 6.592 316.771 7.856 316.611 9.632H323.043C322.867 7.68 321.491 6.592 319.923 6.592ZM331.513 13.216H332.633V16.144H331.817V14H324.905V16.144H324.089V13.216H325.017C325.577 12.448 325.897 11.584 325.897 10V6H331.513V13.216ZM326.009 13.216H330.697V6.784H326.697V10C326.697 11.424 326.457 12.4 326.009 13.216ZM337.078 9.104C338.502 9.104 339.718 10.08 339.718 11.552C339.718 13.024 338.502 14 337.078 14H333.91V6H334.71V9.104H337.078ZM340.95 6H341.75V14H340.95V6ZM337.078 13.216C338.086 13.216 338.902 12.56 338.902 11.552C338.902 10.528 338.086 9.888 337.078 9.888H334.71V13.216H337.078ZM356.313 10C356.313 12.256 354.617 14.016 352.041 14.176V17.2H351.241V14.176C348.665 14.016 346.969 12.256 346.969 10C346.969 7.744 348.665 5.984 351.241 5.824V2.8H352.041V5.824C354.617 5.984 356.313 7.744 356.313 10ZM347.785 10C347.785 11.824 349.113 13.232 351.241 13.392V6.608C349.113 6.768 347.785 8.176 347.785 10ZM352.041 13.392C354.169 13.232 355.497 11.824 355.497 10C355.497 8.176 354.169 6.768 352.041 6.608V13.392ZM364.791 6H365.607V14H364.791V12.192C364.119 13.392 362.887 14.176 361.351 14.176C359.079 14.176 357.207 12.368 357.207 10C357.207 7.632 359.079 5.824 361.351 5.824C362.887 5.824 364.119 6.608 364.791 7.808V6ZM361.415 13.408C363.319 13.408 364.791 11.904 364.791 10C364.791 8.096 363.319 6.592 361.415 6.592C359.511 6.592 358.023 8.096 358.023 10C358.023 11.904 359.511 13.408 361.415 13.408ZM371.248 14.176C368.832 14.176 367.04 12.368 367.04 10C367.04 7.632 368.832 5.824 371.248 5.824C372.816 5.824 374.16 6.624 374.736 7.872L374.08 8.256C373.616 7.248 372.528 6.592 371.248 6.592C369.312 6.592 367.856 8.096 367.856 10C367.856 11.904 369.312 13.408 371.248 13.408C372.544 13.408 373.6 12.736 374.128 11.744L374.8 12.144C374.16 13.376 372.816 14.176 371.248 14.176ZM381.516 6V6.784H378.604V14H377.804V6.784H374.892V6H381.516ZM390.971 10C390.971 12.256 389.275 14.016 386.699 14.176V17.2H385.899V14.176C383.323 14.016 381.627 12.256 381.627 10C381.627 7.744 383.323 5.984 385.899 5.824V2.8H386.699V5.824C389.275 5.984 390.971 7.744 390.971 10ZM382.443 10C382.443 11.824 383.771 13.232 385.899 13.392V6.608C383.771 6.768 382.443 8.176 382.443 10ZM386.699 13.392C388.827 13.232 390.155 11.824 390.155 10C390.155 8.176 388.827 6.768 386.699 6.608V13.392ZM397.953 6H398.817L395.361 14.736C394.753 16.272 393.569 17.312 392.193 17.2V16.448C393.265 16.544 394.081 15.744 394.577 14.576L394.753 14.144L391.073 6H391.937L395.169 13.12L397.953 6ZM405.849 13.216H406.969V16.144H406.153V14H399.241V16.144H398.425V13.216H399.353C399.913 12.448 400.233 11.584 400.233 10V6H405.849V13.216ZM400.345 13.216H405.033V6.784H401.033V10C401.033 11.424 400.793 12.4 400.345 13.216ZM412.192 9.44V8.672H421.792V9.44H412.192ZM435.162 14.176C432.826 14.176 430.954 12.368 430.954 10C430.954 7.632 432.826 5.824 435.162 5.824C437.482 5.824 439.354 7.632 439.354 10C439.354 12.368 437.482 14.176 435.162 14.176ZM435.162 13.408C437.066 13.408 438.538 11.904 438.538 10C438.538 8.096 437.066 6.592 435.162 6.592C433.258 6.592 431.77 8.096 431.77 10C431.77 11.904 433.258 13.408 435.162 13.408ZM444.288 14.192C442.016 14.192 440.256 12.56 440.256 10.08C440.256 7.584 440.704 6.24 443.248 4.992C444.992 4.16 446.4 3.952 446.624 2.592L447.264 2.96C446.992 4.496 445.312 4.88 443.68 5.632C442.112 6.336 441.456 7.056 441.2 8.464C442 7.216 443.36 6.72 444.464 6.72C446.576 6.72 448.176 8.272 448.176 10.464C448.176 12.608 446.544 14.192 444.288 14.192ZM444.288 13.392C446.096 13.392 447.36 12.16 447.36 10.464C447.36 8.752 446.144 7.504 444.368 7.504C442.816 7.504 441.248 8.56 441.12 10.256C441.12 12.096 442.464 13.392 444.288 13.392ZM453.06 5.824C455.492 5.824 457.012 7.84 457.012 10.032C457.012 10.16 456.996 10.288 456.996 10.416H449.748C449.94 12.224 451.316 13.408 453.14 13.408C454.452 13.408 455.444 12.8 455.908 11.952L456.612 12.368C455.956 13.456 454.708 14.176 453.124 14.176C450.66 14.176 448.916 12.416 448.916 10C448.916 7.648 450.612 5.824 453.06 5.824ZM453.06 6.592C451.236 6.592 449.908 7.856 449.748 9.632H456.18C456.004 7.68 454.628 6.592 453.06 6.592ZM464.65 13.216H465.77V16.144H464.954V14H458.042V16.144H457.226V13.216H458.154C458.714 12.448 459.034 11.584 459.034 10V6H464.65V13.216ZM459.146 13.216H463.834V6.784H459.834V10C459.834 11.424 459.594 12.4 459.146 13.216ZM470.215 9.104C471.639 9.104 472.855 10.08 472.855 11.552C472.855 13.024 471.639 14 470.215 14H467.047V6H467.847V9.104H470.215ZM474.087 6H474.887V14H474.087V6ZM470.215 13.216C471.223 13.216 472.039 12.56 472.039 11.552C472.039 10.528 471.223 9.888 470.215 9.888H467.847V13.216H470.215ZM486.778 14H485.69L481.45 10.064V14H480.65V6H481.45V9.632L485.498 6H486.618L482.314 9.84L486.778 14ZM494.4 6V14H493.6V6.784H489.568V10.64C489.568 13.44 488.384 14.112 486.88 14V13.248C488.112 13.36 488.768 12.704 488.768 10.64V6H494.4ZM503.417 6H504.233V14H503.417V12.192C502.745 13.392 501.513 14.176 499.977 14.176C497.705 14.176 495.833 12.368 495.833 10C495.833 7.632 497.705 5.824 499.977 5.824C501.513 5.824 502.745 6.608 503.417 7.808V6ZM500.041 13.408C501.945 13.408 503.417 11.904 503.417 10C503.417 8.096 501.945 6.592 500.041 6.592C498.137 6.592 496.649 8.096 496.649 10C496.649 11.904 498.137 13.408 500.041 13.408ZM509.874 14.176C507.458 14.176 505.666 12.368 505.666 10C505.666 7.632 507.458 5.824 509.874 5.824C511.442 5.824 512.786 6.624 513.362 7.872L512.706 8.256C512.242 7.248 511.154 6.592 509.874 6.592C507.938 6.592 506.482 8.096 506.482 10C506.482 11.904 507.938 13.408 509.874 13.408C511.17 13.408 512.226 12.736 512.754 11.744L513.426 12.144C512.786 13.376 511.442 14.176 509.874 14.176ZM518.284 14.176C515.868 14.176 514.076 12.368 514.076 10C514.076 7.632 515.868 5.824 518.284 5.824C519.852 5.824 521.196 6.624 521.772 7.872L521.116 8.256C520.652 7.248 519.564 6.592 518.284 6.592C516.348 6.592 514.892 8.096 514.892 10C514.892 11.904 516.348 13.408 518.284 13.408C519.58 13.408 520.636 12.736 521.164 11.744L521.836 12.144C521.196 13.376 519.852 14.176 518.284 14.176ZM529.013 6H529.717V14H528.901V7.392L523.813 14H523.109V6H523.909V12.608L529.013 6ZM537.835 14H536.747L532.507 10.064V14H531.707V6H532.507V9.632L536.555 6H537.675L533.371 9.84L537.835 14ZM542.907 9.44V8.672H552.507V9.44H542.907ZM562.092 14.176C559.756 14.176 557.884 12.368 557.884 10C557.884 7.632 559.756 5.824 562.092 5.824C564.412 5.824 566.284 7.632 566.284 10C566.284 12.368 564.412 14.176 562.092 14.176ZM562.092 13.408C563.996 13.408 565.468 11.904 565.468 10C565.468 8.096 563.996 6.592 562.092 6.592C560.188 6.592 558.7 8.096 558.7 10C558.7 11.904 560.188 13.408 562.092 13.408ZM571.217 14.192C568.945 14.192 567.185 12.56 567.185 10.08C567.185 7.584 567.633 6.24 570.177 4.992C571.921 4.16 573.329 3.952 573.553 2.592L574.193 2.96C573.921 4.496 572.241 4.88 570.609 5.632C569.041 6.336 568.385 7.056 568.129 8.464C568.929 7.216 570.289 6.72 571.393 6.72C573.505 6.72 575.105 8.272 575.105 10.464C575.105 12.608 573.473 14.192 571.217 14.192ZM571.217 13.392C573.025 13.392 574.289 12.16 574.289 10.464C574.289 8.752 573.073 7.504 571.297 7.504C569.745 7.504 568.177 8.56 568.049 10.256C568.049 12.096 569.393 13.392 571.217 13.392ZM579.99 5.824C582.422 5.824 583.942 7.84 583.942 10.032C583.942 10.16 583.926 10.288 583.926 10.416H576.678C576.87 12.224 578.246 13.408 580.07 13.408C581.382 13.408 582.374 12.8 582.838 11.952L583.542 12.368C582.886 13.456 581.638 14.176 580.054 14.176C577.59 14.176 575.846 12.416 575.846 10C575.846 7.648 577.542 5.824 579.99 5.824ZM579.99 6.592C578.166 6.592 576.838 7.856 576.678 9.632H583.11C582.934 7.68 581.558 6.592 579.99 6.592ZM591.579 13.216H592.699V16.144H591.883V14H584.971V16.144H584.155V13.216H585.083C585.643 12.448 585.963 11.584 585.963 10V6H591.579V13.216ZM586.075 13.216H590.763V6.784H586.763V10C586.763 11.424 586.523 12.4 586.075 13.216ZM597.144 9.104C598.568 9.104 599.784 10.08 599.784 11.552C599.784 13.024 598.568 14 597.144 14H593.976V6H594.776V9.104H597.144ZM601.016 6H601.816V14H601.016V6ZM597.144 13.216C598.152 13.216 598.968 12.56 598.968 11.552C598.968 10.528 598.152 9.888 597.144 9.888H594.776V13.216H597.144ZM616.379 10C616.379 12.256 614.683 14.016 612.107 14.176V17.2H611.307V14.176C608.731 14.016 607.035 12.256 607.035 10C607.035 7.744 608.731 5.984 611.307 5.824V2.8H612.107V5.824C614.683 5.984 616.379 7.744 616.379 10ZM607.851 10C607.851 11.824 609.179 13.232 611.307 13.392V6.608C609.179 6.768 607.851 8.176 607.851 10ZM612.107 13.392C614.235 13.232 615.563 11.824 615.563 10C615.563 8.176 614.235 6.768 612.107 6.608V13.392ZM624.858 6H625.674V14H624.858V12.192C624.186 13.392 622.954 14.176 621.418 14.176C619.146 14.176 617.274 12.368 617.274 10C617.274 7.632 619.146 5.824 621.418 5.824C622.954 5.824 624.186 6.608 624.858 7.808V6ZM621.482 13.408C623.386 13.408 624.858 11.904 624.858 10C624.858 8.096 623.386 6.592 621.482 6.592C619.578 6.592 618.09 8.096 618.09 10C618.09 11.904 619.578 13.408 621.482 13.408ZM631.314 14.176C628.898 14.176 627.106 12.368 627.106 10C627.106 7.632 628.898 5.824 631.314 5.824C632.882 5.824 634.226 6.624 634.802 7.872L634.146 8.256C633.682 7.248 632.594 6.592 631.314 6.592C629.378 6.592 627.922 8.096 627.922 10C627.922 11.904 629.378 13.408 631.314 13.408C632.61 13.408 633.666 12.736 634.194 11.744L634.866 12.144C634.226 13.376 632.882 14.176 631.314 14.176ZM641.583 6V6.784H638.671V14H637.871V6.784H634.959V6H641.583ZM651.037 10C651.037 12.256 649.341 14.016 646.765 14.176V17.2H645.965V14.176C643.389 14.016 641.693 12.256 641.693 10C641.693 7.744 643.389 5.984 645.965 5.824V2.8H646.765V5.824C649.341 5.984 651.037 7.744 651.037 10ZM642.509 10C642.509 11.824 643.837 13.232 645.965 13.392V6.608C643.837 6.768 642.509 8.176 642.509 10ZM646.765 13.392C648.893 13.232 650.221 11.824 650.221 10C650.221 8.176 648.893 6.768 646.765 6.608V13.392ZM658.019 6H658.883L655.427 14.736C654.819 16.272 653.635 17.312 652.259 17.2V16.448C653.331 16.544 654.147 15.744 654.643 14.576L654.819 14.144L651.139 6H652.003L655.235 13.12L658.019 6ZM665.915 13.216H667.035V16.144H666.219V14H659.307V16.144H658.491V13.216H659.419C659.979 12.448 660.299 11.584 660.299 10V6H665.915V13.216ZM660.411 13.216H665.099V6.784H661.099V10C661.099 11.424 660.859 12.4 660.411 13.216ZM672.258 9.44V8.672H681.858V9.44H672.258ZM691.443 14.176C689.107 14.176 687.235 12.368 687.235 10C687.235 7.632 689.107 5.824 691.443 5.824C693.763 5.824 695.635 7.632 695.635 10C695.635 12.368 693.763 14.176 691.443 14.176ZM691.443 13.408C693.347 13.408 694.819 11.904 694.819 10C694.819 8.096 693.347 6.592 691.443 6.592C689.539 6.592 688.051 8.096 688.051 10C688.051 11.904 689.539 13.408 691.443 13.408ZM700.568 14.192C698.296 14.192 696.536 12.56 696.536 10.08C696.536 7.584 696.984 6.24 699.528 4.992C701.272 4.16 702.68 3.952 702.904 2.592L703.544 2.96C703.272 4.496 701.592 4.88 699.96 5.632C698.392 6.336 697.736 7.056 697.48 8.464C698.28 7.216 699.64 6.72 700.744 6.72C702.856 6.72 704.456 8.272 704.456 10.464C704.456 12.608 702.824 14.192 700.568 14.192ZM700.568 13.392C702.376 13.392 703.64 12.16 703.64 10.464C703.64 8.752 702.424 7.504 700.648 7.504C699.096 7.504 697.528 8.56 697.4 10.256C697.4 12.096 698.744 13.392 700.568 13.392ZM709.341 5.824C711.773 5.824 713.293 7.84 713.293 10.032C713.293 10.16 713.277 10.288 713.277 10.416H706.029C706.221 12.224 707.597 13.408 709.421 13.408C710.733 13.408 711.725 12.8 712.189 11.952L712.893 12.368C712.237 13.456 710.989 14.176 709.405 14.176C706.941 14.176 705.197 12.416 705.197 10C705.197 7.648 706.893 5.824 709.341 5.824ZM709.341 6.592C707.517 6.592 706.189 7.856 706.029 9.632H712.461C712.285 7.68 710.909 6.592 709.341 6.592ZM720.93 13.216H722.05V16.144H721.234V14H714.322V16.144H713.506V13.216H714.434C714.994 12.448 715.314 11.584 715.314 10V6H720.93V13.216ZM715.426 13.216H720.114V6.784H716.114V10C716.114 11.424 715.874 12.4 715.426 13.216ZM726.496 9.104C727.92 9.104 729.136 10.08 729.136 11.552C729.136 13.024 727.92 14 726.496 14H723.328V6H724.128V9.104H726.496ZM730.368 6H731.168V14H730.368V6ZM726.496 13.216C727.504 13.216 728.32 12.56 728.32 11.552C728.32 10.528 727.504 9.888 726.496 9.888H724.128V13.216H726.496ZM743.058 14H741.97L737.73 10.064V14H736.93V6H737.73V9.632L741.778 6H742.898L738.594 9.84L743.058 14ZM750.681 6V14H749.881V6.784H745.849V10.64C745.849 13.44 744.665 14.112 743.161 14V13.248C744.393 13.36 745.049 12.704 745.049 10.64V6H750.681ZM759.698 6H760.514V14H759.698V12.192C759.026 13.392 757.794 14.176 756.258 14.176C753.986 14.176 752.114 12.368 752.114 10C752.114 7.632 753.986 5.824 756.258 5.824C757.794 5.824 759.026 6.608 759.698 7.808V6ZM756.322 13.408C758.226 13.408 759.698 11.904 759.698 10C759.698 8.096 758.226 6.592 756.322 6.592C754.418 6.592 752.93 8.096 752.93 10C752.93 11.904 754.418 13.408 756.322 13.408ZM766.154 14.176C763.738 14.176 761.946 12.368 761.946 10C761.946 7.632 763.738 5.824 766.154 5.824C767.722 5.824 769.066 6.624 769.642 7.872L768.986 8.256C768.522 7.248 767.434 6.592 766.154 6.592C764.218 6.592 762.762 8.096 762.762 10C762.762 11.904 764.218 13.408 766.154 13.408C767.45 13.408 768.506 12.736 769.034 11.744L769.706 12.144C769.066 13.376 767.722 14.176 766.154 14.176ZM774.565 14.176C772.149 14.176 770.357 12.368 770.357 10C770.357 7.632 772.149 5.824 774.565 5.824C776.133 5.824 777.477 6.624 778.053 7.872L777.397 8.256C776.933 7.248 775.845 6.592 774.565 6.592C772.629 6.592 771.173 8.096 771.173 10C771.173 11.904 772.629 13.408 774.565 13.408C775.861 13.408 776.917 12.736 777.445 11.744L778.117 12.144C777.477 13.376 776.133 14.176 774.565 14.176ZM785.294 6H785.998V14H785.182V7.392L780.094 14H779.39V6H780.19V12.608L785.294 6ZM794.116 14H793.028L788.788 10.064V14H787.988V6H788.788V9.632L792.836 6H793.956L789.652 9.84L794.116 14ZM799.188 9.44V8.672H808.788V9.44H799.188ZM818.372 14.176C816.036 14.176 814.164 12.368 814.164 10C814.164 7.632 816.036 5.824 818.372 5.824C820.692 5.824 822.564 7.632 822.564 10C822.564 12.368 820.692 14.176 818.372 14.176ZM818.372 13.408C820.276 13.408 821.748 11.904 821.748 10C821.748 8.096 820.276 6.592 818.372 6.592C816.468 6.592 814.98 8.096 814.98 10C814.98 11.904 816.468 13.408 818.372 13.408ZM827.498 14.192C825.226 14.192 823.466 12.56 823.466 10.08C823.466 7.584 823.914 6.24 826.458 4.992C828.202 4.16 829.61 3.952 829.834 2.592L830.474 2.96C830.202 4.496 828.522 4.88 826.89 5.632C825.322 6.336 824.666 7.056 824.41 8.464C825.21 7.216 826.57 6.72 827.674 6.72C829.786 6.72 831.386 8.272 831.386 10.464C831.386 12.608 829.754 14.192 827.498 14.192ZM827.498 13.392C829.306 13.392 830.57 12.16 830.57 10.464C830.57 8.752 829.354 7.504 827.578 7.504C826.026 7.504 824.458 8.56 824.33 10.256C824.33 12.096 825.674 13.392 827.498 13.392ZM836.27 5.824C838.702 5.824 840.222 7.84 840.222 10.032C840.222 10.16 840.206 10.288 840.206 10.416H832.958C833.15 12.224 834.526 13.408 836.35 13.408C837.662 13.408 838.654 12.8 839.118 11.952L839.822 12.368C839.166 13.456 837.918 14.176 836.334 14.176C833.87 14.176 832.126 12.416 832.126 10C832.126 7.648 833.822 5.824 836.27 5.824ZM836.27 6.592C834.446 6.592 833.118 7.856 832.958 9.632H839.39C839.214 7.68 837.838 6.592 836.27 6.592ZM847.86 13.216H848.98V16.144H848.164V14H841.252V16.144H840.436V13.216H841.364C841.924 12.448 842.244 11.584 842.244 10V6H847.86V13.216ZM842.356 13.216H847.044V6.784H843.044V10C843.044 11.424 842.804 12.4 842.356 13.216ZM853.425 9.104C854.849 9.104 856.065 10.08 856.065 11.552C856.065 13.024 854.849 14 853.425 14H850.257V6H851.057V9.104H853.425ZM857.297 6H858.097V14H857.297V6ZM853.425 13.216C854.433 13.216 855.249 12.56 855.249 11.552C855.249 10.528 854.433 9.888 853.425 9.888H851.057V13.216H853.425ZM872.66 10C872.66 12.256 870.964 14.016 868.388 14.176V17.2H867.588V14.176C865.012 14.016 863.316 12.256 863.316 10C863.316 7.744 865.012 5.984 867.588 5.824V2.8H868.388V5.824C870.964 5.984 872.66 7.744 872.66 10ZM864.132 10C864.132 11.824 865.46 13.232 867.588 13.392V6.608C865.46 6.768 864.132 8.176 864.132 10ZM868.388 13.392C870.516 13.232 871.844 11.824 871.844 10C871.844 8.176 870.516 6.768 868.388 6.608V13.392ZM881.138 6H881.954V14H881.138V12.192C880.466 13.392 879.234 14.176 877.698 14.176C875.426 14.176 873.554 12.368 873.554 10C873.554 7.632 875.426 5.824 877.698 5.824C879.234 5.824 880.466 6.608 881.138 7.808V6ZM877.762 13.408C879.666 13.408 881.138 11.904 881.138 10C881.138 8.096 879.666 6.592 877.762 6.592C875.858 6.592 874.37 8.096 874.37 10C874.37 11.904 875.858 13.408 877.762 13.408ZM887.595 14.176C885.179 14.176 883.387 12.368 883.387 10C883.387 7.632 885.179 5.824 887.595 5.824C889.163 5.824 890.507 6.624 891.083 7.872L890.427 8.256C889.963 7.248 888.875 6.592 887.595 6.592C885.659 6.592 884.203 8.096 884.203 10C884.203 11.904 885.659 13.408 887.595 13.408C888.891 13.408 889.947 12.736 890.475 11.744L891.147 12.144C890.507 13.376 889.163 14.176 887.595 14.176ZM897.863 6V6.784H894.951V14H894.151V6.784H891.239V6H897.863ZM907.318 10C907.318 12.256 905.622 14.016 903.046 14.176V17.2H902.246V14.176C899.67 14.016 897.974 12.256 897.974 10C897.974 7.744 899.67 5.984 902.246 5.824V2.8H903.046V5.824C905.622 5.984 907.318 7.744 907.318 10ZM898.79 10C898.79 11.824 900.118 13.232 902.246 13.392V6.608C900.118 6.768 898.79 8.176 898.79 10ZM903.046 13.392C905.174 13.232 906.502 11.824 906.502 10C906.502 8.176 905.174 6.768 903.046 6.608V13.392ZM914.3 6H915.164L911.708 14.736C911.1 16.272 909.916 17.312 908.54 17.2V16.448C909.612 16.544 910.428 15.744 910.924 14.576L911.1 14.144L907.42 6H908.284L911.516 13.12L914.3 6ZM922.196 13.216H923.316V16.144H922.5V14H915.588V16.144H914.772V13.216H915.7C916.26 12.448 916.58 11.584 916.58 10V6H922.196V13.216ZM916.692 13.216H921.38V6.784H917.38V10C917.38 11.424 917.14 12.4 916.692 13.216Z" fill="#FF7048"/>
<path d="M1033.1 231.006C1035.44 231.006 1037.31 232.814 1037.31 235.182C1037.31 237.55 1035.44 239.358 1033.1 239.358C1030.78 239.358 1028.91 237.55 1028.91 235.182C1028.91 232.814 1030.78 231.006 1033.1 231.006ZM1033.1 231.774C1031.2 231.774 1029.73 233.278 1029.73 235.182C1029.73 237.086 1031.2 238.59 1033.1 238.59C1035.01 238.59 1036.5 237.086 1036.5 235.182C1036.5 233.278 1035.01 231.774 1033.1 231.774ZM1023.98 230.99C1026.25 230.99 1028.01 232.622 1028.01 235.102C1028.01 237.598 1027.56 238.942 1025.02 240.19C1023.27 241.022 1021.87 241.23 1021.64 242.59L1021 242.222C1021.27 240.686 1022.95 240.302 1024.59 239.55C1026.15 238.846 1026.81 238.126 1027.07 236.718C1026.27 237.966 1024.91 238.462 1023.8 238.462C1021.69 238.462 1020.09 236.91 1020.09 234.718C1020.09 232.574 1021.72 230.99 1023.98 230.99ZM1023.98 231.79C1022.17 231.79 1020.91 233.022 1020.91 234.718C1020.91 236.43 1022.12 237.678 1023.9 237.678C1025.45 237.678 1027.02 236.622 1027.15 234.926C1027.15 233.086 1025.8 231.79 1023.98 231.79ZM1015.21 239.358C1012.77 239.358 1011.25 237.342 1011.25 235.15C1011.25 235.022 1011.27 234.894 1011.27 234.766L1018.52 234.766C1018.33 232.958 1016.95 231.774 1015.13 231.774C1013.81 231.774 1012.82 232.382 1012.36 233.23L1011.65 232.814C1012.31 231.726 1013.56 231.006 1015.14 231.006C1017.61 231.006 1019.35 232.766 1019.35 235.182C1019.35 237.534 1017.65 239.358 1015.21 239.358ZM1015.21 238.59C1017.03 238.59 1018.36 237.326 1018.52 235.55L1012.09 235.55C1012.26 237.502 1013.64 238.59 1015.21 238.59ZM1003.62 231.966L1002.5 231.966L1002.5 229.038L1003.31 229.038L1003.31 231.182L1010.22 231.182L1010.22 229.038L1011.04 229.038L1011.04 231.966L1010.11 231.966C1009.55 232.734 1009.23 233.598 1009.23 235.182L1009.23 239.182L1003.62 239.182L1003.62 231.966ZM1009.12 231.966L1004.43 231.966L1004.43 238.398L1008.43 238.398L1008.43 235.182C1008.43 233.758 1008.67 232.782 1009.12 231.966ZM998.051 236.078C996.627 236.078 995.411 235.102 995.411 233.63C995.411 232.158 996.627 231.182 998.051 231.182L1001.22 231.182L1001.22 239.182L1000.42 239.182L1000.42 236.078L998.051 236.078ZM994.179 239.182L993.379 239.182L993.379 231.182L994.179 231.182L994.179 239.182ZM998.051 231.966C997.043 231.966 996.227 232.622 996.227 233.63C996.227 234.654 997.043 235.294 998.051 235.294L1000.42 235.294L1000.42 231.966L998.051 231.966ZM978.817 235.182C978.817 232.926 980.513 231.166 983.089 231.006L983.089 227.982L983.889 227.982L983.889 231.006C986.465 231.166 988.161 232.926 988.161 235.182C988.161 237.438 986.465 239.198 983.889 239.358L983.889 242.382L983.089 242.382L983.089 239.358C980.513 239.198 978.817 237.438 978.817 235.182ZM987.345 235.182C987.345 233.358 986.017 231.95 983.889 231.79L983.889 238.574C986.017 238.414 987.345 237.006 987.345 235.182ZM983.089 231.79C980.961 231.95 979.633 233.358 979.633 235.182C979.633 237.006 980.961 238.414 983.089 238.574L983.089 231.79ZM970.338 239.182L969.522 239.182L969.522 231.182L970.338 231.182L970.338 232.99C971.01 231.79 972.242 231.006 973.778 231.006C976.05 231.006 977.922 232.814 977.922 235.182C977.922 237.55 976.05 239.358 973.778 239.358C972.242 239.358 971.01 238.574 970.338 237.374L970.338 239.182ZM973.714 231.774C971.81 231.774 970.338 233.278 970.338 235.182C970.338 237.086 971.81 238.59 973.714 238.59C975.618 238.59 977.106 237.086 977.106 235.182C977.106 233.278 975.618 231.774 973.714 231.774ZM963.882 231.006C966.298 231.006 968.09 232.814 968.09 235.182C968.09 237.55 966.298 239.358 963.882 239.358C962.314 239.358 960.97 238.558 960.394 237.31L961.05 236.926C961.514 237.934 962.602 238.59 963.882 238.59C965.818 238.59 967.274 237.086 967.274 235.182C967.274 233.278 965.818 231.774 963.882 231.774C962.586 231.774 961.53 232.446 961.002 233.438L960.33 233.038C960.97 231.806 962.314 231.006 963.882 231.006ZM953.613 239.182L953.613 238.398L956.525 238.398L956.525 231.182L957.325 231.182L957.325 238.398L960.237 238.398L960.237 239.182L953.613 239.182ZM944.159 235.182C944.159 232.926 945.855 231.166 948.431 231.006L948.431 227.982L949.231 227.982L949.231 231.006C951.807 231.166 953.503 232.926 953.503 235.182C953.503 237.438 951.807 239.198 949.231 239.358L949.231 242.382L948.431 242.382L948.431 239.358C945.855 239.198 944.159 237.438 944.159 235.182ZM952.687 235.182C952.687 233.358 951.359 231.95 949.231 231.79L949.231 238.574C951.359 238.414 952.687 237.006 952.687 235.182ZM948.431 231.79C946.303 231.95 944.975 233.358 944.975 235.182C944.975 237.006 946.303 238.414 948.431 238.574L948.431 231.79ZM937.176 239.182L936.312 239.182L939.768 230.446C940.376 228.91 941.56 227.87 942.936 227.982L942.936 228.734C941.864 228.638 941.048 229.438 940.552 230.606L940.376 231.038L944.056 239.182L943.192 239.182L939.96 232.062L937.176 239.182ZM929.281 231.966L928.161 231.966L928.161 229.038L928.977 229.038L928.977 231.182L935.889 231.182L935.889 229.038L936.705 229.038L936.705 231.966L935.777 231.966C935.217 232.734 934.897 233.598 934.897 235.182L934.897 239.182L929.281 239.182L929.281 231.966ZM934.785 231.966L930.097 231.966L930.097 238.398L934.097 238.398L934.097 235.182C934.097 233.758 934.337 232.782 934.785 231.966ZM922.937 235.742L922.937 236.51L913.337 236.51L913.337 235.742L922.937 235.742ZM903.753 231.006C906.089 231.006 907.961 232.814 907.961 235.182C907.961 237.55 906.089 239.358 903.753 239.358C901.433 239.358 899.561 237.55 899.561 235.182C899.561 232.814 901.433 231.006 903.753 231.006ZM903.753 231.774C901.849 231.774 900.377 233.278 900.377 235.182C900.377 237.086 901.849 238.59 903.753 238.59C905.657 238.59 907.145 237.086 907.145 235.182C907.145 233.278 905.657 231.774 903.753 231.774ZM894.628 230.99C896.9 230.99 898.66 232.622 898.66 235.102C898.66 237.598 898.212 238.942 895.668 240.19C893.924 241.022 892.516 241.23 892.292 242.59L891.652 242.222C891.924 240.686 893.604 240.302 895.236 239.55C896.804 238.846 897.46 238.126 897.716 236.718C896.916 237.966 895.556 238.462 894.452 238.462C892.34 238.462 890.74 236.91 890.74 234.718C890.74 232.574 892.372 230.99 894.628 230.99ZM894.628 231.79C892.82 231.79 891.556 233.022 891.556 234.718C891.556 236.43 892.772 237.678 894.548 237.678C896.1 237.678 897.668 236.622 897.796 234.926C897.796 233.086 896.452 231.79 894.628 231.79ZM885.855 239.358C883.423 239.358 881.903 237.342 881.903 235.15C881.903 235.022 881.919 234.894 881.919 234.766L889.167 234.766C888.975 232.958 887.599 231.774 885.775 231.774C884.463 231.774 883.471 232.382 883.007 233.23L882.303 232.814C882.959 231.726 884.207 231.006 885.791 231.006C888.255 231.006 889.999 232.766 889.999 235.182C889.999 237.534 888.303 239.358 885.855 239.358ZM885.855 238.59C887.679 238.59 889.007 237.326 889.167 235.55L882.735 235.55C882.911 237.502 884.287 238.59 885.855 238.59ZM874.266 231.966L873.146 231.966L873.146 229.038L873.962 229.038L873.962 231.182L880.874 231.182L880.874 229.038L881.69 229.038L881.69 231.966L880.762 231.966C880.202 232.734 879.882 233.598 879.882 235.182L879.882 239.182L874.266 239.182L874.266 231.966ZM879.77 231.966L875.082 231.966L875.082 238.398L879.082 238.398L879.082 235.182C879.082 233.758 879.322 232.782 879.77 231.966ZM868.7 236.078C867.276 236.078 866.06 235.102 866.06 233.63C866.06 232.158 867.276 231.182 868.7 231.182L871.868 231.182L871.868 239.182L871.068 239.182L871.068 236.078L868.7 236.078ZM864.828 239.182L864.028 239.182L864.028 231.182L864.828 231.182L864.828 239.182ZM868.7 231.966C867.692 231.966 866.876 232.622 866.876 233.63C866.876 234.654 867.692 235.294 868.7 235.294L871.068 235.294L871.068 231.966L868.7 231.966ZM852.138 231.182L853.226 231.182L857.466 235.118L857.466 231.182L858.266 231.182L858.266 239.182L857.466 239.182L857.466 235.55L853.418 239.182L852.298 239.182L856.602 235.342L852.138 231.182ZM844.515 239.182L844.515 231.182L845.315 231.182L845.315 238.398L849.347 238.398L849.347 234.542C849.347 231.742 850.531 231.07 852.035 231.182L852.035 231.934C850.803 231.822 850.147 232.478 850.147 234.542L850.147 239.182L844.515 239.182ZM835.498 239.182L834.682 239.182L834.682 231.182L835.498 231.182L835.498 232.99C836.17 231.79 837.402 231.006 838.938 231.006C841.21 231.006 843.082 232.814 843.082 235.182C843.082 237.55 841.21 239.358 838.938 239.358C837.402 239.358 836.17 238.574 835.498 237.374L835.498 239.182ZM838.874 231.774C836.97 231.774 835.498 233.278 835.498 235.182C835.498 237.086 836.97 238.59 838.874 238.59C840.778 238.59 842.266 237.086 842.266 235.182C842.266 233.278 840.778 231.774 838.874 231.774ZM829.042 231.006C831.458 231.006 833.25 232.814 833.25 235.182C833.25 237.55 831.458 239.358 829.042 239.358C827.474 239.358 826.13 238.558 825.554 237.31L826.21 236.926C826.674 237.934 827.762 238.59 829.042 238.59C830.978 238.59 832.434 237.086 832.434 235.182C832.434 233.278 830.978 231.774 829.042 231.774C827.746 231.774 826.69 232.446 826.162 233.438L825.49 233.038C826.13 231.806 827.474 231.006 829.042 231.006ZM820.631 231.006C823.047 231.006 824.839 232.814 824.839 235.182C824.839 237.55 823.047 239.358 820.631 239.358C819.063 239.358 817.719 238.558 817.143 237.31L817.799 236.926C818.263 237.934 819.351 238.59 820.631 238.59C822.567 238.59 824.023 237.086 824.023 235.182C824.023 233.278 822.567 231.774 820.631 231.774C819.335 231.774 818.279 232.446 817.751 233.438L817.079 233.038C817.719 231.806 819.063 231.006 820.631 231.006ZM809.902 239.182L809.198 239.182L809.198 231.182L810.014 231.182L810.014 237.79L815.102 231.182L815.806 231.182L815.806 239.182L815.006 239.182L815.006 232.574L809.902 239.182ZM801.08 231.182L802.168 231.182L806.408 235.118L806.408 231.182L807.208 231.182L807.208 239.182L806.408 239.182L806.408 235.55L802.36 239.182L801.24 239.182L805.544 235.342L801.08 231.182ZM796.008 235.742L796.008 236.51L786.408 236.51L786.408 235.742L796.008 235.742ZM776.823 231.006C779.159 231.006 781.031 232.814 781.031 235.182C781.031 237.55 779.159 239.358 776.823 239.358C774.503 239.358 772.631 237.55 772.631 235.182C772.631 232.814 774.503 231.006 776.823 231.006ZM776.823 231.774C774.919 231.774 773.447 233.278 773.447 235.182C773.447 237.086 774.919 238.59 776.823 238.59C778.727 238.59 780.215 237.086 780.215 235.182C780.215 233.278 778.727 231.774 776.823 231.774ZM767.698 230.99C769.97 230.99 771.73 232.622 771.73 235.102C771.73 237.598 771.282 238.942 768.738 240.19C766.994 241.022 765.586 241.23 765.362 242.59L764.722 242.222C764.994 240.686 766.674 240.302 768.306 239.55C769.874 238.846 770.53 238.126 770.786 236.718C769.986 237.966 768.626 238.462 767.522 238.462C765.41 238.462 763.81 236.91 763.81 234.718C763.81 232.574 765.442 230.99 767.698 230.99ZM767.698 231.79C765.89 231.79 764.626 233.022 764.626 234.718C764.626 236.43 765.842 237.678 767.618 237.678C769.17 237.678 770.738 236.622 770.866 234.926C770.866 233.086 769.522 231.79 767.698 231.79ZM758.926 239.358C756.494 239.358 754.974 237.342 754.974 235.15C754.974 235.022 754.99 234.894 754.99 234.766L762.238 234.766C762.046 232.958 760.67 231.774 758.846 231.774C757.534 231.774 756.542 232.382 756.078 233.23L755.374 232.814C756.03 231.726 757.278 231.006 758.862 231.006C761.326 231.006 763.07 232.766 763.07 235.182C763.07 237.534 761.374 239.358 758.926 239.358ZM758.926 238.59C760.75 238.59 762.078 237.326 762.238 235.55L755.806 235.55C755.982 237.502 757.358 238.59 758.926 238.59ZM747.336 231.966L746.216 231.966L746.216 229.038L747.032 229.038L747.032 231.182L753.944 231.182L753.944 229.038L754.76 229.038L754.76 231.966L753.832 231.966C753.272 232.734 752.952 233.598 752.952 235.182L752.952 239.182L747.336 239.182L747.336 231.966ZM752.84 231.966L748.152 231.966L748.152 238.398L752.152 238.398L752.152 235.182C752.152 233.758 752.392 232.782 752.84 231.966ZM741.771 236.078C740.347 236.078 739.131 235.102 739.131 233.63C739.131 232.158 740.347 231.182 741.771 231.182L744.939 231.182L744.939 239.182L744.139 239.182L744.139 236.078L741.771 236.078ZM737.899 239.182L737.099 239.182L737.099 231.182L737.899 231.182L737.899 239.182ZM741.771 231.966C740.763 231.966 739.947 232.622 739.947 233.63C739.947 234.654 740.763 235.294 741.771 235.294L744.139 235.294L744.139 231.966L741.771 231.966ZM722.536 235.182C722.536 232.926 724.232 231.166 726.808 231.006L726.808 227.982L727.608 227.982L727.608 231.006C730.184 231.166 731.88 232.926 731.88 235.182C731.88 237.438 730.184 239.198 727.608 239.358L727.608 242.382L726.808 242.382L726.808 239.358C724.232 239.198 722.536 237.438 722.536 235.182ZM731.064 235.182C731.064 233.358 729.736 231.95 727.608 231.79L727.608 238.574C729.736 238.414 731.064 237.006 731.064 235.182ZM726.808 231.79C724.68 231.95 723.352 233.358 723.352 235.182C723.352 237.006 724.68 238.414 726.808 238.574L726.808 231.79ZM714.057 239.182L713.241 239.182L713.241 231.182L714.057 231.182L714.057 232.99C714.729 231.79 715.961 231.006 717.497 231.006C719.769 231.006 721.641 232.814 721.641 235.182C721.641 237.55 719.769 239.358 717.497 239.358C715.961 239.358 714.729 238.574 714.057 237.374L714.057 239.182ZM717.433 231.774C715.529 231.774 714.057 233.278 714.057 235.182C714.057 237.086 715.529 238.59 717.433 238.59C719.337 238.59 720.825 237.086 720.825 235.182C720.825 233.278 719.337 231.774 717.433 231.774ZM707.601 231.006C710.017 231.006 711.809 232.814 711.809 235.182C711.809 237.55 710.017 239.358 707.601 239.358C706.033 239.358 704.689 238.558 704.113 237.31L704.769 236.926C705.233 237.934 706.321 238.59 707.601 238.59C709.537 238.59 710.993 237.086 710.993 235.182C710.993 233.278 709.537 231.774 707.601 231.774C706.305 231.774 705.249 232.446 704.721 233.438L704.049 233.038C704.689 231.806 706.033 231.006 707.601 231.006ZM697.332 239.182L697.332 238.398L700.244 238.398L700.244 231.182L701.044 231.182L701.044 238.398L703.956 238.398L703.956 239.182L697.332 239.182ZM687.878 235.182C687.878 232.926 689.574 231.166 692.15 231.006L692.15 227.982L692.95 227.982L692.95 231.006C695.526 231.166 697.222 232.926 697.222 235.182C697.222 237.438 695.526 239.198 692.95 239.358L692.95 242.382L692.15 242.382L692.15 239.358C689.574 239.198 687.878 237.438 687.878 235.182ZM696.406 235.182C696.406 233.358 695.078 231.95 692.95 231.79L692.95 238.574C695.078 238.414 696.406 237.006 696.406 235.182ZM692.15 231.79C690.022 231.95 688.694 233.358 688.694 235.182C688.694 237.006 690.022 238.414 692.15 238.574L692.15 231.79ZM680.896 239.182L680.032 239.182L683.488 230.446C684.096 228.91 685.28 227.87 686.656 227.982L686.656 228.734C685.584 228.638 684.768 229.438 684.272 230.606L684.096 231.038L687.776 239.182L686.912 239.182L683.68 232.062L680.896 239.182ZM673 231.966L671.88 231.966L671.88 229.038L672.696 229.038L672.696 231.182L679.608 231.182L679.608 229.038L680.424 229.038L680.424 231.966L679.496 231.966C678.936 232.734 678.616 233.598 678.616 235.182L678.616 239.182L673 239.182L673 231.966ZM678.504 231.966L673.816 231.966L673.816 238.398L677.816 238.398L677.816 235.182C677.816 233.758 678.056 232.782 678.504 231.966ZM666.657 235.742L666.657 236.51L657.057 236.51L657.057 235.742L666.657 235.742ZM643.687 231.006C646.023 231.006 647.895 232.814 647.895 235.182C647.895 237.55 646.023 239.358 643.687 239.358C641.367 239.358 639.495 237.55 639.495 235.182C639.495 232.814 641.367 231.006 643.687 231.006ZM643.687 231.774C641.783 231.774 640.311 233.278 640.311 235.182C640.311 237.086 641.783 238.59 643.687 238.59C645.591 238.59 647.079 237.086 647.079 235.182C647.079 233.278 645.591 231.774 643.687 231.774ZM634.561 230.99C636.833 230.99 638.593 232.622 638.593 235.102C638.593 237.598 638.145 238.942 635.601 240.19C633.857 241.022 632.449 241.23 632.225 242.59L631.585 242.222C631.857 240.686 633.537 240.302 635.169 239.55C636.737 238.846 637.393 238.126 637.649 236.718C636.849 237.966 635.489 238.462 634.385 238.462C632.273 238.462 630.673 236.91 630.673 234.718C630.673 232.574 632.305 230.99 634.561 230.99ZM634.561 231.79C632.753 231.79 631.489 233.022 631.489 234.718C631.489 236.43 632.705 237.678 634.481 237.678C636.033 237.678 637.601 236.622 637.729 234.926C637.729 233.086 636.385 231.79 634.561 231.79ZM625.789 239.358C623.357 239.358 621.837 237.342 621.837 235.15C621.837 235.022 621.853 234.894 621.853 234.766L629.101 234.766C628.909 232.958 627.533 231.774 625.709 231.774C624.397 231.774 623.405 232.382 622.941 233.23L622.237 232.814C622.893 231.726 624.141 231.006 625.725 231.006C628.189 231.006 629.933 232.766 629.933 235.182C629.933 237.534 628.237 239.358 625.789 239.358ZM625.789 238.59C627.613 238.59 628.941 237.326 629.101 235.55L622.669 235.55C622.845 237.502 624.221 238.59 625.789 238.59ZM614.199 231.966L613.079 231.966L613.079 229.038L613.895 229.038L613.895 231.182L620.807 231.182L620.807 229.038L621.623 229.038L621.623 231.966L620.695 231.966C620.135 232.734 619.815 233.598 619.815 235.182L619.815 239.182L614.199 239.182L614.199 231.966ZM619.703 231.966L615.015 231.966L615.015 238.398L619.015 238.398L619.015 235.182C619.015 233.758 619.255 232.782 619.703 231.966ZM608.634 236.078C607.21 236.078 605.994 235.102 605.994 233.63C605.994 232.158 607.21 231.182 608.634 231.182L611.802 231.182L611.802 239.182L611.002 239.182L611.002 236.078L608.634 236.078ZM604.762 239.182L603.962 239.182L603.962 231.182L604.762 231.182L604.762 239.182ZM608.634 231.966C607.626 231.966 606.81 232.622 606.81 233.63C606.81 234.654 607.626 235.294 608.634 235.294L611.002 235.294L611.002 231.966L608.634 231.966ZM592.071 231.182L593.159 231.182L597.399 235.118L597.399 231.182L598.199 231.182L598.199 239.182L597.399 239.182L597.399 235.55L593.351 239.182L592.231 239.182L596.535 235.342L592.071 231.182ZM584.449 239.182L584.449 231.182L585.249 231.182L585.249 238.398L589.281 238.398L589.281 234.542C589.281 231.742 590.465 231.07 591.969 231.182L591.969 231.934C590.737 231.822 590.081 232.478 590.081 234.542L590.081 239.182L584.449 239.182ZM575.432 239.182L574.616 239.182L574.616 231.182L575.432 231.182L575.432 232.99C576.104 231.79 577.336 231.006 578.872 231.006C581.144 231.006 583.016 232.814 583.016 235.182C583.016 237.55 581.144 239.358 578.872 239.358C577.336 239.358 576.104 238.574 575.432 237.374L575.432 239.182ZM578.808 231.774C576.904 231.774 575.432 233.278 575.432 235.182C575.432 237.086 576.904 238.59 578.808 238.59C580.712 238.59 582.2 237.086 582.2 235.182C582.2 233.278 580.712 231.774 578.808 231.774ZM568.975 231.006C571.391 231.006 573.183 232.814 573.183 235.182C573.183 237.55 571.391 239.358 568.975 239.358C567.407 239.358 566.063 238.558 565.487 237.31L566.143 236.926C566.607 237.934 567.695 238.59 568.975 238.59C570.911 238.59 572.367 237.086 572.367 235.182C572.367 233.278 570.911 231.774 568.975 231.774C567.679 231.774 566.623 232.446 566.095 233.438L565.423 233.038C566.063 231.806 567.407 231.006 568.975 231.006ZM560.565 231.006C562.981 231.006 564.773 232.814 564.773 235.182C564.773 237.55 562.981 239.358 560.565 239.358C558.997 239.358 557.653 238.558 557.077 237.31L557.733 236.926C558.197 237.934 559.285 238.59 560.565 238.59C562.501 238.59 563.957 237.086 563.957 235.182C563.957 233.278 562.501 231.774 560.565 231.774C559.269 231.774 558.213 232.446 557.685 233.438L557.013 233.038C557.653 231.806 558.997 231.006 560.565 231.006ZM549.836 239.182L549.132 239.182L549.132 231.182L549.948 231.182L549.948 237.79L555.036 231.182L555.74 231.182L555.74 239.182L554.94 239.182L554.94 232.574L549.836 239.182ZM541.014 231.182L542.102 231.182L546.342 235.118L546.342 231.182L547.142 231.182L547.142 239.182L546.342 239.182L546.342 235.55L542.294 239.182L541.174 239.182L545.478 235.342L541.014 231.182ZM535.942 235.742L535.942 236.51L526.342 236.51L526.342 235.742L535.942 235.742ZM516.757 231.006C519.093 231.006 520.965 232.814 520.965 235.182C520.965 237.55 519.093 239.358 516.757 239.358C514.437 239.358 512.565 237.55 512.565 235.182C512.565 232.814 514.437 231.006 516.757 231.006ZM516.757 231.774C514.853 231.774 513.381 233.278 513.381 235.182C513.381 237.086 514.853 238.59 516.757 238.59C518.661 238.59 520.149 237.086 520.149 235.182C520.149 233.278 518.661 231.774 516.757 231.774ZM507.632 230.99C509.904 230.99 511.664 232.622 511.664 235.102C511.664 237.598 511.216 238.942 508.672 240.19C506.928 241.022 505.52 241.23 505.296 242.59L504.656 242.222C504.928 240.686 506.608 240.302 508.24 239.55C509.808 238.846 510.464 238.126 510.72 236.718C509.92 237.966 508.56 238.462 507.456 238.462C505.344 238.462 503.744 236.91 503.744 234.718C503.744 232.574 505.376 230.99 507.632 230.99ZM507.632 231.79C505.824 231.79 504.56 233.022 504.56 234.718C504.56 236.43 505.776 237.678 507.552 237.678C509.104 237.678 510.672 236.622 510.8 234.926C510.8 233.086 509.456 231.79 507.632 231.79ZM498.859 239.358C496.427 239.358 494.907 237.342 494.907 235.15C494.907 235.022 494.923 234.894 494.923 234.766L502.171 234.766C501.979 232.958 500.603 231.774 498.779 231.774C497.467 231.774 496.475 232.382 496.011 233.23L495.307 232.814C495.963 231.726 497.211 231.006 498.795 231.006C501.259 231.006 503.003 232.766 503.003 235.182C503.003 237.534 501.307 239.358 498.859 239.358ZM498.859 238.59C500.683 238.59 502.011 237.326 502.171 235.55L495.739 235.55C495.915 237.502 497.291 238.59 498.859 238.59ZM487.27 231.966L486.15 231.966L486.15 229.038L486.966 229.038L486.966 231.182L493.878 231.182L493.878 229.038L494.694 229.038L494.694 231.966L493.766 231.966C493.206 232.734 492.886 233.598 492.886 235.182L492.886 239.182L487.27 239.182L487.27 231.966ZM492.774 231.966L488.086 231.966L488.086 238.398L492.086 238.398L492.086 235.182C492.086 233.758 492.326 232.782 492.774 231.966ZM481.704 236.078C480.28 236.078 479.064 235.102 479.064 233.63C479.064 232.158 480.28 231.182 481.704 231.182L484.872 231.182L484.872 239.182L484.072 239.182L484.072 236.078L481.704 236.078ZM477.832 239.182L477.032 239.182L477.032 231.182L477.832 231.182L477.832 239.182ZM481.704 231.966C480.696 231.966 479.88 232.622 479.88 233.63C479.88 234.654 480.696 235.294 481.704 235.294L484.072 235.294L484.072 231.966L481.704 231.966ZM462.47 235.182C462.47 232.926 464.166 231.166 466.742 231.006L466.742 227.982L467.542 227.982L467.542 231.006C470.118 231.166 471.814 232.926 471.814 235.182C471.814 237.438 470.118 239.198 467.542 239.358L467.542 242.382L466.742 242.382L466.742 239.358C464.166 239.198 462.47 237.438 462.47 235.182ZM470.998 235.182C470.998 233.358 469.67 231.95 467.542 231.79L467.542 238.574C469.67 238.414 470.998 237.006 470.998 235.182ZM466.742 231.79C464.614 231.95 463.286 233.358 463.286 235.182C463.286 237.006 464.614 238.414 466.742 238.574L466.742 231.79ZM453.991 239.182L453.175 239.182L453.175 231.182L453.991 231.182L453.991 232.99C454.663 231.79 455.895 231.006 457.431 231.006C459.703 231.006 461.575 232.814 461.575 235.182C461.575 237.55 459.703 239.358 457.431 239.358C455.895 239.358 454.663 238.574 453.991 237.374L453.991 239.182ZM457.367 231.774C455.463 231.774 453.991 233.278 453.991 235.182C453.991 237.086 455.463 238.59 457.367 238.59C459.271 238.59 460.759 237.086 460.759 235.182C460.759 233.278 459.271 231.774 457.367 231.774ZM447.535 231.006C449.951 231.006 451.743 232.814 451.743 235.182C451.743 237.55 449.951 239.358 447.535 239.358C445.967 239.358 444.623 238.558 444.047 237.31L444.703 236.926C445.167 237.934 446.255 238.59 447.535 238.59C449.471 238.59 450.927 237.086 450.927 235.182C450.927 233.278 449.471 231.774 447.535 231.774C446.239 231.774 445.183 232.446 444.655 233.438L443.983 233.038C444.623 231.806 445.967 231.006 447.535 231.006ZM437.266 239.182L437.266 238.398L440.178 238.398L440.178 231.182L440.978 231.182L440.978 238.398L443.89 238.398L443.89 239.182L437.266 239.182ZM427.812 235.182C427.812 232.926 429.508 231.166 432.084 231.006L432.084 227.982L432.884 227.982L432.884 231.006C435.46 231.166 437.156 232.926 437.156 235.182C437.156 237.438 435.46 239.198 432.884 239.358L432.884 242.382L432.084 242.382L432.084 239.358C429.508 239.198 427.812 237.438 427.812 235.182ZM436.34 235.182C436.34 233.358 435.012 231.95 432.884 231.79L432.884 238.574C435.012 238.414 436.34 237.006 436.34 235.182ZM432.084 231.79C429.956 231.95 428.628 233.358 428.628 235.182C428.628 237.006 429.956 238.414 432.084 238.574L432.084 231.79ZM420.83 239.182L419.966 239.182L423.422 230.446C424.03 228.91 425.214 227.87 426.59 227.982L426.59 228.734C425.518 228.638 424.702 229.438 424.206 230.606L424.03 231.038L427.71 239.182L426.846 239.182L423.614 232.062L420.83 239.182ZM412.934 231.966L411.814 231.966L411.814 229.038L412.63 229.038L412.63 231.182L419.542 231.182L419.542 229.038L420.358 229.038L420.358 231.966L419.43 231.966C418.87 232.734 418.55 233.598 418.55 235.182L418.55 239.182L412.934 239.182L412.934 231.966ZM418.438 231.966L413.75 231.966L413.75 238.398L417.75 238.398L417.75 235.182C417.75 233.758 417.99 232.782 418.438 231.966ZM406.591 235.742L406.591 236.51L396.991 236.51L396.991 235.742L406.591 235.742ZM387.406 231.006C389.742 231.006 391.614 232.814 391.614 235.182C391.614 237.55 389.742 239.358 387.406 239.358C385.086 239.358 383.214 237.55 383.214 235.182C383.214 232.814 385.086 231.006 387.406 231.006ZM387.406 231.774C385.502 231.774 384.03 233.278 384.03 235.182C384.03 237.086 385.502 238.59 387.406 238.59C389.31 238.59 390.798 237.086 390.798 235.182C390.798 233.278 389.31 231.774 387.406 231.774ZM378.281 230.99C380.553 230.99 382.313 232.622 382.313 235.102C382.313 237.598 381.865 238.942 379.321 240.19C377.577 241.022 376.169 241.23 375.945 242.59L375.305 242.222C375.577 240.686 377.257 240.302 378.889 239.55C380.457 238.846 381.113 238.126 381.369 236.718C380.569 237.966 379.209 238.462 378.105 238.462C375.993 238.462 374.393 236.91 374.393 234.718C374.393 232.574 376.025 230.99 378.281 230.99ZM378.281 231.79C376.473 231.79 375.209 233.022 375.209 234.718C375.209 236.43 376.425 237.678 378.201 237.678C379.753 237.678 381.321 236.622 381.449 234.926C381.449 233.086 380.105 231.79 378.281 231.79ZM369.508 239.358C367.076 239.358 365.556 237.342 365.556 235.15C365.556 235.022 365.572 234.894 365.572 234.766L372.82 234.766C372.628 232.958 371.252 231.774 369.428 231.774C368.116 231.774 367.124 232.382 366.66 233.23L365.956 232.814C366.612 231.726 367.86 231.006 369.444 231.006C371.908 231.006 373.652 232.766 373.652 235.182C373.652 237.534 371.956 239.358 369.508 239.358ZM369.508 238.59C371.332 238.59 372.66 237.326 372.82 235.55L366.388 235.55C366.564 237.502 367.94 238.59 369.508 238.59ZM357.919 231.966L356.799 231.966L356.799 229.038L357.615 229.038L357.615 231.182L364.527 231.182L364.527 229.038L365.343 229.038L365.343 231.966L364.415 231.966C363.855 232.734 363.535 233.598 363.535 235.182L363.535 239.182L357.919 239.182L357.919 231.966ZM363.423 231.966L358.735 231.966L358.735 238.398L362.735 238.398L362.735 235.182C362.735 233.758 362.975 232.782 363.423 231.966ZM352.353 236.078C350.929 236.078 349.713 235.102 349.713 233.63C349.713 232.158 350.929 231.182 352.353 231.182L355.521 231.182L355.521 239.182L354.721 239.182L354.721 236.078L352.353 236.078ZM348.481 239.182L347.681 239.182L347.681 231.182L348.481 231.182L348.481 239.182ZM352.353 231.966C351.345 231.966 350.529 232.622 350.529 233.63C350.529 234.654 351.345 235.294 352.353 235.294L354.721 235.294L354.721 231.966L352.353 231.966ZM335.791 231.182L336.879 231.182L341.119 235.118L341.119 231.182L341.919 231.182L341.919 239.182L341.119 239.182L341.119 235.55L337.071 239.182L335.951 239.182L340.255 235.342L335.791 231.182ZM328.168 239.182L328.168 231.182L328.968 231.182L328.968 238.398L333 238.398L333 234.542C333 231.742 334.184 231.07 335.688 231.182L335.688 231.934C334.456 231.822 333.8 232.478 333.8 234.542L333.8 239.182L328.168 239.182ZM319.151 239.182L318.335 239.182L318.335 231.182L319.151 231.182L319.151 232.99C319.823 231.79 321.055 231.006 322.591 231.006C324.863 231.006 326.735 232.814 326.735 235.182C326.735 237.55 324.863 239.358 322.591 239.358C321.055 239.358 319.823 238.574 319.151 237.374L319.151 239.182ZM322.527 231.774C320.623 231.774 319.151 233.278 319.151 235.182C319.151 237.086 320.623 238.59 322.527 238.59C324.431 238.59 325.919 237.086 325.919 235.182C325.919 233.278 324.431 231.774 322.527 231.774ZM312.695 231.006C315.111 231.006 316.903 232.814 316.903 235.182C316.903 237.55 315.111 239.358 312.695 239.358C311.127 239.358 309.783 238.558 309.207 237.31L309.863 236.926C310.327 237.934 311.415 238.59 312.695 238.59C314.631 238.59 316.087 237.086 316.087 235.182C316.087 233.278 314.631 231.774 312.695 231.774C311.399 231.774 310.343 232.446 309.815 233.438L309.143 233.038C309.783 231.806 311.127 231.006 312.695 231.006ZM304.284 231.006C306.7 231.006 308.492 232.814 308.492 235.182C308.492 237.55 306.7 239.358 304.284 239.358C302.716 239.358 301.372 238.558 300.796 237.31L301.452 236.926C301.916 237.934 303.004 238.59 304.284 238.59C306.22 238.59 307.676 237.086 307.676 235.182C307.676 233.278 306.22 231.774 304.284 231.774C302.988 231.774 301.932 232.446 301.404 233.438L300.732 233.038C301.372 231.806 302.716 231.006 304.284 231.006ZM293.555 239.182L292.851 239.182L292.851 231.182L293.667 231.182L293.667 237.79L298.755 231.182L299.459 231.182L299.459 239.182L298.659 239.182L298.659 232.574L293.555 239.182ZM284.733 231.182L285.821 231.182L290.061 235.118L290.061 231.182L290.861 231.182L290.861 239.182L290.061 239.182L290.061 235.55L286.013 239.182L284.893 239.182L289.197 235.342L284.733 231.182ZM279.661 235.742L279.661 236.51L270.061 236.51L270.061 235.742L279.661 235.742ZM260.477 231.006C262.813 231.006 264.685 232.814 264.685 235.182C264.685 237.55 262.813 239.358 260.477 239.358C258.157 239.358 256.285 237.55 256.285 235.182C256.285 232.814 258.157 231.006 260.477 231.006ZM260.477 231.774C258.573 231.774 257.101 233.278 257.101 235.182C257.101 237.086 258.573 238.59 260.477 238.59C262.381 238.59 263.869 237.086 263.869 235.182C263.869 233.278 262.381 231.774 260.477 231.774ZM251.351 230.99C253.623 230.99 255.383 232.622 255.383 235.102C255.383 237.598 254.935 238.942 252.391 240.19C250.647 241.022 249.239 241.23 249.015 242.59L248.375 242.222C248.647 240.686 250.327 240.302 251.959 239.55C253.527 238.846 254.183 238.126 254.439 236.718C253.639 237.966 252.279 238.462 251.175 238.462C249.063 238.462 247.463 236.91 247.463 234.718C247.463 232.574 249.095 230.99 251.351 230.99ZM251.351 231.79C249.543 231.79 248.279 233.022 248.279 234.718C248.279 236.43 249.495 237.678 251.271 237.678C252.823 237.678 254.391 236.622 254.519 234.926C254.519 233.086 253.175 231.79 251.351 231.79ZM242.579 239.358C240.147 239.358 238.627 237.342 238.627 235.15C238.627 235.022 238.643 234.894 238.643 234.766L245.891 234.766C245.699 232.958 244.323 231.774 242.499 231.774C241.187 231.774 240.195 232.382 239.731 233.23L239.027 232.814C239.683 231.726 240.931 231.006 242.515 231.006C244.979 231.006 246.723 232.766 246.723 235.182C246.723 237.534 245.027 239.358 242.579 239.358ZM242.579 238.59C244.403 238.59 245.731 237.326 245.891 235.55L239.459 235.55C239.635 237.502 241.011 238.59 242.579 238.59ZM230.989 231.966L229.869 231.966L229.869 229.038L230.685 229.038L230.685 231.182L237.597 231.182L237.597 229.038L238.413 229.038L238.413 231.966L237.485 231.966C236.925 232.734 236.605 233.598 236.605 235.182L236.605 239.182L230.989 239.182L230.989 231.966ZM236.493 231.966L231.805 231.966L231.805 238.398L235.805 238.398L235.805 235.182C235.805 233.758 236.045 232.782 236.493 231.966ZM225.424 236.078C224 236.078 222.784 235.102 222.784 233.63C222.784 232.158 224 231.182 225.424 231.182L228.592 231.182L228.592 239.182L227.792 239.182L227.792 236.078L225.424 236.078ZM221.552 239.182L220.752 239.182L220.752 231.182L221.552 231.182L221.552 239.182ZM225.424 231.966C224.416 231.966 223.6 232.622 223.6 233.63C223.6 234.654 224.416 235.294 225.424 235.294L227.792 235.294L227.792 231.966L225.424 231.966ZM206.189 235.182C206.189 232.926 207.885 231.166 210.461 231.006L210.461 227.982L211.261 227.982L211.261 231.006C213.837 231.166 215.533 232.926 215.533 235.182C215.533 237.438 213.837 239.198 211.261 239.358L211.261 242.382L210.461 242.382L210.461 239.358C207.885 239.198 206.189 237.438 206.189 235.182ZM214.717 235.182C214.717 233.358 213.389 231.95 211.261 231.79L211.261 238.574C213.389 238.414 214.717 237.006 214.717 235.182ZM210.461 231.79C208.333 231.95 207.005 233.358 207.005 235.182C207.005 237.006 208.333 238.414 210.461 238.574L210.461 231.79ZM197.711 239.182L196.895 239.182L196.895 231.182L197.711 231.182L197.711 232.99C198.383 231.79 199.615 231.006 201.151 231.006C203.423 231.006 205.295 232.814 205.295 235.182C205.295 237.55 203.423 239.358 201.151 239.358C199.615 239.358 198.383 238.574 197.711 237.374L197.711 239.182ZM201.087 231.774C199.183 231.774 197.711 233.278 197.711 235.182C197.711 237.086 199.183 238.59 201.087 238.59C202.991 238.59 204.479 237.086 204.479 235.182C204.479 233.278 202.991 231.774 201.087 231.774ZM191.254 231.006C193.67 231.006 195.462 232.814 195.462 235.182C195.462 237.55 193.67 239.358 191.254 239.358C189.686 239.358 188.342 238.558 187.766 237.31L188.422 236.926C188.886 237.934 189.974 238.59 191.254 238.59C193.19 238.59 194.646 237.086 194.646 235.182C194.646 233.278 193.19 231.774 191.254 231.774C189.958 231.774 188.902 232.446 188.374 233.438L187.702 233.038C188.342 231.806 189.686 231.006 191.254 231.006ZM180.986 239.182L180.986 238.398L183.898 238.398L183.898 231.182L184.698 231.182L184.698 238.398L187.61 238.398L187.61 239.182L180.986 239.182ZM171.531 235.182C171.531 232.926 173.227 231.166 175.803 231.006L175.803 227.982L176.603 227.982L176.603 231.006C179.179 231.166 180.875 232.926 180.875 235.182C180.875 237.438 179.179 239.198 176.603 239.358L176.603 242.382L175.803 242.382L175.803 239.358C173.227 239.198 171.531 237.438 171.531 235.182ZM180.059 235.182C180.059 233.358 178.731 231.95 176.603 231.79L176.603 238.574C178.731 238.414 180.059 237.006 180.059 235.182ZM175.803 231.79C173.675 231.95 172.347 233.358 172.347 235.182C172.347 237.006 173.675 238.414 175.803 238.574L175.803 231.79ZM164.549 239.182L163.685 239.182L167.141 230.446C167.749 228.91 168.933 227.87 170.309 227.982L170.309 228.734C169.237 228.638 168.421 229.438 167.925 230.606L167.749 231.038L171.429 239.182L170.565 239.182L167.333 232.062L164.549 239.182ZM156.653 231.966L155.533 231.966L155.533 229.038L156.349 229.038L156.349 231.182L163.261 231.182L163.261 229.038L164.077 229.038L164.077 231.966L163.149 231.966C162.589 232.734 162.269 233.598 162.269 235.182L162.269 239.182L156.653 239.182L156.653 231.966ZM162.157 231.966L157.469 231.966L157.469 238.398L161.469 238.398L161.469 235.182C161.469 233.758 161.709 232.782 162.157 231.966Z" fill="#FF7048"/>
<path d="M149.593 235.491L149.594 236.259L139.994 236.272L139.993 235.504L149.593 235.491Z" fill="#FF7048"/>
<path d="M129.364 230.72C131.7 230.772 133.53 232.621 133.475 234.988C133.421 237.355 131.507 239.122 129.172 239.07C126.853 239.019 125.023 237.17 125.077 234.803C125.132 232.436 127.045 230.669 129.364 230.72ZM129.347 231.488C127.443 231.446 125.937 232.917 125.893 234.821C125.849 236.724 127.286 238.26 129.19 238.302C131.093 238.344 132.615 236.873 132.659 234.97C132.703 233.066 131.25 231.53 129.347 231.488Z" fill="#FF7048"/>
<path d="M119.322 230.253C121.588 230.416 123.221 232.17 123.035 234.643C122.847 237.132 122.299 238.44 119.668 239.501C117.866 240.206 116.446 240.312 116.12 241.652L115.51 241.239C115.896 239.727 117.601 239.465 119.285 238.832C120.902 238.243 121.61 237.572 121.972 236.186C121.08 237.373 119.686 237.77 118.585 237.691C116.478 237.539 114.999 235.876 115.164 233.69C115.325 231.552 117.072 230.09 119.322 230.253ZM119.262 231.05C117.459 230.92 116.105 232.058 115.978 233.749C115.849 235.456 116.968 236.788 118.74 236.916C120.288 237.028 121.931 236.087 122.186 234.405C122.325 232.571 121.081 231.182 119.262 231.05Z" fill="#FF7048"/>
<path d="M108.986 237.585C106.577 237.254 105.357 235.052 105.669 232.882C105.687 232.755 105.721 232.631 105.739 232.504L112.92 233.49C112.987 231.674 111.792 230.315 109.984 230.067C108.685 229.888 107.615 230.355 107.035 231.132L106.397 230.624C107.201 229.636 108.54 229.093 110.109 229.309C112.551 229.644 114.028 231.623 113.685 234.015C113.351 236.343 111.412 237.918 108.986 237.585ZM109.095 236.825C110.902 237.073 112.398 236.002 112.809 234.266L106.436 233.391C106.333 235.347 107.542 236.611 109.095 236.825Z" fill="#FF7048"/>
<path d="M98.1817 228.082L97.0863 227.849L97.7234 224.991L98.5215 225.161L98.055 227.253L104.815 228.694L105.282 226.602L106.08 226.772L105.443 229.63L104.535 229.436C103.82 230.069 103.319 230.846 102.975 232.392L102.104 236.296L96.6118 235.125L98.1817 228.082ZM103.565 229.229L98.9798 228.252L97.5804 234.53L101.493 235.364L102.192 232.225C102.502 230.835 102.949 229.932 103.565 229.229Z" fill="#FF7048"/>
<path d="M91.4938 230.496C90.1322 230.079 89.267 228.793 89.7159 227.391C90.1648 225.989 91.6251 225.416 92.9867 225.833L96.016 226.76L93.5765 234.379L92.8115 234.145L93.758 231.189L91.4938 230.496ZM86.8449 232.318L86.0799 232.084L88.5194 224.465L89.2843 224.699L86.8449 232.318ZM92.7477 226.579C91.7838 226.284 90.8035 226.67 90.4962 227.63C90.1839 228.605 90.769 229.454 91.7328 229.749L93.9971 230.442L95.0119 227.273L92.7477 226.579Z" fill="#FF7048"/>
<path d="M73.0973 222.25C74.0817 220.22 76.3883 219.35 78.7951 220.29L80.1146 217.569L80.8403 217.905L79.5209 220.626C81.788 221.854 82.5587 224.151 81.5744 226.181C80.59 228.211 78.2834 229.081 75.8766 228.141L74.5571 230.862L73.8313 230.526L75.1508 227.805C72.8836 226.577 72.1129 224.28 73.0973 222.25ZM80.8341 225.838C81.6299 224.196 81.0395 222.371 79.1788 221.332L76.2186 227.436C78.219 228.187 80.0382 227.479 80.8341 225.838ZM78.453 220.995C76.4526 220.244 74.6334 220.952 73.8376 222.594C73.0417 224.235 73.6321 226.06 75.4929 227.099L78.453 220.995Z" fill="#FF7048"/>
<path d="M62.658 220.884L61.9545 220.47L66.1443 213.655L66.8478 214.069L65.9009 215.609C67.1087 214.927 68.5814 214.884 69.9056 215.662C71.8642 216.814 72.5311 219.302 71.291 221.32C70.0508 223.337 67.49 223.929 65.5314 222.777C64.2072 221.999 63.5557 220.707 63.6049 219.344L62.658 220.884ZM69.4482 216.284C67.8067 215.319 65.7501 215.854 64.7529 217.476C63.7557 219.098 64.237 221.126 65.8784 222.09C67.5198 223.055 69.5903 222.528 70.5875 220.906C71.5847 219.284 71.0896 217.249 69.4482 216.284Z" fill="#FF7048"/>
<path d="M61.4729 210.245C63.4486 211.636 63.842 214.123 62.4381 216.03C61.0342 217.937 58.497 218.361 56.5214 216.971C55.2392 216.068 54.6144 214.65 54.8833 213.314L55.6474 213.382C55.4292 214.461 55.93 215.615 56.9767 216.352C58.5598 217.467 60.6421 217.094 61.7709 215.56C62.8997 214.027 62.6007 211.978 61.0176 210.863C59.9579 210.117 58.6959 210.051 57.676 210.546L57.3637 209.837C58.6174 209.213 60.1907 209.342 61.4729 210.245Z" fill="#FF7048"/>
<path d="M47.2218 209.708L47.7154 209.099L50.0171 210.882L54.561 205.277L55.1934 205.767L50.6494 211.373L52.951 213.156L52.4573 213.765L47.2218 209.708Z" fill="#FF7048"/>
<path d="M42.0173 199.608C43.5916 197.992 46.0608 197.887 48.0573 199.529L50.1676 197.363L50.753 197.908L48.6426 200.074C50.4157 201.945 50.4284 204.361 48.854 205.977C47.2797 207.593 44.8105 207.697 42.814 206.056L40.7037 208.222L40.1183 207.677L42.2287 205.511C40.4555 203.64 40.4429 201.224 42.0173 199.608ZM48.257 205.421C49.5299 204.114 49.5408 202.201 48.0955 200.636L43.3612 205.495C45.0298 206.83 46.9841 206.727 48.257 205.421ZM47.5101 200.09C45.8415 198.754 43.8872 198.858 42.6143 200.164C41.3414 201.47 41.3305 203.384 42.7758 204.949L47.5101 200.09Z" fill="#FF7048"/>
<path d="M33.4148 196.057L32.8401 195.412L41.7897 192.329C43.3635 191.787 44.9427 191.996 45.7727 193.097L45.2002 193.584C44.5602 192.721 43.4084 192.631 42.1893 193.018L41.7434 193.166L37.9908 201.195L37.4162 200.55L40.6871 193.52L33.4148 196.057Z" fill="#FF7048"/>
<path d="M33.6279 184.499L32.9595 183.601L35.3457 181.904L35.8326 182.559L34.0854 183.801L38.2103 189.347L39.9576 188.105L40.4445 188.76L38.0584 190.456L37.5046 189.712C36.5445 189.707 35.6494 189.951 34.3585 190.869L31.0987 193.188L27.7472 188.681L33.6279 184.499ZM36.9126 188.916L34.1148 185.154L28.8731 188.882L31.2602 192.091L33.8811 190.227C35.0416 189.402 35.9802 189.029 36.9126 188.916Z" fill="#FF7048"/>
<path d="M26.6792 180.87L25.9966 181.222L21.4413 172.771L22.124 172.419L26.6792 180.87Z" fill="#FF7048"/>
<path d="M22.6258 161.302C23.4334 163.494 22.3752 165.852 20.1417 166.638C17.9082 167.425 15.5558 166.269 14.7483 164.077C13.9463 161.9 15.0044 159.543 17.2379 158.756C19.4714 157.969 21.8238 159.125 22.6258 161.302ZM21.9015 161.557C21.2433 159.771 19.3158 158.889 17.52 159.522C15.7241 160.154 14.8144 162.035 15.4726 163.822C16.1308 165.609 18.0638 166.505 19.8596 165.873C21.6555 165.24 22.5597 163.344 21.9015 161.557Z" fill="#FF7048"/>
<path d="M19.6729 152.131C20.2778 154.321 19.1685 156.435 16.7707 157.068C14.3574 157.705 12.9387 157.616 11.0548 155.483C9.78603 154.014 9.21007 152.71 7.83552 152.842L8.02093 152.131C9.57843 152.001 10.397 153.522 11.5585 154.903C12.6566 156.235 13.5274 156.683 14.9569 156.571C13.5373 156.118 12.6957 154.934 12.4017 153.87C11.8395 151.834 12.9141 149.895 15.0334 149.336C17.1063 148.788 19.0723 149.957 19.6729 152.131ZM18.8994 152.336C18.4181 150.593 16.8904 149.689 15.2506 150.122C13.5954 150.559 12.7125 152.05 13.1853 153.762C13.5985 155.258 15.0369 156.5 16.7108 156.19C18.4898 155.72 19.3851 154.094 18.8994 152.336Z" fill="#FF7048"/>
<path d="M9.39195 144.936C8.92402 142.549 10.613 140.686 12.7675 140.282C12.8933 140.259 13.0222 140.251 13.148 140.227L14.5426 147.34C16.2827 146.818 17.1816 145.25 16.8307 143.46C16.5783 142.173 15.7898 141.311 14.8671 141.012L15.1405 140.245C16.3361 140.688 17.2839 141.78 17.5886 143.334C18.0627 145.752 16.6684 147.788 14.2938 148.233C11.9821 148.666 9.86296 147.338 9.39195 144.936ZM10.1468 144.794C10.4977 146.584 11.9956 147.655 13.772 147.484L12.5344 141.173C10.6497 141.705 9.84511 143.256 10.1468 144.794Z" fill="#FF7048"/>
<path d="M14.9215 131.937L14.7848 130.826L17.6928 130.484L17.7924 131.294L15.663 131.544L16.5066 138.404L18.6359 138.154L18.7355 138.964L15.8275 139.306L15.7143 138.385C14.8832 137.919 13.986 137.702 12.4129 137.887L8.44023 138.354L7.75486 132.78L14.9215 131.937ZM15.5932 137.4L15.0211 132.747L8.63308 133.498L9.12123 137.468L12.3152 137.093C13.7295 136.927 14.7281 137.051 15.5932 137.4Z" fill="#FF7048"/>
<path d="M10.4199 126.423C10.353 125 11.2708 123.742 12.7413 123.676C14.2118 123.609 15.244 124.78 15.311 126.203L15.4599 129.367L7.46797 129.727L7.43036 128.928L10.5312 128.788L10.4199 126.423ZM7.13702 122.694L7.09941 121.895L15.0913 121.536L15.1289 122.335L7.13702 122.694ZM14.5277 126.238C14.4804 125.231 13.7867 124.445 12.7797 124.491C11.7567 124.537 11.1557 125.381 11.2031 126.387L11.3144 128.753L14.6391 128.603L14.5277 126.238Z" fill="#FF7048"/>
<path d="M15.4669 109.488L15.4114 110.574L11.2636 114.617L15.1949 114.809L15.154 115.608L7.16356 115.217L7.20441 114.418L10.8321 114.596L7.41109 110.376L7.46827 109.257L11.0839 113.743L15.4669 109.488Z" fill="#FF7048"/>
<path d="M8.48414 99.9542L16.4302 100.881L16.3333 101.676L9.16594 100.839L8.67747 104.842L12.5075 105.288C15.2886 105.613 15.8126 106.866 15.5192 108.346L14.7723 108.259C15.0328 107.049 14.4607 106.322 12.4106 106.083L7.80184 105.545L8.48414 99.9542Z" fill="#FF7048"/>
<path d="M10.5833 90.2678L10.7707 89.4736L18.5745 91.2345L18.3871 92.0287L16.6234 91.6308C17.6396 92.5489 18.1214 93.9206 17.7686 95.4155C17.2468 97.6268 15.0531 99.0507 12.7432 98.5295C10.4333 98.0083 9.09962 95.7883 9.62148 93.5771C9.97428 92.0822 11.022 91.0557 12.347 90.6658L10.5833 90.2678ZM17.0342 95.1842C17.4715 93.3311 16.3425 91.5674 14.4852 91.1483C12.6279 90.7292 10.8227 91.8308 10.3853 93.6839C9.94801 95.5369 11.0733 97.3162 12.9306 97.7353C14.7879 98.1544 16.5968 97.0373 17.0342 95.1842Z" fill="#FF7048"/>
<path d="M20.5189 85.8838C19.7447 88.1724 17.4503 89.3136 15.1972 88.5849C12.9441 87.8562 11.798 85.6023 12.5722 83.3137C13.0746 81.8283 14.2664 80.8014 15.6384 80.6398L15.7936 81.3794C14.6858 81.5087 13.713 82.3375 13.3029 83.55C12.6825 85.3839 13.647 87.226 15.4586 87.8119C17.2702 88.3978 19.1678 87.4814 19.7881 85.6475C20.2034 84.4198 19.9024 83.2127 19.1277 82.4073L19.7236 81.8938C20.6908 82.8792 21.0213 84.3985 20.5189 85.8838Z" fill="#FF7048"/>
<path d="M23.704 77.6843C22.7492 79.9037 20.369 80.862 18.179 79.9612C15.989 79.0604 15.0251 76.7265 15.9799 74.5071C16.5996 73.0668 17.8706 72.1365 19.2524 72.0822L19.3482 72.8308C18.2327 72.8736 17.196 73.6235 16.6902 74.7993C15.9251 76.5777 16.7406 78.4873 18.5015 79.2116C20.2623 79.9359 22.2287 79.1706 22.9937 77.3922C23.5059 76.2017 23.3017 74.976 22.593 74.1136L23.2285 73.6485C24.1149 74.7051 24.3236 76.244 23.704 77.6843Z" fill="#FF7048"/>
<path d="M21.3093 63.9903L21.6363 63.3669L28.7873 66.9534L28.4082 67.6761L22.5015 64.7135L26.0447 72.1818L25.7177 72.8052L18.5667 69.2186L18.9383 68.5102L24.845 71.4727L21.3093 63.9903Z" fill="#FF7048"/>
<path d="M33.114 59.8499L32.5421 60.7755L26.9245 62.3804L30.3133 64.3825L29.8928 65.063L23.0051 60.9938L23.4256 60.3132L26.5526 62.1607L25.5534 56.8696L26.1421 55.9168L27.1859 61.5314L33.114 59.8499Z" fill="#FF7048"/>
<path d="M32.681 52.4L32.0695 51.9354L38.0423 44.4197L38.6538 44.8843L32.681 52.4Z" fill="#FF7048"/>
<path d="M49.5448 40.427C47.8566 42.0416 45.2251 42.0573 43.5504 40.3831C41.8757 38.7089 41.95 36.1367 43.6382 34.5221C45.3148 32.9186 47.9463 32.903 49.6209 34.5771C51.2956 36.2513 51.2214 38.8235 49.5448 40.427ZM49.0016 39.8841C50.3776 38.568 50.3777 36.4873 49.0312 35.1411C47.6847 33.795 45.5573 33.7491 44.1813 35.0651C42.8053 36.3811 42.7936 38.4729 44.1401 39.8191C45.4866 41.1652 47.6256 41.2001 49.0016 39.8841Z" fill="#FF7048"/>
<path d="M56.7555 34.1528C54.981 35.5716 52.5595 35.4187 50.9686 33.5162C49.3674 31.6015 48.8551 30.2907 50.0415 27.7446C50.8699 26.0173 51.8362 24.9784 51.1388 23.7953L51.8747 23.6779C52.6476 25.0261 51.5818 26.3698 50.7895 27.9658C50.0164 29.485 49.9659 30.447 50.6692 31.687C50.4935 30.2301 51.2375 29.0003 52.0998 28.3108C53.7493 26.9919 55.9946 27.1834 57.4007 28.8649C58.7761 30.5096 58.5176 32.7439 56.7555 34.1528ZM56.2423 33.539C57.6545 32.41 57.8514 30.6755 56.7634 29.3745C55.6652 28.0612 53.9149 27.8631 52.5277 28.9722C51.3155 29.9414 50.7683 31.7307 51.7563 33.1117C52.9366 34.5232 54.8177 34.6781 56.2423 33.539Z" fill="#FF7048"/>
<path d="M59.0727 22.1269C61.0972 20.7793 63.5143 21.5915 64.7667 23.3905C64.8399 23.4956 64.8997 23.6095 64.9728 23.7145L58.9393 27.7307C60.1321 29.1082 61.9541 29.3174 63.4724 28.3067C64.5646 27.5797 65.043 26.5311 64.9447 25.578L65.7685 25.5293C65.844 26.7857 65.2165 28.0682 63.8979 28.9459C61.8468 30.3112 59.3894 29.8332 58.009 27.8504C56.6652 25.9201 57.0348 23.4833 59.0727 22.1269ZM59.5115 22.7572C57.9931 23.7679 57.6098 25.5411 58.4913 27.0873L63.8456 23.5233C62.5838 22.0188 60.8167 21.8883 59.5115 22.7572Z" fill="#FF7048"/>
<path d="M73.6302 22.1583L74.6153 21.6255L76.057 24.1739L75.3393 24.5622L74.2836 22.696L68.204 25.9844L69.2596 27.8505L68.5419 28.2388L67.1002 25.6903L67.9165 25.2488C68.0309 24.3139 67.8869 23.4096 67.107 22.0309L65.1375 18.5494L70.0773 15.8776L73.6302 22.1583ZM68.789 24.7768L72.9125 22.5465L69.7455 16.9482L66.2272 18.8512L67.8107 21.6503C68.5118 22.8898 68.7813 23.8535 68.789 24.7768Z" fill="#FF7048"/>
<path d="M77.1238 16.0634C78.4371 15.5129 79.9504 15.9367 80.5415 17.2848C81.1325 18.6329 80.403 19.9969 79.0897 20.5474L76.168 21.7722L72.9558 14.4454L73.6936 14.1361L74.9399 16.9789L77.1238 16.0634ZM79.4484 11.7237L80.1862 11.4145L83.3984 18.7412L82.6606 19.0505L79.4484 11.7237ZM78.7749 19.8294C79.7045 19.4397 80.1937 18.5234 79.7889 17.6003C79.3778 16.6624 78.3682 16.3918 77.4386 16.7815L75.2547 17.6969L76.591 20.7449L78.7749 19.8294Z" fill="#FF7048"/>
</svg>
