<svg width="233" height="113" viewBox="0 0 233 113" fill="none" xmlns="http://www.w3.org/2000/svg">
<path d="M56.679 28.366C56.7765 26.2439 57.1472 24.2429 57.791 22.3629C58.6786 19.775 60.8649 17.346 63.6236 16.8945C65.7645 16.5414 67.7011 17.5125 68.9997 19.1621C69.7176 20.0718 70.0857 21.2615 70.1042 22.7312C70.1059 22.827 70.1513 22.8926 70.2404 22.9279C70.7245 23.1171 71.2314 23.4147 71.6197 23.7527C73.7329 25.5889 76.2015 27.7077 78.8089 28.8251C80.0714 29.3665 81.1633 29.3741 82.0845 28.8478C83.4941 28.0432 84.1926 26.3532 84.0237 24.7717C83.9262 23.8771 83.3958 23.1902 82.4325 22.711C81.7584 22.373 81.2028 22.4949 80.7657 23.0767C80.5253 23.3979 80.5312 23.7014 80.7834 23.9873C81.0792 24.3219 81.4398 24.6498 81.8652 24.971C82.467 25.4284 82.5536 25.9673 82.1249 26.5878C82.0896 26.6399 82.0551 26.6904 82.0215 26.7391C81.6029 27.3462 81.0994 27.4277 80.511 26.9838C79.9008 26.5264 79.4713 25.9656 79.2225 25.3014C78.1886 22.5495 80.7254 20.3829 83.3252 21.7247C84.6583 22.4142 85.3324 23.556 85.3476 25.1501C85.3778 28.6435 82.6519 31.1027 79.1796 30.3511C76.1915 29.7028 73.4126 27.5084 71.3398 25.2081C71.0297 24.8625 70.6035 24.5977 70.2076 24.3555C70.194 24.3471 70.1785 24.342 70.1626 24.3408C70.1466 24.3395 70.1306 24.3421 70.1158 24.3482C70.101 24.3544 70.0879 24.364 70.0775 24.3762C70.0672 24.3885 70.0599 24.403 70.0563 24.4186C69.5721 26.5953 68.0163 30.7647 64.8945 28.5501C64.0035 27.9196 63.6177 27.0956 63.7371 26.0783C64.0018 23.8132 66.405 22.3478 68.5988 22.5218C68.7535 22.5336 68.8182 22.4629 68.793 22.3099C68.5509 20.884 67.733 19.9112 66.3394 19.3916C63.5101 18.3347 60.7716 19.8532 59.3897 22.3351C58.2685 24.3463 57.9591 26.5844 58.4618 29.0496C58.9728 31.5635 60.005 34.2094 61.5584 36.9873C63.0234 39.608 65.477 41.5149 68.1096 43.2982C68.1987 43.3587 68.2029 43.4243 68.1222 43.4949C67.8415 43.7354 67.5321 43.9237 67.1942 44.0599C66.3688 44.3895 65.6628 44.8233 65.0761 45.3614C64.8457 45.5716 64.5953 45.6321 64.3246 45.543C63.4017 45.2403 62.6906 44.6022 61.8055 44.2516C59.0645 43.167 55.9351 42.8164 53.2722 43.901C52.2762 44.3071 51.0355 44.8343 49.9815 44.4509C49.8857 44.4155 49.831 44.3474 49.8176 44.2466C49.7503 43.737 49.6646 43.2351 49.5604 42.7407C49.4645 42.2968 49.6512 41.9285 50.0521 41.7444C53.532 40.1326 55.2416 36.8461 54.0943 33.0424C53.416 30.795 51.9156 28.9714 50.0748 27.4731C49.6982 27.1671 49.5562 26.7786 49.6486 26.3078C49.7974 25.536 50.2236 24.5977 51.1238 24.5397C51.7819 24.4993 52.3317 24.8726 52.8486 25.2308C54.4591 26.349 55.693 27.4084 56.5504 28.4089C56.6311 28.5031 56.6739 28.4888 56.679 28.366ZM68.2306 23.6795C67.1009 24.1764 64.9752 24.6355 65.3433 26.3557C65.5426 27.289 66.6269 27.4756 67.1438 26.6761C67.6095 25.958 68.0129 24.9945 68.3542 23.7855C68.3878 23.6627 68.3466 23.6274 68.2306 23.6795Z" fill="#242021"/>
<path d="M138.741 65.825C139.896 66.0554 141.684 66.2589 144.107 66.4354C145.245 66.5178 145.82 67.0256 145.832 67.9589C145.844 69.0157 144.137 69.3285 143.393 69.4824C141.788 69.8153 140.182 70.1365 138.577 70.4459C138.49 70.4627 138.443 70.5157 138.438 70.6048C138.287 72.8917 138.136 75.4578 137.984 78.3029C137.914 79.6297 136.6 79.95 135.533 79.723C134.72 79.5515 134.341 79.0638 134.396 78.2601C134.561 75.9277 134.735 73.6333 134.918 71.3766C134.92 71.3547 134.917 71.3326 134.908 71.3122C134.9 71.2919 134.887 71.2738 134.87 71.2595C134.853 71.2452 134.833 71.2351 134.812 71.23C134.79 71.2249 134.768 71.2251 134.747 71.2303C130.046 72.4242 124.987 74.1705 119.569 76.4692C116.369 77.8262 113.509 79.6423 110.579 81.4331C109.897 81.8485 109.202 81.8703 108.496 81.4987C107.152 80.7899 106.673 79.0899 108.214 78.2449C111.453 76.4675 114.863 74.8642 118.442 73.4349C120.387 72.6597 122.314 72.0148 124.224 71.5002C127.816 70.5333 131.386 69.738 134.933 69.1141C135.037 69.0956 135.093 69.0342 135.1 68.93L135.178 67.7445C135.185 67.6352 135.135 67.5696 135.029 67.5478C130.692 66.6313 126.785 65.2802 123.308 63.4944C121.962 62.8016 120.074 61.6892 117.645 60.1574C114.664 58.2774 112.033 55.9543 109.752 53.1882C107.175 50.0655 105.084 46.8899 104 43.0056C102.464 37.4993 104.235 32.5859 109.992 30.8883C112.269 30.2157 114.716 30.1401 117.332 30.6613C123.785 31.9477 128.919 36.0515 132.427 41.5426C136.945 48.6177 138.753 57.0852 138.62 65.6737C138.618 65.7578 138.659 65.8082 138.741 65.825ZM134.3 54.3939C133.258 50.0403 131.374 45.9088 128.649 41.9992C126.097 38.3393 122.691 35.5193 118.457 34.0312C115.58 33.0197 111.999 32.9213 109.555 34.9619C104.303 39.3406 109.333 46.9757 112.549 50.8071C114.359 52.9645 116.382 55.0194 118.618 56.9717C119.788 57.9924 121.019 58.908 122.31 59.7185C126.281 62.2131 130.609 64.2158 135.127 65.1793C135.216 65.1995 135.263 65.1633 135.266 65.0708C135.404 61.2151 135.082 57.6561 134.3 54.3939Z" fill="#242021"/>
<path d="M68.0668 34.7021C70.9515 34.6113 73.7127 36.1802 75.5813 38.3872C75.6805 38.5049 75.6536 38.5512 75.5006 38.5259C73.2462 38.1644 70.9515 38.1257 68.6165 38.4099C67.5608 38.5377 66.4655 38.837 65.3308 39.3079C65.0164 39.4373 64.7273 39.3667 64.4633 39.096C63.7068 38.3225 63.0991 37.48 62.6402 36.5686C62.5816 36.4543 62.5667 36.3225 62.5982 36.1977C62.6297 36.0729 62.7056 35.9636 62.8117 35.8901C63.4303 35.4613 64.1229 35.1771 64.8895 35.0376C65.92 34.8476 66.9791 34.7357 68.0668 34.7021Z" fill="#242021"/>
<path d="M53.0428 37.0756C52.3973 39.0178 50.8792 40.0166 49.2074 40.9322C49.0376 41.0247 48.8737 41.0155 48.7157 40.9045C47.1489 39.8165 45.3821 39.1969 43.4152 39.0455C42.5948 38.9816 41.7727 38.9354 40.949 38.9068C40.8128 38.9018 40.7952 38.8547 40.896 38.7656C41.3298 38.3754 41.7694 38.0492 42.2149 37.7869C45.4577 35.8867 49.0124 35.542 52.8789 36.7527C53.0437 36.8049 53.0983 36.9125 53.0428 37.0756Z" fill="#242021"/>
<path d="M150.3 68.6273C150.28 69.5723 150.281 70.5754 150.303 71.6364C150.335 73.2785 146.946 73.1145 146.949 71.76C146.95 66.8415 146.95 62.0996 146.946 57.5341C146.946 55.9703 150.3 55.9501 150.293 57.6653C150.286 59.0038 150.287 60.3112 150.295 61.5875C150.298 61.8751 150.374 61.8952 150.522 61.6481C151.378 60.2238 152.441 58.9433 153.712 57.8066C154.985 56.669 156.602 56.0762 158.294 56.2553C160.245 56.4622 161.317 58.5179 161.032 60.233C160.757 61.8826 159.088 62.4502 157.641 62.0264C157.603 62.0151 157.571 61.9905 157.551 61.9574C157.531 61.9242 157.524 61.885 157.532 61.8473C157.651 61.2142 158.178 59.1661 157.288 58.9265C155.974 58.5759 154.622 60.7022 154.105 61.6279C153.445 62.8083 152.81 63.9467 152.201 65.0431C152.161 65.1154 152.161 65.1885 152.201 65.2625C153.762 68.0926 156.587 70.7587 159.915 69.5757C160.838 69.2453 161.741 68.7206 162.51 68.138C164.225 66.8365 166.003 65.2609 167.846 63.4112C167.879 63.3776 167.903 63.3357 167.914 63.29C167.926 63.2442 167.925 63.1963 167.911 63.1514C166.452 58.2967 166.285 53.2428 167.409 47.9897C168.325 43.7118 170.793 36.7603 176.407 37.3253C179.831 37.6709 181.256 40.1453 181.049 43.3335C180.855 46.33 179.713 49.4425 178.424 52.1692C176.595 56.0334 174.431 59.5579 171.931 62.7427C171.811 62.8924 171.676 63.0286 171.525 63.1514C171.452 63.2085 171.431 63.2808 171.462 63.3683C172.44 66.1958 174.657 69.9742 177.794 70.4711C179.907 70.8066 181.059 69.0813 181.518 67.2981C181.545 67.1955 181.506 67.1316 181.402 67.1064C179.067 66.5548 177.359 65.1322 176.278 62.8386C175.824 61.8751 175.754 60.8375 176.069 59.726C177.168 55.8316 181.742 56.6337 183.588 59.3603C184.572 60.8157 185.056 62.7352 184.953 64.5285C184.946 64.6328 184.995 64.6858 185.101 64.6874C187.005 64.7152 188.084 64.2133 189.373 63.0656C189.716 62.7596 189.996 62.4266 190.213 62.0668C191.173 60.4693 192.62 59.1434 194.555 58.0891C196.539 57.0078 198.544 56.706 200.572 57.1835C201.938 57.5047 202.754 58.2152 203.018 59.3149C203.041 59.4124 203.103 59.4612 203.204 59.4612C205.31 59.4612 205.817 61.3605 205.749 63.106C205.673 65.0498 204.984 66.575 203.681 67.6814C203.657 67.7007 203.642 67.7284 203.639 67.7586C203.636 67.7887 203.644 67.819 203.663 67.8429C204.944 69.4319 206.83 69.7926 208.495 68.476C210.683 66.7482 212.378 64.1855 213.982 61.9003C215.008 60.4348 217.015 61.6682 215.979 63.2447C214.91 64.8707 213.829 66.4396 212.736 67.9513C212.042 68.9115 211.259 69.7851 210.388 70.572C207.665 73.0338 204.515 72.7841 201.986 70.1432C201.924 70.0793 201.858 70.0768 201.79 70.1357C199.124 72.4587 194.661 73.9519 191.416 72.0274C189.527 70.905 188.745 69.0233 188.813 66.9121C188.818 66.7944 188.766 66.76 188.657 66.8087C187.356 67.3973 185.996 67.6814 184.577 67.6613C184.484 67.6596 184.425 67.7025 184.398 67.7899C183.543 70.4989 181.513 72.6681 178.56 72.9859C173.84 73.4979 170.599 69.8607 168.905 65.9158C168.864 65.8233 168.803 65.8065 168.721 65.8654C168.243 66.2118 167.793 66.5826 167.369 66.9777C166.332 67.9497 165.332 68.8711 164.371 69.7422C161.567 72.2847 157.552 73.6644 154.146 71.8382C152.651 71.0361 151.41 69.9532 150.424 68.5895C150.415 68.5778 150.404 68.5691 150.39 68.5645C150.377 68.5599 150.362 68.5596 150.348 68.5638C150.335 68.568 150.323 68.5764 150.314 68.5878C150.305 68.5992 150.3 68.613 150.3 68.6273ZM170.622 45.3841C169.126 49.8739 168.885 54.4409 169.898 59.0854C169.966 59.3931 170.129 59.6739 170.39 59.9278C170.475 60.0107 170.585 60.0637 170.703 60.0787C170.82 60.0937 170.94 60.07 171.043 60.0111C172.11 59.3981 172.932 58.1118 173.529 57.0473C175.266 53.96 176.566 50.7331 177.43 47.3667C177.862 45.6868 178.313 43.2704 177.66 41.6435C177.219 40.5488 176.076 39.4794 174.773 39.9107C172.715 40.5892 171.257 43.4798 170.622 45.3841ZM199.465 59.6277C194.406 58.8861 192.651 62.7831 192.23 66.9475C192.185 67.3889 192.296 68.1128 192.485 68.5189C194.159 72.1157 198.284 69.4622 200.224 67.9312C200.293 67.8773 200.312 67.8084 200.282 67.7243C199.404 65.3786 199.427 62.5107 201.086 60.566C201.145 60.497 201.14 60.434 201.071 60.3768C200.577 59.9615 200.041 59.7117 199.465 59.6277ZM178.684 61.8624C179.296 63.0732 180.33 63.8753 181.785 64.2687C181.91 64.3024 181.964 64.2553 181.947 64.1275C181.911 63.8727 182.017 63.7138 181.949 63.4313C181.788 62.7638 181.542 62.1349 181.21 61.5446C180.794 60.8056 179.816 59.7916 178.906 59.9884C178.015 60.1801 178.416 61.3353 178.684 61.8624ZM202.43 65.54C203.096 64.3545 203.656 62.995 203.34 61.696C203.332 61.6603 203.314 61.6277 203.289 61.6017C203.263 61.5757 203.231 61.5572 203.195 61.5484C203.159 61.5395 203.122 61.5406 203.087 61.5515C203.051 61.5624 203.02 61.5827 202.995 61.6102C202.112 62.599 201.971 64.3318 202.256 65.5148C202.295 65.6712 202.353 65.6796 202.43 65.54Z" fill="#242021"/>
<path d="M99.0527 63.1584C99.552 68.8512 98.4526 76.1988 94.3776 80.4564C93.4782 81.3964 92.3704 82.0405 91.0541 82.3885C90.928 82.4222 90.8935 82.3801 90.9507 82.2624C92.9781 78.1056 93.7833 73.6706 93.3664 68.9572C92.7839 62.3815 89.8512 56.2648 85.9805 51.0512C83.1865 47.2854 79.6234 44.4402 75.0441 43.2774C74.2305 43.0706 73.4664 43.0058 72.752 43.0832C71.6248 43.2043 70.0942 43.57 69.0628 42.8764C68.1046 42.229 67.1203 41.5622 66.11 40.8762C66.0091 40.8072 66.0124 40.7433 66.12 40.6845C67.1371 40.143 68.3256 39.8336 69.6856 39.7563C78.8443 39.2316 86.9463 42.5686 92.7133 49.4647C94.0716 51.089 95.3493 53.0245 96.5462 55.2711C97.9936 57.9851 98.8291 60.6142 99.0527 63.1584Z" fill="#242021"/>
<path d="M28.3836 86.8032C26.0486 86.0641 24.3515 84.9871 22.7023 82.8885C20.5715 80.1796 18.8493 77.1149 17.9818 73.8586C17.4136 71.7315 17.1841 69.4563 17.2934 67.0332C17.5531 61.2798 19.1922 55.7711 22.5611 51.1451C26.1292 46.2442 31.3037 42.6853 37.0581 40.9171C39.0485 40.305 41.0162 39.9973 42.9612 39.9939C44.1935 39.9906 45.3005 40.2109 46.2822 40.6548C47.6616 41.2778 48.9703 42.6676 48.5895 44.239C48.58 44.2765 48.5562 44.3088 48.5233 44.329C48.4903 44.3493 48.4508 44.3559 48.413 44.3475L48.1659 44.297C48.0314 44.2701 47.8944 44.2567 47.7549 44.2567C46.2133 44.255 45.0576 44.2995 44.2876 44.3903C41.9005 44.6745 39.5629 45.4447 37.2749 46.7008C31.9643 49.6149 28.0037 53.7582 25.3929 59.1308C22.5435 64.9952 21.9786 71.4372 24.059 77.5639C24.9794 80.2779 25.9149 83.0878 27.2816 85.4537C27.5388 85.9027 27.9087 86.3492 28.3912 86.7931C28.4029 86.8049 28.4004 86.8082 28.3836 86.8032Z" fill="#242021"/>
<path d="M90.2043 63.7517C92.6906 71.7046 93.0436 82.8381 85.5468 88.4149C81.6887 91.2828 77.4119 91.8806 72.8427 91.0608C72.7217 91.039 72.6965 90.9776 72.7671 90.8767C76.1562 85.9859 77.4624 80.2048 77.1472 74.3126C76.8816 69.3201 76.0511 64.6177 74.6558 60.2053C73.8522 57.6628 72.836 55.4289 71.6071 53.5035C70.738 52.1414 69.7008 50.6802 68.4954 49.1197C67.9608 48.426 66.637 46.673 65.8905 46.5444C65.7443 46.5192 65.7317 46.4637 65.8527 46.3779C66.3117 46.0525 66.7277 45.6717 67.2396 45.4169C69.0401 44.5215 71.6172 43.7219 73.6471 44.0347C78.8468 44.8343 82.43 47.8787 85.1509 52.2448C87.3245 55.7357 88.9485 59.7387 90.2043 63.7517Z" fill="#242021"/>
<path d="M61.5836 45.3942C65.8073 47.0665 68.2912 50.227 70.0361 54.2753C71.0414 56.611 71.9089 58.9551 72.6385 61.3075C73.9312 65.4677 74.6306 69.5723 74.7365 73.6215C74.7987 75.9572 74.7415 78.3879 74.565 80.9135C74.4675 82.3059 74.2641 83.6477 73.9548 84.9392C72.7671 89.893 69.2721 94.2062 64.3095 95.6338C59.3998 97.0463 53.4689 96.6781 49.9109 92.8693C49.3612 92.2808 48.7081 91.3644 47.9516 90.12C45.9897 86.8847 44.4398 83.662 43.3017 80.452C41.1162 74.284 40.4631 67.89 41.3423 61.2697C41.6618 58.8685 42.1955 56.6118 42.9436 54.4998C43.5353 52.825 44.4204 51.3982 45.5989 50.2194C48.3097 47.5054 52.0644 44.8822 55.8695 44.4559C57.6078 44.2609 59.5125 44.5736 61.5836 45.3942Z" fill="#242021"/>
<path d="M26.3386 63.8425C28.3408 57.9957 31.3012 52.265 36.4252 48.6329C39.4965 46.4553 42.9638 45.3825 46.8269 45.4144C47.7045 45.4228 48.5786 45.4674 49.4495 45.5481C49.5587 45.5599 49.5671 45.5952 49.4747 45.654C43.1353 49.7755 38.9645 56.2125 38.102 63.7719C37.2976 70.8041 38.6467 78.6182 42.2149 84.8307C43.8337 87.649 45.9881 90.3395 48.6778 92.9022C48.74 92.961 48.7417 93.0207 48.6829 93.0812C47.5296 94.2852 46.1175 94.9637 44.4465 95.1168C43.7329 95.1849 43.0546 95.2479 42.346 95.1874C39.1368 94.9183 36.3251 93.7152 33.9111 91.5779C28.8846 87.1319 25.9242 81.6122 25.0298 75.0189C24.7726 73.1204 24.8004 71.0118 25.1131 68.6929C25.3013 67.2922 25.7098 65.6754 26.3386 63.8425Z" fill="#242021"/>
<path d="M189.033 86.2811C189.281 86.3063 189.44 86.202 189.509 85.9683C189.561 85.785 189.678 85.7203 189.86 85.7741C189.986 85.8127 190.113 85.8329 190.243 85.8346C190.502 85.838 190.584 85.9607 190.49 86.2029C190.162 87.0302 189.563 87.3413 188.692 87.1361C188.134 87.0033 187.816 86.6182 187.739 85.9809C187.729 85.8968 187.766 85.8497 187.85 85.8397L188.553 85.7615C188.629 85.7531 188.674 85.7867 188.687 85.8624C188.704 85.9616 188.74 86.0532 188.795 86.1373C188.851 86.223 188.93 86.271 189.033 86.2811Z" fill="#242021"/>
<path d="M128.679 89.0606C128.039 89.5954 128.193 91.3307 128.273 92.0572C128.435 93.5125 130.109 93.23 130.999 92.9223C131.08 92.8937 131.13 92.9215 131.151 93.0056L131.383 94.0094C131.391 94.0455 131.385 94.0835 131.367 94.1155C131.348 94.1474 131.317 94.1709 131.282 94.181C129.164 94.7787 126.902 94.5391 126.725 91.7847C126.68 91.0566 126.702 90.3655 126.791 89.7114C127.113 87.3682 129.517 87.1966 131.34 87.8197C131.382 87.8348 131.398 87.8642 131.388 87.9079L131.151 89.0001C131.139 89.0489 131.109 89.0657 131.062 89.0505C130.412 88.8538 129.259 88.5789 128.679 89.0606Z" fill="#242021"/>
<path d="M148.008 91.9828C148.012 92.6304 147.758 93.2527 147.302 93.713C146.847 94.1733 146.227 94.4338 145.58 94.4372L145.197 94.4392C144.549 94.4426 143.927 94.1886 143.467 93.7331C143.007 93.2776 142.746 92.658 142.743 92.0104L142.732 89.9926C142.729 89.345 142.983 88.7227 143.438 88.2624C143.894 87.8021 144.513 87.5416 145.161 87.5382L145.544 87.5362C146.191 87.5328 146.813 87.7868 147.274 88.2423C147.734 88.6978 147.994 89.3175 147.998 89.965L148.008 91.9828ZM146.489 89.8723C146.49 89.7332 146.462 89.5954 146.409 89.4667C146.356 89.3381 146.279 89.2212 146.18 89.1226C146.082 89.0241 145.966 88.9459 145.837 88.8924C145.709 88.8389 145.571 88.8113 145.432 88.811L145.311 88.8108C145.172 88.8106 145.034 88.8378 144.906 88.8908C144.777 88.9438 144.66 89.0216 144.562 89.1198C144.463 89.218 144.385 89.3347 144.331 89.4631C144.278 89.5915 144.25 89.7293 144.25 89.8684L144.246 92.0779C144.246 92.217 144.273 92.3548 144.326 92.4835C144.379 92.6121 144.457 92.729 144.555 92.8275C144.653 92.9261 144.77 93.0043 144.898 93.0578C145.027 93.1113 145.164 93.1389 145.303 93.1391L145.425 93.1393C145.564 93.1396 145.701 93.1124 145.83 93.0594C145.959 93.0064 146.075 92.9286 146.174 92.8304C146.272 92.7322 146.351 92.6155 146.404 92.4871C146.458 92.3586 146.485 92.2209 146.485 92.0818L146.489 89.8723Z" fill="#242021"/>
<path d="M111.981 90.8868C112.391 91.0667 112.651 91.361 112.76 91.7696C113.134 93.1569 112.006 94.2213 110.68 94.2995C109.974 94.3432 109.163 94.3542 108.247 94.3323C108.159 94.3289 108.115 94.2844 108.115 94.1986V87.8247C108.115 87.7238 108.166 87.67 108.267 87.6633C109.465 87.6011 110.373 87.6246 110.99 87.7339C111.94 87.9021 112.471 88.4385 112.584 89.3431C112.658 89.9334 112.452 90.3941 111.966 90.7254C111.874 90.7876 111.879 90.8414 111.981 90.8868ZM109.628 88.9774V90.2285C109.629 90.2468 109.637 90.2641 109.65 90.2768C109.663 90.2895 109.681 90.2966 109.699 90.2966H110.188C110.306 90.2965 110.422 90.2791 110.53 90.2453C110.639 90.2115 110.737 90.162 110.82 90.0997C110.903 90.0374 110.969 89.9634 111.014 89.8821C111.058 89.8007 111.081 89.7136 111.081 89.6256V89.5702C111.08 89.3932 110.986 89.2237 110.819 89.0989C110.651 88.9741 110.425 88.9041 110.188 88.9043H109.699C109.69 88.9043 109.68 88.9062 109.671 88.9099C109.663 88.9136 109.655 88.919 109.648 88.9258C109.642 88.9327 109.636 88.9407 109.633 88.9496C109.63 88.9585 109.628 88.9679 109.628 88.9774ZM109.626 91.5552V92.9627C109.626 92.9702 109.627 92.9776 109.63 92.9845C109.633 92.9914 109.638 92.9976 109.643 93.0028C109.648 93.008 109.655 93.0121 109.662 93.0147C109.669 93.0173 109.676 93.0185 109.684 93.0182L110.415 93.0156C110.657 93.015 110.889 92.938 111.06 92.8018C111.231 92.6656 111.326 92.4812 111.326 92.2892V92.2186C111.325 92.1235 111.301 92.0294 111.255 91.9417C111.209 91.854 111.141 91.7744 111.056 91.7074C110.971 91.6404 110.871 91.5874 110.76 91.5513C110.649 91.5153 110.53 91.4969 110.41 91.4972L109.679 91.4997C109.665 91.5004 109.651 91.5065 109.641 91.5169C109.631 91.5272 109.626 91.5409 109.626 91.5552Z" fill="#242021"/>
<path d="M115.958 90.2487C116.639 90.1629 117.077 89.8955 117.226 89.1868C117.329 88.7025 117.459 88.2258 117.617 87.7566C117.641 87.686 117.689 87.6507 117.763 87.6507H119.022C119.09 87.6507 119.117 87.6852 119.1 87.7541C118.883 88.6335 118.666 89.444 118.449 90.1856C118.362 90.4799 118.187 90.7178 117.925 90.8994C117.846 90.9549 117.828 91.0264 117.872 91.1138L119.493 94.2592C119.497 94.2657 119.498 94.273 119.498 94.2804C119.498 94.2878 119.496 94.2951 119.492 94.3014C119.488 94.3078 119.483 94.313 119.476 94.3167C119.47 94.3203 119.463 94.3222 119.455 94.3222L117.834 94.3399C117.782 94.3399 117.744 94.3163 117.72 94.2692L116.462 91.6259C116.428 91.5552 116.376 91.5342 116.306 91.5628L115.927 91.7066C115.847 91.7385 115.806 91.7982 115.806 91.8857V94.2718C115.806 94.3138 115.785 94.3348 115.743 94.3348L114.354 94.3323C114.338 94.3323 114.323 94.3257 114.311 94.3138C114.3 94.302 114.293 94.286 114.293 94.2692V87.7137C114.293 87.6977 114.3 87.6823 114.312 87.6709C114.324 87.6596 114.34 87.6532 114.356 87.6532L115.743 87.6507C115.785 87.6507 115.806 87.6717 115.806 87.7137L115.804 90.1125C115.804 90.215 115.855 90.2604 115.958 90.2487Z" fill="#242021"/>
<path d="M122.857 92.1177C121.485 92.2489 120.925 91.2147 120.764 90.004C120.661 89.2271 120.539 88.4629 120.396 87.7112C120.389 87.6742 120.404 87.6557 120.441 87.6557L121.805 87.6481C121.858 87.6481 121.888 87.6734 121.896 87.7238L122.365 90.5135C122.406 90.7489 122.544 90.8666 122.781 90.8666L123.293 90.8692C123.391 90.8692 123.448 90.8204 123.465 90.7229L123.997 87.7112C124.003 87.6725 124.027 87.6532 124.067 87.6532L125.444 87.6507C125.486 87.6507 125.503 87.6708 125.495 87.7112C125.029 90.4353 124.723 92.1387 124.577 92.8214C124.241 94.4004 122.842 94.4307 121.369 94.3146C121.337 94.313 121.32 94.2961 121.316 94.2642L121.167 93.1392C121.166 93.1312 121.167 93.1231 121.17 93.1154C121.172 93.1076 121.176 93.1004 121.181 93.0943C121.187 93.0881 121.194 93.0831 121.201 93.0795C121.209 93.076 121.217 93.074 121.225 93.0737H122.587C122.708 93.0728 122.825 93.0313 122.919 92.9558C123.013 92.8802 123.079 92.7752 123.107 92.6575L123.155 92.4557C123.212 92.2051 123.112 92.0925 122.857 92.1177Z" fill="#242021"/>
<path d="M141.086 93.0737L141.467 93.0762C141.5 93.0762 141.531 93.0895 141.554 93.1131C141.577 93.1368 141.59 93.1689 141.59 93.2023L141.588 95.3362C141.588 95.3732 141.57 95.3942 141.535 95.3993L140.272 95.596C140.226 95.6044 140.203 95.5851 140.203 95.538L140.206 94.4609C140.206 94.3769 140.163 94.3348 140.077 94.3348H136.484C136.45 94.3348 136.417 94.3481 136.393 94.3718C136.369 94.3954 136.355 94.4275 136.355 94.4609L136.358 95.2151C136.36 95.3412 136.297 95.4135 136.171 95.432L135.16 95.5783C135.076 95.5901 135.034 95.554 135.034 95.4699V93.2048C135.034 93.1224 135.075 93.0804 135.158 93.0787L135.443 93.0711C135.55 93.0695 135.633 93.0224 135.69 92.9299C135.848 92.676 135.966 92.4036 136.045 92.1127C136.422 90.7304 136.629 89.2902 136.666 87.7919C136.667 87.754 136.683 87.7181 136.71 87.6917C136.737 87.6654 136.774 87.6507 136.812 87.6507H140.771C140.855 87.6507 140.897 87.6927 140.897 87.7768V92.8845C140.897 93.0089 140.96 93.072 141.086 93.0737ZM137.316 93.0737H139.321C139.363 93.0737 139.384 93.0527 139.384 93.0106V88.9749C139.384 88.9329 139.363 88.9118 139.321 88.9118H138.06C138.02 88.9118 137.999 88.932 137.997 88.9724C137.94 90.358 137.7 91.7074 137.278 93.0207C137.268 93.056 137.281 93.0737 137.316 93.0737Z" fill="#242021"/>
<path d="M154.889 90.1705L153.863 93.0762C153.835 93.1586 153.777 93.1998 153.689 93.1998H152.368C152.279 93.1998 152.219 93.1577 152.189 93.0737L151.208 90.2966C151.156 90.1503 151.123 90.1553 151.109 90.3117L150.782 94.2793C150.78 94.2945 150.774 94.3086 150.763 94.3188C150.752 94.3291 150.738 94.3348 150.724 94.3348H149.344C149.304 94.3348 149.285 94.3146 149.289 94.2743L149.982 87.797C149.992 87.6994 150.046 87.6507 150.144 87.6507H151.548C151.629 87.6507 151.684 87.6885 151.712 87.7642C152.154 88.9043 152.564 90.0881 152.94 91.3156C152.981 91.4501 153.024 91.451 153.071 91.3181L154.32 87.7818C154.35 87.6927 154.412 87.6481 154.506 87.6481L155.916 87.6532C156.01 87.6532 156.062 87.6994 156.072 87.7919L156.76 94.2793C156.764 94.3146 156.748 94.3323 156.713 94.3323L155.333 94.3348C155.316 94.3349 155.299 94.3284 155.287 94.3167C155.274 94.305 155.266 94.2889 155.265 94.2718L154.935 90.178C154.928 90.1057 154.913 90.1032 154.889 90.1705Z" fill="#242021"/>
<path d="M161.375 92.6953L159.754 92.7004C159.733 92.7002 159.712 92.707 159.695 92.7198C159.678 92.7326 159.666 92.7506 159.66 92.771L159.249 94.2642C159.244 94.2846 159.232 94.3026 159.215 94.3154C159.198 94.3282 159.177 94.335 159.156 94.3348L157.83 94.3323C157.815 94.3322 157.8 94.3285 157.787 94.3218C157.774 94.315 157.762 94.3052 157.753 94.2932C157.745 94.2812 157.739 94.2673 157.736 94.2527C157.734 94.238 157.735 94.223 157.739 94.2087L159.688 87.7213C159.694 87.7018 159.706 87.6846 159.722 87.6724C159.739 87.6601 159.759 87.6534 159.779 87.6532L161.352 87.6481C161.373 87.6483 161.393 87.6551 161.409 87.6673C161.425 87.6796 161.437 87.6967 161.443 87.7163L163.393 94.2112C163.397 94.2255 163.398 94.2405 163.395 94.2552C163.393 94.2699 163.387 94.2837 163.378 94.2957C163.369 94.3077 163.358 94.3175 163.344 94.3243C163.331 94.3311 163.317 94.3347 163.302 94.3348H161.97C161.949 94.335 161.928 94.3282 161.912 94.3154C161.895 94.3026 161.883 94.2846 161.877 94.2642L161.468 92.7659C161.463 92.7455 161.451 92.7275 161.434 92.7147C161.417 92.702 161.396 92.6951 161.375 92.6953ZM161.005 91.5023C161.017 91.5023 161.029 91.4994 161.04 91.494C161.051 91.4886 161.061 91.4807 161.068 91.471C161.076 91.4612 161.081 91.4499 161.084 91.4378C161.086 91.4258 161.086 91.4133 161.083 91.4014L160.629 89.6282C160.625 89.6096 160.615 89.5928 160.6 89.5809C160.586 89.569 160.567 89.5626 160.548 89.5629C160.529 89.5632 160.511 89.5701 160.497 89.5825C160.482 89.5949 160.473 89.612 160.47 89.6307L160.061 91.4014C160.059 91.4131 160.059 91.4253 160.062 91.4371C160.064 91.4488 160.069 91.4598 160.077 91.4692C160.084 91.4787 160.094 91.4863 160.105 91.4916C160.116 91.4969 160.128 91.4997 160.14 91.4997L161.005 91.5023Z" fill="#242021"/>
<path d="M170.778 92.9879V87.7364C170.778 87.7137 170.787 87.6919 170.804 87.6758C170.82 87.6597 170.841 87.6507 170.864 87.6507H172.206C172.217 87.6507 172.228 87.6529 172.238 87.6572C172.249 87.6615 172.258 87.6678 172.266 87.6758C172.274 87.6838 172.281 87.6932 172.285 87.7036C172.289 87.714 172.291 87.7252 172.291 87.7364V94.2491C172.291 94.2603 172.289 94.2715 172.285 94.2819C172.281 94.2923 172.274 94.3018 172.266 94.3097C172.258 94.3177 172.249 94.324 172.238 94.3283C172.228 94.3326 172.217 94.3348 172.206 94.3348H164.812C164.789 94.3348 164.768 94.3258 164.752 94.3097C164.735 94.2936 164.726 94.2718 164.726 94.2491V87.7364C164.726 87.7137 164.735 87.6919 164.752 87.6758C164.768 87.6597 164.789 87.6507 164.812 87.6507H166.154C166.176 87.6507 166.198 87.6597 166.214 87.6758C166.23 87.6919 166.239 87.7137 166.239 87.7364L166.237 92.9879C166.237 93.0107 166.246 93.0325 166.262 93.0486C166.278 93.0646 166.3 93.0737 166.323 93.0737H167.667C167.678 93.0737 167.689 93.0715 167.699 93.0671C167.71 93.0628 167.719 93.0565 167.727 93.0486C167.735 93.0406 167.742 93.0311 167.746 93.0207C167.75 93.0103 167.752 92.9992 167.752 92.9879V87.7364C167.752 87.7137 167.761 87.6919 167.778 87.6758C167.794 87.6597 167.815 87.6507 167.838 87.6507H169.18C169.202 87.6507 169.224 87.6597 169.24 87.6758C169.256 87.6919 169.265 87.7137 169.265 87.7364L169.263 92.9879C169.263 92.9992 169.265 93.0103 169.269 93.0207C169.274 93.0311 169.28 93.0406 169.288 93.0486C169.296 93.0565 169.305 93.0628 169.316 93.0671C169.326 93.0715 169.337 93.0737 169.349 93.0737H170.693C170.715 93.0737 170.737 93.0646 170.753 93.0486C170.769 93.0325 170.778 93.0107 170.778 92.9879Z" fill="#242021"/>
<path d="M175.567 91.6637L175.572 94.2264C175.572 94.2558 175.56 94.284 175.54 94.3048C175.519 94.3257 175.491 94.3373 175.461 94.3373L174.167 94.3323C174.138 94.3323 174.11 94.3206 174.089 94.2998C174.068 94.279 174.057 94.2508 174.057 94.2213V87.7617C174.057 87.7322 174.068 87.704 174.089 87.6832C174.11 87.6624 174.138 87.6507 174.167 87.6507H175.459C175.488 87.6507 175.516 87.6624 175.537 87.6832C175.558 87.704 175.57 87.7322 175.57 87.7617V90.1881C175.57 90.2176 175.581 90.2458 175.602 90.2666C175.623 90.2874 175.651 90.2991 175.68 90.2991L177.413 90.3016C177.442 90.3016 177.47 90.2899 177.491 90.2691C177.512 90.2483 177.524 90.2201 177.524 90.1907V87.7617C177.524 87.7322 177.535 87.704 177.556 87.6832C177.577 87.6624 177.605 87.6507 177.635 87.6507L178.918 87.6481C178.948 87.6481 178.976 87.6598 178.997 87.6807C179.018 87.7015 179.029 87.7297 179.029 87.7591L179.027 94.2087C179.027 94.2377 179.015 94.2656 178.995 94.2863C178.975 94.307 178.947 94.319 178.918 94.3197L177.642 94.3373C177.628 94.3377 177.613 94.3351 177.599 94.3296C177.585 94.3242 177.573 94.3161 177.562 94.3057C177.552 94.2954 177.543 94.2831 177.538 94.2694C177.532 94.2558 177.529 94.2412 177.529 94.2264L177.519 91.6788C177.519 91.6494 177.507 91.6212 177.486 91.6003C177.465 91.5795 177.437 91.5678 177.408 91.5678L175.678 91.5527C175.649 91.5527 175.62 91.5644 175.599 91.5852C175.579 91.606 175.567 91.6343 175.567 91.6637Z" fill="#242021"/>
<path d="M182.312 91.641L182.32 92.9274C182.32 92.9495 182.329 92.9706 182.344 92.9862C182.36 93.0018 182.381 93.0106 182.403 93.0106H184.816C184.838 93.0106 184.86 93.0194 184.875 93.035C184.891 93.0506 184.9 93.0718 184.9 93.0938V94.2541C184.9 94.2762 184.891 94.2974 184.875 94.313C184.86 94.3286 184.838 94.3374 184.816 94.3374L180.885 94.3273C180.863 94.3273 180.842 94.3185 180.826 94.3029C180.811 94.2873 180.802 94.2661 180.802 94.244V87.7339C180.802 87.7118 180.811 87.6907 180.826 87.6751C180.842 87.6594 180.863 87.6507 180.885 87.6507H184.756C184.778 87.6507 184.799 87.6594 184.815 87.6751C184.83 87.6907 184.839 87.7118 184.839 87.7339L184.834 88.8286C184.834 88.8507 184.825 88.8719 184.81 88.8875C184.794 88.9031 184.773 88.9118 184.751 88.9118H182.398C182.376 88.9118 182.355 88.9206 182.339 88.9362C182.324 88.9518 182.315 88.973 182.315 88.9951V90.2815C182.315 90.3035 182.324 90.3247 182.339 90.3403C182.355 90.3559 182.376 90.3647 182.398 90.3647L184.317 90.3597C184.339 90.3597 184.36 90.3684 184.376 90.384C184.391 90.3996 184.4 90.4208 184.4 90.4429L184.393 91.477C184.393 91.4991 184.384 91.5203 184.368 91.5359C184.353 91.5515 184.332 91.5603 184.309 91.5603L182.396 91.5578C182.373 91.5578 182.352 91.5665 182.337 91.5821C182.321 91.5977 182.312 91.6189 182.312 91.641Z" fill="#242021"/>
<path d="M187.989 91.2248C187.989 91.3526 188.023 91.3627 188.092 91.2551L190.271 87.7818C190.296 87.7417 190.332 87.7086 190.373 87.6857C190.415 87.6628 190.462 87.6507 190.51 87.6507H191.456C191.54 87.6524 191.582 87.6944 191.582 87.7768V94.2087C191.582 94.2928 191.54 94.3348 191.456 94.3348H190.195C190.162 94.3348 190.13 94.3215 190.106 94.2979C190.082 94.2742 190.069 94.2422 190.069 94.2087V90.8238C190.069 90.6976 190.035 90.6884 189.968 90.796L187.82 94.1961C187.793 94.2387 187.755 94.2737 187.71 94.298C187.666 94.3222 187.616 94.3349 187.565 94.3348H186.665C186.581 94.3348 186.539 94.2928 186.539 94.2087V87.744C186.539 87.6818 186.571 87.6507 186.635 87.6507H187.926C187.968 87.6507 187.989 87.6717 187.989 87.7137V91.2248Z" fill="#242021"/>
<path d="M197.571 91.5603C197.554 91.5603 197.538 91.5669 197.526 91.5787C197.514 91.5906 197.508 91.6066 197.508 91.6233L197.505 92.945C197.505 92.9624 197.512 92.9791 197.524 92.9914C197.536 93.0037 197.552 93.0106 197.568 93.0106H200.029C200.046 93.0113 200.061 93.0182 200.072 93.0299C200.084 93.0417 200.09 93.0574 200.09 93.0737L200.092 94.2718C200.092 94.3138 200.071 94.3348 200.029 94.3348H196.184C196.058 94.3348 195.995 94.2718 195.995 94.1457V87.7768C195.995 87.6927 196.037 87.6507 196.121 87.6507H199.966C200.008 87.6507 200.029 87.6717 200.029 87.7137V88.8437C200.029 88.8618 200.022 88.8791 200.009 88.8919C199.997 88.9047 199.979 88.9118 199.961 88.9118C199.168 88.9118 198.374 88.911 197.578 88.9093C197.56 88.9093 197.542 88.9168 197.528 88.93C197.515 88.9433 197.508 88.9612 197.508 88.9799C197.508 88.985 197.508 89.4247 197.508 90.2991C197.508 90.3158 197.514 90.3319 197.526 90.3437C197.538 90.3555 197.554 90.3622 197.571 90.3622H199.525C199.565 90.3622 199.586 90.3832 199.586 90.4252L199.588 91.4972C199.588 91.5393 199.567 91.5603 199.525 91.5603H197.571Z" fill="#242021"/>
<path d="M206.147 94.3348H202.644C202.54 94.3348 202.488 94.3878 202.488 94.4937V95.1521C202.488 95.3219 202.404 95.4177 202.236 95.4396L201.321 95.5683C201.174 95.5884 201.101 95.5245 201.101 95.3766V93.2074C201.101 93.1065 201.152 93.0644 201.252 93.0812C201.627 93.1435 201.877 92.9778 202.001 92.5843C202.526 90.9196 202.771 89.3356 202.738 87.8323C202.734 87.7112 202.793 87.6507 202.914 87.6507H206.901C206.985 87.6507 207.027 87.6927 207.027 87.7768V92.9122C207.027 93.0148 207.078 93.0678 207.181 93.0711L207.534 93.0787C207.658 93.0804 207.721 93.1435 207.721 93.2679V95.2504C207.72 95.2942 207.704 95.3363 207.675 95.3688C207.647 95.4014 207.607 95.4221 207.564 95.427L206.452 95.5683C206.368 95.5783 206.327 95.5422 206.329 95.4598L206.336 94.5265C206.338 94.3987 206.275 94.3348 206.147 94.3348ZM203.431 93.0737H205.451C205.468 93.0737 205.484 93.067 205.496 93.0552C205.507 93.0434 205.514 93.0273 205.514 93.0106V88.9749C205.514 88.9575 205.507 88.9408 205.496 88.9285C205.484 88.9162 205.468 88.9093 205.451 88.9093L204.19 88.9118C204.172 88.9118 204.154 88.9188 204.14 88.9315C204.127 88.9441 204.118 88.9614 204.117 88.9799C204.048 90.3403 203.805 91.6847 203.388 93.0131C203.377 93.0535 203.391 93.0737 203.431 93.0737Z" fill="#242021"/>
<path d="M210.638 90.12C211.188 90.1099 211.8 90.0343 212.31 90.2663C214.355 91.1996 213.835 94.2617 211.483 94.3197C210.696 94.3399 209.907 94.3449 209.115 94.3348C209.026 94.3332 208.981 94.2877 208.981 94.1986V87.7137C208.981 87.6717 209.002 87.6507 209.044 87.6507L210.431 87.6532C210.473 87.6532 210.494 87.6734 210.494 87.7137V89.9788C210.494 90.073 210.542 90.12 210.638 90.12ZM210.497 91.4367L210.492 92.9955C210.492 93.0155 210.5 93.0348 210.514 93.049C210.528 93.0632 210.547 93.0711 210.567 93.0711L211.311 93.0737C211.512 93.0743 211.706 92.988 211.849 92.8338C211.991 92.6796 212.072 92.4701 212.073 92.2514V92.1909C212.073 92.0825 212.054 91.9752 212.016 91.875C211.978 91.7748 211.923 91.6836 211.852 91.6068C211.782 91.53 211.699 91.469 211.607 91.4272C211.515 91.3855 211.416 91.3638 211.316 91.3635L210.572 91.361C210.552 91.361 210.533 91.369 210.519 91.3832C210.505 91.3974 210.497 91.4166 210.497 91.4367Z" fill="#242021"/>
<path d="M215.575 87.6507H214.239C214.19 87.6507 214.151 87.6902 214.151 87.739V94.2465C214.151 94.2953 214.19 94.3348 214.239 94.3348H215.575C215.624 94.3348 215.664 94.2953 215.664 94.2465V87.739C215.664 87.6902 215.624 87.6507 215.575 87.6507Z" fill="#242021"/>
</svg>
