<svg width="235" height="59" viewBox="0 0 235 59" fill="none" xmlns="http://www.w3.org/2000/svg">
<g clip-path="url(#clip0_311_1981)">
<path d="M159.89 0.00458322C163.251 -0.0717368 166.694 0.633459 169.19 2.93222C170.533 4.187 171.542 5.75599 172.126 7.49769C172.704 9.23099 173.023 11.0398 173.073 12.866C173.074 12.8832 173.071 12.9003 173.065 12.9163C173.058 12.9323 173.049 12.9469 173.037 12.9592C173.025 12.9716 173.011 12.9814 172.995 12.9882C172.979 12.995 172.962 12.9986 172.945 12.9988C170.748 13.0263 168.443 13.0309 166.028 13.0126C165.723 13.0126 165.429 12.9988 165.147 12.9759C165.095 12.9719 165.047 12.9495 165.011 12.9127C164.975 12.8759 164.954 12.8273 164.951 12.776C164.912 11.8563 164.711 10.9507 164.359 10.1002C163.602 8.36621 161.991 7.83655 160.205 7.88082C158.343 7.92661 157.169 8.83634 156.681 10.61C156.495 11.2761 156.4 11.964 156.397 12.6554C156.389 17.9469 156.389 23.3143 156.397 28.7574C156.397 31.0684 157.19 33.3244 159.835 33.5366C161.821 33.6892 163.767 33.1489 164.563 31.1508C164.857 30.3801 165.03 29.5687 165.076 28.7452C165.08 28.6919 165.104 28.642 165.143 28.6055C165.182 28.569 165.234 28.5485 165.287 28.5483H173.008C173.033 28.5448 173.058 28.5471 173.083 28.5551C173.107 28.5632 173.129 28.5766 173.147 28.5945C173.165 28.6124 173.178 28.6342 173.187 28.6582C173.195 28.6822 173.197 28.7078 173.194 28.733C173.182 30.1255 172.99 31.5106 172.624 32.8543C172.392 33.8306 172.035 34.773 171.563 35.6583C170.05 38.3753 167.792 40.122 164.788 40.8984C162.412 41.4964 159.94 41.6101 157.52 41.2327C153.5 40.6526 150.34 38.2699 148.909 34.4661C148.157 32.4666 147.94 30.3449 147.943 28.1377C147.95 22.8258 147.953 17.6249 147.952 12.5348C147.963 11.0426 148.169 9.55815 148.563 8.11893C149.078 6.11323 150.158 4.29723 151.675 2.88643C153.814 0.883791 156.834 0.0747977 159.89 0.00458322Z" fill="#242021"/>
<path d="M87.9887 41.0037C87.9633 40.9741 87.9301 40.9521 87.8928 40.9403C87.8556 40.9284 87.8158 40.9271 87.7779 40.9366C85.7435 41.4266 83.6396 41.5619 81.5591 41.3365C76.7915 40.8648 72.9527 38.1906 71.3778 33.6159C70.7765 31.8553 70.4715 30.0072 70.475 28.1468C70.4628 23.241 70.4628 18.3056 70.475 13.3408C70.4775 11.4977 70.7873 9.66795 71.3915 7.92661C72.2282 5.39588 73.9481 3.25039 76.237 1.88206C79.1394 0.122121 83.0791 -0.196897 86.4718 0.35566C90.7811 1.0578 94.125 3.73816 95.5731 7.82129C96.0145 9.06836 96.3013 10.3648 96.4271 11.6816C96.5004 12.4437 96.5345 13.4613 96.5294 14.7344C96.509 19.11 96.5034 23.5366 96.5126 28.0141C96.5223 30.0205 96.1801 32.0131 95.5014 33.9014C95.0257 35.2033 94.3113 36.4053 93.3948 37.4457C93.356 37.4919 93.3348 37.5502 93.3348 37.6105C93.3348 37.6708 93.356 37.7292 93.3948 37.7754L96.2972 41.2571C96.3066 41.2679 96.3138 41.2804 96.3183 41.2939C96.3228 41.3075 96.3245 41.3218 96.3234 41.336C96.3222 41.3502 96.3182 41.3641 96.3116 41.3768C96.3051 41.3894 96.296 41.4006 96.285 41.4098L91.8428 45.2441C91.812 45.2717 91.772 45.2871 91.7305 45.2871C91.6891 45.2871 91.6491 45.2717 91.6183 45.2441C91.4224 45.0683 91.2401 44.8779 91.0729 44.6747C90.0392 43.4322 89.0112 42.2086 87.9887 41.0037ZM78.9179 28.3239C78.9186 29.4551 79.191 30.5695 79.7123 31.5736C80.6135 33.1931 82.3091 33.6816 84.0613 33.5335C86.9728 33.2862 88.033 30.8226 88.033 28.2461C88.0411 23.5468 88.0411 18.6241 88.033 13.4781C88.033 11.2313 87.3166 8.73407 84.8144 8.14641C83.8614 7.91621 82.8646 7.94095 81.9242 8.21815C79.3869 8.96303 78.8874 11.5915 78.8889 13.8872C78.8971 18.6557 78.9067 23.4679 78.9179 28.3239Z" fill="#242021"/>
<path d="M47.1885 27.3714C47.1459 27.3496 47.0988 27.3382 47.051 27.3379C46.2709 27.3318 45.4623 27.3318 44.6252 27.3379C44.5616 27.3373 44.4991 27.3547 44.445 27.3883C44.3909 27.4218 44.3474 27.4699 44.3197 27.5271L38.0978 40.5733C38.0748 40.6302 38.0346 40.6785 37.9829 40.7116C37.9312 40.7447 37.8705 40.7609 37.8091 40.758C34.869 40.7794 32.0909 40.7712 29.4747 40.7336C29.4147 40.7364 29.3548 40.7265 29.299 40.7046C29.2867 40.7006 29.2756 40.6939 29.2664 40.6849C29.2572 40.6759 29.2503 40.6649 29.2461 40.6527C29.242 40.6406 29.2407 40.6276 29.2425 40.6149C29.2442 40.6021 29.2489 40.59 29.2562 40.5794C31.6861 35.6949 34.1302 30.7931 36.5886 25.874C36.609 25.8426 36.6225 25.8072 36.6282 25.7701C36.6338 25.733 36.6315 25.6952 36.6214 25.6591C36.6113 25.623 36.5936 25.5895 36.5695 25.5607C36.5454 25.532 36.5155 25.5087 36.4817 25.4924C32.8888 23.2028 31.4575 19.3548 31.1932 15.2518C31.0523 13.1073 31.2881 10.9546 31.8898 8.89129C32.4021 7.05771 33.3895 5.39164 34.7523 4.06127C36.115 2.73091 37.805 1.78335 39.6514 1.31424C40.9479 0.974015 42.2827 0.801644 43.6231 0.801366C47.3392 0.784066 51.2045 0.784066 55.219 0.801366C55.2627 0.801366 55.3047 0.818732 55.3356 0.849648C55.3666 0.880563 55.3839 0.922498 55.3839 0.96622V40.6038C55.3861 40.6296 55.379 40.6553 55.3639 40.6763C55.3488 40.6973 55.3266 40.7122 55.3015 40.7183C55.2265 40.7397 55.1487 40.7494 55.0708 40.7473C52.7204 40.7687 50.181 40.7687 47.4528 40.7473C47.4064 40.7469 47.3621 40.7282 47.3295 40.6953C47.2969 40.6625 47.2786 40.6181 47.2786 40.5718V27.5134C47.2779 27.4838 47.2691 27.455 47.2532 27.4299C47.2374 27.4049 47.215 27.3847 47.1885 27.3714ZM47.2771 19.4128V8.70965C47.2767 8.64865 47.2522 8.59026 47.2091 8.54712C47.1659 8.50398 47.1075 8.47957 47.0464 8.47917H43.7453C41.4096 8.47917 39.517 10.5581 39.517 13.121V15.0015C39.517 17.5658 41.4096 19.6433 43.7453 19.6433H47.0464C47.0767 19.6433 47.1067 19.6373 47.1347 19.6257C47.1627 19.6141 47.1881 19.5972 47.2095 19.5758C47.2309 19.5544 47.2479 19.5289 47.2595 19.501C47.2711 19.473 47.2771 19.4431 47.2771 19.4128Z" fill="#242021"/>
<path d="M113.43 41.3853C110.458 41.1884 107.578 40.1428 105.551 38.0166C104.433 36.8698 103.567 35.5019 103.009 34.0006C102.575 32.785 102.282 31.5236 102.136 30.2411C102.032 29.2749 101.985 28.3034 101.995 27.3318C102.008 18.4501 102.012 9.65654 102.006 0.950959C102.006 0.913573 102.02 0.877693 102.047 0.851115C102.073 0.824536 102.109 0.809406 102.146 0.809004C104.581 0.784582 107.042 0.774914 109.529 0.780002C109.776 0.777075 110.024 0.793403 110.268 0.828844C110.297 0.830756 110.326 0.838445 110.351 0.851455C110.377 0.864464 110.4 0.882534 110.419 0.904591C110.438 0.926647 110.452 0.952245 110.461 0.979872C110.47 1.0075 110.473 1.0366 110.47 1.06544C110.47 10.0865 110.47 19.0414 110.47 27.9301C110.47 30.4029 111.142 33.1412 114.054 33.5076C116.234 33.7808 118.025 32.8726 118.669 30.699C118.92 29.8569 119.048 28.9829 119.049 28.1041V0.917378C119.049 0.888897 119.06 0.861562 119.08 0.841281C119.1 0.821 119.127 0.809405 119.156 0.809004C121.664 0.784582 124.342 0.781525 127.189 0.799842C127.273 0.800418 127.357 0.812753 127.437 0.836478C127.454 0.84152 127.47 0.852183 127.48 0.866813C127.491 0.881442 127.497 0.899218 127.496 0.917378C127.486 10.204 127.486 19.1141 127.496 27.6477C127.503 28.66 127.438 29.6714 127.302 30.6746C127.141 31.9608 126.809 33.22 126.316 34.4188C123.965 39.8574 119.044 41.7578 113.43 41.3853Z" fill="#242021"/>
<path d="M141.784 0.798309H134.112C133.993 0.798309 133.896 0.895351 133.896 1.01506V40.5427C133.896 40.6625 133.993 40.7595 134.112 40.7595H141.784C141.904 40.7595 142.001 40.6625 142.001 40.5427V1.01506C142.001 0.895351 141.904 0.798309 141.784 0.798309Z" fill="#242021"/>
<path d="M188.102 25.7107C187.365 26.7853 186.643 27.9245 185.934 29.1283C185.89 29.2043 185.866 29.2906 185.865 29.3787V40.642C185.866 40.6631 185.858 40.6835 185.844 40.6996C185.831 40.7156 185.811 40.726 185.79 40.729C185.588 40.7577 185.384 40.7709 185.179 40.7687C183.041 40.7687 180.856 40.7605 178.626 40.7442C178.441 40.7442 178.253 40.7351 178.061 40.7213C178.038 40.7227 178.016 40.719 177.995 40.7106C177.974 40.7022 177.955 40.6894 177.94 40.6729C177.925 40.6564 177.913 40.6367 177.906 40.6153C177.9 40.5938 177.898 40.5712 177.901 40.5489C177.887 27.9988 177.89 15.5403 177.91 3.17339C177.91 2.44683 177.916 1.69889 177.93 0.929582C177.928 0.911784 177.93 0.89376 177.936 0.876883C177.942 0.860006 177.951 0.844725 177.964 0.832206C177.977 0.819688 177.993 0.810263 178.01 0.804653C178.027 0.799043 178.045 0.797395 178.062 0.799836L185.7 0.792206C185.733 0.789656 185.765 0.799905 185.79 0.820747C185.814 0.84159 185.83 0.871359 185.833 0.903635C185.85 0.999905 185.859 1.09744 185.859 1.19518C185.859 5.82933 185.859 10.4803 185.859 15.148C185.859 15.2205 185.87 15.2926 185.891 15.3617C185.975 15.6273 186.075 15.6334 186.197 15.38C186.961 13.73 187.724 12.0479 188.563 10.4223C190.192 7.26771 191.822 4.11315 193.451 0.958584C193.474 0.908727 193.511 0.866828 193.558 0.838267C193.605 0.809706 193.659 0.795791 193.714 0.798313C196.22 0.783049 198.901 0.783049 201.757 0.798313C202.013 0.798313 202.284 0.805944 202.568 0.821208C202.59 0.822392 202.612 0.83229 202.627 0.848808C202.642 0.865327 202.651 0.887172 202.65 0.909738C202.65 0.92036 202.648 0.9308 202.643 0.940267C202.535 1.18503 202.413 1.42352 202.278 1.65462C199.058 7.19241 195.874 12.659 192.727 18.0543C192.691 18.1159 192.671 18.1857 192.67 18.2571C192.669 18.3284 192.686 18.3989 192.72 18.4618L204.422 40.5947C204.428 40.6045 204.431 40.6152 204.432 40.6263C204.433 40.6374 204.432 40.6486 204.429 40.6593C204.426 40.6699 204.42 40.6798 204.413 40.6884C204.406 40.6969 204.397 40.704 204.387 40.7091C204.378 40.7138 204.367 40.7169 204.357 40.7183C204.141 40.7439 203.923 40.7566 203.706 40.7564H196.374C196.068 40.7564 195.763 40.7473 195.472 40.7259C195.434 40.7253 195.397 40.7137 195.365 40.6926C195.334 40.6715 195.309 40.6417 195.294 40.6069L188.14 25.7092C188.129 25.6909 188.115 25.6893 188.102 25.7107Z" fill="#242021"/>
<path d="M11.9517 19.1777C9.94594 17.3842 6.85564 17.7704 4.9813 19.5089C4.43233 19.9957 3.99137 20.5918 3.68672 21.259C3.38207 21.9261 3.22049 22.6496 3.21237 23.383C3.17876 24.9918 3.66707 26.3599 4.67731 27.4874C5.20087 28.0568 5.83899 28.5092 6.5498 28.8149C7.2606 29.1206 8.02803 29.2726 8.80178 29.2611C11.0809 29.1878 12.9263 27.2585 14.1636 25.4451C14.1845 25.4147 14.2149 25.3922 14.2501 25.3812C14.2852 25.3701 14.3231 25.3711 14.3576 25.3841C14.3948 25.399 14.4298 25.4191 14.4615 25.4436C15.2018 26.0389 15.9208 26.6245 16.6184 27.2005C16.64 27.2188 16.6544 27.2442 16.6592 27.2721C16.6639 27.3 16.6587 27.3287 16.6444 27.3531C16.399 27.7541 16.1408 28.157 15.8699 28.562C14.0536 31.2836 11.4399 32.4696 8.22284 32.3444C2.49289 32.1231 -1.32148 26.4861 0.43218 21.0613C1.24689 18.558 2.82539 16.7599 5.16768 15.667C6.82374 14.8914 8.68935 14.6826 10.4761 15.0727C12.2629 15.4628 13.8713 16.4302 15.0527 17.8253C15.3459 18.1693 15.6443 18.5091 15.9478 18.845C16.5955 19.5675 17.4515 19.92 18.5157 19.9028C20.7796 19.8692 22.9925 19.8722 25.1545 19.9119C25.228 19.9132 25.3 19.9325 25.3642 19.9682C25.4284 20.0039 25.4828 20.0548 25.5227 20.1165C26.1256 21.0526 26.7096 21.9542 27.2748 22.8212C27.309 22.8729 27.33 22.9321 27.3359 22.9937C27.3368 23.0017 27.336 23.0099 27.3337 23.0176C27.3314 23.0253 27.3276 23.0325 27.3225 23.0388C27.3173 23.045 27.311 23.0502 27.3039 23.054C27.2968 23.0578 27.289 23.0601 27.2809 23.0609H27.2733L14.6295 22.951C14.5644 22.9553 14.4996 22.9387 14.4446 22.9035C14.3896 22.8683 14.3473 22.8165 14.324 22.7556C13.7343 21.4078 13.0592 20.1683 11.9517 19.1777Z" fill="#242021"/>
<path d="M205.794 22.6594C205.206 22.6594 204.64 22.6457 204.099 22.6182C204.073 22.6173 204.047 22.6106 204.024 22.5988C204.001 22.5869 203.98 22.5701 203.964 22.5495L201.91 19.9226C201.867 19.8676 201.881 19.8356 201.949 19.8264C202.272 19.7883 202.597 19.7694 202.922 19.77C213.339 19.77 223.698 19.77 233.999 19.77C234.305 19.77 234.611 19.8341 234.916 19.8112C235.011 19.8112 235.018 19.8264 234.939 19.8783C233.778 20.6415 232.438 21.2841 231.134 21.8764C230.392 22.2166 229.611 22.4622 228.809 22.6075C227.996 22.7336 227.174 22.7847 226.352 22.7602C219.101 22.6706 212.248 22.637 205.794 22.6594Z" fill="#242021"/>
<path d="M66.8209 19.8188H59.2808C59.1652 19.8188 59.0715 19.9124 59.0715 20.0279V22.6564C59.0715 22.7719 59.1652 22.8655 59.2808 22.8655H66.8209C66.9365 22.8655 67.0302 22.7719 67.0302 22.6564V20.0279C67.0302 19.9124 66.9365 19.8188 66.8209 19.8188Z" fill="#242021"/>
<path d="M28.4542 52.4823C28.8178 52.2411 29.16 51.974 29.5739 51.8198C30.1107 51.6226 30.6861 51.5536 31.2543 51.6183C32.6123 51.771 33.6343 52.8226 33.5716 54.1995C33.4861 56.0571 31.9264 57.0386 30.1606 56.8386C27.7164 56.5608 27.1634 54.0911 27.5637 52.0686C27.8193 50.7925 28.5734 49.9393 29.826 49.5088C30.7737 49.1906 31.7482 48.9582 32.7376 48.8143C32.7606 48.8084 32.7846 48.8079 32.8078 48.8128C32.831 48.8178 32.8527 48.8281 32.8713 48.8429C32.8898 48.8577 32.9046 48.8766 32.9146 48.8982C32.9245 48.9197 32.9293 48.9433 32.9285 48.967L32.9545 49.3318C32.9594 49.3537 32.9595 49.3764 32.9547 49.3983C32.9498 49.4202 32.9402 49.4408 32.9265 49.4586C32.9128 49.4764 32.8953 49.4909 32.8753 49.5012C32.8554 49.5115 32.8334 49.5172 32.8109 49.518C31.0802 49.8599 28.3947 50.0538 28.3351 52.4181C28.3349 52.4278 28.3366 52.4373 28.3401 52.4463C28.3436 52.4553 28.3488 52.4635 28.3555 52.4704C28.3621 52.4773 28.3701 52.4829 28.3789 52.4868C28.3878 52.4906 28.3973 52.4927 28.4069 52.4929C28.4234 52.4946 28.44 52.4909 28.4542 52.4823ZM30.4875 56.1456C31.3444 56.1838 32.0884 55.8403 32.4886 55.0771C33.0568 53.972 32.4886 52.6349 31.2665 52.3815C30.7495 52.2661 30.2099 52.3059 29.7155 52.496C29.2211 52.6862 28.794 53.018 28.4878 53.45C28.4263 53.5301 28.382 53.622 28.3576 53.7199C28.3331 53.8179 28.3291 53.9198 28.3458 54.0193C28.5566 55.3839 29.2705 56.0937 30.4875 56.1487V56.1456Z" fill="#242021"/>
<path d="M44.4495 54.03C44.4495 55.2512 45.4363 56.0617 46.6248 56.138C47.2403 56.1843 47.857 56.0647 48.4105 55.7915C48.5373 55.7304 48.6045 55.7701 48.6091 55.9106L48.6198 56.2021C48.6268 56.2676 48.6112 56.3335 48.5756 56.389C48.5401 56.4445 48.4867 56.4863 48.4243 56.5074C46.5912 57.2706 44.4709 56.8844 43.6994 54.8879C43.5715 54.5659 43.5171 54.2195 43.54 53.8738C43.563 53.5282 43.6629 53.192 43.8324 52.8898C44.7275 51.1726 46.582 50.8933 48.2959 51.4871C48.3591 51.5044 48.4144 51.5427 48.4527 51.5957C48.4911 51.6487 48.5101 51.7133 48.5067 51.7786V52.1022C48.5067 52.2426 48.4456 52.2854 48.3158 52.2319C47.19 51.774 45.8854 51.7481 45.0025 52.6547C44.8231 52.8355 44.6817 53.0503 44.5868 53.2865C44.4918 53.5227 44.4451 53.7755 44.4495 54.03Z" fill="#242021"/>
<path d="M107.102 53.1798C106.469 54.4254 107.36 55.8236 108.658 56.08C109.402 56.2425 110.178 56.1416 110.855 55.7946C110.973 55.7335 111.035 55.7686 111.043 55.9014L111.061 56.2235C111.066 56.288 111.05 56.3524 111.016 56.4072C110.981 56.4621 110.93 56.5047 110.87 56.5288C109.059 57.2492 106.946 56.9134 106.182 54.9352C106.027 54.5566 105.971 54.1446 106.019 53.7383C106.068 53.3319 106.22 52.9448 106.46 52.6135C107.112 51.6427 108.052 51.1787 109.282 51.2215C109.792 51.2343 110.297 51.3334 110.774 51.5145C110.831 51.5379 110.88 51.578 110.913 51.6295C110.947 51.681 110.965 51.7414 110.963 51.803L110.954 52.1083C110.954 52.2548 110.886 52.2991 110.748 52.2411C109.447 51.6748 107.797 51.8076 107.102 53.1798Z" fill="#242021"/>
<path d="M126.197 54.0209C126.207 55.5946 124.791 56.8814 123.031 56.8936C121.272 56.9058 119.837 55.6404 119.823 54.0652C119.81 52.4899 121.23 51.2032 122.989 51.1909C124.747 51.1787 126.186 52.4395 126.197 54.0209ZM125.307 54.0514C125.307 52.8746 124.287 51.9145 123.016 51.9145C121.745 51.9145 120.725 52.8608 120.714 54.0362C120.714 55.213 121.734 56.1731 123.005 56.1731C124.276 56.1731 125.297 55.2283 125.307 54.0529V54.0514Z" fill="#242021"/>
<path d="M158.034 56.0678V58.8153C158.037 58.8333 158.036 58.8517 158.03 58.8691C158.024 58.8864 158.015 58.9022 158.002 58.9152C157.989 58.9283 157.974 58.9381 157.957 58.9441C157.939 58.9501 157.921 58.952 157.903 58.9496L157.323 58.9588C157.305 58.9592 157.287 58.9561 157.271 58.9496C157.254 58.9431 157.239 58.9334 157.227 58.921C157.214 58.9086 157.204 58.8938 157.197 58.8775C157.19 58.8612 157.187 58.8437 157.187 58.826V51.5252C157.183 51.4993 157.186 51.4729 157.194 51.4481C157.202 51.4233 157.216 51.4007 157.235 51.3821C157.253 51.3635 157.276 51.3494 157.3 51.3409C157.325 51.3324 157.352 51.3296 157.378 51.3329H157.836C157.861 51.3298 157.887 51.3322 157.911 51.34C157.936 51.3478 157.958 51.3608 157.977 51.378C157.996 51.3953 158.011 51.4164 158.021 51.44C158.031 51.4636 158.035 51.489 158.034 51.5145L158.073 51.9725C158.073 52.0381 158.108 52.0518 158.161 52.0137C158.413 51.818 158.682 51.6453 158.965 51.4977C159.629 51.1847 160.38 51.1109 161.093 51.2886C162.261 51.5613 162.981 52.3103 163.254 53.5355C163.342 54.0435 163.292 54.5656 163.111 55.0482C162.596 56.2143 161.706 56.8188 160.439 56.8615C160.02 56.8806 159.601 56.8157 159.208 56.6708C158.814 56.5258 158.454 56.3037 158.147 56.0174C158.07 55.9594 158.034 55.9747 158.034 56.0678ZM158.044 53.1905C158.025 53.7482 158.025 54.2819 158.044 54.7917C158.052 54.9791 158.129 55.157 158.259 55.2924C158.756 55.8388 159.323 56.1243 159.961 56.1487C160.796 56.1807 161.586 55.9106 162.043 55.1871C162.524 54.4239 162.524 53.6546 162.043 52.8791C161.772 52.4605 161.357 52.155 160.877 52.0198C159.804 51.7501 158.896 52.0467 158.154 52.9097C158.087 52.9886 158.048 53.0873 158.044 53.1905Z" fill="#242021"/>
<path d="M165.49 54.2269C165.454 54.2269 165.42 54.2413 165.394 54.2667C165.369 54.2922 165.355 54.3268 165.355 54.3628C165.353 54.375 165.353 54.3873 165.355 54.3994C165.866 56.2906 168.052 56.5059 169.59 55.764C169.702 55.7106 169.757 55.7457 169.755 55.8678V56.2265C169.757 56.2745 169.745 56.3219 169.721 56.3634C169.697 56.4049 169.662 56.4389 169.62 56.4616C169.443 56.5647 169.253 56.6408 169.054 56.6875C167.964 56.9623 166.816 56.9638 165.831 56.3822C165.512 56.2045 165.234 55.9606 165.017 55.6667C164.8 55.3729 164.648 55.036 164.572 54.6788C164.145 52.7433 165.574 51.1574 167.53 51.2108C169.227 51.2581 170.224 52.5082 170.221 54.1018C170.224 54.1184 170.222 54.1352 170.217 54.1511C170.211 54.1669 170.202 54.1813 170.191 54.1932C170.179 54.205 170.164 54.2139 170.148 54.2192C170.133 54.2246 170.116 54.2262 170.099 54.2239L165.49 54.2269ZM165.44 53.592L169.305 53.5706C169.312 53.5706 169.318 53.5679 169.323 53.563C169.328 53.5581 169.331 53.5515 169.331 53.5446V53.5279C169.331 52.638 168.454 51.9206 167.382 51.9267H167.345C166.276 51.9267 165.409 52.6593 165.414 53.5492V53.563C165.414 53.5698 165.417 53.5764 165.422 53.5813C165.427 53.5862 165.433 53.5889 165.44 53.5889V53.592Z" fill="#242021"/>
<path d="M185.783 55.2832C186.628 56.3273 188.158 56.3334 189.296 55.8144C189.396 55.7701 189.449 55.8022 189.449 55.9106L189.46 56.283C189.464 56.331 189.452 56.3789 189.425 56.4193C189.399 56.4596 189.36 56.4901 189.315 56.5059C187.654 57.1866 185.78 56.9638 184.801 55.3458C184.391 54.665 184.342 53.6225 184.689 52.9494C185.589 51.1955 187.439 50.875 189.171 51.4855C189.228 51.5019 189.277 51.5369 189.312 51.5848C189.346 51.6327 189.363 51.6907 189.36 51.7496L189.368 52.1648C189.368 52.1766 189.366 52.1884 189.362 52.1994C189.357 52.2104 189.351 52.2204 189.343 52.2289C189.335 52.2374 189.325 52.2442 189.314 52.2489C189.303 52.2536 189.291 52.2562 189.279 52.2564C189.267 52.2568 189.254 52.2542 189.243 52.2487C188.193 51.7908 186.893 51.7374 186.015 52.5357C185.632 52.8772 185.395 53.3523 185.352 53.8633C185.308 54.3743 185.463 54.8824 185.783 55.2832Z" fill="#242021"/>
<path d="M204.638 54.0377C204.638 55.6099 203.211 56.8844 201.451 56.8844C199.692 56.8844 198.265 55.6099 198.265 54.0377C198.265 52.4655 199.692 51.1909 201.451 51.1909C203.211 51.1909 204.638 52.4655 204.638 54.0377ZM203.749 54.0529C203.756 52.8761 202.733 51.916 201.457 51.9053C200.182 51.8946 199.148 52.844 199.14 54.0209C199.132 55.1977 200.156 56.1578 201.431 56.167C202.704 56.1762 203.741 55.2298 203.749 54.0529Z" fill="#242021"/>
<path d="M56.9986 51.9969C57.9243 51.31 58.8836 51.0246 60.0385 51.3146C60.9388 51.5405 61.5824 52.1353 61.9693 53.0989C62.5804 54.6009 61.5691 56.4204 60.0003 56.7623C58.8516 57.0167 57.8479 56.7699 56.9894 56.022C56.9329 55.9731 56.9054 55.9869 56.9054 56.0602V58.8153C56.9082 58.8329 56.9068 58.8509 56.9014 58.8679C56.896 58.8849 56.8867 58.9004 56.8742 58.9131C56.8618 58.9258 56.8465 58.9355 56.8296 58.9413C56.8128 58.9471 56.7948 58.9489 56.7771 58.9466L56.1661 58.9542C56.1504 58.9568 56.1343 58.9556 56.1191 58.9508C56.104 58.946 56.0902 58.9377 56.0788 58.9265C56.0675 58.9153 56.059 58.9017 56.054 58.8866C56.0489 58.8715 56.0476 58.8554 56.05 58.8397V51.542C56.0462 51.5142 56.0489 51.4859 56.0579 51.4593C56.0668 51.4327 56.0818 51.4085 56.1015 51.3886C56.1213 51.3687 56.1454 51.3536 56.172 51.3445C56.1985 51.3353 56.2268 51.3324 56.2547 51.3359H56.713C56.7372 51.3316 56.7621 51.3332 56.7856 51.3406C56.809 51.348 56.8304 51.3609 56.8478 51.3783C56.8652 51.3957 56.8781 51.417 56.8855 51.4404C56.8929 51.4639 56.8945 51.4888 56.8901 51.513V51.945C56.9008 52.0366 56.9329 52.0457 56.9986 51.9969ZM59.4244 56.1182C59.7526 56.073 60.0655 55.9508 60.3373 55.7615C60.6091 55.5722 60.8321 55.3212 60.988 55.0291C61.1439 54.737 61.2283 54.4121 61.2343 54.0811C61.2402 53.7501 61.1676 53.4224 61.0223 53.1249C60.2417 51.5115 58.0236 51.6122 57.0169 52.9005C56.9456 52.9916 56.9069 53.1039 56.907 53.2195C56.907 53.6805 56.9039 54.1842 56.8978 54.7307C56.8978 55.071 57.075 55.2924 57.3118 55.5091C57.5905 55.7703 57.9275 55.9615 58.2949 56.0669C58.6622 56.1723 59.0494 56.1888 59.4244 56.1151V56.1182Z" fill="#242021"/>
<path d="M69.6913 54.0499C69.6913 55.6221 68.2554 56.8921 66.4987 56.8859C64.7404 56.8859 63.3183 55.6007 63.3244 54.027C63.3244 52.4548 64.7603 51.1833 66.5186 51.1894C68.2768 51.1955 69.6975 52.4762 69.6913 54.0499ZM68.7992 54.0346C68.7992 52.8578 67.7727 51.8977 66.5079 51.8977C65.2415 51.8977 64.2165 52.8532 64.2165 54.0346C64.2165 55.213 65.2445 56.1716 66.5079 56.1716C67.7712 56.1716 68.7992 55.213 68.7992 54.0346Z" fill="#242021"/>
<path d="M150.716 54.3475C150.809 55.3946 151.797 56.0266 152.793 56.1273C153.511 56.2108 154.237 56.0874 154.886 55.7716C155.025 55.703 155.094 55.7457 155.089 55.9014L155.08 56.2464C155.079 56.3041 155.06 56.36 155.026 56.4071C154.993 56.4541 154.946 56.4901 154.892 56.5104C152.996 57.2233 150.462 56.9073 149.903 54.7184C149.784 54.2928 149.771 53.8445 149.867 53.4129C149.962 52.9814 150.162 52.58 150.45 52.2441C151.061 51.484 151.936 51.1441 153.076 51.2245C154.666 51.3359 155.454 52.5784 155.56 54.0438C155.564 54.0673 155.563 54.0916 155.556 54.1146C155.55 54.1377 155.538 54.1588 155.521 54.1764C155.505 54.1939 155.485 54.2074 155.462 54.2156C155.44 54.2239 155.416 54.2267 155.392 54.2239H150.821C150.807 54.2241 150.793 54.227 150.78 54.2326C150.767 54.2381 150.756 54.2462 150.746 54.2562C150.736 54.2663 150.729 54.2782 150.723 54.2912C150.718 54.3043 150.716 54.3182 150.716 54.3323V54.3475ZM150.769 53.5981L154.613 53.5645C154.62 53.5645 154.627 53.5616 154.632 53.5564C154.637 53.5513 154.64 53.5443 154.64 53.537V53.5217C154.632 52.6303 153.766 51.9144 152.705 51.9236H152.65C151.59 51.9343 150.736 52.6639 150.743 53.5553V53.5706C150.743 53.5776 150.746 53.5844 150.751 53.5895C150.756 53.5946 150.762 53.5977 150.769 53.5981Z" fill="#242021"/>
<path d="M36.089 53.0165C36.089 53.057 36.1051 53.0958 36.1338 53.1244C36.1624 53.1531 36.2013 53.1691 36.2418 53.1691C36.9435 53.1508 37.5571 53.1564 38.0825 53.1859C39.1518 53.247 40.0684 53.7751 40.0821 54.9474C40.0921 55.29 39.9914 55.6266 39.795 55.9075C39.3245 56.5822 38.6065 56.718 37.8397 56.7302C36.9975 56.7455 36.1827 56.743 35.3955 56.7226C35.3749 56.7251 35.3539 56.7228 35.3343 56.716C35.3146 56.7092 35.2968 56.698 35.2821 56.6833C35.2674 56.6686 35.2562 56.6508 35.2494 56.6312C35.2426 56.6115 35.2403 56.5906 35.2428 56.57L35.226 51.5328C35.2259 51.4834 35.2449 51.4358 35.2791 51.4C35.3132 51.3642 35.3598 51.3429 35.4093 51.3405L35.9088 51.3161C35.934 51.3093 35.9606 51.309 35.9859 51.3154C36.0112 51.3217 36.0345 51.3345 36.0535 51.3524C36.0725 51.3703 36.0866 51.3928 36.0944 51.4177C36.1023 51.4426 36.1036 51.4691 36.0982 51.4947L36.089 53.0165ZM36.089 53.9858V55.9029C36.0886 55.9212 36.0919 55.9394 36.0986 55.9564C36.1054 55.9735 36.1154 55.989 36.1282 56.002C36.141 56.0151 36.1563 56.0255 36.1732 56.0326C36.1901 56.0397 36.2082 56.0434 36.2265 56.0434H37.8809C38.608 56.0434 39.1992 55.5854 39.2022 54.9993V54.9047C39.2022 54.3261 38.6172 53.853 37.8901 53.8499H36.2357C36.199 53.8499 36.1636 53.8643 36.1374 53.89C36.1111 53.9156 36.096 53.9506 36.0952 53.9873L36.089 53.9858Z" fill="#242021"/>
<path d="M172.698 54.23V56.5745C172.7 56.5933 172.699 56.6124 172.693 56.6304C172.687 56.6485 172.677 56.6649 172.664 56.6783C172.65 56.6918 172.634 56.702 172.616 56.7081C172.598 56.7142 172.579 56.716 172.56 56.7134H172.003C171.962 56.7134 171.923 56.6974 171.895 56.6687C171.866 56.6401 171.85 56.6013 171.85 56.5608V51.5237C171.85 51.4733 171.871 51.4252 171.906 51.3897C171.942 51.3543 171.99 51.3344 172.041 51.3344H172.048L172.574 51.3558C172.591 51.3545 172.608 51.357 172.624 51.3631C172.639 51.3692 172.654 51.3787 172.665 51.391C172.677 51.4032 172.686 51.418 172.691 51.434C172.697 51.4501 172.698 51.4672 172.696 51.484V53.3157C172.696 53.4302 172.75 53.4683 172.858 53.4302C172.919 53.4092 172.976 53.3777 173.026 53.337C173.826 52.6929 174.625 52.0538 175.426 51.4199C175.49 51.3691 175.569 51.3397 175.65 51.3359L176.544 51.3023C176.551 51.3021 176.557 51.3032 176.563 51.3055C176.569 51.3077 176.574 51.3112 176.579 51.3156C176.584 51.32 176.588 51.3252 176.59 51.3311C176.593 51.3369 176.594 51.3432 176.594 51.3497C176.595 51.3606 176.592 51.3714 176.585 51.3802C176.528 51.4598 176.46 51.5307 176.382 51.5908C175.437 52.3296 174.53 53.0363 173.66 53.711C173.647 53.7215 173.638 53.7368 173.636 53.7536C173.634 53.7704 173.638 53.7874 173.648 53.8011L173.658 53.8118L176.917 56.5425C177.059 56.6631 177.038 56.7241 176.851 56.7256L176.138 56.7348C175.987 56.7379 175.84 56.6833 175.728 56.5822L172.838 54.1567C172.745 54.0835 172.698 54.1048 172.698 54.23Z" fill="#242021"/>
<path d="M180.76 55.3672C180.829 55.2571 180.892 55.1435 180.948 55.0268C181.532 53.8301 182.085 52.669 182.607 51.5435C182.635 51.4788 182.68 51.423 182.737 51.3823C182.795 51.3416 182.862 51.3176 182.932 51.313C183.108 51.2905 183.285 51.2905 183.461 51.313C183.585 51.3344 183.614 51.4016 183.563 51.513C182.622 53.4241 181.702 55.3326 180.803 57.2385C180.471 57.9422 179.912 58.7649 179.168 58.9313C178.752 59.0143 178.323 59.0117 177.908 58.9237C177.849 58.9183 177.794 58.8895 177.755 58.8438C177.717 58.798 177.698 58.7389 177.703 58.6795V58.3375C177.703 58.2032 177.766 58.1559 177.894 58.1941C179.126 58.568 179.663 57.785 180.135 56.8279C180.317 56.457 180.039 56.08 179.879 55.7595C179.144 54.3012 178.435 52.8857 177.749 51.513C177.688 51.3924 177.726 51.3298 177.862 51.3268L178.385 51.3161C178.451 51.3114 178.517 51.3273 178.574 51.3618C178.63 51.3963 178.675 51.4475 178.701 51.5084L180.572 55.3473C180.627 55.4771 180.699 55.4801 180.76 55.3672Z" fill="#242021"/>
<path d="M41.7411 51.3329H41.2431C41.1402 51.3329 41.0568 51.4163 41.0568 51.5191V56.544C41.0568 56.6469 41.1402 56.7302 41.2431 56.7302H41.7411C41.844 56.7302 41.9275 56.6469 41.9275 56.544V51.5191C41.9275 51.4163 41.844 51.3329 41.7411 51.3329Z" fill="#242021"/>
<path d="M52.5686 52.1251L52.5427 56.5913C52.5427 56.6259 52.5291 56.659 52.5048 56.6836C52.4804 56.7082 52.4474 56.7222 52.4128 56.7226H51.84C51.8227 56.7228 51.8056 56.7196 51.7896 56.7132C51.7736 56.7068 51.759 56.6973 51.7466 56.6852C51.7343 56.6732 51.7244 56.6588 51.7177 56.643C51.7109 56.6271 51.7073 56.6101 51.7071 56.5929V52.1541C51.7071 52.1193 51.6932 52.0859 51.6686 52.0613C51.644 52.0366 51.6106 52.0228 51.5757 52.0228L49.6846 52.0106C49.6673 52.0106 49.6501 52.0072 49.6342 52.0004C49.6182 51.9937 49.6037 51.9839 49.5916 51.9715C49.5795 51.9592 49.5701 51.9445 49.5637 51.9284C49.5574 51.9123 49.5543 51.8951 49.5547 51.8778L49.567 51.4519C49.5685 51.4181 49.583 51.386 49.6074 51.3625C49.6318 51.3389 49.6644 51.3256 49.6983 51.3253L54.5683 51.3649C54.6028 51.3653 54.6358 51.3793 54.6601 51.4039C54.6845 51.4285 54.6981 51.4617 54.6981 51.4962V51.8488C54.6985 51.8661 54.6954 51.8833 54.6891 51.8994C54.6827 51.9155 54.6733 51.9302 54.6612 51.9425C54.6491 51.9549 54.6346 51.9647 54.6186 51.9714C54.6027 51.9782 54.5856 51.9816 54.5683 51.9816L52.6954 51.9938C52.6614 51.995 52.6291 52.0094 52.6055 52.0338C52.5818 52.0583 52.5686 52.0911 52.5686 52.1251Z" fill="#242021"/>
<path d="M90.6543 53.8072C90.6345 53.8181 90.6198 53.8365 90.6135 53.8582C90.6072 53.88 90.6098 53.9033 90.6207 53.9232C90.626 53.9333 90.6334 53.9422 90.6423 53.9492C90.6513 53.9563 90.6616 53.9615 90.6726 53.9644C91.1747 54.1048 91.4721 54.3979 91.5647 54.8436C91.8702 56.3319 90.7689 56.7318 89.5789 56.7318C88.5422 56.7318 87.5385 56.7262 86.568 56.715C86.5218 56.715 86.4775 56.6966 86.4449 56.664C86.4122 56.6314 86.3939 56.5871 86.3939 56.541L86.3832 51.5191C86.3828 51.472 86.401 51.4267 86.4339 51.3929C86.4668 51.3592 86.5117 51.3398 86.5588 51.339C87.5956 51.3207 88.5523 51.3207 89.4292 51.339C90.3732 51.3573 91.3188 51.7084 91.2439 52.8532C91.2402 53.0504 91.1836 53.243 91.0798 53.4109C90.9761 53.5787 90.8291 53.7156 90.6543 53.8072ZM87.257 52.1281V53.5324C87.257 53.5616 87.2686 53.5895 87.2892 53.6102C87.3098 53.6308 87.3378 53.6423 87.3669 53.6423H89.3528C89.9211 53.6423 90.3809 53.3126 90.3824 52.9036V52.7631C90.3824 52.3541 89.9241 52.0213 89.3559 52.0198H87.37C87.3554 52.0194 87.3409 52.0219 87.3273 52.0271C87.3137 52.0324 87.3013 52.0402 87.2908 52.0503C87.2803 52.0604 87.2719 52.0725 87.2661 52.0858C87.2602 52.0992 87.2572 52.1136 87.257 52.1281ZM87.257 54.3842V55.9472C87.257 55.9743 87.2677 56.0003 87.2869 56.0195C87.3061 56.0387 87.3321 56.0495 87.3593 56.0495L89.5758 56.0571C90.2281 56.0571 90.7597 55.6984 90.7612 55.2496V55.1062C90.7612 54.6589 90.2357 54.2926 89.5819 54.2895H87.3654C87.352 54.2885 87.3384 54.2901 87.3256 54.2943C87.3128 54.2985 87.3009 54.3052 87.2907 54.314C87.2805 54.3228 87.2721 54.3335 87.2661 54.3456C87.26 54.3576 87.2564 54.3707 87.2554 54.3842H87.257Z" fill="#242021"/>
<path d="M94.186 56.7165H93.494C93.4724 56.7161 93.4518 56.7072 93.4367 56.6918C93.4216 56.6764 93.4131 56.6557 93.4131 56.6341V51.4443C93.4135 51.4228 93.422 51.4023 93.4371 51.387C93.4522 51.3716 93.4725 51.3627 93.494 51.3619L94.1906 51.3481C94.2124 51.3481 94.2333 51.3566 94.249 51.3717C94.2646 51.3867 94.2738 51.4073 94.2746 51.4291V53.392C94.275 53.414 94.284 53.435 94.2998 53.4504C94.3155 53.4658 94.3366 53.4744 94.3586 53.4744C94.3763 53.4729 94.3932 53.4666 94.4075 53.4561L97.0594 51.3604C97.0745 51.3492 97.0926 51.3428 97.1114 51.342H97.9958C98.0144 51.3403 98.0331 51.3449 98.0487 51.3551C98.0644 51.3653 98.0761 51.3805 98.082 51.3983C98.0878 51.416 98.0875 51.4352 98.081 51.4527C98.0745 51.4702 98.0622 51.485 98.0462 51.4947L95.2232 53.7248C95.2063 53.7385 95.1955 53.7583 95.1929 53.78C95.1903 53.8016 95.1963 53.8234 95.2095 53.8408C95.2128 53.8456 95.2169 53.8497 95.2217 53.853L98.5045 56.6005C98.5211 56.6147 98.5313 56.6349 98.5331 56.6566C98.5348 56.6783 98.5278 56.6999 98.5137 56.7165C98.506 56.7256 98.4964 56.733 98.4856 56.738C98.4748 56.743 98.463 56.7456 98.451 56.7455H97.4657C97.446 56.7459 97.427 56.7388 97.4123 56.7257L94.4045 54.2056C94.3877 54.1918 94.3662 54.1851 94.3446 54.1868C94.3229 54.1885 94.3028 54.1985 94.2884 54.2147C94.2761 54.2299 94.2691 54.2486 94.2685 54.2682L94.2548 56.6509C94.2515 56.6676 94.2431 56.6828 94.2308 56.6946C94.2185 56.7063 94.2028 56.714 94.186 56.7165Z" fill="#242021"/>
<path d="M102.233 55.4526C102.254 55.4521 102.275 55.4458 102.293 55.4345C102.31 55.4232 102.325 55.4074 102.334 55.3885C102.966 54.0657 103.577 52.7784 104.167 51.5267C104.194 51.4643 104.238 51.4114 104.296 51.3754C104.353 51.3393 104.42 51.3218 104.488 51.3253H104.955C105.108 51.3253 105.159 51.3985 105.09 51.5405C104.152 53.4882 103.185 55.4913 102.188 57.5499C101.911 58.1223 101.312 58.8412 100.643 58.9496C100.242 59.0109 99.8324 59.0036 99.4333 58.9283C99.3892 58.9204 99.349 58.8979 99.3193 58.8644C99.2897 58.8308 99.2722 58.7883 99.2698 58.7436L99.2484 58.3482C99.2408 58.2139 99.3019 58.162 99.4348 58.1956C99.9847 58.3345 100.564 58.3635 100.97 57.9071C101.231 57.611 101.688 57.0157 101.763 56.5913C101.777 56.517 101.766 56.4402 101.731 56.3731C100.927 54.7805 100.113 53.1615 99.2866 51.5161C99.2209 51.3848 99.2622 51.3191 99.4104 51.3222L99.9282 51.3329C99.9989 51.3315 100.068 51.351 100.128 51.389C100.187 51.4271 100.234 51.4819 100.263 51.5466L102.14 55.3977C102.147 55.4159 102.161 55.4311 102.177 55.441C102.194 55.451 102.214 55.4551 102.233 55.4526Z" fill="#242021"/>
<path d="M113.702 54.488V56.5929C113.702 56.6333 113.686 56.6722 113.658 56.7008C113.629 56.7294 113.59 56.7455 113.55 56.7455L113 56.7211C112.961 56.7187 112.924 56.7016 112.898 56.6733C112.871 56.6449 112.856 56.6074 112.856 56.5684V51.4901C112.856 51.4496 112.872 51.4108 112.901 51.3822C112.929 51.3535 112.968 51.3375 113.009 51.3375L113.554 51.3237C113.595 51.3237 113.634 51.3398 113.662 51.3684C113.691 51.3971 113.707 51.4359 113.707 51.4764L113.727 53.4775C113.727 53.518 113.743 53.5568 113.772 53.5854C113.8 53.614 113.839 53.6301 113.88 53.6301H117.191C117.232 53.6301 117.271 53.614 117.299 53.5854C117.328 53.5568 117.344 53.518 117.344 53.4775V51.4809C117.344 51.4405 117.36 51.4016 117.389 51.373C117.418 51.3444 117.456 51.3283 117.497 51.3283H117.506L118.059 51.3619C118.097 51.365 118.133 51.3824 118.159 51.4107C118.185 51.439 118.2 51.4761 118.2 51.5145L118.21 56.5745C118.21 56.615 118.194 56.6539 118.166 56.6825C118.137 56.7111 118.098 56.7272 118.057 56.7272H117.5C117.459 56.7272 117.421 56.7111 117.392 56.6825C117.363 56.6539 117.347 56.615 117.347 56.5745L117.335 54.4773C117.335 54.4368 117.319 54.398 117.29 54.3693C117.262 54.3407 117.223 54.3246 117.182 54.3246L113.87 54.3338C113.849 54.3316 113.827 54.334 113.807 54.3408C113.786 54.3476 113.768 54.3587 113.752 54.3732C113.736 54.3878 113.723 54.4055 113.715 54.4253C113.706 54.4451 113.702 54.4664 113.702 54.488Z" fill="#242021"/>
<path d="M143.764 52.1419V56.6005C143.764 56.6182 143.761 56.6358 143.754 56.6521C143.747 56.6685 143.737 56.6834 143.725 56.6959C143.712 56.7085 143.697 56.7183 143.681 56.725C143.665 56.7317 143.647 56.735 143.629 56.7348H143.622L143.04 56.7012C143.005 56.6997 142.973 56.6848 142.949 56.6597C142.925 56.6346 142.912 56.6014 142.913 56.5669L142.905 51.4764C142.905 51.4407 142.919 51.4066 142.945 51.3814C142.97 51.3562 143.004 51.342 143.04 51.342L148.02 51.3283C148.055 51.3283 148.089 51.3425 148.115 51.3677C148.14 51.3928 148.154 51.427 148.154 51.4626L148.168 56.5868C148.168 56.6045 148.165 56.622 148.158 56.6384C148.151 56.6548 148.141 56.6697 148.129 56.6822C148.116 56.6947 148.101 56.7046 148.085 56.7113C148.069 56.718 148.051 56.7213 148.033 56.7211H147.444C147.426 56.7213 147.408 56.718 147.392 56.7113C147.376 56.7046 147.361 56.6947 147.348 56.6822C147.336 56.6697 147.326 56.6548 147.319 56.6384C147.312 56.622 147.309 56.6045 147.309 56.5868L147.299 52.1602C147.299 52.1246 147.284 52.0904 147.259 52.0652C147.234 52.04 147.2 52.0259 147.164 52.0259L143.903 52.0152C143.867 52.0152 143.833 52.0293 143.808 52.0545C143.783 52.0797 143.768 52.1139 143.768 52.1495L143.764 52.1419Z" fill="#242021"/>
<path d="M195.683 53.6271C195.697 53.6273 195.71 53.6248 195.722 53.6198C195.735 53.6149 195.746 53.6075 195.755 53.5981C195.765 53.5887 195.773 53.5776 195.778 53.5652C195.783 53.5529 195.786 53.5397 195.785 53.5263L195.775 51.4733C195.773 51.4581 195.774 51.4426 195.779 51.4281C195.784 51.4135 195.792 51.4003 195.803 51.3893C195.814 51.3783 195.827 51.3698 195.841 51.3646C195.856 51.3593 195.871 51.3573 195.886 51.3588L196.455 51.3436C196.477 51.341 196.5 51.3435 196.521 51.3508C196.543 51.3581 196.562 51.37 196.578 51.3858C196.595 51.4016 196.607 51.4208 196.615 51.442C196.623 51.4632 196.626 51.4859 196.624 51.5084V56.5547C196.624 56.5952 196.608 56.634 196.579 56.6626C196.551 56.6913 196.512 56.7073 196.471 56.7073L195.944 56.6829C195.924 56.6854 195.903 56.6831 195.883 56.6763C195.863 56.6695 195.846 56.6583 195.831 56.6436C195.816 56.629 195.805 56.6111 195.798 56.5915C195.791 56.5718 195.789 56.5509 195.792 56.5303V54.4819C195.792 54.4585 195.787 54.4353 195.778 54.4137C195.769 54.3922 195.756 54.3726 195.739 54.3561C195.723 54.3397 195.703 54.3266 195.681 54.3178C195.659 54.309 195.636 54.3046 195.613 54.3048L192.272 54.3246C192.255 54.3224 192.237 54.3241 192.221 54.3297C192.205 54.3352 192.19 54.3445 192.177 54.3568C192.165 54.369 192.156 54.3839 192.15 54.4003C192.145 54.4167 192.143 54.4342 192.145 54.4513V56.5181C192.149 56.5434 192.146 56.5692 192.138 56.5935C192.13 56.6178 192.117 56.6398 192.099 56.658C192.081 56.6762 192.059 56.6899 192.034 56.6982C192.01 56.7065 191.984 56.7091 191.959 56.7058H191.501C191.473 56.7105 191.445 56.7087 191.419 56.7004C191.393 56.6921 191.369 56.6777 191.349 56.6583C191.329 56.6389 191.314 56.6151 191.306 56.5889C191.297 56.5626 191.295 56.5347 191.299 56.5074V51.4993C191.296 51.4676 191.306 51.4362 191.326 51.4115C191.346 51.3868 191.374 51.3707 191.406 51.3665C191.608 51.3272 191.815 51.3272 192.017 51.3665C192.055 51.3692 192.09 51.3868 192.115 51.4154C192.14 51.444 192.152 51.4813 192.15 51.5191L192.138 53.4866C192.137 53.5045 192.141 53.5222 192.147 53.5387C192.154 53.5553 192.164 53.5704 192.176 53.5831C192.189 53.5959 192.204 53.6061 192.22 53.6131C192.237 53.6201 192.254 53.6238 192.272 53.624H195.706L195.683 53.6271Z" fill="#242021"/>
<path d="M77.4896 55.4481C78.3451 55.4481 79.0386 54.7551 79.0386 53.9003C79.0386 53.0455 78.3451 52.3525 77.4896 52.3525C76.6342 52.3525 75.9407 53.0455 75.9407 53.9003C75.9407 54.7551 76.6342 55.4481 77.4896 55.4481Z" fill="#242021"/>
<path d="M133.68 55.4481C134.536 55.4481 135.229 54.7551 135.229 53.9003C135.229 53.0455 134.536 52.3525 133.68 52.3525C132.825 52.3525 132.131 53.0455 132.131 53.9003C132.131 54.7551 132.825 55.4481 133.68 55.4481Z" fill="#242021"/>
</g>
<defs>
<clipPath id="clip0_311_1981">
<rect width="235" height="59" fill="white"/>
</clipPath>
</defs>
</svg>
