<svg width="70" height="40" viewBox="0 0 70 40" fill="none" xmlns="http://www.w3.org/2000/svg">
<path d="M22.3437 21.7562C23.0537 21.8973 24.1532 22.022 25.6423 22.1302C26.3419 22.1807 26.6953 22.4919 26.7025 23.0637C26.7103 23.7113 25.6609 23.903 25.2036 23.9973C24.2167 24.2013 23.2299 24.3981 22.243 24.5877C22.1892 24.598 22.1608 24.6304 22.1577 24.685C22.0647 26.0864 21.9717 27.6587 21.8787 29.4022C21.8353 30.2151 21.0277 30.4114 20.372 30.2723C19.8719 30.1672 19.6389 29.8684 19.673 29.3759C19.7742 27.9467 19.8812 26.5408 19.9938 25.158C19.995 25.1445 19.9929 25.131 19.9877 25.1185C19.9826 25.106 19.9745 25.095 19.9642 25.0862C19.9539 25.0774 19.9417 25.0712 19.9285 25.0681C19.9153 25.065 19.9016 25.0651 19.8884 25.0683C16.9991 25.7999 13.8891 26.87 10.5585 28.2785C8.59149 29.11 6.8337 30.2229 5.03251 31.3202C4.61296 31.5747 4.18618 31.5881 3.75216 31.3604C2.92597 30.9261 2.63145 29.8844 3.57855 29.3666C5.56988 28.2775 7.66558 27.295 9.86565 26.4192C11.0613 25.9442 12.246 25.549 13.42 25.2337C15.6283 24.6413 17.8227 24.1539 20.0031 23.7716C20.0672 23.7603 20.1013 23.7227 20.1054 23.6588L20.1535 22.9324C20.1576 22.8654 20.1271 22.8252 20.062 22.8118C17.3959 22.2502 14.9943 21.4223 12.8573 20.328C12.0295 19.9035 10.8691 19.2219 9.37582 18.2832C7.54364 17.1313 5.92639 15.7078 4.52409 14.0128C2.93991 12.0994 1.6549 10.1535 0.988372 7.77328C0.0443773 4.39927 1.13253 1.38848 4.67135 0.3483C6.07158 -0.0638549 7.57567 -0.110223 9.18361 0.209198C13.1503 0.997445 16.3062 3.51211 18.4624 6.87684C21.2401 11.2122 22.3515 16.4007 22.2693 21.6634C22.2683 21.7149 22.2931 21.7459 22.3437 21.7562ZM19.6141 14.7516C18.9734 12.0839 17.8155 9.55224 16.1403 7.15659C14.5717 4.91395 12.4775 3.18599 9.87495 2.2741C8.10631 1.65432 5.90521 1.59404 4.40318 2.84442C1.17438 5.52755 4.26678 10.206 6.24312 12.5538C7.35607 13.8758 8.59975 15.1349 9.97415 16.3312C10.6934 16.9566 11.4498 17.5177 12.2435 18.0143C14.6848 19.5429 17.3448 20.7701 20.1225 21.3605C20.1773 21.3729 20.2057 21.3507 20.2077 21.294C20.2925 18.9314 20.0946 16.7505 19.6141 14.7516Z" fill="#FF7048"/>
<path d="M29.4492 23.4732C29.4368 24.0523 29.4373 24.667 29.4508 25.3171C29.4709 26.3233 27.3876 26.2228 27.3892 25.3929C27.3902 22.379 27.3897 19.4733 27.3876 16.6758C27.3876 15.7175 29.4492 15.7052 29.4446 16.7561C29.4404 17.5763 29.4409 18.3775 29.4461 19.1595C29.4482 19.3357 29.4947 19.3481 29.5856 19.1966C30.1116 18.3239 30.7652 17.5392 31.5465 16.8427C32.3292 16.1456 33.3228 15.7824 34.3629 15.8922C35.5627 16.0189 36.2215 17.2786 36.0463 18.3296C35.8774 19.3404 34.8512 19.6881 33.9615 19.4285C33.9385 19.4216 33.9189 19.4065 33.9066 19.3862C33.8942 19.3658 33.89 19.3418 33.8948 19.3187C33.9677 18.9308 34.2916 17.6758 33.7445 17.5289C32.9369 17.3141 32.106 18.617 31.7883 19.1843C31.3821 19.9076 30.992 20.6052 30.618 21.277C30.5932 21.3213 30.5932 21.3661 30.618 21.4114C31.5775 23.1456 33.3135 24.7793 35.3596 24.0544C35.927 23.8519 36.4819 23.5304 36.9547 23.1734C38.0087 22.3759 39.102 21.4104 40.2346 20.277C40.2552 20.2564 40.2698 20.2308 40.2769 20.2027C40.284 20.1747 40.2833 20.1453 40.2749 20.1178C39.3779 17.1431 39.2751 14.0462 39.9665 10.8273C40.5291 8.20598 42.0467 3.94636 45.4971 4.29257C47.6021 4.50431 48.4779 6.02053 48.3508 7.97415C48.2314 9.8103 47.5293 11.7175 46.7372 13.3883C45.6129 15.7562 44.2824 17.9159 42.7457 19.8674C42.6724 19.9591 42.5892 20.0426 42.4962 20.1178C42.4517 20.1528 42.4388 20.1971 42.4574 20.2507C43.0589 21.9833 44.4214 24.2986 46.3497 24.6031C47.6486 24.8086 48.357 23.7515 48.6391 22.6587C48.6557 22.5959 48.6319 22.5567 48.5678 22.5413C47.1324 22.2033 46.0825 21.3316 45.4181 19.9261C45.139 19.3357 45.0962 18.7 45.2894 18.0189C45.9652 15.6325 48.7771 16.124 49.9117 17.7948C50.5163 18.6866 50.8139 19.8628 50.7503 20.9617C50.7462 21.0256 50.7767 21.058 50.8418 21.059C52.0121 21.0761 52.6755 20.7685 53.4676 20.0652C53.6784 19.8777 53.8505 19.6737 53.9838 19.4532C54.5738 18.4743 55.4636 17.6619 56.653 17.0158C57.8724 16.3533 59.1052 16.1683 60.3515 16.4609C61.1916 16.6577 61.6928 17.0931 61.855 17.767C61.8695 17.8267 61.9078 17.8566 61.9698 17.8566C63.2641 17.8566 63.5756 19.0204 63.5338 20.09C63.4873 21.2811 63.0636 22.2157 62.2627 22.8937C62.2483 22.9055 62.2391 22.9224 62.237 22.9409C62.235 22.9594 62.2403 22.9779 62.2519 22.9926C63.0393 23.9663 64.1988 24.1873 65.2218 23.3805C66.5673 22.3218 67.6089 20.7515 68.5948 19.3512C69.2257 18.4532 70.4595 19.209 69.8224 20.175C69.1652 21.1714 68.5007 22.1327 67.829 23.059C67.4022 23.6474 66.9212 24.1827 66.3859 24.6649C64.7118 26.1734 62.7758 26.0204 61.2211 24.4021C61.1828 24.363 61.1425 24.3614 61.1002 24.3975C59.4617 25.821 56.7181 26.736 54.7232 25.5567C53.5622 24.8689 53.0816 23.7159 53.1235 22.4223C53.1266 22.3501 53.0945 22.329 53.0274 22.3589C52.2275 22.7195 51.3915 22.8937 50.5194 22.8813C50.4625 22.8803 50.4258 22.9065 50.4093 22.9601C49.8838 24.6201 48.636 25.9493 46.8209 26.144C43.9191 26.4578 41.9273 24.229 40.8856 21.8117C40.8608 21.7551 40.8231 21.7448 40.7725 21.7808C40.479 21.9931 40.2021 22.2203 39.9416 22.4624C39.3041 23.058 38.6897 23.6227 38.0986 24.1564C36.3749 25.7143 33.9072 26.5598 31.8131 25.4408C30.8944 24.9493 30.1318 24.2857 29.5252 23.4501C29.5201 23.4429 29.5128 23.4376 29.5045 23.4347C29.4962 23.4319 29.4872 23.4318 29.4788 23.4343C29.4704 23.4369 29.463 23.442 29.4577 23.449C29.4524 23.456 29.4494 23.4645 29.4492 23.4732ZM41.9412 9.2307C41.0215 11.9818 40.8732 14.7804 41.4964 17.6263C41.5377 17.8149 41.6385 17.9869 41.7986 18.1425C41.8509 18.1933 41.9184 18.2258 41.9908 18.235C42.0632 18.2442 42.1367 18.2296 42.2001 18.1935C42.8558 17.818 43.3611 17.0297 43.7285 16.3775C44.796 14.4857 45.5953 12.5084 46.1264 10.4455C46.3915 9.41617 46.669 7.93551 46.2675 6.93861C45.9962 6.26782 45.2941 5.6125 44.4927 5.87679C43.2278 6.29255 42.3319 8.06379 41.9412 9.2307ZM59.671 17.9586C56.5615 17.5042 55.4827 19.8921 55.2238 22.4439C55.1959 22.7144 55.2641 23.158 55.3804 23.4068C56.4096 25.6108 58.9456 23.9848 60.1376 23.0467C60.1799 23.0137 60.1918 22.9715 60.1732 22.9199C59.6338 21.4825 59.6477 19.7252 60.6677 18.5336C60.7039 18.4913 60.7008 18.4527 60.6584 18.4176C60.3546 18.1631 60.0254 18.0101 59.671 17.9586ZM46.8968 19.328C47.273 20.0699 47.9085 20.5614 48.8034 20.8025C48.8799 20.8231 48.913 20.7942 48.9026 20.7159C48.8809 20.5598 48.946 20.4625 48.9042 20.2894C48.805 19.8803 48.6536 19.4949 48.45 19.1333C48.1942 18.6804 47.5928 18.0591 47.0332 18.1796C46.4861 18.2971 46.7325 19.005 46.8968 19.328ZM61.4939 21.5815C61.9031 20.855 62.2472 20.022 62.0535 19.226C62.0484 19.2042 62.0375 19.1842 62.0217 19.1682C62.0059 19.1523 61.986 19.141 61.9641 19.1355C61.9422 19.1301 61.9191 19.1308 61.8974 19.1375C61.8757 19.1442 61.8563 19.1566 61.8411 19.1734C61.2986 19.7793 61.2118 20.8411 61.3869 21.566C61.4107 21.6618 61.4463 21.667 61.4939 21.5815Z" fill="#FF7048"/>
<path d="M53.2577 34.2909C53.4107 34.3063 53.5083 34.2425 53.5507 34.0992C53.5827 33.9869 53.6545 33.9472 53.7662 33.9802C53.8437 34.0039 53.9222 34.0163 54.0018 34.0173C54.1609 34.0194 54.2115 34.0946 54.1537 34.243C53.9522 34.7499 53.5838 34.9405 53.0485 34.8148C52.7054 34.7334 52.5101 34.4975 52.4625 34.107C52.4563 34.0554 52.4791 34.0266 52.5307 34.0204L52.9632 33.9725C53.0097 33.9673 53.0371 33.9879 53.0454 34.0343C53.0557 34.0951 53.0779 34.1513 53.112 34.2028C53.1461 34.2553 53.1947 34.2847 53.2577 34.2909Z" fill="#FF7048"/>
<path d="M16.1597 35.9941C15.766 36.3218 15.8605 37.3852 15.9101 37.8303C16.0093 38.7221 17.0386 38.549 17.5857 38.3604C17.6353 38.3429 17.6663 38.3599 17.6787 38.4114L17.8214 39.0266C17.8266 39.0487 17.8231 39.072 17.8115 39.0916C17.8 39.1111 17.7813 39.1255 17.7594 39.1317C16.4573 39.498 15.0669 39.3512 14.9584 37.6634C14.9305 37.2172 14.9439 36.7937 14.9987 36.3929C15.1971 34.9571 16.6743 34.852 17.795 35.2337C17.8208 35.243 17.8307 35.261 17.8245 35.2878L17.6787 35.9571C17.6715 35.9869 17.6534 35.9972 17.6245 35.988C17.2246 35.8674 16.5162 35.6989 16.1597 35.9941Z" fill="#FF7048"/>
<path d="M28.0419 37.7848C28.0439 38.1816 27.8878 38.563 27.6079 38.845C27.328 39.127 26.9472 39.2867 26.5493 39.2887L26.3136 39.29C25.9157 39.292 25.5332 39.1364 25.2504 38.8573C24.9675 38.5782 24.8074 38.1985 24.8053 37.8017L24.7988 36.5652C24.7968 36.1685 24.9529 35.7871 25.2328 35.505C25.5127 35.223 25.8935 35.0634 26.2914 35.0613L26.5271 35.0601C26.925 35.058 27.3075 35.2136 27.5903 35.4927C27.8732 35.7718 28.0333 36.1516 28.0354 36.5484L28.0419 37.7848ZM27.1082 36.4915C27.1084 36.4063 27.0917 36.3218 27.0591 36.243C27.0265 36.1642 26.9787 36.0926 26.9183 36.0322C26.858 35.9718 26.7863 35.9239 26.7074 35.8911C26.6285 35.8583 26.5438 35.8414 26.4583 35.8412L26.3839 35.8411C26.2984 35.841 26.2137 35.8576 26.1347 35.8901C26.0557 35.9226 25.9838 35.9703 25.9232 36.0305C25.8627 36.0906 25.8146 36.1621 25.7818 36.2408C25.7489 36.3195 25.7319 36.4039 25.7318 36.4891L25.7294 37.8431C25.7292 37.9283 25.7459 38.0127 25.7785 38.0916C25.8111 38.1704 25.8589 38.242 25.9193 38.3024C25.9796 38.3628 26.0513 38.4107 26.1302 38.4435C26.2092 38.4763 26.2938 38.4932 26.3793 38.4933L26.4537 38.4935C26.5392 38.4936 26.6239 38.477 26.7029 38.4445C26.7819 38.412 26.8538 38.3643 26.9144 38.3041C26.9749 38.244 27.023 38.1725 27.0559 38.0938C27.0887 38.0151 27.1057 37.9307 27.1058 37.8454L27.1082 36.4915Z" fill="#FF7048"/>
<path d="M5.89475 37.1132C6.1469 37.2234 6.30656 37.4038 6.37373 37.6541C6.60314 38.5042 5.91026 39.1564 5.09492 39.2044C4.6609 39.2311 4.16229 39.2378 3.5991 39.2245C3.54536 39.2224 3.51849 39.1951 3.51849 39.1425V35.2369C3.51849 35.175 3.5495 35.1421 3.6115 35.1379C4.3483 35.0998 4.90633 35.1142 5.28558 35.1812C5.86944 35.2842 6.19599 35.6129 6.26522 36.1673C6.31069 36.529 6.1841 36.8113 5.88545 37.0143C5.82862 37.0524 5.83172 37.0854 5.89475 37.1132ZM4.44854 35.9432V36.7098C4.44894 36.721 4.45369 36.7316 4.46178 36.7394C4.46988 36.7472 4.48069 36.7515 4.49194 36.7515H4.79265C4.86484 36.7515 4.93632 36.7408 5.00299 36.7201C5.06966 36.6994 5.13022 36.6691 5.18119 36.6309C5.23217 36.5927 5.27256 36.5474 5.30004 36.4975C5.32753 36.4477 5.34158 36.3943 5.34138 36.3404V36.3064C5.34098 36.198 5.28299 36.0941 5.18013 36.0176C5.07727 35.9411 4.93792 35.8982 4.79265 35.8984H4.49194C4.48611 35.8984 4.48034 35.8995 4.47497 35.9018C4.4696 35.9041 4.46474 35.9074 4.46069 35.9116C4.45664 35.9158 4.45347 35.9207 4.45139 35.9261C4.4493 35.9316 4.44833 35.9374 4.44854 35.9432ZM4.44699 37.5228V38.3852C4.44698 38.3898 4.44792 38.3944 4.44973 38.3986C4.45154 38.4028 4.45418 38.4066 4.45752 38.4098C4.46085 38.413 4.46479 38.4155 4.46911 38.4171C4.47343 38.4187 4.47803 38.4194 4.48264 38.4192L4.93216 38.4177C5.08097 38.4172 5.22352 38.3701 5.32846 38.2866C5.4334 38.2032 5.49214 38.0902 5.49174 37.9725V37.9293C5.49154 37.871 5.47683 37.8134 5.44845 37.7596C5.42006 37.7059 5.37856 37.6571 5.32631 37.616C5.27406 37.575 5.21208 37.5425 5.14392 37.5204C5.07576 37.4983 5.00275 37.487 4.92906 37.4872L4.47954 37.4888C4.47077 37.4892 4.46249 37.4929 4.45642 37.4993C4.45036 37.5056 4.44698 37.514 4.44699 37.5228Z" fill="#FF7048"/>
<path d="M8.33711 36.7223C8.75563 36.6698 9.02534 36.5059 9.11679 36.0716C9.17983 35.7749 9.25991 35.4828 9.35705 35.1953C9.37152 35.152 9.40149 35.1304 9.44696 35.1304H10.2204C10.2628 35.1304 10.2788 35.1515 10.2685 35.1937C10.1352 35.7326 10.0019 36.2293 9.86858 36.6837C9.81484 36.864 9.70737 37.0098 9.54616 37.1211C9.49759 37.1551 9.48674 37.1989 9.51361 37.2525L10.5103 39.1798C10.5124 39.1838 10.5135 39.1883 10.5134 39.1928C10.5133 39.1974 10.512 39.2018 10.5097 39.2057C10.5073 39.2096 10.504 39.2128 10.5 39.215C10.4961 39.2173 10.4916 39.2184 10.4871 39.2184L9.49036 39.2293C9.45833 39.2293 9.43507 39.2148 9.42061 39.186L8.64712 37.5662C8.62645 37.5229 8.59442 37.5101 8.55102 37.5276L8.31851 37.6157C8.2689 37.6352 8.2441 37.6718 8.2441 37.7254V39.1875C8.2441 39.2133 8.23118 39.2262 8.20535 39.2262L7.35126 39.2246C7.34139 39.2246 7.33193 39.2205 7.32495 39.2133C7.31797 39.2061 7.31406 39.1962 7.31406 39.186V35.169C7.31406 35.1592 7.31814 35.1497 7.3254 35.1428C7.33267 35.1358 7.34253 35.1319 7.35281 35.1319L8.20535 35.1304C8.23118 35.1304 8.2441 35.1433 8.2441 35.169L8.24255 36.6389C8.24255 36.7017 8.27407 36.7295 8.33711 36.7223Z" fill="#FF7048"/>
<path d="M12.5779 37.8672C11.7346 37.9476 11.3905 37.3139 11.2913 36.572C11.2283 36.096 11.1528 35.6276 11.065 35.1671C11.0609 35.1444 11.0702 35.1331 11.0929 35.1331L11.9315 35.1284C11.9635 35.1284 11.9821 35.1439 11.9873 35.1748L12.2756 36.8842C12.3004 37.0285 12.3857 37.1006 12.5314 37.1006L12.846 37.1021C12.906 37.1021 12.9411 37.0722 12.9514 37.0125L13.2785 35.1671C13.2826 35.1434 13.2971 35.1315 13.3219 35.1315L14.1683 35.13C14.1941 35.13 14.2044 35.1423 14.1993 35.1671C13.913 36.8363 13.7249 37.8801 13.635 38.2984C13.4289 39.2659 12.5686 39.2845 11.6633 39.2134C11.6437 39.2124 11.6329 39.2021 11.6308 39.1825L11.5393 38.4932C11.5387 38.4883 11.5391 38.4833 11.5406 38.4785C11.5421 38.4738 11.5446 38.4694 11.5479 38.4656C11.5513 38.4618 11.5554 38.4587 11.5601 38.4566C11.5647 38.4544 11.5698 38.4532 11.575 38.453H12.412C12.4863 38.4524 12.5581 38.427 12.6161 38.3807C12.674 38.3344 12.7146 38.2701 12.7313 38.1979L12.7608 38.0743C12.7959 37.9208 12.735 37.8517 12.5779 37.8672Z" fill="#FF7048"/>
<path d="M23.7859 38.4534L24.02 38.4549C24.0401 38.4549 24.0595 38.4631 24.0737 38.4776C24.088 38.492 24.096 38.5117 24.096 38.5322L24.0944 39.8398C24.0944 39.8624 24.0836 39.8753 24.0619 39.8784L23.2853 39.999C23.2574 40.0041 23.2434 39.9923 23.2434 39.9634L23.245 39.3034C23.245 39.2519 23.2186 39.2262 23.1659 39.2262H20.9571C20.9361 39.2262 20.916 39.2343 20.9012 39.2488C20.8863 39.2633 20.878 39.2829 20.878 39.3034L20.8796 39.7656C20.8806 39.8429 20.8424 39.8872 20.7649 39.8985L20.1433 39.9881C20.0916 39.9953 20.0658 39.9732 20.0658 39.9217V38.5337C20.0658 38.4833 20.0911 38.4575 20.1417 38.4565L20.3169 38.4518C20.383 38.4508 20.4336 38.4219 20.4688 38.3653C20.5659 38.2097 20.6388 38.0428 20.6873 37.8645C20.9188 37.0175 21.0459 36.135 21.0687 35.2169C21.0695 35.1937 21.0793 35.1717 21.0961 35.1555C21.1128 35.1394 21.1352 35.1304 21.1586 35.1304H23.5922C23.6439 35.1304 23.6697 35.1561 23.6697 35.2077V38.3375C23.6697 38.4137 23.7084 38.4523 23.7859 38.4534ZM21.4686 38.4534H22.7009C22.7267 38.4534 22.7396 38.4405 22.7396 38.4147V35.9418C22.7396 35.916 22.7267 35.9032 22.7009 35.9032H21.9259C21.9011 35.9032 21.8881 35.9155 21.8871 35.9403C21.852 36.7893 21.7047 37.6162 21.4453 38.4209C21.4391 38.4426 21.4469 38.4534 21.4686 38.4534Z" fill="#FF7048"/>
<path d="M32.2717 36.674L31.6408 38.4545C31.6233 38.505 31.5876 38.5302 31.5339 38.5302H30.7216C30.6669 38.5302 30.6302 38.5045 30.6116 38.453L30.0086 36.7513C29.9766 36.6616 29.9564 36.6647 29.9482 36.7606L29.7466 39.1918C29.7459 39.201 29.7418 39.2097 29.7352 39.216C29.7286 39.2223 29.7199 39.2258 29.711 39.2258H28.8631C28.8383 39.2258 28.8269 39.2134 28.829 39.1887L29.2553 35.2196C29.2615 35.1598 29.2945 35.13 29.3545 35.13H30.2179C30.2675 35.13 30.3011 35.1532 30.3186 35.1995C30.5904 35.8981 30.842 36.6235 31.0735 37.3757C31.0983 37.4581 31.1252 37.4586 31.1541 37.3772L31.9214 35.2103C31.94 35.1557 31.9782 35.1284 32.0361 35.1284L32.9026 35.1315C32.9605 35.1315 32.9925 35.1598 32.9987 35.2165L33.4219 39.1918C33.4239 39.2134 33.4141 39.2242 33.3924 39.2242L32.5445 39.2258C32.5339 39.2258 32.5237 39.2218 32.516 39.2147C32.5082 39.2075 32.5035 39.1976 32.5027 39.1871L32.2996 36.6786C32.2955 36.6343 32.2862 36.6328 32.2717 36.674Z" fill="#FF7048"/>
<path d="M36.2575 38.2211L35.2608 38.2242C35.2478 38.2241 35.2351 38.2283 35.2247 38.2361C35.2143 38.2439 35.2068 38.255 35.2034 38.2675L34.9508 39.1825C34.9473 39.195 34.9399 39.206 34.9295 39.2139C34.9191 39.2217 34.9064 39.2259 34.8934 39.2258L34.0781 39.2242C34.0689 39.2241 34.0599 39.2219 34.0518 39.2178C34.0437 39.2136 34.0366 39.2076 34.0312 39.2003C34.0258 39.1929 34.0221 39.1844 34.0206 39.1754C34.019 39.1664 34.0196 39.1572 34.0223 39.1485L35.2205 35.1732C35.2241 35.1613 35.2315 35.1508 35.2415 35.1433C35.2516 35.1357 35.2637 35.1316 35.2763 35.1315L36.2435 35.1284C36.2561 35.1285 36.2682 35.1327 36.2783 35.1402C36.2883 35.1477 36.2957 35.1582 36.2993 35.1702L37.4975 39.15C37.5002 39.1588 37.5008 39.168 37.4992 39.177C37.4977 39.186 37.494 39.1945 37.4886 39.2018C37.4832 39.2092 37.4762 39.2151 37.468 39.2193C37.4599 39.2235 37.4509 39.2257 37.4417 39.2258H36.6233C36.6103 39.2259 36.5976 39.2217 36.5872 39.2139C36.5768 39.206 36.5694 39.195 36.5659 39.1825L36.3148 38.2644C36.3114 38.2519 36.3039 38.2409 36.2935 38.233C36.2832 38.2252 36.2705 38.221 36.2575 38.2211ZM36.0296 37.4901C36.0372 37.4901 36.0447 37.4883 36.0515 37.485C36.0583 37.4817 36.0642 37.4769 36.0689 37.4709C36.0735 37.4649 36.0767 37.458 36.0782 37.4506C36.0798 37.4432 36.0796 37.4356 36.0777 37.4282L35.7987 36.3417C35.7964 36.3303 35.7903 36.32 35.7812 36.3127C35.7722 36.3054 35.7608 36.3015 35.7492 36.3017C35.7375 36.3019 35.7263 36.3061 35.7175 36.3137C35.7087 36.3213 35.7029 36.3318 35.701 36.3432L35.4499 37.4282C35.4483 37.4355 35.4483 37.4429 35.4499 37.4501C35.4516 37.4573 35.4549 37.4641 35.4595 37.4698C35.4641 37.4756 35.4699 37.4803 35.4766 37.4835C35.4832 37.4868 35.4905 37.4885 35.4979 37.4885L36.0296 37.4901Z" fill="#FF7048"/>
<path d="M42.0368 38.4008V35.1829C42.0368 35.169 42.0424 35.1556 42.0522 35.1458C42.0621 35.1359 42.0755 35.1304 42.0895 35.1304H42.9141C42.9211 35.1304 42.9279 35.1317 42.9343 35.1344C42.9407 35.137 42.9465 35.1409 42.9514 35.1458C42.9563 35.1506 42.9602 35.1564 42.9628 35.1628C42.9655 35.1692 42.9668 35.176 42.9668 35.1829V39.1736C42.9668 39.1805 42.9655 39.1873 42.9628 39.1937C42.9602 39.2001 42.9563 39.2059 42.9514 39.2108C42.9465 39.2157 42.9407 39.2195 42.9343 39.2222C42.9279 39.2248 42.9211 39.2262 42.9141 39.2262H38.3693C38.3553 39.2262 38.3419 39.2206 38.3321 39.2108C38.3222 39.2009 38.3166 39.1876 38.3166 39.1736V35.1829C38.3166 35.169 38.3222 35.1556 38.3321 35.1458C38.3419 35.1359 38.3553 35.1304 38.3693 35.1304H39.194C39.2079 35.1304 39.2213 35.1359 39.2312 35.1458C39.2411 35.1556 39.2467 35.169 39.2467 35.1829L39.2451 38.4008C39.2451 38.4148 39.2507 38.4281 39.2606 38.438C39.2704 38.4478 39.2838 38.4534 39.2978 38.4534H40.124C40.1309 38.4534 40.1378 38.452 40.1442 38.4494C40.1506 38.4467 40.1564 38.4429 40.1613 38.438C40.1662 38.4331 40.17 38.4273 40.1727 38.4209C40.1753 38.4146 40.1767 38.4077 40.1767 38.4008V35.1829C40.1767 35.169 40.1823 35.1556 40.1921 35.1458C40.202 35.1359 40.2154 35.1304 40.2294 35.1304H41.054C41.068 35.1304 41.0814 35.1359 41.0913 35.1458C41.1012 35.1556 41.1068 35.169 41.1068 35.1829L41.1052 38.4008C41.1052 38.4077 41.1066 38.4146 41.1092 38.4209C41.1119 38.4273 41.1157 38.4331 41.1206 38.438C41.1255 38.4429 41.1313 38.4467 41.1377 38.4494C41.1441 38.452 41.151 38.4534 41.1579 38.4534H41.9841C41.9981 38.4534 42.0115 38.4478 42.0214 38.438C42.0312 38.4281 42.0368 38.4148 42.0368 38.4008Z" fill="#FF7048"/>
<path d="M44.9829 37.589L44.986 39.1593C44.986 39.1773 44.9788 39.1946 44.9661 39.2074C44.9533 39.2201 44.9359 39.2273 44.9178 39.2273L44.1226 39.2242C44.1046 39.2242 44.0872 39.217 44.0744 39.2043C44.0616 39.1915 44.0544 39.1742 44.0544 39.1562V35.198C44.0544 35.1799 44.0616 35.1626 44.0744 35.1499C44.0872 35.1371 44.1046 35.13 44.1226 35.13H44.9163C44.9344 35.13 44.9517 35.1371 44.9645 35.1499C44.9773 35.1626 44.9845 35.1799 44.9845 35.198V36.6848C44.9845 36.7029 44.9917 36.7202 45.0045 36.7329C45.0173 36.7457 45.0346 36.7528 45.0527 36.7528L46.1176 36.7544C46.1357 36.7544 46.153 36.7472 46.1658 36.7345C46.1786 36.7217 46.1858 36.7044 46.1858 36.6864V35.198C46.1858 35.1799 46.193 35.1626 46.2058 35.1499C46.2186 35.1371 46.2359 35.13 46.254 35.13L47.043 35.1284C47.0611 35.1284 47.0784 35.1356 47.0912 35.1483C47.104 35.1611 47.1112 35.1784 47.1112 35.1964L47.1096 39.1485C47.1096 39.1663 47.1027 39.1833 47.0902 39.196C47.0778 39.2087 47.0608 39.2161 47.043 39.2165L46.2586 39.2273C46.2496 39.2275 46.2405 39.2259 46.2321 39.2226C46.2236 39.2193 46.2159 39.2143 46.2094 39.2079C46.2029 39.2016 46.1978 39.194 46.1942 39.1857C46.1907 39.1773 46.1889 39.1684 46.1889 39.1593L46.1827 37.5983C46.1827 37.5802 46.1755 37.5629 46.1627 37.5502C46.1499 37.5374 46.1326 37.5303 46.1145 37.5303L45.0511 37.521C45.0331 37.521 45.0157 37.5281 45.0029 37.5409C44.9901 37.5537 44.9829 37.571 44.9829 37.589Z" fill="#FF7048"/>
<path d="M49.1257 37.5755L49.1304 38.3637C49.1304 38.3773 49.1358 38.3902 49.1454 38.3998C49.155 38.4094 49.168 38.4147 49.1815 38.4147H50.665C50.6785 38.4147 50.6915 38.4201 50.7011 38.4297C50.7107 38.4392 50.7161 38.4522 50.7161 38.4657V39.1767C50.7161 39.1902 50.7107 39.2032 50.7011 39.2128C50.6915 39.2223 50.6785 39.2277 50.665 39.2277L48.2484 39.2215C48.2348 39.2215 48.2218 39.2162 48.2122 39.2066C48.2026 39.197 48.1972 39.1841 48.1972 39.1705V35.1814C48.1972 35.1678 48.2026 35.1549 48.2122 35.1453C48.2218 35.1357 48.2348 35.1304 48.2484 35.1304H50.6278C50.6413 35.1304 50.6543 35.1357 50.6639 35.1453C50.6735 35.1549 50.6789 35.1678 50.6789 35.1814L50.6758 35.8522C50.6758 35.8657 50.6704 35.8787 50.6608 35.8882C50.6512 35.8978 50.6382 35.9032 50.6246 35.9032H49.1784C49.1649 35.9032 49.1519 35.9085 49.1423 35.9181C49.1327 35.9277 49.1273 35.9406 49.1273 35.9542V36.7424C49.1273 36.7559 49.1327 36.7689 49.1423 36.7785C49.1519 36.788 49.1649 36.7934 49.1784 36.7934L50.358 36.7903C50.3716 36.7903 50.3846 36.7957 50.3942 36.8053C50.4038 36.8148 50.4092 36.8278 50.4092 36.8413L50.4045 37.475C50.4045 37.4885 50.3992 37.5015 50.3896 37.5111C50.38 37.5207 50.367 37.526 50.3534 37.526L49.1769 37.5245C49.1633 37.5245 49.1503 37.5299 49.1407 37.5394C49.1311 37.549 49.1257 37.562 49.1257 37.5755Z" fill="#FF7048"/>
<path d="M52.6172 37.3205C52.6172 37.3988 52.6384 37.405 52.6807 37.339L54.02 35.2107C54.0357 35.1861 54.0574 35.1659 54.0831 35.1518C54.1089 35.1378 54.1378 35.1304 54.1673 35.1304H54.7485C54.8002 35.1314 54.826 35.1572 54.826 35.2077V39.1489C54.826 39.2004 54.8002 39.2262 54.7485 39.2262H53.9735C53.9529 39.2262 53.9332 39.218 53.9187 39.2035C53.9042 39.189 53.896 39.1694 53.896 39.1489V37.0747C53.896 36.9974 53.8753 36.9918 53.834 37.0577L52.5133 39.1412C52.4966 39.1673 52.4735 39.1887 52.4461 39.2036C52.4188 39.2184 52.388 39.2262 52.3568 39.2262H51.8034C51.7517 39.2262 51.7259 39.2004 51.7259 39.1489V35.1876C51.7259 35.1494 51.7455 35.1304 51.7848 35.1304H52.5784C52.6043 35.1304 52.6172 35.1433 52.6172 35.169V37.3205Z" fill="#FF7048"/>
<path d="M58.5063 37.526C58.496 37.526 58.4862 37.5301 58.4789 37.5373C58.4716 37.5446 58.4676 37.5544 58.4676 37.5647L58.466 38.3745C58.466 38.3852 58.4701 38.3954 58.4774 38.403C58.4846 38.4105 58.4945 38.4147 58.5048 38.4147H60.0176C60.0276 38.4151 60.0371 38.4194 60.044 38.4266C60.051 38.4338 60.0548 38.4434 60.0548 38.4534L60.0564 39.1875C60.0564 39.2133 60.0435 39.2262 60.0176 39.2262H57.6538C57.5763 39.2262 57.5375 39.1875 57.5375 39.1102V35.2077C57.5375 35.1561 57.5633 35.1304 57.615 35.1304H59.9789C60.0047 35.1304 60.0176 35.1433 60.0176 35.169V35.8614C60.0176 35.8725 60.0132 35.8831 60.0054 35.8909C59.9975 35.8988 59.9869 35.9032 59.9758 35.9032C59.488 35.9032 58.9997 35.9026 58.511 35.9016C58.4994 35.9016 58.4884 35.9062 58.4803 35.9143C58.4721 35.9224 58.4676 35.9334 58.4676 35.9449C58.4676 35.948 58.4676 36.2174 58.4676 36.7532C58.4676 36.7635 58.4716 36.7733 58.4789 36.7806C58.4862 36.7878 58.496 36.7919 58.5063 36.7919H59.7076C59.7324 36.7919 59.7448 36.8048 59.7448 36.8305L59.7464 37.4874C59.7464 37.5131 59.7334 37.526 59.7076 37.526H58.5063Z" fill="#FF7048"/>
<path d="M63.7816 39.2262H61.6285C61.5644 39.2262 61.5324 39.2586 61.5324 39.3235V39.7269C61.5324 39.831 61.4807 39.8897 61.3774 39.9031L60.8147 39.982C60.7248 39.9943 60.6799 39.9552 60.6799 39.8645V38.5353C60.6799 38.4735 60.7109 38.4477 60.7729 38.458C61.0033 38.4961 61.1568 38.3946 61.2332 38.1535C61.5557 37.1334 61.7065 36.1628 61.6859 35.2417C61.6838 35.1675 61.72 35.1304 61.7944 35.1304H64.245C64.2967 35.1304 64.3225 35.1561 64.3225 35.2077V38.3545C64.3225 38.4173 64.3541 38.4498 64.4171 38.4518L64.6341 38.4565C64.7106 38.4575 64.7488 38.4961 64.7488 38.5724V39.7872C64.7487 39.814 64.7388 39.8398 64.7211 39.8598C64.7034 39.8797 64.6791 39.8924 64.6527 39.8954L63.9691 39.982C63.9175 39.9881 63.8921 39.966 63.8932 39.9155L63.8978 39.3436C63.8989 39.2653 63.8601 39.2262 63.7816 39.2262ZM62.1121 38.4534H63.3537C63.364 38.4534 63.3739 38.4493 63.3811 38.4421C63.3884 38.4348 63.3925 38.425 63.3925 38.4147V35.9418C63.3925 35.9311 63.3884 35.9209 63.3811 35.9134C63.3739 35.9059 63.364 35.9016 63.3537 35.9016L62.5787 35.9032C62.5673 35.9031 62.5563 35.9074 62.548 35.9152C62.5396 35.9229 62.5345 35.9335 62.5338 35.9449C62.4914 36.7785 62.3421 37.6023 62.0858 38.4163C62.0786 38.441 62.0873 38.4534 62.1121 38.4534Z" fill="#FF7048"/>
<path d="M66.5377 36.6435C66.8756 36.6373 67.2522 36.5909 67.5654 36.7331C68.8225 37.305 68.5031 39.1813 67.0569 39.2169C66.5733 39.2293 66.0881 39.2323 65.6014 39.2262C65.5466 39.2251 65.5193 39.1973 65.5193 39.1427V35.169C65.5193 35.1433 65.5322 35.1304 65.558 35.1304L66.4105 35.1319C66.4364 35.1319 66.4493 35.1443 66.4493 35.169V36.5569C66.4493 36.6146 66.4788 36.6435 66.5377 36.6435ZM66.4509 37.4503L66.4477 38.4055C66.4477 38.4178 66.4527 38.4296 66.4614 38.4382C66.4701 38.4469 66.4819 38.4518 66.4942 38.4518L66.9515 38.4534C67.0752 38.4537 67.1941 38.4009 67.2818 38.3064C67.3696 38.2119 67.4192 38.0835 67.4196 37.9495V37.9124C67.4199 37.846 67.408 37.7803 67.3848 37.7189C67.3615 37.6574 67.3273 37.6016 67.2841 37.5545C67.241 37.5075 67.1896 37.4701 67.1331 37.4445C67.0765 37.4189 67.0159 37.4057 66.9546 37.4055L66.4974 37.4039C66.485 37.4039 66.4732 37.4088 66.4645 37.4175C66.4557 37.4262 66.4509 37.438 66.4509 37.4503Z" fill="#FF7048"/>
<path d="M69.5765 35.1304H68.7549C68.725 35.1304 68.7007 35.1546 68.7007 35.1845V39.1721C68.7007 39.2019 68.725 39.2262 68.7549 39.2262H69.5765C69.6064 39.2262 69.6307 39.2019 69.6307 39.1721V35.1845C69.6307 35.1546 69.6064 35.1304 69.5765 35.1304Z" fill="#FF7048"/>
</svg>
