<svg width="26" height="23" viewBox="0 0 26 23" fill="none" xmlns="http://www.w3.org/2000/svg">
<path d="M10.8011 0.827499C10.9474 0.593331 10.8762 0.284856 10.6421 0.138501C10.4079 -0.00785434 10.0994 0.0633323 9.95308 0.297501L10.8011 0.827499ZM16.2816 0.317369C16.1462 0.0766904 15.8414 -0.00866967 15.6007 0.126712C15.36 0.262094 15.2747 0.566952 15.41 0.807631L16.2816 0.317369ZM24.9429 11.8725L24.4629 11.7325L24.9429 11.8725ZM22.2815 20.9975L21.8015 20.8575L22.2815 20.9975ZM5.37613 22.9375H20.3615V21.9375H5.37613V22.9375ZM22.7614 21.1375L25.4229 12.0125L24.4629 11.7325L21.8015 20.8575L22.7614 21.1375ZM0.669522 11.9188L2.95077 21.0438L3.92091 20.8013L1.63966 11.6763L0.669522 11.9188ZM4.90833 8.8125H3.09488V9.8125H4.90833V8.8125ZM5.33232 9.5775L10.8011 0.827499L9.95308 0.297501L4.48433 9.0475L5.33232 9.5775ZM23.0229 8.8125H20.7677V9.8125H23.0229V8.8125ZM20.7677 8.8125H4.90833V9.8125H20.7677V8.8125ZM21.2035 9.06737L16.2816 0.317369L15.41 0.807631L20.3319 9.55763L21.2035 9.06737ZM1.63966 11.6763C1.40298 10.7296 2.11902 9.8125 3.09488 9.8125V8.8125C1.46845 8.8125 0.275055 10.341 0.669522 11.9188L1.63966 11.6763ZM25.4229 12.0125C25.8896 10.4125 24.6896 8.8125 23.0229 8.8125V9.8125C24.0229 9.8125 24.7429 10.7725 24.4629 11.7325L25.4229 12.0125ZM20.3615 22.9375C21.4726 22.9375 22.4503 22.2042 22.7614 21.1375L21.8015 20.8575C21.6148 21.4975 21.0281 21.9375 20.3615 21.9375V22.9375ZM5.37613 21.9375C4.68783 21.9375 4.08785 21.4691 3.92091 20.8013L2.95077 21.0438C3.229 22.1568 4.22896 22.9375 5.37613 22.9375V21.9375Z" fill="white"/>
<path d="M8.18951 13.6875V18.0625M18.0333 13.6875V18.0625" stroke="white" stroke-linecap="round"/>
</svg>
