<svg width="25" height="25" viewBox="0 0 25 25" fill="none" xmlns="http://www.w3.org/2000/svg">
<path d="M6.62939 1.35899L6.62938 1.35898C6.43559 1.10999 6.19111 0.905039 5.91213 0.757699C5.63316 0.610359 5.32606 0.523996 5.01119 0.50433C4.69632 0.484664 4.38086 0.532145 4.08573 0.643627C3.79066 0.755082 3.52264 0.927964 3.29942 1.15082C3.29936 1.15088 3.29931 1.15093 3.29926 1.15098L1.68395 2.76642C0.647302 3.80314 0.209195 5.3355 0.703697 6.74262C2.12969 10.7945 4.4495 14.4734 7.49107 17.5064L7.49208 17.5074C10.5253 20.5495 14.2045 22.8695 18.2568 24.2954L18.2569 24.2954C19.6652 24.7913 21.1958 24.3533 22.2324 23.3166L23.848 21.7009L23.8482 21.7006C24.7944 20.7557 24.698 19.1926 23.6398 18.3692C23.6398 18.3692 23.6398 18.3691 23.6398 18.3691L20.037 15.5661C19.7705 15.359 19.4605 15.2152 19.1302 15.1455C18.8 15.0759 18.4583 15.0823 18.1308 15.1641L18.1308 15.1641L14.7109 16.0188L6.62939 1.35899ZM6.62939 1.35899L9.43387 4.96212M6.62939 1.35899L9.43387 4.96212M9.43387 4.96212C9.43391 4.96217 9.43394 4.96223 9.43398 4.96228L9.43387 4.96212Z" stroke="white"/>
</svg>
