<svg width="28" height="23" viewBox="0 0 28 23" fill="none" xmlns="http://www.w3.org/2000/svg">
<path d="M2.10125 10.4387L2.10854 10.436L2.11574 10.433C9.63256 7.32801 14.6408 5.28275 17.1442 4.29556C20.726 2.88308 22.8777 2.05872 24.2536 1.58533C25.6375 1.10922 26.1872 1.00678 26.5868 1.0001C26.6561 0.998945 26.7886 1.00707 26.9316 1.03947C27.0785 1.07272 27.1974 1.12282 27.2726 1.18067C27.3828 1.26546 27.4246 1.38131 27.4524 1.53518C27.4813 1.69551 27.518 2.08003 27.4901 2.35871C27.1047 6.19717 25.4305 15.5552 24.576 19.8862C24.2274 21.6527 23.6043 21.961 23.261 21.991C22.652 22.0441 22.0967 21.8586 21.488 21.5195C21.1818 21.349 20.8723 21.1455 20.5389 20.921C20.4843 20.8842 20.429 20.8469 20.3731 20.8091C20.0923 20.6192 19.7948 20.4181 19.4841 20.225C18.3533 19.5223 17.4686 18.9522 16.5895 18.3847L16.4729 18.3094C15.6326 17.7668 14.7873 17.2211 13.7312 16.5613C13.1192 16.1789 12.8319 15.8815 12.7131 15.6658C12.6168 15.4908 12.6212 15.3564 12.6992 15.188C12.7946 14.9816 12.9963 14.744 13.312 14.4394C13.448 14.3082 13.5949 14.174 13.7528 14.0296C13.7732 14.011 13.7936 13.9923 13.8143 13.9734C13.9935 13.8094 14.184 13.6341 14.3725 13.4485C14.4557 13.3665 14.8711 13.0005 15.4658 12.4765C16.151 11.8727 17.0742 11.0592 18.0018 10.2286C18.859 9.46112 19.7121 8.68577 20.3602 8.06852C20.6835 7.76057 20.961 7.4871 21.1638 7.27134C21.2646 7.16413 21.3532 7.06456 21.4215 6.97826C21.4554 6.93532 21.4896 6.88904 21.519 6.84208C21.5429 6.80399 21.5877 6.72843 21.6112 6.63343C21.6361 6.53292 21.6452 6.38938 21.6224 6.2435C21.5993 6.09549 21.5309 5.86972 21.3281 5.69883C21.1316 5.53323 20.9076 5.49726 20.7464 5.49607C20.5918 5.49492 20.4477 5.52593 20.3696 5.54275L20.3669 5.54332C20.283 5.56138 20.2012 5.60246 20.1692 5.61853L20.1656 5.62033C20.1147 5.64585 20.0529 5.6793 19.9827 5.7187C19.8414 5.79801 19.6486 5.9114 19.4064 6.05732C18.921 6.34971 18.2241 6.78058 17.3171 7.34894C15.5025 8.48608 12.8389 10.1786 9.32728 12.4261L9.32728 12.426L9.32401 12.4282C8.34167 13.0677 7.50881 13.3408 6.81102 13.3265C6.40833 13.3182 5.78034 13.2064 5.06096 13.0354C4.35256 12.867 3.59184 12.6502 2.94023 12.4494C2.72961 12.3844 2.53015 12.3249 2.34211 12.2688C1.77583 12.0999 1.31311 11.9618 0.96115 11.8002C0.73168 11.6948 0.607883 11.6037 0.547363 11.5332C0.504772 11.4836 0.494231 11.4492 0.502469 11.3869C0.503399 11.3799 0.531152 11.2643 0.817809 11.0624C1.08768 10.8724 1.50797 10.6624 2.10125 10.4387Z" stroke="white"/>
</svg>
