<svg width="23" height="25" viewBox="0 0 23 25" fill="none" xmlns="http://www.w3.org/2000/svg">
<path fill-rule="evenodd" clip-rule="evenodd" d="M8.51555 6.50942C8.29454 6.02239 8.0622 6.0112 7.85253 6.0056C7.68253 6 7.48419 6 7.28585 6C7.08751 6 6.77017 6.07277 6.49816 6.36387C6.22615 6.65497 5.4668 7.36033 5.4668 8.79903C5.4668 10.2321 6.52649 11.6205 6.67383 11.8164C6.82117 12.0123 8.71955 15.0521 11.7173 16.2221C14.2107 17.1961 14.7207 17.0002 15.2591 16.9498C15.7974 16.8994 17.0045 16.2445 17.2538 15.5615C17.4975 14.8785 17.4975 14.2963 17.4238 14.1732C17.3501 14.05 17.1518 13.9772 16.8571 13.8317C16.5624 13.6861 15.1117 12.9808 14.8397 12.88C14.5677 12.7849 14.3694 12.7345 14.1767 13.0256C13.9784 13.3167 13.4117 13.9716 13.2417 14.1676C13.0717 14.3635 12.896 14.3859 12.6013 14.2404C12.3067 14.0948 11.3546 13.7869 10.2269 12.7905C9.34857 12.0179 8.75356 11.0607 8.58355 10.7696C8.41355 10.4785 8.56655 10.3217 8.71389 10.1762C8.84422 10.0474 9.00856 9.83468 9.1559 9.66673C9.30324 9.49879 9.35424 9.37564 9.45057 9.1797C9.54691 8.98377 9.50158 8.81583 9.42791 8.67028C9.35424 8.53033 8.77622 7.08603 8.51555 6.50942Z" fill="white"/>
<mask id="path-2-inside-1_309_22" fill="white">
<path fill-rule="evenodd" clip-rule="evenodd" d="M11.5 23.0045C17.8513 23.0045 23 17.8558 23 11.5045C23 5.15324 17.8513 0.0045166 11.5 0.0045166C5.14873 0.0045166 0 5.15324 0 11.5045C0 13.268 0.396934 14.9388 1.10633 16.4324C1.19405 16.617 1.22989 16.8227 1.20181 17.0252L0.254682 23.8558C0.13915 24.689 1.04132 25.2838 1.76163 24.8494L6.16118 22.1962C6.44713 22.0237 6.7991 22.0083 7.10768 22.1359C8.46099 22.6957 9.94443 23.0045 11.5 23.0045Z"/>
</mask>
<path d="M7.10768 22.1359L7.48988 21.2118L7.10768 22.1359ZM0.254682 23.8558L-0.735841 23.7184L0.254682 23.8558ZM1.10633 16.4324L2.00962 16.0033L1.10633 16.4324ZM22 11.5045C22 17.3035 17.299 22.0045 11.5 22.0045V24.0045C18.4036 24.0045 24 18.4081 24 11.5045H22ZM11.5 1.00452C17.299 1.00452 22 5.70553 22 11.5045H24C24 4.60096 18.4036 -0.995483 11.5 -0.995483V1.00452ZM1 11.5045C1 5.70553 5.70101 1.00452 11.5 1.00452V-0.995483C4.59644 -0.995483 -1 4.60096 -1 11.5045H1ZM2.00962 16.0033C1.36255 14.641 1 13.1165 1 11.5045H-1C-1 13.4195 -0.568685 15.2366 0.20304 16.8614L2.00962 16.0033ZM1.24521 23.9931L2.19233 17.1626L0.211285 16.8879L-0.735841 23.7184L1.24521 23.9931ZM5.64475 21.3399L1.2452 23.9931L2.27806 25.7058L6.67761 23.0525L5.64475 21.3399ZM11.5 22.0045C10.0779 22.0045 8.72413 21.7223 7.48988 21.2118L6.72547 23.06C8.19786 23.669 9.811 24.0045 11.5 24.0045V22.0045ZM6.67761 23.0525C6.6752 23.054 6.67618 23.0523 6.68417 23.0518C6.69305 23.0513 6.70782 23.0527 6.72547 23.06L7.48988 21.2118C6.91184 20.9728 6.22389 20.9906 5.64475 21.3399L6.67761 23.0525ZM-0.735841 23.7184C-0.966904 25.3848 0.837428 26.5746 2.27806 25.7058L1.2452 23.9931H1.24521L-0.735841 23.7184ZM0.20304 16.8614C0.213221 16.8828 0.210659 16.8924 0.211285 16.8879L2.19233 17.1626C2.24912 16.753 2.17487 16.3512 2.00962 16.0033L0.20304 16.8614Z" fill="white" mask="url(#path-2-inside-1_309_22)"/>
</svg>
